<svg id="Layer_1" data-name="Layer 1" xmlns="http://www.w3.org/2000/svg" viewBox="0 0 339.45 280.46"><defs><style>.cls-1,.cls-19{fill:#ffdbc4;}.cls-1,.cls-12,.cls-14,.cls-15,.cls-16,.cls-17,.cls-18,.cls-2,.cls-20,.cls-21,.cls-22,.cls-23,.cls-24,.cls-3,.cls-5,.cls-6,.cls-7,.cls-8,.cls-9{fill-rule:evenodd;}.cls-2{fill:#cc2b22;}.cls-11,.cls-20,.cls-23,.cls-3,.cls-4,.cls-7{fill:none;}.cls-3,.cls-4{stroke:#fff;stroke-width:0.57px;}.cls-11,.cls-20,.cls-23,.cls-3,.cls-4{stroke-linecap:round;stroke-linejoin:round;}.cls-10,.cls-5{fill:#fff;}.cls-6{fill:#2c7594;}.cls-7{stroke:#1e5d78;stroke-miterlimit:22.93;stroke-width:1.2px;}.cls-8{fill:#ffc19a;}.cls-9{fill:#44494c;}.cls-11{stroke:#b3bfc7;}.cls-11,.cls-23{stroke-width:2.4px;}.cls-12{fill:#e93d33;}.cls-13,.cls-18{fill:#38413e;}.cls-14,.cls-25{fill:#e6e6e6;}.cls-15{fill:#656e6b;}.cls-16{fill:#d99446;}.cls-17{fill:#fab361;}.cls-20{stroke:#ffdbc4;stroke-width:6px;}.cls-21{fill:#9effff;}.cls-22{fill:#cfffff;}.cls-23{stroke:#6d7478;}.cls-24{fill:#aaacad;}</style></defs><title>moto</title><path class="cls-1" d="M706.82,508.92l1.58-10.41,15.17,1-1.08,7.3s-1.91,8.29-8.06,7.8S705.66,514.66,706.82,508.92Z" transform="translate(-504 -310.8)"/><path class="cls-2" d="M707,506.63c-3.74,3.65-3.62,7.71-1.65,11.9h37.4c1.35-6.28-13.78-11.22-20.32-11.43C718.91,511.13,710.73,511.59,707,506.63Z" transform="translate(-504 -310.8)"/><path class="cls-3" d="M725.63,507.47c-3.53.58-3.68,2.13-2.38,3S725.27,509.14,725.63,507.47Z" transform="translate(-504 -310.8)"/><line class="cls-4" x1="223.07" y1="196.95" x2="224.53" y2="199.53"/><path class="cls-5" d="M704.29,515.67a15.47,15.47,0,0,0,1,2.86h37.4a4,4,0,0,0-.5-2.86Z" transform="translate(-504 -310.8)"/><path class="cls-6" d="M671.44,434.17l52.65,9.54c6.22,1.13,8.68,9.55,8,15.25l-4.71,42.3a24.62,24.62,0,0,1-19.86,0l4.64-42.7H658.9s-16-1.05-15-13.59S671.44,434.17,671.44,434.17Z" transform="translate(-504 -310.8)"/><path class="cls-7" d="M661.57,439.67c8,5.86,22.51,8.21,22.51,8.21l33.69,5.19a5.64,5.64,0,0,1,5,6.3l-5.44,44" transform="translate(-504 -310.8)"/><path class="cls-8" d="M664.05,354.27l14.38,4-5,19c-2.34,9-16.68,4.78-14.38-4Z" transform="translate(-504 -310.8)"/><path class="cls-1" d="M667.47,314.93c-28.26.15-26.37,29.2-12,44.74,5.65,6.1,19.26,8.86,26.28,8.86,3.74-.21,4.9-2.17,6.24-6.44.19-.61,2.54-.85,1-2.71,1.85-.73.52-2,.61-2.61C692,341.06,683.71,314.85,667.47,314.93Z" transform="translate(-504 -310.8)"/><path class="cls-9" d="M667.05,310.8A27.16,27.16,0,0,1,694.21,338H667.05V358c-3.69,3.29-10.6,5.46-14.88,2.65a27.16,27.16,0,0,1,14.88-49.88Z" transform="translate(-504 -310.8)"/><path class="cls-10" d="M694.21,335.23a2.73,2.73,0,1,1,0,5.46l-22.25,2L669.78,355a8.16,8.16,0,0,1-1.2,4.22c-3.74,6.3-14.22,8.71-20.43,5a2.72,2.72,0,1,1,2.77-4.69c3.63,2.16,10.78.58,13-3.1a2.84,2.84,0,0,0,.44-1.45l2.18-15a2.72,2.72,0,0,1,2.72-2.72Z" transform="translate(-504 -310.8)"/><path class="cls-11" d="M646.44,332.46A21.91,21.91,0,0,1,661.77,317" transform="translate(-504 -310.8)"/><path class="cls-1" d="M689.22,346c2.55,5.17,5.67,10.23-1.28,10S684.53,345.3,689.22,346Z" transform="translate(-504 -310.8)"/><path class="cls-9" d="M683.89,349c.69,0,1.25-1.39,1.25-3.1s-.56-3.11-1.25-3.11-1.25,1.4-1.25,3.11S683.2,349,683.89,349Z" transform="translate(-504 -310.8)"/><path class="cls-8" d="M689.27,359.76l-.24-.38h0a20.46,20.46,0,0,1-3.58-.27.14.14,0,0,0-.09,0C686.34,359.65,688.28,360.18,689.27,359.76Z" transform="translate(-504 -310.8)"/><path class="cls-12" d="M645.81,452.54c13.64,4,31.76-8,33.13-17-10.09-12.15-6.79-45.74-3.8-58.71a22.88,22.88,0,0,1-15.5-7.22C643.2,390.18,632.74,443.34,645.81,452.54Z" transform="translate(-504 -310.8)"/><path class="cls-2" d="M664.07,450.4c7.79-3.54,14.08-9.69,14.87-14.89-9.75-11.74-7-43.45-4.11-57.29-8.91-.7-16.86.81-17.88,6.3-1.83,9.74,1.46,22.76,6.68,28.25,4.57,4.8,3.38,11.33,3,16.63s-20.36,18.74-10.18,13.85,10.18-11,11.81-8.15-6.51,11.82-11.4,15.08,6.92-2.45,13-6.52C675.73,439.74,669.2,446.18,664.07,450.4Z" transform="translate(-504 -310.8)"/><rect class="cls-13" x="748.06" y="429.1" width="13.82" height="13.82" transform="translate(-618.1 55.87) rotate(-25.45)"/><path class="cls-9" d="M805.46,523.43q-1.08-.06-2.13-.06v16.51c.36,0,.72,0,1.09,0a17.43,17.43,0,0,1-1.09,34.83v16.51a33.95,33.95,0,0,0,2.13-67.83Zm-2.13-.06a33.94,33.94,0,0,0-2.14,67.82c.72,0,1.43.07,2.14.07V574.75c-.37,0-.73,0-1.1,0a17.43,17.43,0,0,1,1.1-34.83Z" transform="translate(-504 -310.8)"/><path class="cls-14" d="M804.76,534.62c-.48,0-1,0-1.43,0v5.31c.36,0,.72,0,1.09,0a17.43,17.43,0,0,1-1.09,34.83v5.31a22.74,22.74,0,0,0,1.43-45.44Zm-1.43,0A22.74,22.74,0,0,0,801.9,580c.48,0,1,0,1.43,0v-5.31c-.37,0-.73,0-1.1,0a17.43,17.43,0,0,1,1.1-34.83Z" transform="translate(-504 -310.8)"/><polygon class="cls-14" points="282.54 233.85 281.06 236.08 296.64 246.44 279.96 254.72 281.16 257.12 297.92 248.8 296.75 267.38 299.43 267.55 300.6 248.87 316.11 259.18 317.6 256.95 302.01 246.59 318.69 238.31 317.5 235.91 300.73 244.23 301.9 225.65 299.23 225.48 298.05 244.15 282.54 233.85"/><path class="cls-5" d="M804.1,545.05a12.28,12.28,0,1,0,11.49,13A12.29,12.29,0,0,0,804.1,545.05Z" transform="translate(-504 -310.8)"/><path class="cls-15" d="M793.26,533.47l-1.41.64a.62.62,0,0,0-.3.81l7.18,15.6a.62.62,0,0,0,.81.3l1.41-.65a.6.6,0,0,0,.3-.8l-7.18-15.6A.62.62,0,0,0,793.26,533.47Z" transform="translate(-504 -310.8)"/><path class="cls-16" d="M798.34,542.37l-3,1.38a1.3,1.3,0,0,0-.64,1.72l11.78,25.69a1.3,1.3,0,0,0,1.72.64l3-1.37a1.31,1.31,0,0,0,.64-1.73L800.06,543A1.3,1.3,0,0,0,798.34,542.37Z" transform="translate(-504 -310.8)"/><path class="cls-17" d="M790.57,511.5c-28.32,7.68-25.27,22.89-28.48,40.39l81.36-15.62C839.15,519.4,818.88,503.83,790.57,511.5Z" transform="translate(-504 -310.8)"/><path class="cls-17" d="M751.81,402.51l15.9.52c6,7.16,6.48,15,.91,23.7,0,1.14-.74,1.43-2.25,2.26l-15.25,8.51V402.94l.69-.43Zm-.69,146.87h1.21c8.78.67,17.61-6.55,22.45-13.91l24.78-37.62c10-15.16-6.07-49.22-26.86-67.48-1.75-1.54-3.3-1.64-5.56-.09l-16,8.9v22.43l12.15,25.9L757,509a13.22,13.22,0,0,1-5.85,7.48Zm0-111.88-5.77,3.22c-1.37.76-3.9.27-4.57-1.15l-11-23.57,21.39-13.06V437.5Zm0,1.68-5.31,2.95c-1.39.78-2.4,3-1.73,4.48l7,15V439.18Zm0,77.26v32.94H691c-5.23,0-10.33-4.44-14.2-8L656.46,522.9l-88.49.25c1.85-25.15,21.19-53.51,30.36-52.77l102,8.27-4,19.57c-2,9.67,1.57,19.64,9,20.31h37.4A13.94,13.94,0,0,0,751.12,516.44Z" transform="translate(-504 -310.8)"/><path class="cls-18" d="M751.81,402.51l15.9.52c6,7.16,6.48,15,.91,23.7C761.88,420.81,766.62,410.77,751.81,402.51Z" transform="translate(-504 -310.8)"/><path class="cls-15" d="M607.73,545.05a12.29,12.29,0,1,0,13,11.48A12.3,12.3,0,0,0,607.73,545.05Z" transform="translate(-504 -310.8)"/><path class="cls-9" d="M608.51,591.26c.72,0,1.44,0,2.17-.07a33.94,33.94,0,0,0-2.17-67.82v16.51a17.43,17.43,0,0,1,1.11,34.83c-.37,0-.74,0-1.11,0Zm-2.16-67.82a33.94,33.94,0,0,0,2.16,67.82V574.75a17.43,17.43,0,0,1-1.11-34.83c.38,0,.75,0,1.11,0V523.37C607.8,523.37,607.08,523.39,606.35,523.44Z" transform="translate(-504 -310.8)"/><path class="cls-14" d="M608.51,580.06c.48,0,1,0,1.45,0a22.74,22.74,0,0,0-1.45-45.44v5.31a17.43,17.43,0,0,1,1.11,34.83c-.37,0-.74,0-1.11,0Zm-1.44-45.44a22.74,22.74,0,0,0,1.44,45.44v-5.31a17.43,17.43,0,0,1-1.11-34.83c.38,0,.75,0,1.11,0v-5.31C608,534.57,607.55,534.59,607.07,534.62Z" transform="translate(-504 -310.8)"/><polygon class="cls-14" points="86.26 236.07 85.07 238.47 101.84 246.78 86.34 257.1 87.83 259.33 103.41 248.96 104.59 267.54 107.27 267.37 106.08 248.69 122.76 256.96 123.95 254.56 107.18 246.25 122.69 235.93 121.2 233.7 105.62 244.07 104.43 225.49 101.76 225.66 102.95 244.33 86.26 236.07"/><path class="cls-18" d="M790.57,511.5c-5.14,10.78-21.12,43.68-37.89,44.7H686.34c-5.23,0-10.3-3.18-14.66-6.27L654.16,537h-82c3.85-6.9,6.59-10,12.75-13.94l71.59-.2,15.78,13.88c3.93,3.46,11.48,11.83,18.8,12.6h61.29C761.08,549.38,784.66,520.47,790.57,511.5Z" transform="translate(-504 -310.8)"/><rect class="cls-13" x="740.85" y="390.13" width="1.94" height="20.88" transform="translate(-528.04 -262.67) rotate(-3.66)"/><rect class="cls-13" x="738.85" y="384.72" width="4.27" height="5.44" rx="1.17" transform="translate(-527.18 -262.8) rotate(-3.65)"/><rect class="cls-13" x="735.36" y="386.71" width="3.5" height="1.94" transform="translate(-527.17 -263.12) rotate(-3.65)"/><path class="cls-17" d="M729.84,380.87a22.81,22.81,0,0,0-.59,7.32,22.55,22.55,0,0,0,1.52,7.18,7.44,7.44,0,0,0-.93-14.5Z" transform="translate(-504 -310.8)"/><path class="cls-18" d="M744.89,409.52c-5.91.38-10.5,4-10.24,8s5.26,7,11.17,6.66,10.5-4,10.24-8S750.8,409.14,744.89,409.52Z" transform="translate(-504 -310.8)"/><path class="cls-17" d="M745.34,412.92a3.93,3.93,0,1,0,4.18,3.67A3.93,3.93,0,0,0,745.34,412.92Z" transform="translate(-504 -310.8)"/><path class="cls-19" d="M658,388.8c-3.89-7.23,8.44-13.88,12.32-6.65,9.07,9.61,17.07,20.55,24.55,31.35,14.46-.32,25.21-.91,38.67-.84,8.19-.64,8.82,8.26.63,8.9-15.22-1.25-27.27,4.3-42.08,4h0C684.31,426.12,661.88,395.55,658,388.8Z" transform="translate(-504 -310.8)"/><path class="cls-12" d="M662.81,403.83c-7.94-11.46-7.6-22.52-1.77-26.22,5.63-3.57,14.32.22,20.05,15.64C675.2,399.56,671.4,403,662.81,403.83Z" transform="translate(-504 -310.8)"/><path class="cls-20" d="M742,423.58a5.85,5.85,0,0,1-4.21-2,6.53,6.53,0,0,1,.24-8.91,5.8,5.8,0,0,1,8.48.26,6.44,6.44,0,0,1,1.64,4.41" transform="translate(-504 -310.8)"/><path class="cls-15" d="M745.52,414.31l-16.72,1.07a2.53,2.53,0,0,0-2.36,2.68h0a2.54,2.54,0,0,0,2.68,2.36l16.72-1.07a2.55,2.55,0,0,0,2.37-2.68h0A2.54,2.54,0,0,0,745.52,414.31Z" transform="translate(-504 -310.8)"/><path class="cls-20" d="M740.63,411.08c3.79-1.06,7.54,2.25,7.49,6.29" transform="translate(-504 -310.8)"/><path class="cls-18" d="M729,416.2a1.7,1.7,0,1,0,1.8,1.59A1.69,1.69,0,0,0,729,416.2Z" transform="translate(-504 -310.8)"/><path class="cls-18" d="M702.45,476.69c-1.28,1.32-1.66,2-5.81,1.66l-93-7.46c-5.59-.45-8.84-1.2-9.54-3.05-1-2.58.65-18,3-19,5.49-2.42,51.42,9.18,60.78,9.29,12,.13,33.09-2.37,36.36-1.42C699.83,458.27,705,474,702.45,476.69Z" transform="translate(-504 -310.8)"/><path class="cls-18" d="M642.94,469.57l-115.08-8.86c-3.11-.24-3,4.13-.35,4.33l126.38,9.76C663.68,475.57,645,469.73,642.94,469.57Z" transform="translate(-504 -310.8)"/><path class="cls-5" d="M669.91,534.74l-5-4.38,78.21.31c8.29.52,16.62-6.19,21.19-13.13L778.67,496c10.17-15.28-7.1-46.13-21.57-60.16l2.9-1.61c15.42,14.92,34.35,46.89,23.54,63.15L767.86,521c-4.88,7.33-13.67,14.46-22.46,13.91Z" transform="translate(-504 -310.8)"/><path class="cls-16" d="M656.46,522.9c8.07-1.49,14.75-3.84,21.76-17.41,4.81-9.3,9.68-22.22-4.74-25.45-14.81-3.32-48.51-7.3-67.94-.43-19.72,7-28.7,25.75-31.86,43.52Z" transform="translate(-504 -310.8)"/><path class="cls-17" d="M673,505c4.3-8.32,8.66-19.88-4.24-22.78-13.25-3-43.42-6.52-60.8-.37-14.36,5.07-27.87,20.83-32.52,41.3l72.47-.2C659,519.27,668.26,514.14,673,505Z" transform="translate(-504 -310.8)"/><rect class="cls-10" x="586.13" y="515.15" width="61.98" height="1.89" transform="matrix(1, 0, 0, 1, -505.47, -309.04)"/><path class="cls-18" d="M568,523.15,553.41,554l1.49,1s4.81-1.57,4.71-3.15,15.82-28.75,15.82-28.75Z" transform="translate(-504 -310.8)"/><path class="cls-21" d="M767.71,403c6,7.16,6.48,15,.91,23.7l.36.31-.36-.31C761.62,420,765.08,405.3,767.71,403Z" transform="translate(-504 -310.8)"/><path class="cls-22" d="M769.19,405c4.13,6,4.47,12.57.67,19.64C765.94,418.69,767.27,409.36,769.19,405Z" transform="translate(-504 -310.8)"/><path class="cls-21" d="M729.84,380.87a22.81,22.81,0,0,0-.59,7.32,22.55,22.55,0,0,0,1.52,7.18,22.56,22.56,0,0,0,.58-7.32A22.85,22.85,0,0,0,729.84,380.87Z" transform="translate(-504 -310.8)"/><path class="cls-5" d="M651.52,543.07c4.2-3.34,6.06-8.76,3.27-13.35s-8.4-5.37-13.35-3.27l-37.55,15.92h0a16,16,0,0,0-3.42,1.54,15.69,15.69,0,0,0,16.26,26.83,16.11,16.11,0,0,0,2.95-2.31h0Z" transform="translate(-504 -310.8)"/><path class="cls-17" d="M643.47,529.37a5.81,5.81,0,1,0,8,2A5.8,5.8,0,0,0,643.47,529.37Z" transform="translate(-504 -310.8)"/><path class="cls-17" d="M603.66,549.31a9.37,9.37,0,1,0,12.87,3.16A9.38,9.38,0,0,0,603.66,549.31Z" transform="translate(-504 -310.8)"/><rect class="cls-10" x="586.13" y="510.95" width="61.98" height="1.89" transform="matrix(1, 0, 0, 1, -505.45, -309.04)"/><rect class="cls-10" x="586.12" y="506.75" width="61.98" height="1.89" transform="matrix(1, 0, 0, 1, -505.44, -309.04)"/><rect class="cls-10" x="510.22" y="380.34" width="78.68" height="85.38" transform="translate(-418.1 627.98) rotate(-85.63)"/><path class="cls-22" d="M729.55,382.12a25.29,25.29,0,0,0-.3,6.07,26,26,0,0,0,1,5.93,25.29,25.29,0,0,0,.3-6.07A24.91,24.91,0,0,0,729.55,382.12Z" transform="translate(-504 -310.8)"/><line class="cls-4" x1="225.68" y1="197.6" x2="227.15" y2="200.18"/><line class="cls-4" x1="225.68" y1="197.6" x2="224.53" y2="199.53"/><line class="cls-4" x1="228.3" y1="198.26" x2="227.15" y2="200.18"/><path class="cls-23" d="M656.29,348.1c4.78,9.57,12.2,17.81,22.43,21.77" transform="translate(-504 -310.8)"/><path class="cls-24" d="M656.9,353.64a5.46,5.46,0,1,0-5.46-5.46A5.48,5.48,0,0,0,656.9,353.64Z" transform="translate(-504 -310.8)"/><rect class="cls-25" x="566.86" y="456.22" width="9.08" height="1.36" transform="translate(-432.12 680.64) rotate(-85.59)"/><rect class="cls-25" x="569.06" y="456.04" width="9.08" height="2.06" transform="translate(-430.24 683.01) rotate(-85.59)"/><rect class="cls-25" x="571.27" y="456.56" width="9.08" height="1.36" transform="translate(-428.38 685.36) rotate(-85.59)"/><rect class="cls-25" x="573.12" y="456.7" width="9.08" height="1.36" transform="translate(-426.82 687.33) rotate(-85.59)"/><rect class="cls-25" x="574.64" y="457.16" width="9.08" height="0.68" transform="translate(-425.48 689) rotate(-85.59)"/><rect class="cls-25" x="565.34" y="456.44" width="9.08" height="0.68" transform="translate(-433.12 679.29) rotate(-85.62)"/><rect class="cls-25" x="576.51" y="456.61" width="9.08" height="2.06" transform="translate(-423.85 691.04) rotate(-85.6)"/><rect class="cls-25" x="578.71" y="457.13" width="9.08" height="1.36" transform="translate(-422.09 693.3) rotate(-85.59)"/></svg>