<svg xmlns="http://www.w3.org/2000/svg" xmlns:xlink="http://www.w3.org/1999/xlink" viewBox="0 0 398.02 412.1"><defs><style>.cls-1{fill:none;}.cls-2{isolation:isolate;}.cls-3{fill:#ffdd6c;}.cls-4{clip-path:url(#clip-path);}.cls-10,.cls-11,.cls-12,.cls-13,.cls-14,.cls-15,.cls-16,.cls-5,.cls-6,.cls-7{mix-blend-mode:screen;}.cls-5{fill:url(#Áåçûìÿííûé_ãðàäèåíò_326);}.cls-6{fill:url(#Áåçûìÿííûé_ãðàäèåíò_326-2);}.cls-7{fill:url(#Áåçûìÿííûé_ãðàäèåíò_326-3);}.cls-17,.cls-18,.cls-19,.cls-20,.cls-21,.cls-22,.cls-8,.cls-9{mix-blend-mode:multiply;}.cls-8{fill:url(#Áåçûìÿííûé_ãðàäèåíò_327);}.cls-9{fill:url(#Áåçûìÿííûé_ãðàäèåíò_327-2);}.cls-10{fill:url(#Áåçûìÿííûé_ãðàäèåíò_326-4);}.cls-11{fill:url(#Áåçûìÿííûé_ãðàäèåíò_326-5);}.cls-12{fill:url(#Áåçûìÿííûé_ãðàäèåíò_326-6);}.cls-13{fill:url(#Áåçûìÿííûé_ãðàäèåíò_326-7);}.cls-14{fill:url(#Áåçûìÿííûé_ãðàäèåíò_326-8);}.cls-15{fill:url(#Áåçûìÿííûé_ãðàäèåíò_326-9);}.cls-16{fill:url(#Áåçûìÿííûé_ãðàäèåíò_326-10);}.cls-17{fill:url(#Áåçûìÿííûé_ãðàäèåíò_325);}.cls-18{fill:url(#Áåçûìÿííûé_ãðàäèåíò_325-2);}.cls-19{fill:url(#Áåçûìÿííûé_ãðàäèåíò_325-3);}.cls-20{fill:url(#Áåçûìÿííûé_ãðàäèåíò_325-4);}.cls-21{fill:url(#Áåçûìÿííûé_ãðàäèåíò_325-5);}.cls-22{fill:url(#Áåçûìÿííûé_ãðàäèåíò_325-6);}</style><clipPath id="clip-path" transform="translate(-418.54 -155.04)"><path class="cls-1" d="M445.59,256.59c6.77,12.25,2.48,4.52.05.06,23.88,43.18,67.29,48.41,97.72,15.19,22.52-4.38,38.28,25.11,66.1,18.65,18.58,11.83,30.37,30.31,41.21,49.34-.62,32.71,3.22,67.6-59.5,27.12-32.06-17.52-114.08,21.31-66,42.25,19.59,36,110.31,7.57,124.47,55.27,55.27,186.12,88.07-14.11,80.5-26.87,12.25-26.67,50.42-2.23,54.59-37.14,31.73-44.69-23.2-44.06-32.29-73,29.18-52.64-24.67-75.27-62-60.6-11-10.67-23-21.62-24.44-22.75-14.9-11.94-17.44-37.06-30.71-43.47-30.54-14.81-63.5,3.5-91.45,12.4-20.49,6.52-31.55,17.33-47.75-1.53-9.15-10.33-38.79-18.49-27.16,6.86-9.93.68-31.61,23.23-23.31,38.27C444.18,254.08,443.39,252.62,445.59,256.59Zm200.34,9.06a161,161,0,0,0,19.7,21.51,46.77,46.77,0,0,0-6.15,17.9,16.9,16.9,0,0,0-2.48,3C647.12,293.71,641.13,279.48,645.93,265.65Z"/></clipPath><radialGradient id="Áåçûìÿííûé_ãðàäèåíò_326" cx="-893.04" cy="-495.07" r="27.77" gradientTransform="matrix(-0.5, 0.16, -0.39, -1.2, 108.43, -155.72)" gradientUnits="userSpaceOnUse"><stop offset="0.1" stop-color="#fff"/><stop offset="0.27" stop-color="#d1b9a7"/><stop offset="0.47" stop-color="#47351d"/><stop offset="0.56" stop-color="#291e0d"/><stop offset="0.66" stop-color="#0d0903"/><stop offset="0.84" stop-color="#030200"/><stop offset="1"/></radialGradient><radialGradient id="Áåçûìÿííûé_ãðàäèåíò_326-2" cx="212.83" cy="-708.51" r="41.72" gradientTransform="matrix(-0.31, 0.33, -0.95, -0.89, 166.82, -334.26)" xlink:href="#Áåçûìÿííûé_ãðàäèåíò_326"/><radialGradient id="Áåçûìÿííûé_ãðàäèåíò_326-3" cx="-1636.13" cy="-429.77" r="139.71" gradientTransform="matrix(-0.45, -0.01, 0.01, -0.99, -17.06, -118.71)" xlink:href="#Áåçûìÿííûé_ãðàäèåíò_326"/><radialGradient id="Áåçûìÿííûé_ãðàäèåíò_327" cx="-1546.5" cy="-492.86" r="102.28" gradientTransform="matrix(-0.45, -0.01, 0.01, -0.99, -17.06, -118.71)" gradientUnits="userSpaceOnUse"><stop offset="0.15" stop-color="#fdd79e"/><stop offset="0.51" stop-color="#feefd6"/><stop offset="0.77" stop-color="#fffbf3"/><stop offset="0.9" stop-color="#fff"/></radialGradient><radialGradient id="Áåçûìÿííûé_ãðàäèåíò_327-2" cx="-100.74" cy="-685.46" r="102.27" gradientTransform="matrix(-0.39, 0.24, -0.51, -0.84, 93.03, -310.65)" xlink:href="#Áåçûìÿííûé_ãðàäèåíò_327"/><radialGradient id="Áåçûìÿííûé_ãðàäèåíò_326-4" cx="-896.1" cy="-406.67" r="62.46" gradientTransform="matrix(-0.61, 0.01, -0.02, -0.96, 84.73, -146.04)" xlink:href="#Áåçûìÿííûé_ãðàäèåíò_326"/><radialGradient id="Áåçûìÿííûé_ãðàäèåíò_326-5" cx="-2534.91" cy="-207.76" r="58.53" gradientTransform="matrix(-0.36, -0.08, 0.3, -1.27, -143.2, 14.3)" xlink:href="#Áåçûìÿííûé_ãðàäèåíò_326"/><radialGradient id="Áåçûìÿííûé_ãðàäèåíò_326-6" cx="161.71" cy="-806.03" r="47.92" gradientTransform="matrix(-0.21, 0.23, -0.78, -0.7, 73.51, -344.94)" xlink:href="#Áåçûìÿííûé_ãðàäèåíò_326"/><radialGradient id="Áåçûìÿííûé_ãðàäèåíò_326-7" cx="-1506.78" cy="-617.09" r="38.02" gradientTransform="matrix(-0.3, 0.1, -0.33, -1, -0.75, -174.21)" xlink:href="#Áåçûìÿííûé_ãðàäèåíò_326"/><radialGradient id="Áåçûìÿííûé_ãðàäèåíò_326-8" cx="-567.16" cy="1334.23" r="76.43" gradientTransform="matrix(0.12, -0.29, 0.97, 0.4, -639.78, -315.76)" xlink:href="#Áåçûìÿííûé_ãðàäèåíò_326"/><radialGradient id="Áåçûìÿííûé_ãðàäèåíò_326-9" cx="1062.23" cy="1756.26" r="51.75" gradientTransform="matrix(0.22, -0.22, 0.47, 0.48, -575.28, -382.12)" xlink:href="#Áåçûìÿííûé_ãðàäèåíò_326"/><radialGradient id="Áåçûìÿííûé_ãðàäèåíò_326-10" cx="1392.2" cy="1907.91" r="51.81" gradientTransform="matrix(0.22, -0.22, 0.47, 0.48, -575.28, -382.12)" xlink:href="#Áåçûìÿííûé_ãðàäèåíò_326"/><radialGradient id="Áåçûìÿííûé_ãðàäèåíò_325" cx="4217.34" cy="1001.48" r="104.34" gradientTransform="matrix(0.3, 0.08, -0.17, 0.65, -440.24, -643.65)" gradientUnits="userSpaceOnUse"><stop offset="0" stop-color="#fbb856"/><stop offset="0.29" stop-color="#fcc574"/><stop offset="0.41" stop-color="#fdd79e"/><stop offset="0.61" stop-color="#feefd6"/><stop offset="0.77" stop-color="#fffbf3"/><stop offset="0.9" stop-color="#fff"/></radialGradient><radialGradient id="Áåçûìÿííûé_ãðàäèåíò_325-2" cx="1298.05" cy="1999.59" r="104.31" gradientTransform="matrix(0.16, -0.14, 0.38, 0.45, -513.67, -447.64)" xlink:href="#Áåçûìÿííûé_ãðàäèåíò_325"/><radialGradient id="Áåçûìÿííûé_ãðàäèåíò_325-3" cx="-642.64" cy="2102.34" r="82.76" gradientTransform="matrix(0.09, -0.21, 0.55, 0.23, -512.82, -330.35)" xlink:href="#Áåçûìÿííûé_ãðàäèåíò_325"/><radialGradient id="Áåçûìÿííûé_ãðàäèåíò_325-4" cx="3849.66" cy="2329.65" r="104.34" gradientTransform="matrix(0.15, -0.06, 0.24, 0.54, -456.54, -525.21)" xlink:href="#Áåçûìÿííûé_ãðàäèåíò_325"/><radialGradient id="Áåçûìÿííûé_ãðàäèåíò_325-5" cx="-2988.28" cy="2071.92" r="104.45" gradientTransform="matrix(0.04, -0.16, 0.58, 0.14, -498.79, -336.99)" xlink:href="#Áåçûìÿííûé_ãðàäèåíò_325"/><radialGradient id="Áåçûìÿííûé_ãðàäèåíò_325-6" cx="-30.05" cy="2240.37" r="104.37" gradientTransform="matrix(0.1, -0.13, 0.46, 0.37, -502.07, -429.79)" xlink:href="#Áåçûìÿííûé_ãðàäèåíò_325"/></defs><title>may</title><g class="cls-2"><g id="Layer_1" data-name="Layer 1"><path class="cls-3" d="M525.18,409.2c-18.45-8,1.08,2.07,0,0Z" transform="translate(-418.54 -155.04)"/><path class="cls-3" d="M445.59,256.59c6.77,12.25,2.48,4.52.05.06,23.88,43.18,67.29,48.41,97.72,15.19,22.52-4.38,38.28,25.11,66.1,18.65,18.58,11.83,30.37,30.31,41.21,49.34-.62,32.71,3.22,67.6-59.5,27.12-32.06-17.52-114.08,21.31-66,42.25,19.59,36,110.31,7.57,124.47,55.27,55.27,186.12,88.07-14.11,80.5-26.87,12.25-26.67,50.42-2.23,54.59-37.14,31.73-44.69-23.2-44.06-32.29-73,29.18-52.64-24.67-75.27-62-60.6-11-10.67-23-21.62-24.44-22.75-14.9-11.94-17.44-37.06-30.71-43.47-30.54-14.81-63.5,3.5-91.45,12.4-20.49,6.52-31.55,17.33-47.75-1.53-9.15-10.33-38.79-18.49-27.16,6.86-9.93.68-31.61,23.23-23.31,38.27C444.18,254.08,443.39,252.62,445.59,256.59Zm200.34,9.06a161,161,0,0,0,19.7,21.51,46.77,46.77,0,0,0-6.15,17.9,16.9,16.9,0,0,0-2.48,3C647.12,293.71,641.13,279.48,645.93,265.65Z" transform="translate(-418.54 -155.04)"/><g class="cls-4"><path class="cls-5" d="M731.56,297c-5.92-18.4-4.57-35.22,3.06-37.73s18.68,10.38,24.6,28.73,4.58,35.2-3,37.71S737.49,315.24,731.56,297Z" transform="translate(-418.54 -155.04)"/><path class="cls-6" d="M761.93,382.39c-22-20.63-33.86-43.35-26.75-51s30.65,3,52.61,23.57,33.81,43.38,26.7,51S783.84,402.91,761.93,382.39Z" transform="translate(-418.54 -155.04)"/><path class="cls-7" d="M653.55,315.27c1.19-76.32,30.09-137.48,65-137.29,34.89.4,62.32,62.81,61.31,139-1,76.35-30.2,137.55-65,137.18C680.19,453.74,652.71,391.37,653.55,315.27Z" transform="translate(-418.54 -155.04)"/><path class="cls-8" d="M629.16,377.34c.85-55.88,22-100.68,47.59-100.54s45.61,46,44.88,101.76S699.5,479.26,674,479,628.54,433,629.16,377.34Z" transform="translate(-418.54 -155.04)"/><path class="cls-9" d="M444.74,268.78c-29-47.81-34.83-96.95-13-110.41s63.06,14.71,92.07,62.38,34.72,97.09,13,110.39S473.81,316.35,444.74,268.78Z" transform="translate(-418.54 -155.04)"/><path class="cls-10" d="M598.29,234.21c-.4-33,16-59.84,37.09-60.29s38.38,26.14,39,59.08-16.09,59.84-37.09,60.23S598.91,267,598.29,234.21Z" transform="translate(-418.54 -155.04)"/><path class="cls-11" d="M690.47,487.7c9.65-41.07,26.81-71.95,38.56-69.35s13.37,38.27,3.78,79.31-26.87,72-38.56,69.32S680.93,528.68,690.47,487.7Z" transform="translate(-418.54 -155.04)"/><path class="cls-12" d="M659,269.92c-20.65-18.63-32.9-38.56-27.43-44.77s26.76,3.95,47.42,22.58,32.91,38.64,27.38,44.77S679.63,288.49,659,269.92Z" transform="translate(-418.54 -155.04)"/><path class="cls-13" d="M635.2,299.89c-6.82-21-7.33-39.6-1.12-41.66s16.82,13.35,23.65,34.32,7.28,39.57,1.07,41.61S642,320.78,635.2,299.89Z" transform="translate(-418.54 -155.04)"/><path class="cls-14" d="M596.82,360.72c41,17,70,40.44,65.08,52.72-5,12.11-42.33,8.24-83.26-8.69s-70-40.51-65-52.65S556,343.92,596.82,360.72Z" transform="translate(-418.54 -155.04)"/><path class="cls-15" d="M503.22,207.26c13.55,13.63,19.48,29.66,13.16,36s-22.41.34-36-13.24-19.42-29.69-13.1-36S489.67,193.71,503.22,207.26Z" transform="translate(-418.54 -155.04)"/><path class="cls-16" d="M647.91,206.69c13.54,13.61,19.42,29.67,13.15,36s-22.41.36-36-13.24-19.36-29.69-13.09-36S634.36,193.14,647.91,206.69Z" transform="translate(-418.54 -155.04)"/><path class="cls-17" d="M688.78,351.14c-10,37.43-32,63.94-49.4,59.42S616,371.84,626,334.44s32.06-63.85,49.39-59.27S698.66,313.78,688.78,351.14Z" transform="translate(-418.54 -155.04)"/><path class="cls-18" d="M482,261c22.18,26,32.57,53.4,23.37,61.45s-34.89-6.78-57-32.77-32.52-53.43-23.26-61.36S459.81,235.06,482,261Z" transform="translate(-418.54 -155.04)"/><path class="cls-19" d="M591.34,261.93c25.07,10.39,42.12,26.39,38.22,35.9s-27.38,8.8-52.44-1.55S535.06,269.83,539,260.34,566.33,251.63,591.34,261.93Z" transform="translate(-418.54 -155.04)"/><path class="cls-20" d="M682.51,487.14c13.55,31.41,17.56,59.69,8.92,63.53S664.84,532,651.29,500.6s-17.5-59.73-8.86-63.48S669,455.83,682.51,487.14Z" transform="translate(-418.54 -155.04)"/><path class="cls-21" d="M583.33,410.11c33.19,8.16,58.2,22,56,31.19s-31,10-64.18,1.89-58.2-22-56-31.19S550.13,402.09,583.33,410.11Z" transform="translate(-418.54 -155.04)"/><path class="cls-22" d="M539.63,394.39c26.6,21.48,43.36,44.7,37.54,52.1s-32.29-4.18-58.87-25.63-43.3-44.73-37.43-52S513.1,373,539.63,394.39Z" transform="translate(-418.54 -155.04)"/></g></g></g></svg>