<svg id="Layer_1" data-name="Layer 1" xmlns="http://www.w3.org/2000/svg" xmlns:xlink="http://www.w3.org/1999/xlink" viewBox="0 0 570 455.23"><defs><style>.cls-1,.cls-4{fill:#fff;}.cls-2,.cls-3,.cls-4{opacity:0.5;}.cls-2{fill:url(#linear-gradient);}.cls-3{fill:url(#linear-gradient-2);}</style><linearGradient id="linear-gradient" x1="537.07" y1="227.16" x2="955.65" y2="227.16" gradientUnits="userSpaceOnUse"><stop offset="0" stop-color="#ea4e65"/><stop offset="0.31" stop-color="#ea5565"/><stop offset="0.75" stop-color="#ea6865"/><stop offset="1" stop-color="#ea7665"/></linearGradient><linearGradient id="linear-gradient-2" x1="418.31" y1="412.25" x2="1094.35" y2="412.25" xlink:href="#linear-gradient"/></defs><title>onion</title><path class="cls-1" d="M939.71,232.37C907.06,190.45,779.63,159,677.87,167.82c-40.52,3.52-112.81,9.84-140.8,33.11a66.7,66.7,0,0,1,8.75-3.8c19.06-6.75,35.33-7.76,55.39-9.13q36.07-2.46,72.24-2.86c56.12-.66,185.12,12.09,249.38,60A111.82,111.82,0,0,1,947,270.32c4.45,6.33,6.31,12.11,6.57,17.69C958.4,271.63,955.22,252.29,939.71,232.37Z" transform="translate(-450 -142.77)"/><path class="cls-2" d="M939.71,232.37C907.06,190.45,779.63,159,677.87,167.82c-40.52,3.52-112.81,9.84-140.8,33.11a66.7,66.7,0,0,1,8.75-3.8c19.06-6.75,35.33-7.76,55.39-9.13q36.07-2.46,72.24-2.86c56.12-.66,185.12,12.09,249.38,60A111.82,111.82,0,0,1,947,270.32c4.45,6.33,6.31,12.11,6.57,17.69C958.4,271.63,955.22,252.29,939.71,232.37Z" transform="translate(-450 -142.77)"/><path class="cls-1" d="M659.1,569c40.24-.75,80.52-15.85,116.14-32.88,61.38-29.33,115.55-72.73,156.56-125.67,39.05-50.4,79.81-122,53.46-184-35.78-39.44-112.46-73-289-83.35-32.57-1.9-77,3.9-109.2,8.79-27.59,4.19-55.74,10.3-79.76,24.63-48.22,28.77-59.9,85-56.88,136,2.28,38.5,11,77.08,24.32,113.86,23.68,36.46,49,72.12,80.52,100.87C584,553.45,619,569.79,659.1,569Zm-122-368.11c28-23.27,100.28-29.59,140.8-33.11,101.76-8.86,229.19,22.63,261.84,64.55,15.51,19.92,18.69,39.26,13.87,55.64.48,10.5-5.05,20.23-11.88,31.17a573.89,573.89,0,0,1-87.5,107.87C799.89,479.71,719.8,543.79,636.59,531.4,535.07,516.3,500,400.57,488.26,319.6,482.43,279.3,495.58,222.63,537.07,200.93Z" transform="translate(-450 -142.77)"/><path class="cls-1" d="M619.21,593.71c54.83,12.82,113.38-5.13,163.1-27a498,498,0,0,0,151.81-104c24.92-25,47.36-52.73,65.61-82.64,15-24.56,24.21-50.83,18.62-79.44-4.74-24.3-11.43-50.31-33.09-74.18,26.35,62-14.41,133.6-53.46,184-41,52.94-95.18,96.34-156.56,125.67-35.62,17-75.9,32.13-116.14,32.88S584,553.45,555.28,527.25c-31.47-28.75-56.84-64.41-80.52-100.87A459.9,459.9,0,0,0,499,481.73C524.53,530.8,560.84,580.05,619.21,593.71Z" transform="translate(-450 -142.77)"/><path class="cls-3" d="M619.21,593.71c54.83,12.82,113.38-5.13,163.1-27a498,498,0,0,0,151.81-104c24.92-25,47.36-52.73,65.61-82.64,15-24.56,24.21-50.83,18.62-79.44-4.74-24.3-11.43-50.31-33.09-74.18,26.35,62-14.41,133.6-53.46,184-41,52.94-95.18,96.34-156.56,125.67-35.62,17-75.9,32.13-116.14,32.88S584,553.45,555.28,527.25c-31.47-28.75-56.84-64.41-80.52-100.87A459.9,459.9,0,0,0,499,481.73C524.53,530.8,560.84,580.05,619.21,593.71Z" transform="translate(-450 -142.77)"/><path class="cls-4" d="M841.39,505.63c-1.43-4.56-3.87-3.67-2.85,1.48,1.21,6.08,1.8,12.85,3.25,18.88.89,3.7,4.53,2.8,4-.76A153.52,153.52,0,0,0,841.39,505.63Z" transform="translate(-450 -142.77)"/><path class="cls-4" d="M832.42,512.91c-1.42-4.56-3.87-3.67-2.85,1.48,1.21,6.08,1.8,12.84,3.25,18.87.9,3.71,4.53,2.81,4-.75A153.13,153.13,0,0,0,832.42,512.91Z" transform="translate(-450 -142.77)"/><path class="cls-4" d="M596,561.39c-2.88-3.87-4.9-2.27-2.2,2.29,3.19,5.37,6,11.59,9.42,16.84,2.09,3.23,5.23,1.24,3.54-2A155.12,155.12,0,0,0,596,561.39Z" transform="translate(-450 -142.77)"/><path class="cls-4" d="M858,503c-.88-4.37-2.25-13.3-3.94-11.52-1.23,1.3-.44,6.27.17,10.29a134.19,134.19,0,0,0,3.56,16.59c.61,2.14,2.86,1.43,2.52-.66C859.53,512.81,859,507.82,858,503Z" transform="translate(-450 -142.77)"/><path class="cls-4" d="M609.9,570.63c-2.17-3.93-6.2-12.07-7.27-9.89-.78,1.59,1.49,6.12,3.29,9.79a137.15,137.15,0,0,0,8.48,14.84c1.23,1.87,3.16.55,2.2-1.35C614.36,579.59,612.31,575,609.9,570.63Z" transform="translate(-450 -142.77)"/><path class="cls-4" d="M713.73,563.46c-1.93.32-11.55,2.82-10.61,6.47s4.6,7.75,7.32,10.62c1.57,1.66,5.29,4.53,8.54,3,6-2.76,8.92-13.46,9.39-17.18C729.09,560.78,717.55,562.83,713.73,563.46Z" transform="translate(-450 -142.77)"/><path class="cls-4" d="M555.31,535.9a137.58,137.58,0,0,1-11.06-12.41c-5.45-6.91-8.87-3.75-6.31,3.35,4,11.15,16.17,25.9,25.1,33,3.37,2.67,9.85,7.45,14.75,7.64,1.48.06,8.89-6.09,1.43-11.8C571,549.35,558.33,538.67,555.31,535.9Z" transform="translate(-450 -142.77)"/></svg>