<svg id="Layer_1" data-name="Layer 1" xmlns="http://www.w3.org/2000/svg" viewBox="0 0 293.14 302.75"><defs><style>.cls-1{fill:#f9b212;}.cls-2{fill:#ef9506;}.cls-3{fill:#f9d912;}.cls-4{fill:#e29700;}</style></defs><title>paprika-s</title><path class="cls-1" d="M769.42,461a72,72,0,0,0-11-83.4A71.9,71.9,0,1,0,696.8,248.78a71.91,71.91,0,1,0-120.16,78.91A71.93,71.93,0,1,0,640,455.31a71.18,71.18,0,0,0,31.86,34.9A72,72,0,0,0,769.42,461Zm-89,13.54a53.1,53.1,0,0,1-24.07-26.28l-8.44-19.87L630,440.6a54.14,54.14,0,1,1-47.76-96L604.88,337l-13.6-19.49a54.08,54.08,0,1,1,90.36-59.35L691,273.46l15.29-9.58a54.15,54.15,0,0,1,76.57,71.41,53.28,53.28,0,0,1-30.17,25.45l-26,9,18.81,20.08a54.09,54.09,0,0,1-65.07,84.71Z" transform="translate(-521.27 -206)"/><path class="cls-2" d="M577.29,328.89A71.05,71.05,0,1,0,639.74,455l1.18-.85.61,1.36a71,71,0,1,0,116.91-76.8l.89-.8c16.19,13.91,25.11,36.32,24,58.77a78.58,78.58,0,0,1-32.85,57.92c-19,14-44.75,17.56-67.41,11A81.45,81.45,0,0,1,630.87,460l15.48,4.52a82.26,82.26,0,0,1-67.08,10.79c-22.06-6-42.23-22-51-43.25-9.38-20.74-9.24-45.21.28-65.19,9.76-19.64,28-34.74,48.42-39Z" transform="translate(-521.27 -206)"/><path class="cls-3" d="M758.68,377.78a71.05,71.05,0,1,0-60.86-127.31l-.93.56-.57-.94a71,71,0,0,0-130.24,23.62A71.63,71.63,0,0,0,577.58,328l-1.09.66C563.64,314,557.68,293,560.22,272.54a78.25,78.25,0,0,1,31.95-52.2c17.22-12.76,40.39-17.12,61.55-12.62A81.14,81.14,0,0,1,706,244.11l-14.26-3.36c19.51-12.48,44.57-15.46,66.48-8.72a83.94,83.94,0,0,1,15.44,6.54,81,81,0,0,1,14.4,9.85,73.59,73.59,0,0,1,19.89,27.29c9,20.71,8.54,44.83-1,64.53-9.66,19.45-27.72,34.27-47.9,38.59Z" transform="translate(-521.27 -206)"/><path class="cls-4" d="M587.52,261a55.15,55.15,0,0,1,85.91-14.54c8.49,7.64,13,18,19.09,27l-1.69-.38,12-7.58a65.2,65.2,0,0,1,12.85-6.87,55.57,55.57,0,1,1,39,104.06l-27,9.34.66-2.75L748.73,391a54.47,54.47,0,0,1,12.95,27.43c3.66,20.38-5.21,42.22-21.91,54.21-16.61,12.31-40.07,14.43-58.27,4.88A55.07,55.07,0,0,1,659.12,457c-2.72-4.37-4.51-9.11-6.43-13.59l-5.91-13.74,2.44.65c-8.16,5.3-15.44,11.15-24.3,15.88a56.37,56.37,0,0,1-28.67,5.89c-19.8-1.22-38.33-13.91-46.5-31.9a55.42,55.42,0,0,1,5.26-56A53.65,53.65,0,0,1,577.62,346c9.15-3.57,18.26-6.26,27.31-9.38l-.61,1.76L592.5,321.15A60.46,60.46,0,0,1,583,302.26,54.88,54.88,0,0,1,587.52,261Zm1.64.92a52.75,52.75,0,0,0-3.8,39.71,51,51,0,0,0,9.43,18l12.39,16.84,1.78,2.32-2.86,1c-8.91,3.42-18.44,6.52-26.74,10.08a48.46,48.46,0,0,0-19.85,17.62c-9.62,14.94-9.9,34.41-1.83,49,7.93,14.73,23.84,23.76,39.32,23.67a42.76,42.76,0,0,0,21.86-6c2.26-1.24,6.62-4.67,10.37-7.53l11.5-8.66,12.48-9.61,7.5,15.45,6.62,13.35,3.19,6.55c.75,1.62,1.73,3.19,2.63,4.74a38.06,38.06,0,0,0,16.23,13.41c12.81,5.75,28.39,4.23,39.32-4.26,10.7-8.22,16.94-22.48,14.73-36.06A36.6,36.6,0,0,0,735,403l-1.22-1.5-.09-.17-.05-.07c.8.94.14.16.33.42v0l-.28-.38-.66-.68-2.49-2.74-4.92-5.63L715.84,381l-16.19-18.25,22.38-7,27.07-8.32a39.69,39.69,0,0,0,18.12-10.79c10.08-10.42,14.3-26.86,9.66-41.81-4.22-15-17.5-27.63-33.73-31.13a49.56,49.56,0,0,0-25.06,1.18,63.27,63.27,0,0,0-12,5.58l-12.52,7-3.66,2-1.83-3.29c-2.54-4.88-5.16-9.61-8-14.4a47.4,47.4,0,0,0-9.24-12.46,51.85,51.85,0,0,0-27.68-14.14,52.66,52.66,0,0,0-54,26.72Z" transform="translate(-521.27 -206)"/></svg>