<?xml version="1.0" encoding="iso-8859-1"?>
<!-- Generator: Adobe Illustrator 19.0.0, SVG Export Plug-In . SVG Version: 6.00 Build 0)  -->
<svg version="1.1" id="Capa_1" xmlns="http://www.w3.org/2000/svg" xmlns:xlink="http://www.w3.org/1999/xlink" x="0px" y="0px"
	 viewBox="0 0 512 512" style="enable-background:new 0 0 512 512;" xml:space="preserve">
<path style="fill:#FF9017;" d="M175.142,504.492L175.142,504.492c-71.309,0-129.115-57.806-129.115-129.115v-77.069
	c0-71.309,57.806-129.115,129.115-129.115l0,0c71.309,0,129.115,57.806,129.115,129.115v77.069
	C304.257,446.685,246.451,504.492,175.142,504.492z"/>
<path style="fill:#FF7043;" d="M175.142,504.492L175.142,504.492c71.309,0,129.115-57.806,129.115-129.115v-77.069
	c0-0.649-0.015-1.293-0.024-1.94c-26.409,24.002-43.014,58.61-43.014,97.024c0,14.278,2.302,28.026,6.541,40.902
	c-23.462,24.155-56.284,39.169-92.618,39.169l0,0c-71.309,0-129.115-57.806-129.115-129.115v31.028
	C46.027,446.685,103.834,504.492,175.142,504.492z"/>
<g>
	<path style="fill:#81C784;" d="M119.677,113.396c15.98,1.988,30.866,8.027,43.458,17.18c-0.001-0.001-0.002-0.001-0.002-0.002
		c0.077-0.056,0.157-0.108,0.234-0.164c-0.971-12.82,1.386-25.529,6.639-36.958c-6.164-13.41-16.288-25.059-29.665-33.041l0,0
		c-29.505-17.604-67.204-12.881-91.455,11.455l-9.863,9.898C69.54,80.533,98.681,92.305,119.677,113.396z"/>
	<path style="fill:#81C784;" d="M218.181,112.673c0.946,0,1.885,0.032,2.825,0.06c20.944-20.672,49.788-32.189,79.984-30.97l0,0
		l-9.863-9.898c-24.252-24.337-61.95-29.059-91.455-11.454l0,0c-24.78,14.785-38.439,42.136-36.316,70.007
		C178.906,119.183,197.927,112.673,218.181,112.673z"/>
	<path style="fill:#81C784;" d="M194.663,170.661c10.766,1.632,21.096,4.594,30.815,8.713c30.32-3.221,61.388,3.88,87.787,21.113
		l-4.249-16.942c-10.446-41.658-47.889-70.871-90.836-70.871c-20.35,0-39.457,6.567-55.049,17.901
		C176.934,140.607,187.965,154.384,194.663,170.661z"/>
	<path style="fill:#81C784;" d="M144.517,63.108c11.314,7.808,19.983,18.369,25.487,30.341c6.162-13.41,16.291-25.056,29.667-33.037
		l0,0c0.348-0.208,0.703-0.396,1.053-0.599c14.987-19.449,38.594-30.666,63.499-29.66l-6.988-7.013
		c-17.184-17.243-43.895-20.588-64.8-8.115c-9.19,5.484-16.205,13.414-20.605,22.552c-4.827-9.141-12.24-17.067-21.433-22.552l0,0
		c-20.906-12.473-47.615-9.128-64.799,8.116l-6.988,7.013l0,0C104.889,29.092,129.731,41.635,144.517,63.108z"/>
</g>
<g>
	<path style="fill:#4CAF50;" d="M238.033,29.81c-17.102,0-33.915,4.638-48.619,13.411c-7.151,4.267-13.655,9.433-19.395,15.332
		c-5.731-5.893-12.241-11.048-19.421-15.332c-14.704-8.774-31.516-13.411-48.618-13.411c-4.035,0-8.029,0.251-11.968,0.743
		c21.924,2.404,41.881,14.22,54.506,32.555c11.314,7.808,19.983,18.369,25.487,30.341c6.162-13.41,16.291-25.056,29.667-33.037l0,0
		c0.348-0.208,0.703-0.396,1.053-0.599c12.368-16.05,30.608-26.486,50.601-29.081C246.958,30.126,242.52,29.81,238.033,29.81z"/>
	<path style="fill:#4CAF50;" d="M194.663,170.661c8.343,1.265,16.421,3.337,24.16,6.119l-5.65-13.734
		c-7.011-17.043-17.79-31.672-31.137-43.116c-6.716,2.815-13.058,6.395-18.904,10.644
		C176.934,140.607,187.965,154.384,194.663,170.661z"/>
	<path style="fill:#4CAF50;" d="M163.195,106.844c-16.488-9.123-35.338-14.189-55.112-14.189c-4.949,0-9.907,0.436-14.839,1.281
		c9.704,5.075,18.632,11.622,26.433,19.458c15.98,1.988,30.866,8.027,43.458,17.18c-0.001-0.001-0.002-0.001-0.002-0.002
		c0.077-0.056,0.157-0.108,0.234-0.164c-0.641-8.459,0.176-16.867,2.309-24.892C164.845,105.952,164.015,106.389,163.195,106.844z"
		/>
</g>
<path style="fill:#81C784;" d="M115.632,183.703c17.809-9.266,38.046-14.511,59.51-14.511l0,0c6.635,0,13.152,0.502,19.517,1.467
	c-14.261-34.668-48.214-57.988-86.577-57.988l0,0c-42.947,0-80.391,40.958-90.836,82.616l-4.249,16.942l0,0
	C43.73,192.171,80.791,179.333,115.632,183.703z"/>
<path style="fill:#4CAF50;" d="M218.181,92.656c-18.501,0-36.377,4.422-52.52,12.869c-2.133,8.026-2.951,16.434-2.306,24.893
	c15.551-11.236,34.572-17.745,54.827-17.745c0.946,0,1.885,0.032,2.825,0.06c6.824-6.735,14.491-12.491,22.765-17.159
	C235.513,93.675,226.948,92.656,218.181,92.656z"/>
<path style="fill:#FF9017;" d="M392.336,282.294c-61.359,0-111.099,49.74-111.099,111.099s49.74,111.099,111.099,111.099
	s111.099-49.74,111.099-111.099S453.694,282.294,392.336,282.294z M392.336,438.433c-24.875,0-45.04-20.165-45.04-45.04
	s20.165-45.04,45.04-45.04s45.04,20.165,45.04,45.04S417.211,438.433,392.336,438.433z"/>
<path style="fill:#FDD844;" d="M392.336,297.308c-53.067,0-96.086,43.018-96.086,96.086s43.018,96.086,96.086,96.086
	s96.086-43.018,96.086-96.086S445.403,297.308,392.336,297.308z M392.336,438.433c-24.875,0-45.04-20.165-45.04-45.04
	s20.165-45.04,45.04-45.04s45.04,20.165,45.04,45.04S417.211,438.433,392.336,438.433z"/>
<path style="fill:#FDAB08;" d="M392.336,333.34c-33.167,0-60.053,26.887-60.053,60.053s26.887,60.053,60.053,60.053
	s60.053-26.887,60.053-60.053C452.389,360.226,425.502,333.34,392.336,333.34z M392.336,438.433c-24.875,0-45.04-20.165-45.04-45.04
	s20.165-45.04,45.04-45.04s45.04,20.165,45.04,45.04S417.211,438.433,392.336,438.433z"/>
<g>
	<path style="fill:#FFFFFF;" d="M213.743,135.33l0.921,14.986c1.166-0.072,2.35-0.108,3.518-0.108c8.31,0,16.319,1.774,23.8,5.275
		l6.361-13.6c-9.488-4.438-19.636-6.688-30.162-6.688C216.706,135.194,215.213,135.24,213.743,135.33z"/>
	<path style="fill:#FFFFFF;" d="M72.49,148.953l9.321,11.768c8.686-6.878,17.771-10.514,26.272-10.514
		c6.223,0,12.34,1.008,18.182,2.995l4.834-14.214c-7.403-2.518-15.146-3.794-23.016-3.794
		C96.162,135.194,83.854,139.952,72.49,148.953z"/>
	<rect x="201.169" y="79.61" style="fill:#FFFFFF;" width="15.013" height="15.013"/>
	<path style="fill:#FFFFFF;" d="M323.443,337.769l11.672,9.442c14.076-17.404,34.931-27.383,57.22-27.383v-15.013
		C365.494,304.814,340.384,316.826,323.443,337.769z"/>
	<path style="fill:#FFFFFF;" d="M376.034,480.469c5.345,0.997,10.83,1.503,16.301,1.503v-15.013c-4.55,0-9.108-0.42-13.547-1.249
		L376.034,480.469z"/>
	<path style="fill:#FFFFFF;" d="M326.438,426.078L313,432.772c2.415,4.85,5.299,9.509,8.571,13.848l11.99-9.037
		C330.841,433.976,328.445,430.105,326.438,426.078z"/>
	<path style="fill:#FFFFFF;" d="M332.582,458.73c8.141,7.452,17.456,13.251,27.687,17.236l5.45-13.989
		c-8.495-3.31-16.233-8.127-23.001-14.322L332.582,458.73z"/>
	<path style="fill:#FFFFFF;" d="M429.739,456.718l7.657,12.914c4.689-2.78,9.148-6.015,13.254-9.613l-9.896-11.291
		C437.342,451.719,433.636,454.408,429.739,456.718z"/>
	<path style="fill:#FFFFFF;" d="M465.901,393.393c0,16.657-5.453,32.377-15.77,45.461l11.789,9.295
		c12.425-15.759,18.994-34.694,18.994-54.757L465.901,393.393L465.901,393.393z"/>
	<path style="fill:#FFFFFF;" d="M455.224,355.259l12.824-7.808c-8.29-13.615-20.097-24.772-34.144-32.266l-7.067,13.246
		C438.515,334.662,448.331,343.938,455.224,355.259z"/>
</g>
<path d="M392.336,274.788c-31.08,0-59.401,12.023-80.572,31.654v-8.133c0-36.486-14.21-70.795-40.015-96.61
	c-5.424-5.422-11.228-10.324-17.343-14.698c19.429,2.271,38.24,8.993,54.756,19.774l16.043,10.473l-8.907-35.528
	c-9.56-38.119-39.894-66.509-77.134-74.363c17.858-12.49,39.534-18.98,61.522-18.09l19.146,0.772l-23.389-23.469
	c-16.4-16.458-38.316-24.752-60.316-24.235c8.734-3.414,18.183-5.064,27.791-4.679l19.146,0.773L262.55,17.843
	C242.905-1.873,212.49-5.682,188.588,8.579c-6.714,4.005-12.508,9.204-17.163,15.333c-4.588-6.024-10.361-11.263-17.182-15.333
	C130.34-5.683,99.925-1.871,80.281,17.843L59.769,38.427l19.144-0.773c9.889-0.399,19.508,1.301,28.344,4.827
	c-23.119-1.494-46.451,6.787-63.69,24.086L20.179,90.037l19.145-0.772c21.085-0.849,41.826,5.05,59.219,16.513
	C55.289,111.245,20.112,153,9.965,193.465l-8.908,35.527l16.044-10.473c24.436-15.951,49.888-25.407,73.729-27.642
	c-31.831,25.035-52.309,63.888-52.309,107.433v77.069C38.522,450.712,99.809,512,175.143,512c46.092,0,88.461-22.967,113.671-60.783
	C309.135,487.453,347.92,512,392.337,512c65.399,0,118.606-53.206,118.606-118.606S457.735,274.788,392.336,274.788z
	 M279.269,429.231l-25.955-25.955l20.936-20.936c-0.338,3.64-0.519,7.326-0.519,11.052
	C273.73,405.879,275.676,417.919,279.269,429.231z M168.763,466.596l-26.351-26.352l26.351-26.351l26.351,26.351L168.763,466.596z
	 M205.73,450.861l29.998,29.998c-11.866,6.812-24.889,11.621-38.579,14.123l-17.77-17.77L205.73,450.861z M158.145,477.213
	L142.759,492.6c-12.995-3.594-25.123-9.293-35.992-16.711l25.027-25.027L158.145,477.213z M155.055,178.369l3.091,3.091
	l-26.351,26.351l-15.75-15.75C127.963,185.403,141.11,180.696,155.055,178.369z M225.833,187.707L205.73,207.81l-26.351-26.351
	l4.452-4.452C198.524,178.038,212.704,181.683,225.833,187.707z M168.762,192.076l26.351,26.351l-26.351,26.351l-26.351-26.351
	L168.762,192.076z M296.751,298.309v0.522l-6.464-6.464l5.895-5.895C296.559,290.381,296.751,294.33,296.751,298.309z
	 M279.67,281.751l-26.352-26.352l23.643-23.642c7.386,11.252,12.812,23.596,16.093,36.611L279.67,281.751z M269.054,292.368
	l-26.351,26.351l-26.353-26.353l26.351-26.35L269.054,292.368z M158.142,329.339l-26.351,26.35l-26.353-26.353l26.35-26.35
	L158.142,329.339z M142.405,292.368l26.356-26.357l26.354,26.354l-26.356,26.356L142.405,292.368z M168.759,339.955l26.354,26.354
	l-26.35,26.35l-26.354-26.354L168.759,339.955z M179.376,329.338l26.356-26.355l26.353,26.353l-26.356,26.356L179.376,329.338z
	 M205.734,281.75l-26.355-26.355l26.351-26.351l26.355,26.355L205.734,281.75z M158.145,255.395l-26.356,26.356L105.437,255.4
	l26.356-26.356L158.145,255.395z M121.171,292.368l-26.35,26.35l-26.35-26.35l26.35-26.35L121.171,292.368z M84.204,329.336
	l-26.351,26.351l-4.319-4.319v-44.064l4.319-4.319L84.204,329.336z M57.853,281.751l-2.775-2.775
	c2.247-14.003,6.891-27.215,13.501-39.201L84.204,255.4L57.853,281.751z M57.853,376.921l26.352,26.352l-20.58,20.579
	c-5.762-13.205-9.248-27.62-9.953-42.751L57.853,376.921z M68.47,366.304l26.351-26.351l26.353,26.353l-26.351,26.35L68.47,366.304z
	 M131.79,376.922l26.355,26.355l-26.351,26.351l-26.355-26.355L131.79,376.922z M179.379,403.277l26.35-26.35l26.351,26.351
	l-26.351,26.351L179.379,403.277z M216.346,366.309l26.356-26.357l26.351,26.351l-26.356,26.357L216.346,366.309z M279.977,355.382
	l-0.305,0.305l-26.351-26.351l26.351-26.351l17.08,17.08v3.195C289.618,332.954,283.917,343.765,279.977,355.382z M267.867,219.619
	l-25.164,25.162l-26.355-26.355l23.274-23.273c7.705,4.835,14.922,10.57,21.514,17.16C263.49,214.67,265.73,217.11,267.867,219.619z
	 M301.735,185.363c-23.179-11.222-49.197-15.999-75.006-13.634c-8.616-3.51-17.595-6.127-26.826-7.808
	c-5.823-12.647-14.02-23.69-23.944-32.68c12.855-7.259,27.271-11.06,42.223-11.06C257.749,120.181,292.108,146.985,301.735,185.363z
	 M283.483,74.939c-24.309,2.829-47.357,13.404-65.402,30.231c-16.56,0.016-32.554,4.014-46.981,11.633
	c2.382-20.586,14.107-39.019,32.418-49.944C229.184,51.543,261.601,54.96,283.483,74.939z M196.28,21.471
	c15.943-9.512,35.739-8.335,50.321,2.392c-19.851,3.512-38.008,14.14-50.825,30.133c-4.314,2.578-8.325,5.5-12.018,8.713
	c0.295-8.283-1.117-16.455-4.059-24.033C183.597,31.561,189.274,25.651,196.28,21.471z M146.55,21.471
	c17.905,10.684,26.252,32.046,20.365,52.022l-0.135,0.356c-4.826-6.159-10.514-11.601-16.937-16.179
	c-12.951-18.137-32.146-30.103-53.574-33.836C110.848,13.135,130.621,11.967,146.55,21.471z M136.494,66.857
	c10.771,6.428,19.419,15.616,25.192,26.697c-3.04,7.464-4.985,15.406-5.72,23.607c-10.122-5.429-21.212-9.157-32.865-10.886
	c-18.227-17.485-41.712-28.458-66.569-31.341C78.411,54.957,110.824,51.543,136.494,66.857z M24.668,196.558
	c9.674-37.645,43.386-76.378,83.414-76.378c30.637,0,58.378,15.998,73.778,41.668c-2.23-0.107-4.47-0.162-6.718-0.162
	c-21.842,0-42.499,5.161-60.829,14.314C86.157,173.033,54.922,180.255,24.668,196.558z M103.129,200.379l18.047,18.047
	L94.82,244.783l-17.979-17.979C84.203,216.712,93.076,207.792,103.129,200.379z M70.851,437.858l23.969-23.969l26.355,26.356
	L94.82,466.601C85.435,458.327,77.332,448.634,70.851,437.858z M160.49,496.1l8.27-8.27l9.109,9.109
	c-0.909,0.02-1.816,0.047-2.728,0.047C170.184,496.985,165.296,496.679,160.49,496.1z M248.513,472.411l-32.167-32.167
	l26.351-26.351l31.731,31.731C267.134,455.945,258.376,464.949,248.513,472.411z M392.336,496.985
	c-57.121,0-103.592-46.471-103.592-103.592s46.471-103.592,103.592-103.592s103.592,46.471,103.592,103.592
	S449.457,496.985,392.336,496.985z"/>
<path d="M392.336,340.846c-28.974,0-52.547,23.573-52.547,52.547s23.573,52.547,52.547,52.547c28.974,0,52.547-23.573,52.547-52.547
	S421.31,340.846,392.336,340.846z M392.336,430.927c-20.696,0-37.533-16.837-37.533-37.533s16.837-37.533,37.533-37.533
	s37.533,16.837,37.533,37.533S413.032,430.927,392.336,430.927z"/>
<g>
</g>
<g>
</g>
<g>
</g>
<g>
</g>
<g>
</g>
<g>
</g>
<g>
</g>
<g>
</g>
<g>
</g>
<g>
</g>
<g>
</g>
<g>
</g>
<g>
</g>
<g>
</g>
<g>
</g>
</svg>
