<svg xmlns="http://www.w3.org/2000/svg" xmlns:xlink="http://www.w3.org/1999/xlink" viewBox="0 0 214.99 214.34"><defs><style>.cls-1{fill:none;}.cls-2{isolation:isolate;}.cls-3{clip-path:url(#clip-path);}.cls-4{fill:url(#Безымянный_градиент_311);}.cls-5{fill:url(#Безымянный_градиент_268);}.cls-10,.cls-11,.cls-12,.cls-13,.cls-14,.cls-15,.cls-16,.cls-17,.cls-18,.cls-19,.cls-20,.cls-22,.cls-23,.cls-24,.cls-25,.cls-26,.cls-27,.cls-28,.cls-29,.cls-30,.cls-31,.cls-32,.cls-33,.cls-6,.cls-7,.cls-9{opacity:0.5;}.cls-6,.cls-7{mix-blend-mode:screen;}.cls-6{fill:url(#Безымянный_градиент_299);}.cls-7{fill:url(#Безымянный_градиент_239);}.cls-8{opacity:0.75;}.cls-10,.cls-11,.cls-12,.cls-13,.cls-14,.cls-15,.cls-16,.cls-17,.cls-18,.cls-19,.cls-20,.cls-21,.cls-22,.cls-23,.cls-24,.cls-25,.cls-26,.cls-27,.cls-28,.cls-29,.cls-30,.cls-31,.cls-32,.cls-33,.cls-8,.cls-9{mix-blend-mode:multiply;}.cls-9{fill:url(#Безымянный_градиент_239-2);}.cls-10{fill:url(#Безымянный_градиент_239-3);}.cls-11{fill:url(#Безымянный_градиент_239-4);}.cls-12{fill:url(#Безымянный_градиент_239-5);}.cls-13{fill:url(#Безымянный_градиент_239-6);}.cls-14{fill:url(#Безымянный_градиент_239-7);}.cls-15{fill:url(#Безымянный_градиент_239-8);}.cls-16{fill:url(#Безымянный_градиент_239-9);}.cls-17{fill:url(#Безымянный_градиент_239-10);}.cls-18{fill:url(#Безымянный_градиент_239-11);}.cls-19{fill:url(#Безымянный_градиент_239-12);}.cls-20{fill:url(#Безымянный_градиент_239-13);}.cls-21{opacity:0.7;}.cls-22{fill:url(#Безымянный_градиент_239-14);}.cls-23{fill:url(#Безымянный_градиент_239-15);}.cls-24{fill:url(#Безымянный_градиент_239-16);}.cls-25{fill:url(#Безымянный_градиент_239-17);}.cls-26{fill:url(#Безымянный_градиент_239-18);}.cls-27{fill:url(#Безымянный_градиент_239-19);}.cls-28{fill:url(#Безымянный_градиент_239-20);}.cls-29{fill:url(#Безымянный_градиент_239-21);}.cls-30{fill:url(#Безымянный_градиент_239-22);}.cls-31{fill:url(#Безымянный_градиент_239-23);}.cls-32{fill:url(#Безымянный_градиент_239-24);}.cls-33{fill:url(#Безымянный_градиент_239-25);}.cls-34{fill:url(#Безымянный_градиент_282);}.cls-35{fill:url(#Безымянный_градиент_282-2);}.cls-36{fill:url(#Безымянный_градиент_282-3);}</style><clipPath id="clip-path" transform="translate(-580.85 -270.52)"><path class="cls-1" d="M617.74,465.47a111.77,111.77,0,0,0,157.13-17L600.7,308.34A111.75,111.75,0,0,0,617.74,465.47Z"/></clipPath><radialGradient id="Безымянный_градиент_311" cx="2031.88" cy="1334.65" r="105.63" gradientTransform="translate(-58.95 -1934.06) rotate(38.81)" gradientUnits="userSpaceOnUse"><stop offset="0" stop-color="#eda000"/><stop offset="0.04" stop-color="#e89c00"/><stop offset="0.47" stop-color="#bd7800"/><stop offset="0.8" stop-color="#a26100"/><stop offset="1" stop-color="#985900"/></radialGradient><radialGradient id="Безымянный_градиент_268" cx="2031.83" cy="1334.69" r="139.62" gradientTransform="translate(-58.95 -1934.06) rotate(38.81)" gradientUnits="userSpaceOnUse"><stop offset="0.33" stop-color="#ffe400"/><stop offset="0.67" stop-color="#ffe200"/><stop offset="0.79" stop-color="#ffdb00"/><stop offset="0.88" stop-color="#ffd000"/><stop offset="0.95" stop-color="#ffbf00"/><stop offset="1" stop-color="#ffad00"/></radialGradient><radialGradient id="Безымянный_градиент_299" cx="2031.83" cy="1334.69" r="89.35" gradientTransform="translate(-58.95 -1934.06) rotate(38.81)" gradientUnits="userSpaceOnUse"><stop offset="0" stop-color="#fff"/><stop offset="0.23" stop-color="#fcfcfc"/><stop offset="0.36" stop-color="#f4f4f4"/><stop offset="0.48" stop-color="#e6e6e6"/><stop offset="0.58" stop-color="#d2d2d2"/><stop offset="0.67" stop-color="#b7b7b7"/><stop offset="0.75" stop-color="#979797"/><stop offset="0.83" stop-color="#717171"/><stop offset="0.91" stop-color="#444"/><stop offset="0.98" stop-color="#131313"/><stop offset="1"/></radialGradient><radialGradient id="Безымянный_градиент_239" cx="2031.83" cy="1334.69" r="31.57" gradientTransform="translate(-58.95 -1934.06) rotate(38.81)" gradientUnits="userSpaceOnUse"><stop offset="0" stop-color="#fffab0"/><stop offset="0.37" stop-color="#fdf791"/><stop offset="0.77" stop-color="#fbf576"/><stop offset="1" stop-color="#faf46c"/></radialGradient><radialGradient id="Безымянный_градиент_239-2" cx="1170.3" cy="-1544.66" r="19.74" gradientTransform="matrix(-0.83, 0.55, -0.55, -0.83, 847.37, -1498.22)" xlink:href="#Безымянный_градиент_239"/><radialGradient id="Безымянный_градиент_239-3" cx="194.21" cy="-1604.01" r="19.74" gradientTransform="translate(817.92 -1163.44) rotate(177.61)" xlink:href="#Безымянный_градиент_239"/><radialGradient id="Безымянный_градиент_239-4" cx="-672.12" cy="-1151.04" r="19.74" gradientTransform="translate(620.11 -893.48) rotate(-151.23)" xlink:href="#Безымянный_градиент_239"/><radialGradient id="Безымянный_градиент_239-5" cx="-1179.44" cy="-315.95" r="19.74" gradientTransform="translate(311.68 -765.73) rotate(-120.06)" xlink:href="#Безымянный_градиент_239"/><radialGradient id="Безымянный_градиент_239-6" cx="-1181.27" cy="663.22" r="19.74" gradientTransform="translate(-20.65 -815.62) rotate(-88.91)" xlink:href="#Безымянный_градиент_239"/><radialGradient id="Безымянный_градиент_239-7" cx="-725.11" cy="1451.34" r="19.74" gradientTransform="matrix(0.5, -0.87, 0.87, 0.5, -262.85, -1010.13)" xlink:href="#Безымянный_градиент_239"/><radialGradient id="Безымянный_градиент_239-8" cx="53.29" cy="1920.35" r="19.74" gradientTransform="translate(-382.11 -1297.42) rotate(-31.01)" xlink:href="#Безымянный_градиент_239"/><radialGradient id="Безымянный_градиент_239-9" cx="961.46" cy="1954.68" r="19.74" gradientTransform="translate(-347.68 -1606.34) rotate(-2.12)" xlink:href="#Безымянный_градиент_239"/><radialGradient id="Безымянный_градиент_239-10" cx="1771.45" cy="1546.61" r="19.74" gradientTransform="translate(-166.74 -1860.02) rotate(26.76)" xlink:href="#Безымянный_градиент_239"/><radialGradient id="Безымянный_градиент_239-11" cx="2244.82" cy="895.75" r="19.74" gradientTransform="matrix(0.61, 0.79, -0.79, 0.61, 76.95, -1986.16)" xlink:href="#Безымянный_градиент_239"/><radialGradient id="Безымянный_градиент_239-12" cx="2379.27" cy="-58.37" r="19.74" gradientTransform="translate(407.2 -1983.28) rotate(82.99)" xlink:href="#Безымянный_градиент_239"/><radialGradient id="Безымянный_градиент_239-13" cx="1962.73" cy="-1000.57" r="19.74" gradientTransform="translate(703.86 -1793.77) rotate(115.83)" xlink:href="#Безымянный_градиент_239"/><radialGradient id="Безымянный_градиент_239-14" cx="2031.83" cy="1280.42" r="15.76" xlink:href="#Безымянный_градиент_239"/><radialGradient id="Безымянный_градиент_239-15" cx="2383.78" cy="384.53" r="15.76" gradientTransform="matrix(0.35, 0.94, -0.94, 0.35, 263.22, -2006.93)" xlink:href="#Безымянный_градиент_239"/><radialGradient id="Безымянный_градиент_239-16" cx="2229.21" cy="-566.26" r="15.76" gradientTransform="translate(576.85 -1905.19) rotate(100.15)" xlink:href="#Безымянный_градиент_239"/><radialGradient id="Безымянный_градиент_239-17" cx="1611.85" cy="-1306.57" r="15.76" gradientTransform="translate(794.3 -1659.13) rotate(130.84)" xlink:href="#Безымянный_градиент_239"/><radialGradient id="Безымянный_градиент_239-18" cx="703.2" cy="-1626.62" r="15.76" gradientTransform="translate(855.96 -1334.99) rotate(161.51)" xlink:href="#Безымянный_градиент_239"/><radialGradient id="Безымянный_градиент_239-19" cx="-241.1" cy="-1438.59" r="15.76" gradientTransform="matrix(-0.98, -0.21, 0.21, -0.98, 744.22, -1024.77)" xlink:href="#Безымянный_градиент_239"/><radialGradient id="Безымянный_градиент_239-20" cx="-957.72" cy="-794.71" r="15.76" gradientTransform="translate(489.27 -814.88) rotate(-137.15)" xlink:href="#Безымянный_градиент_239"/><radialGradient id="Безымянный_градиент_239-21" cx="-1246.26" cy="123.7" r="15.76" gradientTransform="translate(163.7 -765.41) rotate(-106.47)" xlink:href="#Безымянный_градиент_239"/><radialGradient id="Безымянный_градиент_239-22" cx="-1023.79" cy="1060.92" r="15.76" gradientTransform="translate(-142.03 -886.84) rotate(-75.79)" xlink:href="#Безымянный_градиент_239"/><radialGradient id="Безымянный_градиент_239-23" cx="-357.08" cy="1755.29" r="15.76" gradientTransform="matrix(0.71, -0.71, 0.71, 0.71, -342.71, -1150.42)" xlink:href="#Безымянный_градиент_239"/><radialGradient id="Безымянный_градиент_239-24" cx="571.44" cy="2009.88" r="15.76" gradientTransform="translate(-380.79 -1477) rotate(-14.45)" xlink:href="#Безымянный_градиент_239"/><radialGradient id="Безымянный_градиент_239-25" cx="1501.1" cy="1755.67" r="15.76" gradientTransform="translate(-247.87 -1778.03) rotate(16.22)" xlink:href="#Безымянный_градиент_239"/><radialGradient id="Безымянный_градиент_282" cx="2115.37" cy="1288.48" r="6.99" gradientTransform="translate(-58.95 -1934.06) rotate(38.81)" gradientUnits="userSpaceOnUse"><stop offset="0" stop-color="#5c4514"/><stop offset="0.32" stop-color="#744d0c"/><stop offset="0.75" stop-color="#8f5703"/><stop offset="1" stop-color="#995a00"/></radialGradient><radialGradient id="Безымянный_градиент_282-2" cx="2300.96" cy="-325.88" r="6.96" gradientTransform="matrix(-0.12, 0.99, -0.99, -0.12, 610.39, -1853.11)" xlink:href="#Безымянный_градиент_282"/><radialGradient id="Безымянный_градиент_282-3" cx="2214.37" cy="8.22" r="6.61" gradientTransform="translate(501.11 -1918.24) rotate(86.3)" xlink:href="#Безымянный_градиент_282"/></defs><title>pineapple-1</title><g class="cls-2"><g id="Layer_1" data-name="Layer 1"><g class="cls-3"><path class="cls-4" d="M768.06,447.86c.68-.8,1.35-1.6,2-2.41a105.41,105.41,0,0,0,6.69-9.31h0v0a104.43,104.43,0,0,0,9-17.44,74.33,74.33,0,0,1,3.8-6.67c1.73-2.15,7.3-9.07,6.11-13.72-.57-2.23-1.5-10.95-2.31-19.42a105.51,105.51,0,0,0-1.61-18,.32.32,0,0,1,0-.07v0c-.2-1.12-.41-2.23-.64-3.34l.48.92s-.39-1.24-1-3.16a105.54,105.54,0,0,0-3.78-12.61c-1.44-4.94-2.68-9.39-2.78-10.49-.25-2.75-1-11.59-5.13-14.11-2.17-1.35-10.2-8.12-17.24-14.18-2.43-2.37-5-4.66-7.7-6.84-.65-.52-1.31-1-2-1.54l-2-1.71.51.63a104.86,104.86,0,0,0-26.16-14.16c-3.51-1.75-6.35-3.23-7.07-3.77-2.2-1.67-9.26-7-13.88-5.74-2.48.71-13.08,2.08-22.36,3.2a108.32,108.32,0,0,0-11.08,1.3l-3.56.41.22-.12-.44.14-.16,0h.09l-3.14,1a105.34,105.34,0,0,0-12.46,3.83c-4.77,1.43-9,2.63-10.1,2.73-2.74.27-11.58,1.13-14.07,5.23-1.2,2-6.79,8.73-12.28,15.23a108.82,108.82,0,0,0-8.57,9.43q-2,2.53-3.88,5.16l.18-.51-.77,1.34a105.15,105.15,0,0,0-8.43,14.43c-2.25,3.77-4.21,6.93-4.86,7.66-1.84,2.05-7.76,8.67-6.82,13.37.47,2.39,1,12,1.34,20.89a106,106,0,0,0,.57,15.33c0,.92,0,1.44,0,1.44l.07-.49a106.5,106.5,0,0,0,5.78,24.13,34.25,34.25,0,0,1,.68,4.16c.07,2.75.25,11.63,4.15,14.43,1.68,1.2,6.9,6.18,12.33,11.49a107,107,0,0,0,15.72,15.61A105.55,105.55,0,0,0,645.46,476a18.65,18.65,0,0,1,1.76,1.32c2,1.89,8.44,8,13.17,7.21,1.71-.29,7.14-.49,13.36-.61a106.2,106.2,0,0,0,27.65,0l-.4.17,1.24-.29a106.48,106.48,0,0,0,16.6-3.65,88.76,88.76,0,0,1,8.91-1.62c2.75,0,11.63-.18,14.45-4.07,1.43-2,8.19-8.89,14.5-15.22a105.07,105.07,0,0,0,10.53-10.47l1.31-1.29ZM665.6,276.07l.73-.38.88.05Z" transform="translate(-580.85 -270.52)"/><path class="cls-5" d="M767.76,443.59a102.61,102.61,0,1,1-15.65-144.27A102.61,102.61,0,0,1,767.76,443.59Z" transform="translate(-580.85 -270.52)"/><path class="cls-6" d="M759.3,436.79a91.76,91.76,0,1,1-14-129A91.76,91.76,0,0,1,759.3,436.79Z" transform="translate(-580.85 -270.52)"/><path class="cls-7" d="M712.4,399.07a31.57,31.57,0,1,1-4.81-44.39A31.57,31.57,0,0,1,712.4,399.07Z" transform="translate(-580.85 -270.52)"/><g class="cls-8"><path class="cls-9" d="M727.56,434.59a159.06,159.06,0,0,0-17.42-21.8,159.49,159.49,0,0,0,13.3,24.54c8.49,12.79,16.29,22.56,17.43,21.8S736.05,447.39,727.56,434.59Z" transform="translate(-580.85 -270.52)"/><path class="cls-10" d="M693.24,447.12a158.59,158.59,0,0,0-3.62-27.68,159.74,159.74,0,0,0-1.32,27.89c.65,15.34,2.27,27.73,3.63,27.67S693.88,462.46,693.24,447.12Z" transform="translate(-580.85 -270.52)"/><path class="cls-11" d="M657.4,440.08a158.85,158.85,0,0,0,11.21-25.56,158.89,158.89,0,0,0-15.55,23.18c-7.39,13.46-12.41,24.9-11.21,25.56S650,453.54,657.4,440.08Z" transform="translate(-580.85 -270.52)"/><path class="cls-12" d="M630.36,415.51a159.93,159.93,0,0,0,22.83-16.07,158.24,158.24,0,0,0-25.31,11.79c-13.29,7.69-23.5,14.89-22.82,16.07S617.07,423.2,630.36,415.51Z" transform="translate(-580.85 -270.52)"/><path class="cls-13" d="M619.94,380.49a159.61,159.61,0,0,0,27.85-1.94,158.89,158.89,0,0,0-27.75-3c-15.36-.3-27.82.57-27.85,1.94S604.59,380.2,619.94,380.49Z" transform="translate(-580.85 -270.52)"/><path class="cls-14" d="M627.9,347.37a159,159,0,0,0,25.3,11.8,159,159,0,0,0-22.82-16.08c-13.28-7.7-24.61-13-25.29-11.81S614.62,339.66,627.9,347.37Z" transform="translate(-580.85 -270.52)"/><path class="cls-15" d="M650.81,322.33a158.64,158.64,0,0,0,16.44,22.56,158.86,158.86,0,0,0-12.2-25.1c-7.92-13.16-15.28-23.26-16.45-22.56S642.9,309.17,650.81,322.33Z" transform="translate(-580.85 -270.52)"/><path class="cls-16" d="M683,311.49a158.12,158.12,0,0,0,3.5,27.69,159,159,0,0,0,1.44-27.88c-.57-15.34-2.14-27.74-3.5-27.69S682.39,296.14,683,311.49Z" transform="translate(-580.85 -270.52)"/><path class="cls-17" d="M716.34,317.52A159.37,159.37,0,0,0,706,343.46a159.88,159.88,0,0,0,14.73-23.72c6.91-13.71,11.53-25.32,10.31-25.94S723.26,303.81,716.34,317.52Z" transform="translate(-580.85 -270.52)"/><path class="cls-18" d="M740.2,335.78a159.13,159.13,0,0,0-20.49,19,159.35,159.35,0,0,0,23.51-15.05c12.15-9.39,21.32-17.88,20.48-19S752.34,326.39,740.2,335.78Z" transform="translate(-580.85 -270.52)"/><path class="cls-19" d="M755.1,368.57a158.94,158.94,0,0,0-27.29,5.84,158.33,158.33,0,0,0,27.89-.94c15.24-1.87,27.47-4.49,27.3-5.84S770.34,366.7,755.1,368.57Z" transform="translate(-580.85 -270.52)"/><path class="cls-20" d="M750.19,406.71a159.17,159.17,0,0,0-26.1-9.89A160.13,160.13,0,0,0,748,411.16c13.82,6.69,25.51,11.12,26.1,9.89S764,413.4,750.19,406.71Z" transform="translate(-580.85 -270.52)"/></g><g class="cls-21"><path class="cls-22" d="M720.27,335.76a127.62,127.62,0,0,0-12.38,18.53,126.58,126.58,0,0,0,15.46-16.06c7.68-9.55,13.22-17.85,12.37-18.53S728,326.2,720.27,335.76Z" transform="translate(-580.85 -270.52)"/><path class="cls-23" d="M737.93,358.41a127.44,127.44,0,0,0-20.1,9.63,126.5,126.5,0,0,0,21.48-5.93c11.49-4.3,20.49-8.61,20.1-9.63S749.41,354.12,737.93,358.41Z" transform="translate(-580.85 -270.52)"/><path class="cls-24" d="M741.56,386.91a127.15,127.15,0,0,0-22.2-2,127.36,127.36,0,0,0,21.51,5.85c12.06,2.17,22,3,22.2,2S753.63,389.07,741.56,386.91Z" transform="translate(-580.85 -270.52)"/><path class="cls-25" d="M730.15,413.27a126.73,126.73,0,0,0-18.09-13,126.72,126.72,0,0,0,15.51,16c9.27,8,17.37,13.85,18.09,13S739.42,421.29,730.15,413.27Z" transform="translate(-580.85 -270.52)"/><path class="cls-26" d="M706.88,430.12A126.24,126.24,0,0,0,698,409.69a127,127,0,0,0,5.17,21.68C707,443,711,452.14,712.05,451.8S710.77,441.75,706.88,430.12Z" transform="translate(-580.85 -270.52)"/><path class="cls-27" d="M678.28,432.74A127.44,127.44,0,0,0,681,410.63a127.23,127.23,0,0,0-6.61,21.28c-2.59,12-3.82,21.88-2.76,22.11S675.69,444.73,678.28,432.74Z" transform="translate(-580.85 -270.52)"/><path class="cls-28" d="M652.34,420.4A126.45,126.45,0,0,0,666,402.79a126.69,126.69,0,0,0-16.55,14.93c-8.34,9-14.45,16.88-13.65,17.62S644,429.39,652.34,420.4Z" transform="translate(-580.85 -270.52)"/><path class="cls-29" d="M636.32,396.56a127.18,127.18,0,0,0,20.73-8.19,127.19,127.19,0,0,0-21.85,4.41c-11.76,3.47-21,7.14-20.73,8.18S624.56,400,636.32,396.56Z" transform="translate(-580.85 -270.52)"/><path class="cls-30" d="M634.71,367.88a126.49,126.49,0,0,0,22,3.53,126.63,126.63,0,0,0-21-7.35c-11.88-3-21.73-4.6-22-3.54S622.82,364.87,634.71,367.88Z" transform="translate(-580.85 -270.52)"/><path class="cls-31" d="M648,342.39a127.64,127.64,0,0,0,17.12,14.27,126.64,126.64,0,0,0-14.34-17.07c-8.68-8.65-16.35-15-17.12-14.26S639.26,333.74,648,342.39Z" transform="translate(-580.85 -270.52)"/><path class="cls-32" d="M672.34,327.22a127,127,0,0,0,7.45,21,127.54,127.54,0,0,0-3.62-22c-3.06-11.87-6.4-21.28-7.46-21S669.28,315.35,672.34,327.22Z" transform="translate(-580.85 -270.52)"/><path class="cls-33" d="M701.06,326.62a127.33,127.33,0,0,0-4.3,21.87,126.8,126.8,0,0,0,8.09-20.76c3.43-11.78,5.36-21.57,4.31-21.87S704.49,314.85,701.06,326.62Z" transform="translate(-580.85 -270.52)"/></g><path class="cls-34" d="M787.74,401.42a4.93,4.93,0,1,1-.75-6.93A4.93,4.93,0,0,1,787.74,401.42Z" transform="translate(-580.85 -270.52)"/><path class="cls-35" d="M659.54,478.39a4.91,4.91,0,1,1,5.46-4.3A4.91,4.91,0,0,1,659.54,478.39Z" transform="translate(-580.85 -270.52)"/><path class="cls-36" d="M635.47,299.82a4.66,4.66,0,1,1,4.35-5A4.66,4.66,0,0,1,635.47,299.82Z" transform="translate(-580.85 -270.52)"/></g></g></g></svg>