<svg xmlns="http://www.w3.org/2000/svg" xmlns:xlink="http://www.w3.org/1999/xlink" viewBox="0 0 219.95 219.67"><defs><style>.cls-1{fill:none;}.cls-2{isolation:isolate;}.cls-3{clip-path:url(#clip-path);}.cls-4{fill:url(#Безымянный_градиент_311);}.cls-5{fill:url(#Безымянный_градиент_268);}.cls-10,.cls-11,.cls-12,.cls-13,.cls-14,.cls-15,.cls-16,.cls-17,.cls-18,.cls-19,.cls-20,.cls-22,.cls-23,.cls-24,.cls-25,.cls-26,.cls-27,.cls-28,.cls-29,.cls-30,.cls-31,.cls-32,.cls-33,.cls-6,.cls-7,.cls-9{opacity:0.5;}.cls-6,.cls-7{mix-blend-mode:screen;}.cls-6{fill:url(#Безымянный_градиент_299);}.cls-7{fill:url(#Безымянный_градиент_239);}.cls-8{opacity:0.75;}.cls-10,.cls-11,.cls-12,.cls-13,.cls-14,.cls-15,.cls-16,.cls-17,.cls-18,.cls-19,.cls-20,.cls-21,.cls-22,.cls-23,.cls-24,.cls-25,.cls-26,.cls-27,.cls-28,.cls-29,.cls-30,.cls-31,.cls-32,.cls-33,.cls-8,.cls-9{mix-blend-mode:multiply;}.cls-9{fill:url(#Безымянный_градиент_239-2);}.cls-10{fill:url(#Безымянный_градиент_239-3);}.cls-11{fill:url(#Безымянный_градиент_239-4);}.cls-12{fill:url(#Безымянный_градиент_239-5);}.cls-13{fill:url(#Безымянный_градиент_239-6);}.cls-14{fill:url(#Безымянный_градиент_239-7);}.cls-15{fill:url(#Безымянный_градиент_239-8);}.cls-16{fill:url(#Безымянный_градиент_239-9);}.cls-17{fill:url(#Безымянный_градиент_239-10);}.cls-18{fill:url(#Безымянный_градиент_239-11);}.cls-19{fill:url(#Безымянный_градиент_239-12);}.cls-20{fill:url(#Безымянный_градиент_239-13);}.cls-21{opacity:0.7;}.cls-22{fill:url(#Безымянный_градиент_239-14);}.cls-23{fill:url(#Безымянный_градиент_239-15);}.cls-24{fill:url(#Безымянный_градиент_239-16);}.cls-25{fill:url(#Безымянный_градиент_239-17);}.cls-26{fill:url(#Безымянный_градиент_239-18);}.cls-27{fill:url(#Безымянный_градиент_239-19);}.cls-28{fill:url(#Безымянный_градиент_239-20);}.cls-29{fill:url(#Безымянный_градиент_239-21);}.cls-30{fill:url(#Безымянный_градиент_239-22);}.cls-31{fill:url(#Безымянный_градиент_239-23);}.cls-32{fill:url(#Безымянный_градиент_239-24);}.cls-33{fill:url(#Безымянный_градиент_239-25);}.cls-34{fill:url(#Безымянный_градиент_282);}.cls-35{fill:url(#Безымянный_градиент_282-2);}.cls-36{fill:url(#Безымянный_градиент_282-3);}</style><clipPath id="clip-path" transform="translate(-568.08 -273.68)"><path class="cls-1" d="M677.52,383.51l33.6,106.59a111.77,111.77,0,0,0,73-140.2Z"/></clipPath><radialGradient id="Безымянный_градиент_311" cx="-1197.59" cy="-743.55" r="105.62" gradientTransform="matrix(0.95, -0.3, 0.3, 0.95, 2044.05, 732.95)" gradientUnits="userSpaceOnUse"><stop offset="0" stop-color="#eda000"/><stop offset="0.04" stop-color="#e89c00"/><stop offset="0.47" stop-color="#bd7800"/><stop offset="0.8" stop-color="#a26100"/><stop offset="1" stop-color="#985900"/></radialGradient><radialGradient id="Безымянный_градиент_268" cx="-1197.65" cy="-743.51" r="139.62" gradientTransform="matrix(0.95, -0.3, 0.3, 0.95, 2044.05, 732.95)" gradientUnits="userSpaceOnUse"><stop offset="0.33" stop-color="#ffe400"/><stop offset="0.67" stop-color="#ffe200"/><stop offset="0.79" stop-color="#ffdb00"/><stop offset="0.88" stop-color="#ffd000"/><stop offset="0.95" stop-color="#ffbf00"/><stop offset="1" stop-color="#ffad00"/></radialGradient><radialGradient id="Безымянный_градиент_299" cx="-1197.65" cy="-743.51" r="89.34" gradientTransform="matrix(0.95, -0.3, 0.3, 0.95, 2044.05, 732.95)" gradientUnits="userSpaceOnUse"><stop offset="0" stop-color="#fff"/><stop offset="0.23" stop-color="#fcfcfc"/><stop offset="0.36" stop-color="#f4f4f4"/><stop offset="0.48" stop-color="#e6e6e6"/><stop offset="0.58" stop-color="#d2d2d2"/><stop offset="0.67" stop-color="#b7b7b7"/><stop offset="0.75" stop-color="#979797"/><stop offset="0.83" stop-color="#717171"/><stop offset="0.91" stop-color="#444"/><stop offset="0.98" stop-color="#131313"/><stop offset="1"/></radialGradient><radialGradient id="Безымянный_градиент_239" cx="-1197.65" cy="-743.51" r="31.57" gradientTransform="matrix(0.95, -0.3, 0.3, 0.95, 2044.05, 732.95)" gradientUnits="userSpaceOnUse"><stop offset="0" stop-color="#fffab0"/><stop offset="0.37" stop-color="#fdf791"/><stop offset="0.77" stop-color="#fbf576"/><stop offset="1" stop-color="#faf46c"/></radialGradient><radialGradient id="Безымянный_градиент_239-2" cx="169.49" cy="2162.46" r="19.74" gradientTransform="translate(2909.24 220.19) rotate(90.15)" xlink:href="#Безымянный_градиент_239"/><radialGradient id="Безымянный_градиент_239-3" cx="1255.57" cy="2085.71" r="19.74" gradientTransform="matrix(-0.52, 0.85, -0.85, -0.52, 3170.88, 430.18)" xlink:href="#Безымянный_градиент_239"/><radialGradient id="Безымянный_градиент_239-4" cx="2145.18" cy="1457.8" r="19.74" gradientTransform="translate(3285.88 745.08) rotate(152.46)" xlink:href="#Безымянный_градиент_239"/><radialGradient id="Безымянный_градиент_239-5" cx="2581.29" cy="459.58" r="19.74" gradientTransform="translate(3221.17 1073.52) rotate(-176.38)" xlink:href="#Безымянный_градиент_239"/><radialGradient id="Безымянный_градиент_239-6" cx="2438.41" cy="-620.57" r="19.74" gradientTransform="translate(2996.31 1321.16) rotate(-145.21)" xlink:href="#Безымянный_градиент_239"/><radialGradient id="Безымянный_градиент_239-7" cx="1818.29" cy="-1424.87" r="19.74" gradientTransform="translate(2698.75 1416.06) rotate(-116.21)" xlink:href="#Безымянный_градиент_239"/><radialGradient id="Безымянный_градиент_239-8" cx="889.5" cy="-1826.26" r="19.74" gradientTransform="matrix(0.05, -1, 1, 0.05, 2393.19, 1354.52)" xlink:href="#Безымянный_градиент_239"/><radialGradient id="Безымянный_градиент_239-9" cx="-117.05" cy="-1730.32" r="19.74" gradientTransform="matrix(0.52, -0.85, 0.85, 0.52, 2155.98, 1154.41)" xlink:href="#Безымянный_градиент_239"/><radialGradient id="Безымянный_градиент_239-10" cx="-952.47" cy="-1159.78" r="19.74" gradientTransform="translate(2045.4 864.11) rotate(-29.54)" xlink:href="#Безымянный_градиент_239"/><radialGradient id="Безымянный_градиент_239-11" cx="-1378.72" cy="-371.77" r="19.74" gradientTransform="translate(2074.98 590.15) rotate(-4.03)" xlink:href="#Безымянный_градиент_239"/><radialGradient id="Безымянный_градиент_239-12" cx="-1385.26" cy="702.33" r="19.74" gradientTransform="translate(2261.97 317.61) rotate(26.68)" xlink:href="#Безымянный_градиент_239"/><radialGradient id="Безымянный_градиент_239-13" cx="-786.31" cy="1679.36" r="19.74" gradientTransform="matrix(0.51, 0.86, -0.86, 0.51, 2583.13, 175.54)" xlink:href="#Безымянный_градиент_239"/><radialGradient id="Безымянный_градиент_239-14" cx="-1197.65" cy="-797.78" r="15.76" xlink:href="#Безымянный_градиент_239"/><radialGradient id="Безымянный_градиент_239-15" cx="-1453.47" cy="242.95" r="15.76" gradientTransform="translate(2161.28 425.98) rotate(13.18)" xlink:href="#Безымянный_градиент_239"/><radialGradient id="Безымянный_градиент_239-16" cx="-1142.92" cy="1269.78" r="15.76" gradientTransform="matrix(0.72, 0.69, -0.69, 0.72, 2419.84, 220.91)" xlink:href="#Безымянный_градиент_239"/><radialGradient id="Безымянный_градиент_239-17" cx="-350.56" cy="1994.75" r="15.76" gradientTransform="translate(2746.44 175.15) rotate(74.53)" xlink:href="#Безымянный_градиент_239"/><radialGradient id="Безымянный_градиент_239-18" cx="698.86" cy="2214.4" r="15.76" gradientTransform="matrix(-0.26, 0.96, -0.96, -0.26, 3050.71, 304.22)" xlink:href="#Безымянный_градиент_239"/><radialGradient id="Безымянный_градиент_239-19" cx="1713.56" cy="1867.59" r="15.76" gradientTransform="translate(3246.28 570.16) rotate(135.87)" xlink:href="#Безымянный_градиент_239"/><radialGradient id="Безымянный_градиент_239-20" cx="2409.28" cy="1049.82" r="15.76" gradientTransform="matrix(-0.97, 0.23, -0.23, -0.97, 3278.46, 897.18)" xlink:href="#Безымянный_градиент_239"/><radialGradient id="Безымянный_градиент_239-21" cx="2592.79" cy="-6.37" r="15.76" gradientTransform="translate(3140.46 1197.21) rotate(-162.78)" xlink:href="#Безымянный_градиент_239"/><radialGradient id="Безымянный_градиент_239-22" cx="2209.42" cy="-1009.32" r="15.76" gradientTransform="matrix(-0.67, -0.74, 0.74, -0.67, 2868.24, 1382.8)" xlink:href="#Безымянный_градиент_239"/><radialGradient id="Безымянный_градиент_239-23" cx="1368.66" cy="-1674.88" r="15.76" gradientTransform="translate(2538.04 1404.05) rotate(-101.44)" xlink:href="#Безымянный_градиент_239"/><radialGradient id="Безымянный_градиент_239-24" cx="306.17" cy="-1820.08" r="15.76" gradientTransform="translate(2244.49 1254.89) rotate(-70.76)" xlink:href="#Безымянный_градиент_239"/><radialGradient id="Безымянный_градиент_239-25" cx="-682.79" cy="-1402.79" r="15.76" gradientTransform="matrix(0.77, -0.64, 0.64, 0.77, 2069.13, 976.03)" xlink:href="#Безымянный_градиент_239"/><radialGradient id="Безымянный_градиент_282" cx="-1114.11" cy="-789.72" r="6.99" gradientTransform="matrix(0.95, -0.3, 0.3, 0.95, 2044.05, 732.95)" gradientUnits="userSpaceOnUse"><stop offset="0" stop-color="#5c4514"/><stop offset="0.32" stop-color="#744d0c"/><stop offset="0.75" stop-color="#8f5703"/><stop offset="1" stop-color="#995a00"/></radialGradient><radialGradient id="Безымянный_градиент_282-2" cx="-1171.68" cy="1311.6" r="6.96" gradientTransform="translate(2482.06 220.09) rotate(40.5)" xlink:href="#Безымянный_градиент_282"/><radialGradient id="Безымянный_градиент_282-3" cx="-1500.64" cy="983.87" r="6.61" gradientTransform="translate(2368.47 276.84) rotate(29.99)" xlink:href="#Безымянный_градиент_282"/></defs><title>pineapple-2</title><g class="cls-2"><g id="Layer_1" data-name="Layer 1"><g class="cls-3"><path class="cls-4" d="M779.85,355.25c-.28-1-.58-2-.89-3a105.81,105.81,0,0,0-4-10.73h0v0a105.47,105.47,0,0,0-9.52-17.17,73.14,73.14,0,0,1-3.44-6.86c-.83-2.63-3.5-11.1-8-12.69-2.17-.76-9.94-4.83-17.43-8.85a106.25,106.25,0,0,0-15.89-8.65l-.06,0h0c-1-.45-2.09-.9-3.14-1.32l1,.12-3.16-.95a107.77,107.77,0,0,0-12.6-3.85c-4.9-1.53-9.29-3-10.26-3.5-2.43-1.32-10.23-5.56-14.59-3.57-2.32,1.07-12.42,4-21.36,6.49q-5,1.05-10,2.61l-2.38.79-2.5.67.8-.07a105.33,105.33,0,0,0-26.3,13.91,76.79,76.79,0,0,1-7.06,3.79c-2.6.9-11,3.8-12.46,8.37-.79,2.45-5.53,12-9.75,20.38a105.44,105.44,0,0,0-5.06,9.94c-.78,1.53-1.37,2.65-1.64,3.18l0-.24s-.05.16-.13.45l-.07.13,0-.06c-.18.6-.5,1.72-.92,3.15a105.66,105.66,0,0,0-3.73,12.5c-1.46,4.76-2.82,9-3.33,9.91-1.3,2.43-5.49,10.26-3.46,14.61,1,2.09,3.5,10.49,5.87,18.67a107.7,107.7,0,0,0,3.09,12.35c.65,2.07,1.37,4.1,2.14,6.1l-.32-.43.68,1.38a106.56,106.56,0,0,0,7.33,15c1.89,4,3.43,7.34,3.68,8.29.69,2.67,2.91,11.27,7.34,13.1,2.25.92,10.51,5.84,18.13,10.47a107.39,107.39,0,0,0,13.06,8l1.23.76-.37-.33a105.89,105.89,0,0,0,23.28,8.57,37.15,37.15,0,0,1,3.84,1.74c2.33,1.48,9.82,6.25,14.31,4.55,1.92-.72,9-2.31,16.4-3.88a106.1,106.1,0,0,0,47-16.22,19,19,0,0,1,2.07-.74c2.69-.61,11.35-2.57,13.3-6.95.71-1.59,3.57-6.21,6.91-11.46a106,106,0,0,0,21.9-39.58c1.64-4.07,3.07-7.49,3.6-8.31,1.49-2.32,6.3-9.79,4.64-14.29-.85-2.28-2.86-11.74-4.63-20.51a105.22,105.22,0,0,0-2.87-14.56l-.35-1.81Zm-199.77-10,.09-.82.53-.7C580.49,344.2,580.28,344.7,580.08,345.21Z" transform="translate(-568.08 -273.68)"/><path class="cls-5" d="M776.13,353.14a102.61,102.61,0,1,1-128.71-67A102.61,102.61,0,0,1,776.13,353.14Z" transform="translate(-568.08 -273.68)"/><path class="cls-6" d="M765.78,356.41a91.75,91.75,0,1,1-115.1-59.93A91.76,91.76,0,0,1,765.78,356.41Z" transform="translate(-568.08 -273.68)"/><path class="cls-7" d="M708.38,374.5a31.57,31.57,0,1,1-39.6-20.62A31.56,31.56,0,0,1,708.38,374.5Z" transform="translate(-568.08 -273.68)"/><g class="cls-8"><path class="cls-9" d="M746.35,381.59a159.14,159.14,0,0,0-27.81,2.4,158.73,158.73,0,0,0,27.8,2.55c15.36,0,27.81-1,27.81-2.41S761.71,381.63,746.35,381.59Z" transform="translate(-568.08 -273.68)"/><path class="cls-10" d="M737.74,417.09a158.51,158.51,0,0,0-25-12.33,159.58,159.58,0,0,0,22.48,16.56c13.12,8,24.33,13.5,25,12.33S750.86,425.08,737.74,417.09Z" transform="translate(-568.08 -273.68)"/><path class="cls-11" d="M712,443a159.13,159.13,0,0,0-15-23.52,159.21,159.21,0,0,0,10.67,25.8c7.1,13.62,13.83,24.15,15,23.51S719.09,456.63,712,443Z" transform="translate(-568.08 -273.68)"/><path class="cls-12" d="M676.55,451.88a159.18,159.18,0,0,0-.71-27.91,159.37,159.37,0,0,0-4.22,27.6c-1,15.32-.66,27.81.71,27.9S675.58,467.21,676.55,451.88Z" transform="translate(-568.08 -273.68)"/><path class="cls-13" d="M641.64,441.12a159,159,0,0,0,13.83-24.24,159,159,0,0,0-17.89,21.42c-8.77,12.62-15,23.47-13.84,24.25S632.87,453.74,641.64,441.12Z" transform="translate(-568.08 -273.68)"/><path class="cls-14" d="M618.49,416.12a158.91,158.91,0,0,0,23.85-14.49,159.37,159.37,0,0,0-26,10.06c-13.78,6.78-24.46,13.27-23.86,14.5S604.71,422.91,618.49,416.12Z" transform="translate(-568.08 -273.68)"/><path class="cls-15" d="M610.37,383.18A158.82,158.82,0,0,0,638.26,382a159.3,159.3,0,0,0-27.66-3.77c-15.34-.72-27.82-.19-27.89,1.17S595,382.46,610.37,383.18Z" transform="translate(-568.08 -273.68)"/><path class="cls-16" d="M619.18,350.41a158.9,158.9,0,0,0,25,12.45,159.25,159.25,0,0,0-22.39-16.66c-13.09-8-24.27-13.61-25-12.45S606.09,342.38,619.18,350.41Z" transform="translate(-568.08 -273.68)"/><path class="cls-17" d="M642.72,326a158.89,158.89,0,0,0,15.86,23A159.33,159.33,0,0,0,647,323.54c-7.57-13.36-14.68-23.64-15.86-23S635.15,312.62,642.72,326Z" transform="translate(-568.08 -273.68)"/><path class="cls-18" d="M671.14,316.27a159.09,159.09,0,0,0,4.42,27.56,159.65,159.65,0,0,0,.52-27.91c-1.08-15.32-3.06-27.66-4.42-27.56S670.07,301,671.14,316.27Z" transform="translate(-568.08 -273.68)"/><path class="cls-19" d="M706.69,322.05a159.18,159.18,0,0,0-10.27,26,160.07,160.07,0,0,0,14.69-23.74c6.9-13.72,11.49-25.34,10.28-25.95S713.59,308.33,706.69,322.05Z" transform="translate(-568.08 -273.68)"/><path class="cls-20" d="M735.7,347.29A159.71,159.71,0,0,0,713,363.52a158.57,158.57,0,0,0,25.22-12c13.24-7.78,23.4-15.05,22.71-16.23S748.94,339.5,735.7,347.29Z" transform="translate(-568.08 -273.68)"/></g><g class="cls-21"><path class="cls-22" d="M660.07,332.83a127.45,127.45,0,0,0,8.56,20.58,127,127,0,0,0-4.8-21.76c-3.68-11.7-7.51-20.91-8.55-20.58S656.39,321.14,660.07,332.83Z" transform="translate(-568.08 -273.68)"/><path class="cls-23" d="M688.72,330.71a126.39,126.39,0,0,0-3.14,22.06,126.76,126.76,0,0,0,7-21.16c2.79-11.94,4.2-21.82,3.14-22.07S691.51,318.77,688.72,330.71Z" transform="translate(-568.08 -273.68)"/><path class="cls-24" d="M714.44,343.49a126.81,126.81,0,0,0-14,17.38,127.61,127.61,0,0,0,16.8-14.64c8.49-8.84,14.74-16.63,14-17.38S722.93,334.65,714.44,343.49Z" transform="translate(-568.08 -273.68)"/><path class="cls-25" d="M730,367.61a127,127,0,0,0-20.87,7.83,126.69,126.69,0,0,0,21.93-4c11.81-3.27,21.15-6.77,20.86-7.82S741.86,364.34,730,367.61Z" transform="translate(-568.08 -273.68)"/><path class="cls-26" d="M731.16,396.32a126.81,126.81,0,0,0-21.94-3.92,126.69,126.69,0,0,0,20.9,7.72c11.83,3.22,21.66,5,21.94,3.92S743,399.53,731.16,396.32Z" transform="translate(-568.08 -273.68)"/><path class="cls-27" d="M717.47,421.57A127.41,127.41,0,0,0,700.6,407a126.63,126.63,0,0,0,14,17.31c8.53,8.8,16.09,15.32,16.87,14.56S726,430.37,717.47,421.57Z" transform="translate(-568.08 -273.68)"/><path class="cls-28" d="M692.82,436.31a127.66,127.66,0,0,0-7.09-21.13A127.57,127.57,0,0,0,689,437.23c2.85,11.92,6,21.39,7.08,21.13S695.67,448.23,692.82,436.31Z" transform="translate(-568.08 -273.68)"/><path class="cls-29" d="M664.09,436.41a127.17,127.17,0,0,0,4.69-21.79,127,127,0,0,0-8.46,20.62c-3.63,11.72-5.73,21.47-4.68,21.79S660.46,448.12,664.09,436.41Z" transform="translate(-568.08 -273.68)"/><path class="cls-30" d="M639.33,421.85a127.22,127.22,0,0,0,15.15-16.36,127.33,127.33,0,0,0-17.79,13.43c-9.1,8.22-15.88,15.54-15.15,16.35S630.24,430.06,639.33,421.85Z" transform="translate(-568.08 -273.68)"/><path class="cls-31" d="M625.47,396.69a126.67,126.67,0,0,0,21.37-6.34,127.35,127.35,0,0,0-22.15,2.47c-12,2.43-21.58,5.26-21.37,6.33S613.45,399.12,625.47,396.69Z" transform="translate(-568.08 -273.68)"/><path class="cls-32" d="M626.38,368A126.52,126.52,0,0,0,648,373.43a127.27,127.27,0,0,0-20.31-9.18c-11.58-4-21.25-6.48-21.62-5.45S614.81,363.94,626.38,368Z" transform="translate(-568.08 -273.68)"/><path class="cls-33" d="M641.82,343.75a126.64,126.64,0,0,0,15.8,15.71,127.71,127.71,0,0,0-12.78-18.26c-7.9-9.37-15-16.41-15.81-15.71S633.92,334.37,641.82,343.75Z" transform="translate(-568.08 -273.68)"/></g><path class="cls-34" d="M752.14,313.12A4.93,4.93,0,1,1,746,309.9,4.94,4.94,0,0,1,752.14,313.12Z" transform="translate(-568.08 -273.68)"/><path class="cls-35" d="M745.06,462.49a4.92,4.92,0,1,1-.55-6.94A4.92,4.92,0,0,1,745.06,462.49Z" transform="translate(-568.08 -273.68)"/><path class="cls-36" d="M583.13,383.46a4.67,4.67,0,1,1-1.71-6.38A4.68,4.68,0,0,1,583.13,383.46Z" transform="translate(-568.08 -273.68)"/></g></g></g></svg>