<svg id="Layer_1" data-name="Layer 1" xmlns="http://www.w3.org/2000/svg" xmlns:xlink="http://www.w3.org/1999/xlink" viewBox="0 0 529.46 529.46"><defs><style>.cls-1{fill:url(#radial-gradient);}
.cls-2{fill:url(#radial-gradient-2);}.cls-3{fill:#fcc047;}.cls-3,.cls-4{opacity:0.5;}.cls-4{fill:#fff1b8;}.cls-5{opacity:0.7;}.cls-6{fill:#fff;}</style><radialGradient id="radial-gradient" cx="264.73" cy="264.73" r="264.73" gradientUnits="userSpaceOnUse"><stop offset="0" stop-color="#fff"/><stop offset="0.62" stop-color="#e7804a"/><stop offset="0.84" stop-color="#df5209"/><stop offset="0.86" stop-color="#e0550a"/><stop offset="0.87" stop-color="#e15f0d"/><stop offset="0.89" stop-color="#e46f12"/><stop offset="0.9" stop-color="#e8861a"/><stop offset="0.92" stop-color="#eda423"/><stop offset="0.93" stop-color="#f2bf2c"/><stop offset="0.94" stop-color="#edb429"/><stop offset="0.96" stop-color="#df9823"/><stop offset="0.98" stop-color="#ca6918"/><stop offset="0.99" stop-color="#bd4e11"/></radialGradient><radialGradient id="radial-gradient-2" cx="675.83" cy="362.27" r="240.48" gradientUnits="userSpaceOnUse"><stop offset="0" stop-color="#ffce50"/><stop offset="0.52" stop-color="#ffce52"/><stop offset="0.71" stop-color="#ffcd59"/><stop offset="0.84" stop-color="#ffcc64"/><stop offset="0.95" stop-color="#ffcb75"/><stop offset="1" stop-color="#ffca81"/></radialGradient></defs><title>pizza-dough</title><circle class="cls-1" cx="264.73" cy="264.73" r="264.73"/><g id="sauce"><path class="cls-2" d="M818.55,180.7c-5.46-1-6.83-3.06-7.09-5.68-1.16.29-4.52,1.36-6.77-.92-6.47-6.56-12.33-10.95-19.51-16.72-1.23.43-6.1.24-6.95-3.35-9.74-.11-18.38-3.47-19.67-8.32-5.49,2.14-15.12,3.29-20.68,1a5,5,0,0,1-2.86-4.48c-2.38.14-7.18-1-8.62-4.88q-5.68-1.84-11.47-3.29c-4.07-.78-6-3.7-10.08-4.48-3.09-.33-5.1,4-11.38,1.22-6.12,2.7-9.33,1-13.15-.24-8.17.13-14.21,1.2-21.58,4.77-2.69,1.42-6.24,2.72-8.66,4.64-2.17,1.71-6.42.63-10.34-1.05-7.35,10.17-30.49,7.29-43.61,10.8a6.13,6.13,0,0,1-4.65-1.8c-1.63,1-6.31,7.38-11.07,7.77,3.07,2.84,1.8,8-2.86,8-6.24,0-28.37,16.81-34.55,10.86l0,0c-.39,1.46-.38,3.45-1.16,4.27-1.41,1.48-3.32,2.51-6.75,3.5a46.33,46.33,0,0,1-5.31,7.82A65,65,0,0,1,515.21,202c-.22,4.73-3.83,16.14-13,19.28a9.91,9.91,0,0,0-.05,4.93,3.08,3.08,0,0,1-2.12,3.74c-6.93,1.21-18.54,6.24-21.24,10.44a23.58,23.58,0,0,0,3.59,8.34c1.62,2.42,1.6,5.6-1.89,6.09-.83.12-3.24-.67-4-.54a4.12,4.12,0,0,1-1.19,5c-3.6,2.44-10.67,9.51-11.07,10.35.1,2.1.27,4.34-.3,5.94A8.34,8.34,0,0,1,462.4,278c.13,3.66,1.26,7.23.67,10.85-.76,4.7-4.88,6.35-7.85,9.62-4.29,4.71-.15,12.14-4.56,16.63-6.37,6.48-3.94,14.52-1.85,19.1,2.58,5.65,3,11.39,0,15-4.15,5.17-1.89,15.14,5.51,18.43,3.79,1.69,2.19,8.26-2.1,9.62-7.94,2.54,4.95,14.75,6.76,15.38,3.1,1.08,5.06,5.51,2.11,8-3.26,2.74-6.77,5.38-4.73,7.53,4.94,5.21,8.71,21.14,4.28,31.21-5.72,13,4.24,30.7,16.62,37.64,11.89,6.67,16.27,14.25,20,32.16,8,0,12.67,8.28,15.94,13.77,9.47,15.89,29.34,17.23,35.12,20.14,13.83,7,15,14.92,15,14.92,10.8,1.07,25.25,4.57,26.15,14.23A39.64,39.64,0,0,0,604.13,569c5.56-2.7,10.38.17,10.61,3.78.18,2.67.35,5.34.53,8,6.56-2.27,11.06-4.2,17.41-1.15,1.5.72,5.6,6.09,6,7.27,8.81-13.29,18-9.53,19-6.94a26.4,26.4,0,0,1,1.92,8c17.46-11.8,42.36-9.6,57.61-4.83,0-7.74,13-7,14-4.46,7-5.83,15.44-5.22,19-3.87,7.79-3.4,14.9-10.77,23.37-10.16,9.6.68,22.49-2.18,23.37-9.9s2.6-10.34,6.9-14.28c5-4.61,11.39-.17,12.37-6.31,1.53-9.53,6.62-18.14,16.27-20.43,2-.47,4.88.2,6.64-.45,3.49-1.3,3.89-4.57,5.27-7.81,2.9-6.84,2.28-11.83,5.18-18.68,1-2.41,4.73-5.73,10.67-9.11,8.21-4.68,12.29-19.83,9.51-29.57-1.84-6.45-.65-8.82,4.2-13.31,5.13-4.76.3-11.6,4.07-17.43,1.21-1.88,3.07-3,4.85-4.23l.3-3.24a4.82,4.82,0,0,1,5.07-4.44c-1.41-3-2.83-4.69-3.73-7.86-1.16-4.07,3.48-8.47,8.13-6.33-3.75-7.61,1.54-14.79,5.37-13.09a13.86,13.86,0,0,0-9.21-10.75c-4-1.4-4.28-7.13,0-8.41,10.26-3.09,3.65-19.52,3.38-26.89a48,48,0,0,1,2.79-17.64c-.9-.47-7.92-3.69-10.07-6s-.39-6.9,2.82-11.87c1.73-2.68,5.43-5.27.74-7-2.59-.93-3.89-4.26-1.68-6.37,5-4.76-4.69-13.85-8.34-17-2.92-2.5-7.83-2.54-9.92-5.58a6.07,6.07,0,0,1-.31-5.84c1.72-4.22,0-6.1-2-8.85-1-1.3-2.2-2.59-3.08-4a40.88,40.88,0,0,1-4.54-10.54c-1-3.49-6.31-19-8.65-22.92-3.07-5.15-10-6.93-11.78-7.8C830.52,197,817.26,185.91,818.55,180.7Z" transform="translate(-411.1 -97.54)"/></g><path class="cls-3" d="M935.11,372.07c-.13-2.45-1.21-5.13-1.34-7.6,1.93-1,3.57-4.36.58-7.5,1.54-1,1.83-3.25.07-5.94q-.06-4.08-.5-8.18c.93-7.67-3.91-14.62-1-21.75.94-2.29-.72-2.81-2.44-4.18,1.33-.64,2.25-2.17,1.93-3.05-2.12-5.91-3.22-12.32-4.68-18.47A70.7,70.7,0,0,0,922,280.33c-1.81-3.33-2.42-7.12-3.36-10.81-.69-2.72-2.54-4.36-3.74-6.27,2.24-4.3-4.55-13.21-8.57-18.66.6-3.1-2.65-11.12-8.8-13.34.57-6.08-7-14.1-9.81-18.08a35.48,35.48,0,0,0-7.81-7.9c-1-3.72-3.89-9.59-8.5-11.08.81-2.54-2-4.21-4-4.69a5.15,5.15,0,0,0-5.13-5.36c-1.53-4.25-6.63-10.28-10.68-14.18-4.67-4.49-21.37-19-27.18-18.46-3.38-4-8.87-9.06-13.15-11.52-4.88-2.79-12.1-6-16.61-6.27a5.14,5.14,0,0,0-6.58-3.42c-1-1.82-3.42-4-5.64-2.56-2.72-4-9.15-5.09-13-5.06a35.23,35.23,0,0,0-9.77-5.27c-4.62-1.63-14.43-6.6-20.1-4.36-3.85-5.28-12.46-6.15-15.27-4.7-6.36-2.34-16.81-6.35-20.32-3-2.16-.61-4.26-1.93-7.06-1.84-3.81.14-7.62.62-11.32-.19a71.75,71.75,0,0,0-16.07-1.26c-6.31.33-12.77,1.07-19,.69-.93-.06-2.15,1.25-2.39,2.71-1.79-1.27-2.76-2.72-4.69-1.17-6,4.8-14.06,2.1-21.16,5.14a6.62,6.62,0,0,0-7.69,1.73,4.47,4.47,0,0,0-6,1.82c-2.37.8-4.72,1.7-7,2.66-2.4.57-5.28.28-7.67.84A99.6,99.6,0,0,0,573.14,124c-2.13-.39-5.61.67-6.77,3.09-1.44-.65-4.74.49-5.51,3.27a59.76,59.76,0,0,0-13.07,5.15c-2.21,1.24-6.92,2.74-9.48,6.87-3.48.87-6.12,2.78-8.81,4.94-1.24.75-2.67,2-3.87,2-2.29-.05-3.09,1.16-3.26,3.15-1.77-.25-2.73.91-2.68,2.57a3.91,3.91,0,0,0-4.18,2.4c-1.44,3.33-5.9,6.57-8.06,8.27-3.95,3.12-7.59,5.67-11,9.55a120.43,120.43,0,0,0-8.66,11.56c-1.07.68-2.32,1.69-3.61,1.59s-1.71,1.38-1.84,2c-.67,3.39-5.23,5.28-7.7,9.09-1.5.78-2.75,2.33-1.88,4.22a10,10,0,0,0-3.56,3.15,13.59,13.59,0,0,0-1.25,3.37c-2.06.78-2.8,2.72-3.7,4.07-4.45,5-8.89,6.52-9.69,13.54-.34,3-3.22,6.46-4.44,7.75-4.84,5.12-5.7,14.81-8.12,21.59,0,.08,0,.15,0,.22-2.08,3.54-6.06,8.76-7.71,12.54-3.16,7.24-3.72,13.24-6.5,20.64-2.2,5-7.24,12.93-4.74,19.13-4.86,2-2.52,6.46-2.75,10.81-.16,2.87-2.68,4.73-1.5,7.82a4.6,4.6,0,0,0,1.22,1.84c-1.1,4.41-.89,9.13-2.52,13.47-1.2,3.21-2.07,5.72,1.73,9.11-3.62,5.27-2.49,10,.49,14.85-2.26,2.86-2.76,7.6,1.51,11.47-1.84,2.71-2.58,7.26-2.72,11.28-.13,3.56,1.85,9.23,4.68,11.47A58,58,0,0,0,424.56,419a28,28,0,0,0,2.45,6.28c1.52,3.24.77,5.27,1.12,8.74.26,2.55,1.51,4.73,2.66,6.95,2.33,4.52,2.61,7.79,3.28,12.7.41,3,.91,6.22,2.55,8.64,3.27,4.85,6.11,8.15,8.16,13.63,1.19,4.45,2.66,8.78,5.38,11.67,1.22,1.29,4.1,4.7,4.44,7.74.8,7,5.24,8.53,9.69,13.55.9,1.35,1.64,3.29,3.7,4.06a13.67,13.67,0,0,0,1.25,3.38,10.22,10.22,0,0,0,3.56,3.15c-.87,1.89.38,3.44,1.88,4.21,2.47,3.82,7,5.71,7.7,9.1.13.65.58,2.13,1.84,2s2.54.91,3.61,1.59a120.29,120.29,0,0,0,8.66,11.55c3.37,3.89,7,6.44,11,9.56,2.16,1.7,6.62,4.94,8.06,8.27a3.88,3.88,0,0,0,4.18,2.39c-.05,1.67.91,2.83,2.68,2.57.17,2,1,3.2,3.26,3.16,1.2,0,2.63,1.28,3.87,2,2.69,2.15,5.33,4.07,8.81,4.94,2.56,4.13,7.27,5.63,9.48,6.87a59.76,59.76,0,0,0,13.07,5.15c.77,2.78,4.07,3.92,5.51,3.26,1.16,2.42,4.64,3.49,6.77,3.1a100.17,100.17,0,0,0,20.71,7.55c2.39.56,5.27.27,7.67.84,2.32,1,4.67,1.86,7,2.66a10.91,10.91,0,0,0,5.35,1.77,1.66,1.66,0,0,0,.33,0c2.63.72,5.29,1.33,8,1.81,7.1,3,15.14.35,21.16,5.15,1.93,1.54,2.9.1,4.69-1.17.24,1.46,1.46,2.77,2.39,2.71,6.27-.39,12.73.36,19,.68A71.23,71.23,0,0,0,685.58,620c3.7-.81,7.51-.33,11.32-.2,2.8.1,4.9-1.22,7.06-1.84,3.51,3.36,14-.65,20.32-3,2.81,1.44,11.42.58,15.27-4.7,5.67,2.24,15.48-2.73,20.1-4.36a35.53,35.53,0,0,0,9.77-5.28c3.87,0,10.3-1.05,13-5.05,2.22,1.48,4.61-.74,5.64-2.56a5.15,5.15,0,0,0,6.58-3.42c4.51-.28,11.73-3.48,16.61-6.27a43.54,43.54,0,0,0,10.93-9.14c3.39-.58,1.65-4,3.39-5.38,2.4-1.87,5.89-1.06,8.7-2.94,4.32-2.89,5.53-6,9.1-7.94,6.29-3.49,14-8.39,17.57-14.47.89-1.53,3.37-5.25,6.19-6.43,6.51-2.74,6.71-7.42,10.28-13.1,1-1.24,2.7-2.5,2.87-4.68a14.13,14.13,0,0,0,2.88-2.15,10,10,0,0,0,2-4.3c2.06.3,3.2-1.34,3.52-3,3-3.44,3.51-8.34,6.57-9.94.59-.31,1.88-1.16,1.44-2.34s.16-2.69.51-3.91A120.39,120.39,0,0,0,905.92,482c2.78-4.33,4.21-8.53,6.09-13.2,1-2.55,2.89-7.74,5.68-10.05a3.9,3.9,0,0,0,1.13-4.69c1.61-.41,2.46-1.66,1.72-3.29,1.87-.72,2.8-1.83,2.11-4-.35-1.14.49-2.88.87-4.28,1.31-3.18,2.41-6.25,2.27-9.84,3.25-3.62,3.37-8.56,3.93-11a59.44,59.44,0,0,0,1.29-14c2.45-1.52,2.62-5,1.59-6.21,2-1.79,2-5.43,1.07-7.37A99.89,99.89,0,0,0,935.11,372.07Zm-12.2,3.77c-.31,4.25.33,9.05-.23,13.24-1.93,14.28-3.51,26.17-7.9,41.2-1.82,6.2-3.46,13.71-5.5,19.84-2.41,5.33-5,10.57-7.62,15.8-3.23,6.54-8.43,13.18-12.24,19.28-3.69,5.93-6,11.33-9.94,16.71a29.29,29.29,0,0,0-3.6,7c-1.77,4.71-4.73,6.56-9.3,9.57-2.34,1.55-3.19,4.11-3.69,5.31-2.77,2.8-5.32,4.62-6.55,8.93s-8.6,4.46-11,9.39c-3.49,1.82-5.3,5.78-8.06,9-1.83,2.17-5.87,2.17-7.32,5.66-2.32-.87-5.91,1.93-8,3.48-3,2.17-1.36,4.65-4.2,5.33-1.81.44-6.15.09-7.53,4.6A28.72,28.72,0,0,0,800,573.89c-7.45,4.64-13.25,5.22-16.93,10-10.36,1.59-16,5.84-22,9.24-2.47,1.4-14,3.73-19.2,5.87-11.23-1.08-20.9,4.2-21,6.08-4.84.2-10.74-.58-14.61,1.64-3.77-1.64-13.31.52-19.45,1.65-8.53,1.56-15.23-.36-23-1.07-4.46-.4-7.65,1.16-13.84-.29a132.62,132.62,0,0,0-21.19-3c-5.15-.35-8.32-3.29-13.14-2.92-7-3.46-14.79-4.37-22-7-4-1.49-8.79-2.22-12.66-3.94-13.16-5.85-24.13-10.7-37.32-19.13-5.45-3.48-12.19-7.16-17.51-10.84-4.44-3.8-8.73-7.79-13-11.74-5.37-4.93-10.29-11.79-15.08-17.15s-9.2-8.91-13.26-14.22a29,29,0,0,0-5.71-5.42c-4-3-5-6.39-6.58-11.61-.82-2.68-3-4.22-4.06-5a38.17,38.17,0,0,0-6.73-8.79,9.21,9.21,0,0,0-4.78-8.76c-1.46-5.95-1.84-9.39-5.9-11.38-4.46-14.93-12.4-28.23-12.88-43.77a14.35,14.35,0,0,0-4.48-9.86c.32-3.21-1.31-10-2.08-14.39a7.36,7.36,0,0,0-.4-3.89c-.85-2-1.5-4.57-2.58-6.76.59-3.41,2.41-6.48-.71-9.71,2.6-4,1.93-18.36,1.32-19.38-1.77-2.93-1.15-5.61.13-10.13a9,9,0,0,0-.81-7.27c2.74-2.7,2.26-6.18.52-7.82,2.86-1.35,4.06-6.2,2.5-9.13-1.17-2.2-1.25-4.8-2-7.16,4.82-3.94,5.78-12,3.74-16.49,2.82-1.77,5.05-6.8,5.42-11.28a43.94,43.94,0,0,0,0-6.59c3.24-6.56,5.64-9.64,6.6-16.51a8.12,8.12,0,0,0,4.75-4.74c1.62-4,3.39-7.84,4.16-11.7a13.35,13.35,0,0,0,4-5.62c1.24-2.14,1.67-4.75,3.53-6.69a37.75,37.75,0,0,0,6.73-8.79c1-.82,3.24-2.35,4.06-5,1.61-5.23,2.56-8.59,6.58-11.61a29,29,0,0,0,5.71-5.42c4.06-5.32,8.6-9,13.26-14.22,4.79-5.36,9.71-12.23,15.08-17.15,4.3-3.95,8.59-7.94,13-11.74,5.32-3.68,12.06-7.37,17.51-10.85,13.19-8.42,24.16-13.28,37.32-19.13,3.87-1.71,8.66-2.44,12.66-3.93,7.19-2.67,15-3.58,22-7,4.82.37,8-2.57,13.14-2.92a132.62,132.62,0,0,0,21.19-3c6.19-1.46,9.38.11,13.84-.29,7.79-.71,14.49-2.63,23-1.07,6.14,1.13,15.68,3.29,19.45,1.65,3.87,2.22,9.77,1.44,14.61,1.64.11,1.87,9.78,7.16,21,6.08,5.23,2.14,16.73,4.47,19.2,5.86,6,3.41,11.65,7.66,22,9.25,3.68,4.74,9.48,5.32,16.93,10A28.91,28.91,0,0,0,810.18,153c.79,2,8.54,7.66,13.37,8.63,5.75,1.15,6,2.61,7.94,6.67,1.22,2.55,5.84,4.08,7.89,6.33a29,29,0,0,0,6.36,8.71c6.55,5.84,8.73,11.25,14.31,13.46,4.43,9.49,10.09,13.69,15.05,18.53,2,2,7.49,12.37,11,16.78,2.11,11.09,9.9,18.89,11.72,18.47,1.55,4.58,2.45,10.47,5.67,13.56-.52,4.09,4.23,12.63,7,18.21,3.89,7.75,3.92,14.73,5.43,22.4.86,4.39,3.26,7,3.6,13.37a131.91,131.91,0,0,0,3.06,21.18c1.1,5-.83,8.91.88,13.43C922.14,360.44,923.46,368.18,922.91,375.84Z" transform="translate(-411.1 -97.54)"/><path class="cls-4" d="M820.62,152.37A34.4,34.4,0,0,0,808,141.66c-4.76-2.38-9.15-3-13.88-5.45a5.23,5.23,0,0,0-6.18-3.39c-1-2-3.55-3.74-5.16-2.13-2.39-3-6.93-4-9.61-5a21.22,21.22,0,0,0-8.59-1.6c-.1-.5-.38-1.82-2.7-3-5.8-3.06-13.93-5.22-16.9-4.19-1.29-2.57-4.07-2-6.26-1.48-6.14-3.89-8.61-4.33-15-3.87-2.21-.93-8-2.75-8.64-3-7.1-2.65-10.38-.3-11.29,0a13.91,13.91,0,0,0-10.42-1.6c-6.08,1.51-11.87-1.28-15.06-1.89-6-1.13-11.71,1.06-17.68,1.72-5,.32-9.54-1.72-12.38,2.09-.4-.46-1.86-2.37-4-1.16-6.57,3.7-14.38,1.48-20.46,4.42-1.23-1-3.28-1.78-4.57.42-1.55-1.29-3.35-.13-4.19,1.75-2.89-.9-8.18,3.14-11.74,4-4.67,1.11-9,1.4-13.55,2.9s-9.39,4-14.41,5.66c-3.52-1.47-6.16.34-6.87,2.53-3.33-.74-5.49-.06-6.65,3.16-4.8,2.58-8.22,2.76-13.16,5.49-2.66,1.47-7.35,3.67-9,6.83-4.9,1-7.7,5.34-11.79,7.75a5,5,0,0,0-3.37.45,3.2,3.2,0,0,0-.84,2.71,3.52,3.52,0,0,0-3,1.36c-3,3.08-5.53,6.62-8.59,8.9-7.34,5.46-13.52,9.85-18.77,17.22-.94,1.24-1.67,4.63-3.11,5.41-6.76,3.68-5.94,6.85-9.4,9.49-2.71,2.06-4.48,3.72-5.45,6.6-1.13,3.33-2.66,5.3-4.61,6.43-3.4,2-5.62,4.19-5.68,7.77a2.58,2.58,0,0,0-3.42,1.77c-.33,1.1-.15,2-.6,2.92-1,.31-2.37.05-3,1.53s-.51,2.46.78,4.2c-1.29.06-2.72.4-3,2.33-.31,2.33-5.23,5.74-6.25,7.86-2.38,5,3.28,6.34,4.84,5.07,4-3.25,3.59-8.77,7.48-12,3.61-3,3-4.61,5.42-6.19,2.09-1.35,3.43-4.23,4.77-8.9a20.72,20.72,0,0,1,8.78-11.23c3.15-2,3.29-6.68,6.38-8.9,1.39-1,3.68-1.48,4.52-4.45a4.37,4.37,0,0,0,3.93-4.51c1.1-.13,2.84-.52,4.71-3.68,0,0,7.15-8.52,9.74-11.16,2.38-2.42,10-9.13,10-9.13a1.3,1.3,0,0,0,.15-.2,1.57,1.57,0,0,0,.41-.24c1.57-1.38,3.17-2.7,4.78-4,3.51-2.33,6.82-5,10.6-6.84,6.74-3.25,13.38-7.9,16.1-9.3,11-5.69,20-11.31,31.85-14.87,0,0,9.78-2.93,14.86-3.88,5.72-1.07,10.37-2.1,16.82-6,2.75.43,6-1.4,10.13-2.39,3.36-.79,8-.32,11.16-1s5.77-1.93,9-2.34c3.65-.47,6.31-1.21,11-.17,6,1.3,11.23-3.55,16.52-1.62,3.67-1.74,5.41-1,7,.94,3.44-2.16,9.81,1.12,15.63,1.72,3.77.4,7.48.31,10.25-1,1.81,1.87,7.33,3,8.52,3.09,3.27.36,5.29-.19,7.16-.13,2.56,2.88,8.66,7.2,20.32,5.55,4,2.84,12.38,4.13,14.15,3.78,0,1.19,1.59,1.9,3,2.06,4,.46,6,1.84,10.09,4.87,3.89,2.9,9,3.93,13.94,4.84a17.32,17.32,0,0,0,5.8,4.71c4,2,10.77,6.32,15.94,5.87,1,1.86,3.22,3,6.12,2.62.91,1.7,4,3.86,6.39,4.92C822.55,157.53,822.68,155.46,820.62,152.37Z" transform="translate(-411.1 -97.54)"/><path class="cls-4" d="M820.62,571A36.61,36.61,0,0,1,808,581.75c-4.76,2.38-9.15,3-13.88,5.45a5.22,5.22,0,0,1-6.18,3.39c-1,2-3.55,3.74-5.16,2.13-2.39,3-6.93,4-9.61,5a21.19,21.19,0,0,1-8.59,1.59c-.1.5-.38,1.82-2.7,3.05-5.8,3.06-13.93,5.22-16.9,4.19-1.29,2.57-4.07,2-6.26,1.49-6.14,3.88-8.61,4.32-15,3.87-2.21.92-8,2.74-8.64,3-7.1,2.65-10.38.3-11.29,0a13.91,13.91,0,0,1-10.42,1.6c-6.08-1.51-11.87,1.28-15.06,1.89-6,1.13-11.71-1.06-17.68-1.71-5-.33-9.54,1.71-12.38-2.1-.4.46-1.86,2.37-4,1.16-6.57-3.7-14.38-1.48-20.46-4.41-1.23,1-3.28,1.77-4.57-.43-1.55,1.29-3.35.13-4.19-1.75-2.89.9-8.18-3.14-11.74-4-4.67-1.11-9-1.4-13.55-2.9s-9.39-4-14.41-5.66c-3.52,1.47-6.16-.34-6.87-2.53-3.33.74-5.49.06-6.65-3.16-4.8-2.58-8.22-2.76-13.16-5.49-2.66-1.47-7.35-3.67-9-6.83-4.9-1-7.7-5.34-11.79-7.75a5,5,0,0,1-3.37-.45,3.18,3.18,0,0,1-.84-2.7,3.55,3.55,0,0,1-3-1.37c-3-3.08-5.53-6.62-8.59-8.89-7.34-5.47-13.52-9.86-18.77-17.22-.94-1.25-1.67-4.64-3.11-5.42-6.76-3.68-5.94-6.84-9.4-9.48-2.71-2.07-4.48-3.73-5.45-6.61-1.13-3.33-2.66-5.3-4.61-6.42-3.4-2-5.62-4.2-5.68-7.78a2.58,2.58,0,0,1-3.42-1.77c-.33-1.1-.15-2-.6-2.92-1-.31-2.37-.05-3-1.53s-.51-2.45.78-4.2c-1.29-.06-2.72-.4-3-2.33-.31-2.33-5.23-5.74-6.25-7.86-2.38-5,3.28-6.33,4.84-5.07,4,3.25,3.59,8.77,7.48,12,3.61,3,3,4.61,5.42,6.19,2.09,1.35,3.43,4.23,4.77,8.9a20.72,20.72,0,0,0,8.78,11.23c3.15,2,3.29,6.68,6.38,8.9,1.39,1,3.68,1.48,4.52,4.45A4.38,4.38,0,0,1,495.7,535c1.1.12,2.84.51,4.71,3.67,0,0,7.15,8.52,9.74,11.16,2.38,2.42,10,9.13,10,9.13a1,1,0,0,1,.15.21,1.53,1.53,0,0,1,.41.23c1.57,1.38,3.17,2.7,4.78,4,3.51,2.33,6.82,5,10.6,6.84,6.74,3.26,13.38,7.9,16.1,9.3,11,5.69,20,11.31,31.85,14.87,0,0,9.78,2.93,14.86,3.88,5.72,1.07,10.37,2.1,16.82,6,2.75-.42,6,1.41,10.13,2.39,3.36.79,8,.32,11.16,1s5.77,1.93,9,2.34c3.65.47,6.31,1.21,11,.17,6-1.3,11.23,3.55,16.52,1.62,3.67,1.74,5.41,1,7-.94,3.44,2.16,9.81-1.11,15.63-1.72,3.77-.4,7.48-.31,10.25,1,1.81-1.87,7.33-3,8.52-3.09,3.27-.36,5.29.19,7.16.13,2.56-2.88,8.66-7.2,20.32-5.55,4-2.84,12.38-4.13,14.15-3.78,0-1.19,1.59-1.9,3-2.06,4-.46,6-1.84,10.09-4.87,3.89-2.9,9-3.93,13.94-4.84a17.18,17.18,0,0,1,5.8-4.7c4-2,10.77-6.33,15.94-5.87,1-1.87,3.22-3,6.12-2.62.91-1.71,3.94-4,6.39-4.93C819.65,567.31,821.68,569.55,820.62,571Z" transform="translate(-411.1 -97.54)"/><path class="cls-4" d="M838.1,165a38.61,38.61,0,0,1,13.74,9.17c3.59,3.93,5.42,8,9,11.87a5.22,5.22,0,0,1,5,5c2.15.39,4.57,2.39,3.46,4.38,3.51,1.48,5.75,5.57,7.4,7.89a21.26,21.26,0,0,1,3.89,7.82c.5,0,1.85-.13,3.67,1.77,4.52,4.74,8.83,12,8.65,15.11,2.82.54,3,3.36,3.13,5.61,5.42,4.85,6.52,7.11,7.83,13.4,1.49,1.88,4.84,7,5.22,7.51,4.48,6.1,3.12,9.9,3.08,10.86a14,14,0,0,1,4.39,9.58c.2,6.26,4.47,11.07,5.93,14,2.73,5.47,2.17,11.55,3.18,17.47,1.07,4.95,4.25,8.71,1.37,12.48.55.26,2.78,1.14,2.21,3.53-1.77,7.34,2.5,14.25,1.34,20.89,1.33.9,2.6,2.67.84,4.51,1.66,1.14,1,3.19-.55,4.51,1.66,2.54-.78,8.73-.62,12.39.21,4.79,1.1,9,.91,13.82s-1.26,10.12-1.5,15.41c2.36,3,1.35,6-.57,7.3,1.63,3,1.56,5.26-1.22,7.26-1.17,5.32-.41,8.66-1.68,14.16-.69,3-1.53,8.07-4.11,10.55.41,5-3,8.87-4.23,13.46a5,5,0,0,1,.49,3.36,3.13,3.13,0,0,1-2.38,1.55,3.54,3.54,0,0,1-.48,3.28c-2.16,3.69-4.86,7.13-6.22,10.69-3.24,8.56-5.78,15.71-11.43,22.76-.94,1.25-4,2.88-4.36,4.47-1.69,7.51-5,7.59-6.56,11.64-1.24,3.17-2.36,5.33-4.86,7.05-2.89,2-4.37,4-4.92,6.19-1,3.8-2.5,6.55-5.93,7.58.75,1.34.76,2.81-.77,3.78-1,.61-1.85.69-2.64,1.38,0,1,.6,2.28-.67,3.25s-2.22,1.16-4.25.4c.29,1.26.36,2.72-1.43,3.5-2.16.93-4.09,6.6-5.85,8.16-4.13,3.65-7-1.43-6.2-3.28,2-4.74,7.46-5.84,9.53-10.48,1.93-4.3,3.63-4.12,4.48-6.9.73-2.38,3.13-4.46,7.26-7a20.71,20.71,0,0,0,8.4-11.5c1.09-3.59,5.53-5,6.82-8.58.58-1.61.42-3.94,3-5.56a4.38,4.38,0,0,1,3.27-5c-.18-1.09-.28-2.87,2.25-5.53,0,0,6.23-9.2,8.07-12.42,1.68-2.94,6-12.14,6-12.14a1.56,1.56,0,0,1,.16-.2,1.48,1.48,0,0,1,.11-.45c.9-1.89,1.74-3.79,2.55-5.7,1.29-4,3-7.93,3.68-12.07,1.3-7.37,4-15,4.55-18,2.46-12.18,5.43-22.33,5.61-34.71,0,0,.15-10.2-.33-15.35-.53-5.8-.81-10.55,1.15-17.81-1.16-2.53-.27-6.1-.47-10.4-.15-3.45-1.88-7.82-2.12-11s.28-6.08-.2-9.27c-.54-3.65-.56-6.41-2.84-10.66-2.89-5.38.35-11.76-3-16.32.67-4-.55-5.48-2.82-6.5,1.14-3.89-3.75-9.12-5.93-14.56-1.41-3.52-2.33-7.11-1.79-10.15-2.29-1.23-4.85-6.24-5.3-7.34-1.24-3-1.26-5.15-1.84-6.93-3.46-1.68-9.29-6.37-10.88-18-3.83-3.07-7.36-10.78-7.51-12.58-1.15.29-2.25-1-2.81-2.36-1.54-3.74-3.41-5.3-7.44-8.38-3.85-2.95-6.25-7.61-8.46-12.08a17.27,17.27,0,0,1-6.12-4.3c-3-3.34-9-8.64-10-13.72-2.06-.43-3.77-2.28-4.19-5.18-1.88-.41-5-2.65-6.48-4.8C833.91,165.66,834,163.46,838.1,165Z" transform="translate(-411.1 -97.54)"/><path class="cls-4" d="M447.24,465c0-4.51-2.12-5.65-3.12-9.95-.19-.83,0-1.83-.51-2.55-.63-.94-2.32-2-3.52-3.23a11.39,11.39,0,0,1-.74-2.91,14.83,14.83,0,0,0-.16-7.07,128.06,128.06,0,0,0-4.38-12.71c.21-1.91,1.26-3.58.84-5.38-.49-2.11-1.69-6-4.79-8.17a11,11,0,0,0-.64-9.08,14.74,14.74,0,0,0-1.7-6.35,12.86,12.86,0,0,0-2-10.36c0-1.33.86-2.21,1-5.18.08-2.14-1.5-3.92-2.24-5.24,1.11-.68,2.79-3.35,1.27-6.92.88-2.05.6-3.66-.14-6.56-.26-1.11.79-3.12-.34-5.51s-.67-4.63.16-7.15a1.12,1.12,0,0,0-.66-1.47A1.48,1.48,0,0,0,426,348a44.19,44.19,0,0,1,.25-7.82c2.95-1.4,1.05-5.87-.19-8.41,2.71-1.07,2.76-3.1,2-4.12.55-3.52-2.2-6.46-.56-10.39a1.92,1.92,0,0,0-.36-2c2.18-.87,2.33-1.11,2.19-3.29,4.93-2,.56-9.21,2.59-13.54,1.8-.73,1.66-2.09.87-2.67,1.29-2.3,3.11-4,3.79-6.58,1-3.75-.24-8.28,1.88-11.56.54-.82.05-1.4-.68-1.77,1.56-1,3.39-2.05,3.75-3.83.61-3,.42-4,2.84-6.93a2.3,2.3,0,0,0,.14-2.47c1.6-.53,3.27-1,4-2.75,1.32-3,2.45-5.14,2.07-8.39-.11-.94-1-2.74-2.7-1.39-2.06,1.64-2,4.3-3.06,6.56a30.53,30.53,0,0,1-4.65,7.22c-.67.74-2.09,1.56-2.53,2.49-.35.73-.36,4.16-1.26,5.2-1.9,1.47-2.19,2.82-1.07,4.47-.62.48-2.86,2.27-1,4.6h0a1.44,1.44,0,0,0-.79.86c-.84,2.4-3.48,4.54-2.23,7.26-1.55,2.67-3.35,5.4-3.82,6.51a56.5,56.5,0,0,0-2.51,7,3.31,3.31,0,0,0,.77,2.86c-1.21,1.21-.62,2.9-.45,4.31,0,2.22-1.16,3.48-2.21,5-1.63,2.33-.85,4.87-.75,8a1.46,1.46,0,0,0,.52,1.09c-.16.12-.33.25-.53.42a1.68,1.68,0,0,0,0,2.37,1.74,1.74,0,0,0,.62,2.19c-.37,1.9-.86,3.74-1.37,5.72-.27,1.05-1,2-.74,3.09a3.19,3.19,0,0,0,.63,1.46c-.24.34-.48.7-.79,1.22a1.55,1.55,0,0,0,.08,1.76l-1,.88a1.7,1.7,0,0,0,0,2.35c.8,1,1.59,1.91,2.38,2.87h0c-3.09,1.85-.59,5-2.55,10.37-1.38,3.79,2.91,7,1.5,11.07-2.18,6.3,1.31,8.41,2.32,9.2-.26,3-2.34,5.11-2.52,10.6-.13,4.07,2.75,9,4.31,11.12a79.52,79.52,0,0,0-.4,9.15c0,5.7.67,10.64,4.65,14.81.06,2.79-.32,5.14,1.68,7.71s.23,5.78,1.64,7.88a4,4,0,0,0,.12,3c1.05,1.48,1.58,1.64,2,3.1-.49,3.09-.15,5.9,2.08,7.73a7,7,0,0,0-.26,3.53,6.14,6.14,0,0,0,3.18,3.4c-.46,4.59,3,6.71,4.57,10.06a5.31,5.31,0,0,0,2.95,4.16c2.1,1.23,3.26-1,2.42-4.65C449,468.28,447.26,467.9,447.24,465Z" transform="translate(-411.1 -97.54)"/><g class="cls-5"><path class="cls-6" d="M470.49,217.11a1.57,1.57,0,0,0-2.33-.86c-1,.44-2.31,2.56-2.75,4.44a1.63,1.63,0,0,0-.76,0c-.73.16-2.34,1.66-2.34,4.43-.1,0-2.22.41-2.21,2.28,0,2.43,4.86.84,4.85-.83a5,5,0,0,0,1.85-2,4.49,4.49,0,0,0,.23-.61,7.34,7.34,0,0,0,2.07-2C470.07,220.45,471.08,218.86,470.49,217.11Z" transform="translate(-411.1 -97.54)"/><path class="cls-6" d="M502.46,176.2a17.17,17.17,0,0,0-4.82,3.87c-.89,1-2.33,2.68-2,4.21.49,2.34,4-1.79,4.82-2.55a16.13,16.13,0,0,0,3.32-4.22A1,1,0,0,0,502.46,176.2Z" transform="translate(-411.1 -97.54)"/><path class="cls-6" d="M560,136.58c.27-2.22-3.74-1-5.38.5-2.13,1.93-3.68,1.48-6.85,2.85-2.18.94-4.47,2.75-5.11,5.15a.62.62,0,0,0,.75.75C546.38,144.75,559.69,139,560,136.58Z" transform="translate(-411.1 -97.54)"/><path class="cls-6" d="M574.77,128.46a3.63,3.63,0,0,0-3-.14,1.45,1.45,0,0,0-.83,2.23c.66.84,2.3.73,3.32.11h0C575.11,130.23,575.75,129.15,574.77,128.46Z" transform="translate(-411.1 -97.54)"/><path class="cls-6" d="M610.66,117.14c-2.43.08-4.64,1.53-7,2.09-1.72.41-3.47.64-5.17,1-1.3.27-2.63.53-3.9.88-3.05.83-3.36,1.72-2.44,2.49,2.15,1.79,7.1-.35,9.26-.92,2.8-.74,8.44-1.55,10-4.31A.82.82,0,0,0,610.66,117.14Z" transform="translate(-411.1 -97.54)"/><path class="cls-6" d="M667.19,107.16c-1.89.13-4.42,1.09-7.35,1.37-1.58.16-3-.12-4.43.56a.81.81,0,0,0,0,1.38c3.71,2.41,9.2,1,12.43-1.73A.93.93,0,0,0,667.19,107.16Z" transform="translate(-411.1 -97.54)"/><path class="cls-6" d="M758.27,121.68c-1.77-2-4.89-2.61-7-2.9-1.13-.15-4-.46-4.47,1.11s1.82,2.09,2.85,2.48a23.24,23.24,0,0,0,7.9,1.14A1.09,1.09,0,0,0,758.27,121.68Z" transform="translate(-411.1 -97.54)"/><path class="cls-6" d="M780.5,132.45c-.31-1.39-1.78-2.43-3-3-1.95-1-6.54-3-8.59-2.45-1,.29-.2,1.65.35,2.23,1.31,1.41,3.66,2.18,5.21,3.32S781.21,135.6,780.5,132.45Z" transform="translate(-411.1 -97.54)"/><path class="cls-6" d="M789.48,134.93a2.16,2.16,0,0,0-2,2.38c.69,3.06,4.64,4.22,5.33,1.77A3.47,3.47,0,0,0,789.48,134.93Z" transform="translate(-411.1 -97.54)"/><path class="cls-6" d="M848.54,173.57c-.83-1-3.22-2.59-3.87-1.1-.76,1.73,1.33,3.58,2.59,3.85a1.43,1.43,0,0,0,1.75-.69A2,2,0,0,0,848.54,173.57Z" transform="translate(-411.1 -97.54)"/><path class="cls-6" d="M871.49,200c-1.83-1.84-3.44-3.44-4.37-1.79-.78,1.4,1.21,4.05,1.94,5.11,1.12,1.62,3.74,4.58,5.91,3.93C877.7,206.45,873.6,202.12,871.49,200Z" transform="translate(-411.1 -97.54)"/><path class="cls-6" d="M886.75,219.24c-.58-1.14-1.3-3.42-3-3.06-.33.07-1.37.76-.43,3.43a12.11,12.11,0,0,0,1.14,3.06c.47.9,1.66,2.65,2.78,1.41S887.39,220.52,886.75,219.24Z" transform="translate(-411.1 -97.54)"/><path class="cls-6" d="M908.71,258.08a7.3,7.3,0,0,0-1.86-3.33,11,11,0,0,0-1.45-1.18,2.56,2.56,0,0,0-1.33-.67c-1.34,0-1.26,1.69-.93,2.57.48,1.3,2.27,4,4,4.1A1.2,1.2,0,0,0,908.71,258.08Z" transform="translate(-411.1 -97.54)"/><path class="cls-6" d="M898.81,240.67c-.49-.84-1.07-2-2.17-2.12a2,2,0,0,0-2,2c-.19,1.72,1.17,4.61,3.43,5.25,1.11.32,1.86-.85,1.88-1.88A6.57,6.57,0,0,0,898.81,240.67Z" transform="translate(-411.1 -97.54)"/><path class="cls-6" d="M922.43,294.4c-.48-.62-1.33-.16-1.56.41a15.12,15.12,0,0,0-.64,5.8c0,1.07.59,6.16,1.53,7.22a.75.75,0,0,0,1.24-.32c.41-2.58-.07-4.42-.08-7C922.92,298.45,923.71,296,922.43,294.4Z" transform="translate(-411.1 -97.54)"/><path class="cls-6" d="M923.3,310.82c-.71.55.21,6.17,2.13,5a2.34,2.34,0,0,0,.85-2.09C926.2,312.63,924.75,309.7,923.3,310.82Z" transform="translate(-411.1 -97.54)"/><path class="cls-6" d="M929.09,354.61c.37-1.09-.82-.49-1.32.11a6.8,6.8,0,0,0-1.33,3.88c-.15,2-.22,4.21.75,6.06a.65.65,0,0,0,1.17-.15C928.88,362,927.88,358.24,929.09,354.61Z" transform="translate(-411.1 -97.54)"/><path class="cls-6" d="M929.66,372.23c-.09-1.31,0-3.55-1.27-4.35a.78.78,0,0,0-.92,0c-1.51,1.55-.46,8.18.25,8.86a.85.85,0,0,0,1,.13C929.94,376.27,929.74,373.32,929.66,372.23Z" transform="translate(-411.1 -97.54)"/><path class="cls-6" d="M923.34,413.22c-.84,1.64-4.77,14.34-1.75,14.49,1.61.08,2.33-2.53,2.67-3.72a33.47,33.47,0,0,0,1.16-10.21A1.12,1.12,0,0,0,923.34,413.22Z" transform="translate(-411.1 -97.54)"/><path class="cls-6" d="M920.69,431.76a.89.89,0,0,0-1.38-.18c-1.93,2-2.34,6.67-2.35,8.38a.8.8,0,0,0,1.35.56C920.43,438.41,922.31,434.68,920.69,431.76Z" transform="translate(-411.1 -97.54)"/><path class="cls-6" d="M900.93,477.26c-.65-.16-1,.09-1.43.52a27.61,27.61,0,0,0-2.58,2.92c-3.41,4.13-3.31,5.86-2,6.46s2.89-2,3.55-2.9c1.21-1.74,3.12-4,3-6.21A.85.85,0,0,0,900.93,477.26Z" transform="translate(-411.1 -97.54)"/><path class="cls-6" d="M893.43,489.57a1.2,1.2,0,0,0-1.57-.66,1.63,1.63,0,0,0-.51.36,2.69,2.69,0,0,0-1.09,2.27,1.32,1.32,0,0,0,1.28,1.27c.79,0,1.35-.75,1.68-1.38A2.15,2.15,0,0,0,893.43,489.57Z" transform="translate(-411.1 -97.54)"/><path class="cls-6" d="M890,494.05c-1.2-.3-2.61,1.73-3.17,4.33-.17.78-.18,1.91.68,2.1,1,.22,1.75-.68,2.32-1.39a5.38,5.38,0,0,0,1.35-2.84A1.91,1.91,0,0,0,890,494.05Z" transform="translate(-411.1 -97.54)"/><path class="cls-6" d="M872.55,520.5c-.84-1-4.88,1.49-5.54,2-.85.72-2.2,2.4-1.33,3.53,1,1.29,2.64-.24,3.49-.9,1.27-1,3-2.28,3.61-3.79A.92.92,0,0,0,872.55,520.5Z" transform="translate(-411.1 -97.54)"/><path class="cls-6" d="M865,528.42c-1.19-.94-2.69.66-2.69,2.85,0,1.55,2,1.23,2.74.37A2.18,2.18,0,0,0,865,528.42Z" transform="translate(-411.1 -97.54)"/><path class="cls-6" d="M802.16,578.63c-1.37-.72-3.8.41-5.14.79-2.4.68-5,2-5.82,3.58a1.41,1.41,0,0,0,.92,2.18,5.43,5.43,0,0,0,2.36-.54c1.15-.36,2.28-.75,3.41-1.16S805.47,580.37,802.16,578.63Z" transform="translate(-411.1 -97.54)"/><path class="cls-6" d="M788.9,585.59c-.89-.69-2.63-.64-3.08.52-.74,1.93,2.32,3,3.29,2.29A1.77,1.77,0,0,0,788.9,585.59Z" transform="translate(-411.1 -97.54)"/><path class="cls-6" d="M782.66,588.5a3,3,0,0,0-3.87,1.07c-.81,1.37,0,2,.59,2.27a3.13,3.13,0,0,0,2.29-.31,2.46,2.46,0,0,0,1.53-1.39A1.45,1.45,0,0,0,782.66,588.5Z" transform="translate(-411.1 -97.54)"/><path class="cls-6" d="M754.25,599.71c-4.46-.71-8.48,2-8.31,3.75s2.2,1.58,3.49,1.38c1.9-.28,4.25-.64,5.71-2A1.77,1.77,0,0,0,754.25,599.71Z" transform="translate(-411.1 -97.54)"/><path class="cls-6" d="M737.88,602.75c-1.34-.26-6.15.71-6.87,1.13a3,3,0,0,0-1.81,2.45c.11,2.94,6.1.82,7.52.32,1-.35,2.42-.86,2.78-2S738.84,602.94,737.88,602.75Z" transform="translate(-411.1 -97.54)"/><path class="cls-6" d="M711.85,609.5a15.78,15.78,0,0,0-3.55,1.29c-1,.52-2.22,1.82-1.53,3s2.92.86,4,.47,2.94-1.14,3.3-2.47S713.12,609.48,711.85,609.5Z" transform="translate(-411.1 -97.54)"/><path class="cls-6" d="M664.41,612.81c-.92-.59-4.45-1.18-7.18-.74-2.28.37-4,1.68-3.67,2.32.63,1.5,3.4.64,4.53.62,2.13,0,4.35.59,6.32-.41A1.05,1.05,0,0,0,664.41,612.81Z" transform="translate(-411.1 -97.54)"/><path class="cls-6" d="M566.89,589.55c-.78-.9-2.8-1.43-3.13.19a2.5,2.5,0,0,0,2.58,2.72,1.36,1.36,0,0,0,.45-.12C567.91,592.11,567.48,590.23,566.89,589.55Z" transform="translate(-411.1 -97.54)"/><path class="cls-6" d="M574.62,592.14c-1-1.17-3.52-2.16-4.93-1.11-.92.68-.58,2.81,2.61,4.7a2,2,0,0,0,2.7-.82A2.41,2.41,0,0,0,574.62,592.14Z" transform="translate(-411.1 -97.54)"/><path class="cls-6" d="M549.25,580.06a19.91,19.91,0,0,0-6.06-4.18c-.88-.38-1.89.27-1.58,1.21,1,2.95,4.91,5.6,6.07,6a5.21,5.21,0,0,0,2.49.34C552.1,582.88,549.8,580.62,549.25,580.06Z" transform="translate(-411.1 -97.54)"/><path class="cls-6" d="M500,541c-.39-.6-.76-1.23-1.18-1.82a8.53,8.53,0,0,0-2.84-2.67,1.05,1.05,0,0,0-1.55.89,5.25,5.25,0,0,0,1.6,3.9,7.11,7.11,0,0,0,3.72,2.85,1.08,1.08,0,0,0,1.31-1.31A6.39,6.39,0,0,0,500,541Z" transform="translate(-411.1 -97.54)"/><path class="cls-6" d="M481.87,519.67c-.79-1-4.39-3.82-4.56-1.68s2.18,4.19,3.13,4.78c.77.48,1.73.56,2.18-.38S482.42,520.38,481.87,519.67Z" transform="translate(-411.1 -97.54)"/><path class="cls-6" d="M468.58,501.31a28.62,28.62,0,0,0-3.35-4.76c-4.62-5.27-7.13-.56-2.66,1.19-.92,1.59-.59,4.06,1.44,4.54a2.18,2.18,0,0,0,1.44-.19c.52,1.8.48,4.76,2.91,5.19a1.16,1.16,0,0,0,1.25-.51C470.65,505.14,469.34,502.83,468.58,501.31Z" transform="translate(-411.1 -97.54)"/><path class="cls-6" d="M440.94,453c-1.11-.65-1.93.23-2.26,1.26a3.46,3.46,0,0,0,.42,2.95c.65.94,2,1.27,2.63.13A3.53,3.53,0,0,0,440.94,453Z" transform="translate(-411.1 -97.54)"/><path class="cls-6" d="M445.14,461.84a5.36,5.36,0,0,0-1.85-3.32,1.12,1.12,0,0,0-1.12,0c-.79.39-.91,1.44-.81,2.29a4.54,4.54,0,0,0,.14,1.07c.26,1.05,1.07,2.71,2.31,2.79C445.43,464.78,445.35,462.91,445.14,461.84Z" transform="translate(-411.1 -97.54)"/><path class="cls-6" d="M433.67,419.72c-.63-1.21-4.54-7.4-6.22-4.52-.82,1.38.34,3.33,1.11,4.45.93,1.35,2.7,3.9,4.86,3.35C434.88,422.63,434.19,420.72,433.67,419.72Z" transform="translate(-411.1 -97.54)"/><path class="cls-6" d="M429.49,406.7c-.19-1.6-.49-3.82-1.55-5.09a1,1,0,0,0-1.58.41,43.87,43.87,0,0,0-.3,6.69c.07,1.13.13,2.79,1.4,3.17a.88.88,0,0,0,.86-.23C429.57,410.46,429.69,408.28,429.49,406.7Z" transform="translate(-411.1 -97.54)"/><path class="cls-6" d="M425.11,361.56c-.23-2.52-1.34-4.15-1.2-6.91.08-1.56.49-2.61-.26-3.94a.84.84,0,0,0-1.52.19,38.87,38.87,0,0,0-1,8.37c.42,3,2,4.88,1.58,8.25-.22,1.83-1.72,5.39.93,6.2a.77.77,0,0,0,.86-.35c.55-1.08.15-2.33.1-3.47C424.5,367.1,425.37,364.32,425.11,361.56Z" transform="translate(-411.1 -97.54)"/><path class="cls-6" d="M430.19,304c0-1.85,1.21-6.05-.92-7.1a1.12,1.12,0,0,0-1.29.17c-1.82,1.64-1.46,5.12-1.36,7.29a13.53,13.53,0,0,0,.31,3c.11,1.21.95,3.43,2.62,2.61C431.42,309.1,430.19,305.45,430.19,304Z" transform="translate(-411.1 -97.54)"/><path class="cls-6" d="M459,233.89c.67-1.11-.62-1.61-1.51-.91a16.76,16.76,0,0,0-5.74,7.74c-.64,1.83.13,2.43.67,2.44,1.67,0,3.78-2.62,4.21-3.52C457.18,238.43,458.27,235,459,233.89Z" transform="translate(-411.1 -97.54)"/></g></svg>