<svg id="Layer_1" data-name="Layer 1" xmlns="http://www.w3.org/2000/svg" xmlns:xlink="http://www.w3.org/1999/xlink" viewBox="0 0 308.02 459"><defs><style>.cls-1{fill:url(#radial-gradient);}.cls-2{fill:url(#radial-gradient-3);}.cls-3{fill:#fcc047;opacity:0.5;}</style><radialGradient id="radial-gradient" cx="680.25" cy="52.9" r="500.63" gradientUnits="userSpaceOnUse"><stop offset="0" stop-color="#fff"/><stop offset="0.62" stop-color="#e7804a"/><stop offset="0.84" stop-color="#df5209"/><stop offset="0.86" stop-color="#e0550a"/><stop offset="0.87" stop-color="#e15f0d"/><stop offset="0.89" stop-color="#e46f12"/><stop offset="0.9" stop-color="#e8861a"/><stop offset="0.92" stop-color="#eda423"/><stop offset="0.93" stop-color="#f2bf2c"/><stop offset="0.94" stop-color="#edb429"/><stop offset="0.96" stop-color="#df9823"/><stop offset="0.98" stop-color="#ca6918"/><stop offset="0.99" stop-color="#bd4e11"/></radialGradient><radialGradient id="radial-gradient-3" cx="680.25" cy="52.9" r="454.76" gradientUnits="userSpaceOnUse"><stop offset="0" stop-color="#ffce50"/><stop offset="0.52" stop-color="#ffce52"/><stop offset="0.71" stop-color="#ffcd59"/><stop offset="0.84" stop-color="#ffcc64"/><stop offset="0.95" stop-color="#ffcb75"/><stop offset="1" stop-color="#ffca81"/></radialGradient></defs><title>pizza-slice</title><path class="cls-1" d="M800.76,521.79c-7.29,10-23.58,11.63-28.88,8.89-12,4.42-31.79,12-38.43,5.67-4.09,1.16-8.05,3.66-13.36,3.48-7.19-.25-14.4-1.17-21.4.36a134.74,134.74,0,0,1-30.38,2.38c-11.94-.61-24.15-2-36-1.29-1.77.11-4.06-2.37-4.52-5.13-3.38,2.4-5.21,5.13-8.87,2.21-11.39-9.08-26.58-4-40-9.73q-7.65-1.38-15.11-3.42a3.66,3.66,0,0,1-.61.07c-3.82,0-7-1.57-10.13-3.36-4.49-1.51-8.92-3.21-13.32-5a34.09,34.09,0,0,0-5.76-.72l-5.29,14,.2.07,52.7,12.32a297.28,297.28,0,0,0,45.18,6.94l37.65,2.84a242.83,242.83,0,0,0,32.37.28l26.7-1.54a268.19,268.19,0,0,0,29.65-3.37l20.66-3.52a343.24,343.24,0,0,0,34-7.58l28.3-7.83.58-.18L832.55,516C823,519.82,809.36,525.19,800.76,521.79Z" transform="translate(-528.67 -94)"/><path class="cls-1" d="M591.28,510a248.75,248.75,0,0,1,40.07,5.67c11.71,2.75,17.74-.21,26.17.55,14.73,1.33,27.41,5,43.55,2,11.61-2.13,29.64-6.23,36.77-3.12,7.32-4.2,18.48-2.72,27.63-3.11.2-3.54,18.48-13.54,39.73-11.48,5-2,13-4.17,20.26-6.12L811.9,453.17a39.27,39.27,0,0,0-26.82,9c-1.94-4.76-26.49-6.2-26.49,8.43-28.85-9-75.92-13.18-109,9.13A49.41,49.41,0,0,0,646,464.54c-2-4.9-19.3-12-36,13.12-.82-2.23-8.57-12.39-11.4-13.74-12-5.78-20.51-2.12-32.93,2.17l-1-15.15a9.08,9.08,0,0,0-3.63-6.47l-19.56,51.67c8.46,2.21,17,4.4,24.89,8.34C575.54,503.78,581.54,509.33,591.28,510Z" transform="translate(-528.67 -94)"/><path class="cls-2" d="M561.11,444.47a9.08,9.08,0,0,1,3.63,6.47l1,15.15c12.42-4.29,20.91-7.95,32.93-2.17,2.83,1.35,10.58,11.51,11.4,13.74,16.65-25.13,34-18,36-13.12a49.41,49.41,0,0,1,3.63,15.18c33-22.31,80.1-18.15,109-9.13,0-14.63,24.55-13.19,26.49-8.43a39.27,39.27,0,0,1,26.82-9L693.82,94Z" transform="translate(-528.67 -94)"/><path class="cls-1" d="M553,521.92c3.13,1.79,6.31,3.32,10.13,3.36a3.66,3.66,0,0,0,.61-.07q7.46,2,15.11,3.42c13.44,5.76,28.63.65,40,9.73,3.66,2.92,5.49.19,8.87-2.21.46,2.76,2.75,5.24,4.52,5.13,11.86-.73,24.07.68,36,1.29a134.74,134.74,0,0,0,30.38-2.38c7-1.53,14.21-.61,21.4-.36,5.31.18,9.27-2.32,13.36-3.48,6.64,6.35,26.39-1.25,38.43-5.67,5.3,2.74,21.59,1.1,28.88-8.89,8.6,3.4,22.22-2,31.79-5.81l-1.34-4.07c-8.24,2.8-16.36,4.2-20.11,2.9-2.44,4.85-7.69,3.78-11.84,2.8-11.61,7.35-16.29,8.18-28.42,7.32-4.17,1.74-15.2,5.18-16.35,5.61-13.41,5-19.61.56-21.34,0a26.41,26.41,0,0,1-19.71,3C702,530.7,691,536,685,537.13c-11.36,2.15-22.14-2-33.42-3.24-9.56-.61-18,3.24-23.42-4-.76.87-3.51,4.48-7.56,2.2-12.43-7-27.21-2.81-38.7-8.35-2.32,2-6.2,3.35-8.63-.8-2.93,2.44-6.35.24-7.93-3.32-5.47,1.7-15.47-5.93-22.21-7.54-2.39-.57-4.73-1-7.05-1.44l-2.08,5.5a34.09,34.09,0,0,1,5.76.72C544.12,518.71,548.55,520.41,553,521.92Z" transform="translate(-528.67 -94)"/><path class="cls-3" d="M553,521.92c3.13,1.79,6.31,3.32,10.13,3.36a3.66,3.66,0,0,0,.61-.07q7.46,2,15.11,3.42c13.44,5.76,28.63.65,40,9.73,3.66,2.92,5.49.19,8.87-2.21.46,2.76,2.75,5.24,4.52,5.13,11.86-.73,24.07.68,36,1.29a134.74,134.74,0,0,0,30.38-2.38c7-1.53,14.21-.61,21.4-.36,5.31.18,9.27-2.32,13.36-3.48,6.64,6.35,26.39-1.25,38.43-5.67,5.3,2.74,21.59,1.1,28.88-8.89,8.6,3.4,22.22-2,31.79-5.81l-1.34-4.07c-8.24,2.8-16.36,4.2-20.11,2.9-2.44,4.85-7.69,3.78-11.84,2.8-11.61,7.35-16.29,8.18-28.42,7.32-4.17,1.74-15.2,5.18-16.35,5.61-13.41,5-19.61.56-21.34,0a26.41,26.41,0,0,1-19.71,3C702,530.7,691,536,685,537.13c-11.36,2.15-22.14-2-33.42-3.24-9.56-.61-18,3.24-23.42-4-.76.87-3.51,4.48-7.56,2.2-12.43-7-27.21-2.81-38.7-8.35-2.32,2-6.2,3.35-8.63-.8-2.93,2.44-6.35.24-7.93-3.32-5.47,1.7-15.47-5.93-22.21-7.54-2.39-.57-4.73-1-7.05-1.44l-2.08,5.5a34.09,34.09,0,0,1,5.76.72C544.12,518.71,548.55,520.41,553,521.92Z" transform="translate(-528.67 -94)"/><path class="cls-1" d="M585.79,515.05c6.36,1.5,15.2.61,21.1,1.83s10.92,3.65,17,4.42c6.91.89,11.94,2.29,20.85.34,11.29-2.48,21.22,6.71,31.23,3.05,6.95,3.29,10.24,1.83,13.26-1.78,6.5,4.09,18.55-2.1,29.55-3.25,7.14-.75,14.15-.58,19.4,2,3.41-3.54,13.86-5.61,16.1-5.86,6.18-.68,10,.37,13.54.25,4.85-5.44,16.39-13.62,38.43-10.49,5.21-3.7,14.36-6,20.64-6.87l-1.4-4.26c-7.3,1.95-15.28,4.08-20.26,6.12-21.25-2.06-39.53,7.94-39.73,11.48-9.15.39-20.31-1.09-27.63,3.11-7.13-3.11-25.16,1-36.77,3.12-16.14,3-28.82-.69-43.55-2-8.43-.76-14.46,2.2-26.17-.55A248.75,248.75,0,0,0,591.28,510c-9.74-.67-15.74-6.22-24.84-5.52-7.94-3.94-16.43-6.13-24.89-8.34L540,500.25a78.63,78.63,0,0,1,26.65,10.29C571.84,509.73,577.88,513.19,585.79,515.05Z" transform="translate(-528.67 -94)"/><path class="cls-3" d="M585.79,515.05c6.36,1.5,15.2.61,21.1,1.83s10.92,3.65,17,4.42c6.91.89,11.94,2.29,20.85.34,11.29-2.48,21.22,6.71,31.23,3.05,6.95,3.29,10.24,1.83,13.26-1.78,6.5,4.09,18.55-2.1,29.55-3.25,7.14-.75,14.15-.58,19.4,2,3.41-3.54,13.86-5.61,16.1-5.86,6.18-.68,10,.37,13.54.25,4.85-5.44,16.39-13.62,38.43-10.49,5.21-3.7,14.36-6,20.64-6.87l-1.4-4.26c-7.3,1.95-15.28,4.08-20.26,6.12-21.25-2.06-39.53,7.94-39.73,11.48-9.15.39-20.31-1.09-27.63,3.11-7.13-3.11-25.16,1-36.77,3.12-16.14,3-28.82-.69-43.55-2-8.43-.76-14.46,2.2-26.17-.55A248.75,248.75,0,0,0,591.28,510c-9.74-.67-15.74-6.22-24.84-5.52-7.94-3.94-16.43-6.13-24.89-8.34L540,500.25a78.63,78.63,0,0,1,26.65,10.29C571.84,509.73,577.88,513.19,585.79,515.05Z" transform="translate(-528.67 -94)"/><path class="cls-1" d="M819.45,511.63c-2.45.36-6.26.86-6.6-2.62-.32-3.18,6.88-8.14,15-7.17l-1-3.17c-6.28.86-15.43,3.17-20.64,6.87-22-3.13-33.58,5-38.43,10.49-3.53.12-7.36-.93-13.54-.25-2.24.25-12.69,2.32-16.1,5.86-5.25-2.56-12.26-2.73-19.4-2-11,1.15-23,7.34-29.55,3.25-3,3.61-6.31,5.07-13.26,1.78-10,3.66-19.94-5.53-31.23-3.05-8.91,2-13.94.55-20.85-.34-6.05-.77-11.12-3.21-17-4.42s-14.74-.33-21.1-1.83c-7.91-1.86-13.95-5.32-19.15-4.51A78.63,78.63,0,0,0,540,500.25l-4,10.43c2.32.42,4.66.87,7.05,1.44,6.74,1.61,16.74,9.24,22.21,7.54,1.58,3.56,5,5.76,7.93,3.32,2.43,4.15,6.31,2.75,8.63.8,11.49,5.54,26.27,1.35,38.7,8.35,4.05,2.28,6.8-1.33,7.56-2.2,5.37,7.2,13.86,3.35,23.42,4,11.28,1.23,22.06,5.39,33.42,3.24,6-1.14,17-6.43,28.48-3.56a26.41,26.41,0,0,0,19.71-3c1.73.56,7.93,5,21.34,0,1.15-.43,12.18-3.87,16.35-5.61,12.13.86,16.81,0,28.42-7.32,4.15,1,9.4,2,11.84-2.8,3.75,1.3,11.87-.1,20.11-2.9L830,508.07C827.17,510.44,822.91,511.11,819.45,511.63Zm-160.8,18.44c-3.72,1.9-7.92.7-11.95.78-2.12,0-7.36,1.66-8.57-1.16-.52-1.22,2.64-3.69,6.94-4.39,5.18-.84,11.84.28,13.58,1.4A2,2,0,0,1,658.65,530.07Zm93.87-5.28c-.68,2.51-4,3.86-6.24,4.67-2,.73-6.18,1.43-7.52-.89s1.09-4.72,2.89-5.69c.75-.41,5.3-2.41,6.72-2.44C750.77,520.39,753.25,522.13,752.52,524.79Zm48.15-13.49c-.68,2.12-3.39,3.08-5.26,3.74-2.7,1-14,5-14.24-.59-.08-2.07,1.77-3.71,3.43-4.65,1.37-.78,10.46-2.62,13-2.13C799.41,508,801.36,509.15,800.67,511.3Z" transform="translate(-528.67 -94)"/><path class="cls-3" d="M819.45,511.63c-2.45.36-6.26.86-6.6-2.62-.32-3.18,6.88-8.14,15-7.17l-1-3.17c-6.28.86-15.43,3.17-20.64,6.87-22-3.13-33.58,5-38.43,10.49-3.53.12-7.36-.93-13.54-.25-2.24.25-12.69,2.32-16.1,5.86-5.25-2.56-12.26-2.73-19.4-2-11,1.15-23,7.34-29.55,3.25-3,3.61-6.31,5.07-13.26,1.78-10,3.66-19.94-5.53-31.23-3.05-8.91,2-13.94.55-20.85-.34-6.05-.77-11.12-3.21-17-4.42s-14.74-.33-21.1-1.83c-7.91-1.86-13.95-5.32-19.15-4.51A78.63,78.63,0,0,0,540,500.25l-4,10.43c2.32.42,4.66.87,7.05,1.44,6.74,1.61,16.74,9.24,22.21,7.54,1.58,3.56,5,5.76,7.93,3.32,2.43,4.15,6.31,2.75,8.63.8,11.49,5.54,26.27,1.35,38.7,8.35,4.05,2.28,6.8-1.33,7.56-2.2,5.37,7.2,13.86,3.35,23.42,4,11.28,1.23,22.06,5.39,33.42,3.24,6-1.14,17-6.43,28.48-3.56a26.41,26.41,0,0,0,19.71-3c1.73.56,7.93,5,21.34,0,1.15-.43,12.18-3.87,16.35-5.61,12.13.86,16.81,0,28.42-7.32,4.15,1,9.4,2,11.84-2.8,3.75,1.3,11.87-.1,20.11-2.9L830,508.07C827.17,510.44,822.91,511.11,819.45,511.63Zm-160.8,18.44c-3.72,1.9-7.92.7-11.95.78-2.12,0-7.36,1.66-8.57-1.16-.52-1.22,2.64-3.69,6.94-4.39,5.18-.84,11.84.28,13.58,1.4A2,2,0,0,1,658.65,530.07Zm93.87-5.28c-.68,2.51-4,3.86-6.24,4.67-2,.73-6.18,1.43-7.52-.89s1.09-4.72,2.89-5.69c.75-.41,5.3-2.41,6.72-2.44C750.77,520.39,753.25,522.13,752.52,524.79Zm48.15-13.49c-.68,2.12-3.39,3.08-5.26,3.74-2.7,1-14,5-14.24-.59-.08-2.07,1.77-3.71,3.43-4.65,1.37-.78,10.46-2.62,13-2.13C799.41,508,801.36,509.15,800.67,511.3Z" transform="translate(-528.67 -94)"/></svg>