<svg id="Layer_1" data-name="Layer 1" xmlns="http://www.w3.org/2000/svg" xmlns:xlink="http://www.w3.org/1999/xlink" viewBox="0 0 540.46 540.46"><defs><style>.cls-1{fill:url(#radial-gradient);}.cls-2{fill:url(#radial-gradient-2);}.cls-3{fill:#ed141f;}.cls-4{fill:#c00;}.cls-5{fill:#fcc047;}.cls-5,.cls-6{opacity:0.5;}.cls-6{fill:#fff1b8;}.cls-7{opacity:0.7;}.cls-8{fill:#fff;}</style><radialGradient id="radial-gradient" cx="270.23" cy="270.23" r="270.23" gradientUnits="userSpaceOnUse"><stop offset="0" stop-color="#fff"/><stop offset="0.62" stop-color="#e7804a"/><stop offset="0.84" stop-color="#df5209"/><stop offset="0.86" stop-color="#e0550a"/><stop offset="0.87" stop-color="#e15f0d"/><stop offset="0.89" stop-color="#e46f12"/><stop offset="0.9" stop-color="#e8861a"/><stop offset="0.92" stop-color="#eda423"/><stop offset="0.93" stop-color="#f2bf2c"/><stop offset="0.94" stop-color="#edb429"/><stop offset="0.96" stop-color="#df9823"/><stop offset="0.98" stop-color="#ca6918"/><stop offset="0.99" stop-color="#bd4e11"/></radialGradient><radialGradient id="radial-gradient-2" cx="697.33" cy="343.77" r="245.47" gradientUnits="userSpaceOnUse"><stop offset="0" stop-color="#ffce50"/><stop offset="0.52" stop-color="#ffce52"/><stop offset="0.71" stop-color="#ffcd59"/><stop offset="0.84" stop-color="#ffcc64"/><stop offset="0.95" stop-color="#ffcb75"/><stop offset="1" stop-color="#ffca81"/></radialGradient></defs><title>pizza-tomato</title><circle class="cls-1" cx="270.23" cy="270.23" r="270.23"/><path class="cls-2" d="M843,158.43c-5.58-1-7-3.12-7.24-5.8-1.18.3-4.61,1.39-6.91-.94-6.61-6.69-12.59-11.18-19.92-17.07-1.26.44-6.23.25-7.1-3.41-9.94-.12-18.75-3.55-20.07-8.5-5.6,2.19-15.44,3.36-21.11,1.06a5.15,5.15,0,0,1-2.92-4.58c-2.43.14-7.33-1-8.8-5-3.87-1.26-7.78-2.38-11.7-3.36-4.16-.8-6.14-3.78-10.3-4.57-3.15-.34-5.2,4.13-11.62,1.24-6.24,2.76-9.52,1-13.42-.25-8.34.14-14.5,1.23-22,4.88-2.75,1.44-6.37,2.77-8.85,4.73-2.21,1.75-6.54.64-10.54-1.07-7.51,10.38-31.13,7.44-44.53,11a6.27,6.27,0,0,1-4.74-1.84c-1.67,1-6.44,7.54-11.3,7.92,3.13,2.91,1.83,8.18-2.92,8.19-6.37,0-29,17.15-35.27,11.08l0,0c-.4,1.49-.39,3.52-1.19,4.36-1.43,1.51-3.38,2.56-6.88,3.58a46.94,46.94,0,0,1-5.43,8,66.26,66.26,0,0,1-14.82,12c-.22,4.82-3.91,16.47-13.23,19.68a10.11,10.11,0,0,0,0,5c.39,1.49-.49,3.52-2.16,3.81-7.07,1.23-18.93,6.37-21.68,10.65a24.24,24.24,0,0,0,3.66,8.52c1.65,2.47,1.63,5.72-1.92,6.22-.86.12-3.31-.69-4.09-.55a4.22,4.22,0,0,1-1.21,5c-3.68,2.5-10.9,9.72-11.3,10.58.09,2.14.27,4.42-.31,6.06a8.62,8.62,0,0,1-1.62,2.58c.14,3.73,1.29,7.38.69,11.08-.78,4.79-5,6.48-8,9.81-4.37,4.81-.15,12.4-4.65,17-6.5,6.61-4,14.82-1.88,19.5,2.63,5.76,3,11.62,0,15.35-4.23,5.27-1.92,15.45,5.62,18.81,3.88,1.73,2.24,8.43-2.14,9.83-8.1,2.58,5.06,15.05,6.9,15.69,3.17,1.11,5.17,5.62,2.16,8.16-3.33,2.81-6.92,5.5-4.83,7.7,5,5.31,8.89,21.58,4.37,31.85-5.84,13.26,4.33,31.34,17,38.43,12.14,6.81,16.62,14.54,20.44,32.82,8.16,0,12.94,8.45,16.28,14.05,9.66,16.23,29.94,17.6,35.84,20.57,14.12,7.1,15.35,15.22,15.35,15.22,11,1.1,25.77,4.67,26.69,14.54a40.86,40.86,0,0,0,14.87-3.38c5.67-2.76,10.59.17,10.83,3.85l.54,8.18c6.7-2.32,11.29-4.29,17.78-1.17,1.52.73,5.71,6.22,6.15,7.42,9-13.57,18.34-9.73,19.41-7.08a27.16,27.16,0,0,1,2,8.19c17.82-12,43.23-9.8,58.8-4.93,0-7.9,13.25-7.12,14.31-4.55,7.19-6,15.75-5.33,19.43-3.95,7.95-3.47,15.2-11,23.85-10.38,9.8.7,23-2.22,23.86-10.1s2.65-10.55,7-14.58c5.12-4.7,11.63-.17,12.63-6.44,1.56-9.72,6.76-18.51,16.61-20.85,2.06-.49,5,.2,6.77-.47,3.57-1.32,4-4.66,5.38-8,3-7,2.33-12.08,5.29-19.07,1.05-2.47,4.83-5.85,10.89-9.3,8.39-4.78,12.55-20.24,9.72-30.18-1.88-6.59-.67-9,4.27-13.6C904.91,413,900,406,903.82,400c1.24-1.92,3.14-3.07,4.95-4.31.1-1.11.21-2.21.31-3.31a4.92,4.92,0,0,1,5.17-4.53c-1.43-3-2.88-4.79-3.8-8-1.18-4.15,3.55-8.64,8.29-6.45-3.82-7.78,1.58-15.11,5.49-13.37a14.15,14.15,0,0,0-9.41-11c-4.08-1.42-4.36-7.27,0-8.58,10.48-3.15,3.73-19.92,3.45-27.45a49.34,49.34,0,0,1,2.85-18c-.92-.49-8.08-3.77-10.27-6.17s-.4-7,2.88-12.12c1.76-2.73,5.53-5.37.75-7.11-2.64-1-4-4.34-1.72-6.5,5.09-4.86-4.78-14.14-8.51-17.34-3-2.55-8-2.59-10.13-5.7a6.22,6.22,0,0,1-.31-6c1.75-4.3,0-6.22-2.09-9-1-1.34-2.25-2.65-3.15-4.05a41.58,41.58,0,0,1-4.63-10.76c-1.06-3.56-6.44-19.39-8.83-23.39-3.13-5.26-10.22-7.08-12-8C855.24,175.08,841.7,163.75,843,158.43Z" transform="translate(-427.1 -73.54)"/><path class="cls-3" d="M931.36,346.33c.7-.95,1.9-1.07,2.69-1.84,2.44-2.38-.41-4.32-1.66-6a8.18,8.18,0,0,1-1.62-5.86c.25-3.91,1.55-7.49,1.15-11.5-.44-4.32-2.85-7.63-3.87-11.7-.95-3.81.94-7.33,1.12-11.12.25-5.11-2.06-8.54-4.95-12.43-1.39-1.86-2.75-3.88-2-6.3.43-1.49,1.59-2.59,2-4.1a8.64,8.64,0,0,0-1-7c-1.8-2.82-4.33-3.91-4.65-7.52-.3-3.36.87-6.44-.81-9.62-2.41-4.56-7.36-7.24-10.69-11a13.42,13.42,0,0,1-3-5.14,10.75,10.75,0,0,1-.37-3,12.22,12.22,0,0,0,.17-2.31c-.3-1.26-1.83-2-2.62-2.72-1.79-1.65-2.17-2.7-2.1-5.2.13-4.66-2.37-5.51-5.07-8.42-2-2.18-2.53-4.84-3.25-7.63-1-3.92-3.34-6.83-5.43-10.19s-3.47-7.89-1.51-11.53a249,249,0,0,0-23.55-24c-2.43,2.08-6,2.2-9.13,1-5.73-2.19-8.41-8.51-13.76-11.35-2.94-1.57-16.75-11.71-21-15-4.85-3.73-23.32-11.54-33-14.4-22-6.45-35.59-14.14-54.66-17.05a107.54,107.54,0,0,0-50.82,4.7c-3.41,1.19-6.73,2.85-10.37,3.2-3.88.38-7.5-1.21-11.34-1.23-4.91,0-7.48,3.36-11.16,5.92a21.4,21.4,0,0,1-8.16,3.34c-6.62,1.27-13.4.25-20.08.31-8.36.09-14.58,3.07-21.22,7.9-13.24,9.62-29.15,14.6-41.72,25.22C541,163.71,530,177.06,518.5,189.4c-3.33,3.57-7.07,7-8.87,11.63-.89,2.28-1.53,4.5-3.52,6.08s-6,4.87-8.12,5.95c-7.07,3.59-5.57,9.59-5.13,11.61.63,2.83-.73,5.1-2.06,7.62-3.63,6.9-9.92,11.7-13.59,18.56-3.84,7.16-6.75,14.91-10.06,22.33q-5.36,12.06-10.87,24.05A245.8,245.8,0,0,0,452,334.71c3.36,1.16,5.51,4.79,5.28,8.74-.11,1.84,0,3.62,1.42,5.1.41.44,1.56.68,2,1.13a4.25,4.25,0,0,1,1.33,2.66,8.2,8.2,0,0,1-1,4.32c-.77,1.66-1.74,2.81-1.29,4.73s1.06,1.75,2.31,2.95c1.91,1.82,1.93,3.08,1.64,5.59-.32,2.84,0,4.06,1.85,6.05a6.16,6.16,0,0,1,1.6,2.34c1,3.43-2.33,6.14-3.27,9.14-1.76,5.64,1.89,8.71,4.31,13.16,2,3.73.38,7.85.3,11.82a35.84,35.84,0,0,0,2.42,13c1.34,3.71.23,6.27-2.3,7.72a245.54,245.54,0,0,0,11,24.18c4.18,2.65,7.22,7.75,11.33,10.59,6,4.12,11.4,6.6,13.42,14.11,1.2,4.44,2.61,8.44,5.54,12.06,2.62,3.25,6,5,9.2,7.52,5.41,4.15,5.63,11.65,11.63,15.32,4,2.46,7.7,5.2,5.06,10.31-.15.29-.33.61-.52.93Q544.26,536,554,543c7.35-2.22,15.13.12,21.39,5.37,2.66,2.22,5.26,4.26,8.75,4.91,3,.56,6.13.3,9.14.94,5.44,1.17,7,5.38,10.61,9,4.59,4.63,10.62,1.62,16.22,1.78,4.2.12,6.83,2.26,9.51,5.24,2.29,2.55,4.54,5,8.33,4.26,2.22-.43,4.24-1.55,6.46-2,4-.75,6.7,1.18,9.31,4a14.16,14.16,0,0,0,3.85,3.43c2.58,1.27,4.14-.2,6.06-2,1.17-1.1,2.07-2.35,3.86-2.45a3.16,3.16,0,0,1,2.64,1.06,17.84,17.84,0,0,1,1.28,2.36,8.44,8.44,0,0,0,4.65,3.25c6.17,1.9,12.13-1.93,17.62-4.19a51.23,51.23,0,0,1,15.8-3.71,52,52,0,0,1,16.76,1.61c4.06,1.05,8,2.24,12.11.74a29.22,29.22,0,0,1,6.44-2c3.31-.37,6.79.38,10-.52,2.69-.75,4.55-2.74,6.75-4.32a8.69,8.69,0,0,1,4.64-2c2.22-.11,3.5,1.08,5.8.7,2.8-.46,3.66-2.57,6.07-3.74,2.13-1,4.3-.62,6.57-.62,6,0,8.92-4.3,14-6.44a16.24,16.24,0,0,1,15.59,2,245.79,245.79,0,0,0,30.9-19.91c-1.27-4.11-1.09-8.89,2.55-11.76,1.39-1.1,3.31-1.47,4.59-2.73s1.57-2.94,2-4.51c.49-1.81.9-3.89,2.28-5.27a5.85,5.85,0,0,1,2.79-1.44,6,6,0,0,0,4.47-3.2c1.26-2.08,2.09-3.45,4.26-4.72,3.47-2,6.72-3,8.79-6.78,1.63-3,2.16-6.49,2.79-9.78,1-5,2.33-10.77,6.81-13.84,1.88-1.28,4.24-1.7,5.83-3.42a12,12,0,0,0,2.33-4.75c.82-2.67,1.2-5.46,2.32-8a23,23,0,0,1,4.57-6.26c1.16-1.27,2.59-2.69,3.11-4.37.45-1.43-.28-2.69-.09-4,.32-2.2,2-2.48,3.62-3.55,4.69-3.09.08-7.2-1.36-10.74-.92-2.27-1-4.51.55-6.48.71-.88,1.89-1.38,2.57-2.26,1.53-2,1.35-4.11,1.23-6.4-.13-2.65,0-4.9,1.74-7.05,2.38-3,7.43-4.45,7-9.15-.19-2.12-1.51-3.33.49-5.13a5.35,5.35,0,0,1,4.85-.94c-.6-2.31-1.26-4.65-1.64-7a4.22,4.22,0,0,1,.15-3c1.56-2.58,3.89-.47,5.83-.25,4.87.57,3.74-4.17,4.76-6.77a7.09,7.09,0,0,1,2.32-3.09,7.77,7.77,0,0,1,4.59-1.64q.88-7.87,1.28-15.89c-1.64-.42-3.24-.95-4.6-1.26C934.75,353.53,928.05,350.82,931.36,346.33Zm-12.62,27.05c-4.74-2.19-9.47,2.3-8.29,6.45.92,3.24,2.37,5,3.8,8a4.92,4.92,0,0,0-5.17,4.53c-.1,1.1-.21,2.2-.31,3.31-1.81,1.24-3.71,2.39-4.95,4.31C900,406,904.91,413,899.66,417.8c-4.94,4.59-6.15,7-4.27,13.6,2.83,9.94-1.33,25.4-9.72,30.18-6.06,3.45-9.84,6.83-10.89,9.3-3,7-2.32,12.08-5.29,19.07-1.4,3.3-1.81,6.64-5.38,8-1.79.67-4.71,0-6.77.47-9.85,2.34-15.05,11.13-16.61,20.85-1,6.27-7.51,1.74-12.63,6.44-4.39,4-6.15,6.74-7,14.58s-14.06,10.8-23.86,10.1c-8.65-.62-15.9,6.91-23.85,10.38-3.68-1.38-12.24-2-19.43,3.95-1.06-2.57-14.31-3.35-14.31,4.55-15.57-4.87-41-7.12-58.8,4.93a27.16,27.16,0,0,0-2-8.19c-1.07-2.65-10.42-6.49-19.41,7.08-.44-1.2-4.63-6.69-6.15-7.42-6.49-3.12-11.08-1.15-17.78,1.17l-.54-8.18c-.24-3.68-5.16-6.61-10.83-3.85a40.86,40.86,0,0,1-14.87,3.38c-.92-9.87-15.67-13.44-26.69-14.54,0,0-1.23-8.12-15.35-15.22-5.9-3-26.18-4.34-35.84-20.57-3.34-5.6-8.12-14.05-16.28-14.05-3.82-18.28-8.3-26-20.44-32.82-12.63-7.09-22.8-25.17-17-38.43,4.52-10.27.67-26.54-4.37-31.85-2.09-2.2,1.5-4.89,4.83-7.7,3-2.54,1-7.05-2.16-8.16-1.84-.64-15-13.11-6.9-15.69,4.38-1.4,6-8.1,2.14-9.83-7.54-3.36-9.85-13.54-5.62-18.81,3-3.73,2.6-9.59,0-15.35-2.14-4.68-4.62-12.89,1.88-19.5,4.5-4.58.28-12.17,4.65-17,3-3.33,7.24-5,8-9.81.6-3.7-.55-7.35-.69-11.08a8.62,8.62,0,0,0,1.62-2.58c.58-1.64.4-3.92.31-6.06.4-.86,7.62-8.08,11.3-10.58a4.22,4.22,0,0,0,1.21-5c.78-.14,3.23.67,4.09.55,3.55-.5,3.57-3.75,1.92-6.22a24.24,24.24,0,0,1-3.66-8.52c2.75-4.28,14.61-9.42,21.68-10.65,1.67-.29,2.55-2.32,2.16-3.81a10.11,10.11,0,0,1,0-5c9.32-3.21,13-14.86,13.23-19.68a66.26,66.26,0,0,0,14.82-12,46.94,46.94,0,0,0,5.43-8c3.5-1,5.45-2.07,6.88-3.58.8-.84.79-2.87,1.19-4.36l0,0c6.31,6.07,28.9-11.06,35.27-11.08,4.75,0,6-5.28,2.92-8.19,4.86-.38,9.63-6.87,11.3-7.92a6.27,6.27,0,0,0,4.74,1.84c13.4-3.59,37-.65,44.53-11,4,1.71,8.33,2.82,10.54,1.07,2.48-2,6.1-3.29,8.85-4.73,7.52-3.65,13.68-4.74,22-4.88,3.9,1.25,7.18,3,13.42.25,6.42,2.89,8.47-1.58,11.62-1.24,4.16.79,6.14,3.77,10.3,4.57,3.92,1,7.83,2.1,11.7,3.36,1.47,4,6.37,5.12,8.8,5a5.15,5.15,0,0,0,2.92,4.58c5.67,2.3,15.51,1.13,21.11-1.06,1.32,5,10.13,8.38,20.07,8.5.87,3.66,5.84,3.85,7.1,3.41,7.33,5.89,13.31,10.38,19.92,17.07,2.3,2.33,5.73,1.24,6.91.94.26,2.68,1.66,4.79,7.24,5.8-1.32,5.32,12.22,16.65,20.07,20.49,1.8.88,8.89,2.7,12,8,2.39,4,7.77,19.83,8.83,23.39A41.58,41.58,0,0,0,888.57,221c.9,1.4,2.13,2.71,3.15,4.05,2.13,2.8,3.84,4.72,2.09,9a6.22,6.22,0,0,0,.31,6c2.14,3.11,7.16,3.15,10.13,5.7,3.73,3.2,13.6,12.48,8.51,17.34-2.26,2.16-.92,5.55,1.72,6.5,4.78,1.74,1,4.38-.75,7.11-3.28,5.08-5.08,9.71-2.88,12.12s9.35,5.68,10.27,6.17a49.34,49.34,0,0,0-2.85,18c.28,7.53,7,24.3-3.45,27.45-4.36,1.31-4.08,7.16,0,8.58a14.15,14.15,0,0,1,9.41,11C920.32,358.27,914.92,365.6,918.74,373.38Z" transform="translate(-427.1 -73.54)"/><path class="cls-4" d="M477.21,250.85c3.67-6.86,10-11.66,13.59-18.56,1.33-2.52,2.69-4.79,2.06-7.62-.44-2-1.94-8,5.13-11.61,2.12-1.08,6.21-4.43,8.12-5.95s2.63-3.8,3.52-6.08c1.8-4.63,5.54-8.06,8.87-11.63C530,177.06,541,163.71,553.85,152.82c12.57-10.62,28.48-15.6,41.72-25.22,6.64-4.83,12.86-7.81,21.22-7.9,6.68-.06,13.46,1,20.08-.31a21.4,21.4,0,0,0,8.16-3.34c3.68-2.56,6.25-6,11.16-5.92,3.84,0,7.46,1.61,11.34,1.23,3.64-.35,7-2,10.37-3.2a107.54,107.54,0,0,1,50.82-4.7c19.07,2.91,32.65,10.6,54.66,17.05,9.72,2.86,28.19,10.67,33,14.4,4.25,3.27,18.06,13.41,21,15,5.35,2.84,8,9.16,13.76,11.35,3.12,1.19,6.7,1.07,9.13-1a244.54,244.54,0,0,0-163-61.93c-119.66,0-219.3,85.62-241.05,198.93q5.49-12,10.87-24.05C470.46,265.76,473.37,258,477.21,250.85Z" transform="translate(-427.1 -73.54)"/><path class="cls-4" d="M883.86,184.2c-2,3.64-.69,8,1.51,11.53s4.41,6.27,5.43,10.19c.72,2.79,1.22,5.45,3.25,7.63,2.7,2.91,5.2,3.76,5.07,8.42-.07,2.5.31,3.55,2.1,5.2.79.74,2.32,1.46,2.62,2.72a12.22,12.22,0,0,1-.17,2.31,10.75,10.75,0,0,0,.37,3,13.42,13.42,0,0,0,3,5.14c3.33,3.79,8.28,6.47,10.69,11,1.68,3.18.51,6.26.81,9.62.32,3.61,2.85,4.7,4.65,7.52a8.64,8.64,0,0,1,1,7c-.44,1.51-1.6,2.61-2,4.1-.71,2.42.65,4.44,2,6.3,2.89,3.89,5.2,7.32,4.95,12.43-.18,3.79-2.07,7.31-1.12,11.12,1,4.07,3.43,7.38,3.87,11.7.4,4-.9,7.59-1.15,11.5a8.18,8.18,0,0,0,1.62,5.86c1.25,1.69,4.1,3.63,1.66,6-.79.77-2,.89-2.69,1.84-3.31,4.49,3.39,7.2,6.56,7.92,1.36.31,3,.84,4.6,1.26q.27-5.83.28-11.74A244.54,244.54,0,0,0,883.86,184.2Z" transform="translate(-427.1 -73.54)"/><path class="cls-4" d="M934.33,376.13c-1,2.6.11,7.34-4.76,6.77-1.94-.22-4.27-2.33-5.83.25a4.22,4.22,0,0,0-.15,3c.38,2.34,1,4.68,1.64,7a5.35,5.35,0,0,0-4.85.94c-2,1.8-.68,3-.49,5.13.41,4.7-4.64,6.15-7,9.15-1.71,2.15-1.87,4.4-1.74,7.05.12,2.29.3,4.41-1.23,6.4-.68.88-1.86,1.38-2.57,2.26-1.6,2-1.47,4.21-.55,6.48,1.44,3.54,6.05,7.65,1.36,10.74-1.63,1.07-3.3,1.35-3.62,3.55-.19,1.36.54,2.62.09,4-.52,1.68-2,3.1-3.11,4.37a23,23,0,0,0-4.57,6.26c-1.12,2.58-1.5,5.37-2.32,8a12,12,0,0,1-2.33,4.75c-1.59,1.72-3.95,2.14-5.83,3.42-4.48,3.07-5.85,8.83-6.81,13.84-.63,3.29-1.16,6.8-2.79,9.78-2.07,3.79-5.32,4.76-8.79,6.78-2.17,1.27-3,2.64-4.26,4.72a6,6,0,0,1-4.47,3.2,5.85,5.85,0,0,0-2.79,1.44c-1.38,1.38-1.79,3.46-2.28,5.27-.43,1.57-.8,3.33-2,4.51s-3.2,1.63-4.59,2.73c-3.64,2.87-3.82,7.65-2.55,11.76A245.18,245.18,0,0,0,941.24,371.4a7.77,7.77,0,0,0-4.59,1.64A7.09,7.09,0,0,0,934.33,376.13Z" transform="translate(-427.1 -73.54)"/><path class="cls-4" d="M798.63,557.72c-5.11,2.14-8.07,6.44-14,6.44-2.27,0-4.44-.42-6.57.62-2.41,1.17-3.27,3.28-6.07,3.74-2.3.38-3.58-.81-5.8-.7a8.69,8.69,0,0,0-4.64,2c-2.2,1.58-4.06,3.57-6.75,4.32-3.23.9-6.71.15-10,.52a29.22,29.22,0,0,0-6.44,2c-4.15,1.5-8,.31-12.11-.74a52,52,0,0,0-16.76-1.61,51.23,51.23,0,0,0-15.8,3.71c-5.49,2.26-11.45,6.09-17.62,4.19a8.44,8.44,0,0,1-4.65-3.25,17.84,17.84,0,0,0-1.28-2.36,3.16,3.16,0,0,0-2.64-1.06c-1.79.1-2.69,1.35-3.86,2.45-1.92,1.81-3.48,3.28-6.06,2a14.16,14.16,0,0,1-3.85-3.43c-2.61-2.8-5.31-4.73-9.31-4-2.22.42-4.24,1.54-6.46,2-3.79.73-6-1.71-8.33-4.26-2.68-3-5.31-5.12-9.51-5.24-5.6-.16-11.63,2.85-16.22-1.78-3.58-3.62-5.17-7.83-10.61-9-3-.64-6.13-.38-9.14-.94-3.49-.65-6.09-2.69-8.75-4.91-6.26-5.25-14-7.59-21.39-5.37a245.68,245.68,0,0,0,260.26,16.65A16.24,16.24,0,0,0,798.63,557.72Z" transform="translate(-427.1 -73.54)"/><path class="cls-4" d="M470.94,425.43a35.84,35.84,0,0,1-2.42-13c.08-4,1.73-8.09-.3-11.82-2.42-4.45-6.07-7.52-4.31-13.16.94-3,4.3-5.71,3.27-9.14a6.16,6.16,0,0,0-1.6-2.34c-1.87-2-2.17-3.21-1.85-6.05.29-2.51.27-3.77-1.64-5.59-1.25-1.2-1.88-1.15-2.31-2.95s.52-3.07,1.29-4.73a8.2,8.2,0,0,0,1-4.32,4.25,4.25,0,0,0-1.33-2.66c-.48-.45-1.63-.69-2-1.13-1.39-1.48-1.53-3.26-1.42-5.1.23-3.95-1.92-7.58-5.28-8.74-.11,3-.18,6-.18,9.06a245,245,0,0,0,16.78,89.38C471.17,431.7,472.28,429.14,470.94,425.43Z" transform="translate(-427.1 -73.54)"/><path class="cls-4" d="M530.78,516.93c-6-3.67-6.22-11.17-11.63-15.32-3.24-2.48-6.58-4.27-9.2-7.52-2.93-3.62-4.34-7.62-5.54-12.06-2-7.51-7.44-10-13.42-14.11-4.11-2.84-7.15-7.94-11.33-10.59a246.59,246.59,0,0,0,55.66,70.84c.19-.32.37-.64.52-.93C538.48,522.13,534.82,519.39,530.78,516.93Z" transform="translate(-427.1 -73.54)"/><path class="cls-5" d="M962,353.77c-.13-2.5-1.24-5.24-1.37-7.75,2-1,3.64-4.46.59-7.66,1.57-1,1.87-3.32.08-6.06q-.07-4.17-.52-8.35c1-7.83-4-14.93-1-22.21,1-2.33-.74-2.87-2.49-4.26,1.36-.65,2.3-2.22,2-3.11-2.18-6-3.3-12.58-4.78-18.86a72.57,72.57,0,0,0-5.83-15.38c-1.86-3.4-2.47-7.27-3.43-11-.71-2.77-2.6-4.45-3.82-6.39,2.28-4.4-4.64-13.49-8.76-19,.62-3.17-2.69-11.36-9-13.63.57-6.19-7.1-14.38-10-18.45a36.45,36.45,0,0,0-8-8.06c-1.08-3.79-4-9.79-8.68-11.31.82-2.59-2-4.3-4.12-4.79a5.26,5.26,0,0,0-5.24-5.47c-1.56-4.34-6.76-10.5-10.9-14.48-4.76-4.58-21.81-19.34-27.74-18.84-3.45-4.1-9-9.25-13.43-11.76-5-2.85-12.35-6.12-17-6.4a5.25,5.25,0,0,0-6.72-3.49c-1-1.86-3.49-4.13-5.75-2.61-2.78-4.09-9.35-5.2-13.29-5.16a36.18,36.18,0,0,0-10-5.39c-4.72-1.66-14.73-6.74-20.52-4.45-3.94-5.39-12.73-6.27-15.59-4.79-6.5-2.39-17.16-6.49-20.75-3.07-2.21-.62-4.34-2-7.21-1.87-3.88.13-7.77.63-11.55-.2a72.72,72.72,0,0,0-16.4-1.28c-6.44.33-13,1.09-19.44.69-1,0-2.19,1.28-2.43,2.77-1.83-1.29-2.82-2.77-4.79-1.19-6.15,4.9-14.35,2.14-21.61,5.25a6.75,6.75,0,0,0-7.85,1.77,4.55,4.55,0,0,0-6.1,1.85c-2.42.82-4.81,1.74-7.19,2.71-2.44.59-5.38.29-7.82.86a102.39,102.39,0,0,0-21.14,7.71c-2.17-.4-5.73.69-6.91,3.16-1.48-.67-4.84.49-5.63,3.33a60.54,60.54,0,0,0-13.34,5.26c-2.25,1.26-7.06,2.79-9.68,7-3.55.89-6.25,2.84-9,5-1.26.77-2.73,2.1-4,2.07-2.34,0-3.16,1.19-3.33,3.23-1.8-.26-2.79.92-2.73,2.62a4,4,0,0,0-4.27,2.45c-1.47,3.4-6,6.7-8.22,8.44-4,3.18-7.75,5.78-11.2,9.75a119.59,119.59,0,0,0-8.83,11.8c-1.1.69-2.38,1.72-3.69,1.62s-1.74,1.4-1.88,2.07c-.69,3.46-5.34,5.39-7.86,9.28-1.53.79-2.8,2.38-1.92,4.31a10.28,10.28,0,0,0-3.64,3.22,14.26,14.26,0,0,0-1.27,3.44c-2.1.79-2.85,2.77-3.78,4.15-4.53,5.12-9.07,6.66-9.88,13.82-.36,3.1-3.29,6.59-4.54,7.91-4.93,5.23-5.82,15.12-8.28,22a1.89,1.89,0,0,0-.05.23c-2.13,3.61-6.18,8.94-7.86,12.79-3.23,7.39-3.81,13.52-6.65,21.07-2.24,5.1-7.38,13.2-4.83,19.53-5,2-2.57,6.6-2.81,11-.16,2.93-2.74,4.83-1.53,8a4.7,4.7,0,0,0,1.25,1.88c-1.12,4.5-.91,9.31-2.57,13.74-1.23,3.28-2.12,5.85,1.76,9.31-3.7,5.37-2.55,10.25.5,15.16-2.31,2.91-2.82,7.75,1.54,11.7-1.87,2.77-2.63,7.41-2.78,11.52-.13,3.63,1.89,9.42,4.78,11.7a59.39,59.39,0,0,0,1.4,17.41,28.49,28.49,0,0,0,2.5,6.41c1.55,3.3.79,5.38,1.15,8.92.26,2.61,1.53,4.82,2.71,7.1,2.38,4.6,2.66,7.95,3.35,12.95.41,3,.93,6.36,2.6,8.83,3.34,4.95,6.23,8.32,8.33,13.91,1.22,4.54,2.71,9,5.49,11.91,1.25,1.32,4.18,4.81,4.54,7.91.81,7.17,5.35,8.7,9.88,13.82.93,1.38,1.68,3.36,3.78,4.15a14.49,14.49,0,0,0,1.27,3.45,10.33,10.33,0,0,0,3.64,3.21c-.88,1.93.39,3.52,1.92,4.31,2.52,3.89,7.17,5.82,7.86,9.28.14.67.6,2.17,1.88,2.07s2.59.93,3.69,1.63a120.65,120.65,0,0,0,8.83,11.79c3.45,4,7.16,6.57,11.2,9.75,2.2,1.74,6.75,5,8.22,8.44a4,4,0,0,0,4.27,2.45c-.06,1.7.93,2.88,2.73,2.63.17,2,1,3.26,3.33,3.22,1.22,0,2.69,1.3,4,2.07,2.74,2.2,5.44,4.15,9,5,2.62,4.22,7.43,5.75,9.68,7A60.54,60.54,0,0,0,580,579.17c.79,2.84,4.15,4,5.63,3.33,1.18,2.47,4.74,3.56,6.91,3.16a101.82,101.82,0,0,0,21.14,7.71c2.44.57,5.38.28,7.82.86,2.38,1,4.77,1.89,7.19,2.71a11.16,11.16,0,0,0,5.47,1.81,1.75,1.75,0,0,0,.33,0c2.68.74,5.4,1.35,8.15,1.85,7.26,3.11,15.46.35,21.61,5.25,2,1.58,3,.1,4.79-1.19.24,1.49,1.48,2.82,2.43,2.77,6.4-.4,13,.36,19.44.69a72.72,72.72,0,0,0,16.4-1.28c3.78-.83,7.67-.33,11.55-.2,2.87.1,5-1.25,7.21-1.87,3.59,3.42,14.25-.68,20.75-3.07,2.86,1.48,11.65.6,15.59-4.79,5.79,2.29,15.8-2.79,20.52-4.45a36.18,36.18,0,0,0,10-5.39c3.94,0,10.51-1.07,13.29-5.16,2.26,1.52,4.7-.75,5.75-2.61a5.25,5.25,0,0,0,6.72-3.49c4.6-.28,12-3.55,17-6.4A44.58,44.58,0,0,0,846.74,560c3.46-.59,1.69-4.12,3.46-5.49,2.46-1.9,6-1.08,8.89-3,4.4-2.95,5.64-6.08,9.28-8.1,6.42-3.57,14.29-8.57,17.93-14.78.92-1.56,3.44-5.35,6.32-6.56,6.65-2.8,6.85-7.58,10.5-13.37,1.06-1.27,2.75-2.55,2.93-4.78a15.1,15.1,0,0,0,2.94-2.19,10.28,10.28,0,0,0,2.07-4.4c2.1.31,3.26-1.36,3.6-3,3-3.52,3.58-8.52,6.7-10.16.61-.31,1.92-1.17,1.47-2.38s.16-2.75.52-4A123.73,123.73,0,0,0,932.2,466c2.84-4.42,4.29-8.71,6.22-13.48,1.05-2.6,3-7.9,5.8-10.26a4,4,0,0,0,1.15-4.78c1.65-.42,2.51-1.7,1.75-3.36,1.91-.74,2.86-1.87,2.16-4.1-.36-1.16.5-2.94.88-4.38,1.35-3.24,2.46-6.37,2.32-10,3.32-3.69,3.44-8.73,4-11.25a60.92,60.92,0,0,0,1.31-14.28c2.5-1.55,2.67-5.11,1.62-6.33,2-1.83,2.09-5.55,1.1-7.53A102.8,102.8,0,0,0,962,353.77Zm-12.46,3.85c-.31,4.34.34,9.24-.23,13.52-2,14.58-3.59,26.72-8.07,42.05-1.85,6.33-3.53,14-5.61,20.25-2.46,5.44-5.14,10.79-7.78,16.14-3.29,6.67-8.61,13.45-12.49,19.68-3.77,6.05-6.09,11.56-10.14,17.06a29.58,29.58,0,0,0-3.68,7.14c-1.81,4.81-4.83,6.7-9.5,9.77-2.39,1.57-3.25,4.19-3.76,5.42-2.83,2.85-5.44,4.72-6.69,9.11s-8.78,4.55-11.24,9.59c-3.57,1.86-5.42,5.89-8.24,9.24-1.87,2.21-6,2.21-7.47,5.77-2.37-.89-6,2-8.2,3.56-3,2.2-1.38,4.74-4.28,5.44-1.85.44-6.28.09-7.69,4.69a29.37,29.37,0,0,0-10.35,3.74c-7.6,4.74-13.53,5.33-17.28,10.17-10.58,1.62-16.31,6-22.47,9.44-2.52,1.42-14.26,3.8-19.59,6-11.48-1.11-21.35,4.29-21.45,6.2-4.94.21-11-.59-14.91,1.68-3.86-1.68-13.59.53-19.86,1.68-8.7,1.59-15.55-.37-23.5-1.09-4.55-.41-7.81,1.19-14.13-.29a134,134,0,0,0-21.63-3.07c-5.25-.36-8.49-3.35-13.41-3-7.13-3.54-15.1-4.46-22.44-7.19-4.08-1.52-9-2.26-12.92-4-13.44-6-24.64-10.93-38.1-19.53-5.56-3.55-12.44-7.31-17.87-11.07-4.53-3.88-8.91-8-13.3-12-5.49-5-10.51-12-15.4-17.51-4.75-5.32-9.38-9.09-13.53-14.52a29.59,29.59,0,0,0-5.82-5.53c-4.11-3.08-5.08-6.52-6.72-11.85-.84-2.74-3.11-4.3-4.15-5.14a38.48,38.48,0,0,0-6.87-9,9.38,9.38,0,0,0-4.88-9c-1.48-6.07-1.88-9.58-6-11.62-4.55-15.23-12.66-28.82-13.14-44.68a14.73,14.73,0,0,0-4.58-10.06c.33-3.27-1.34-10.24-2.13-14.69a7.37,7.37,0,0,0-.41-4c-.86-2-1.52-4.67-2.62-6.9.6-3.48,2.45-6.62-.73-9.91,2.65-4.11,2-18.74,1.34-19.78-1.8-3-1.17-5.73.14-10.34a9.17,9.17,0,0,0-.83-7.43c2.8-2.75,2.31-6.3.53-8,2.92-1.38,4.15-6.32,2.56-9.31-1.2-2.25-1.28-4.91-2.05-7.32,4.92-4,5.91-12.21,3.82-16.83,2.88-1.8,5.15-6.94,5.53-11.51a44.46,44.46,0,0,0,0-6.73c3.3-6.7,5.75-9.84,6.74-16.85a8.38,8.38,0,0,0,4.84-4.84c1.65-4.05,3.46-8,4.24-12a13.66,13.66,0,0,0,4.05-5.73c1.27-2.18,1.7-4.85,3.6-6.83a38.48,38.48,0,0,0,6.87-9c1-.84,3.31-2.4,4.15-5.14,1.64-5.33,2.61-8.77,6.72-11.85a29.59,29.59,0,0,0,5.82-5.53c4.15-5.43,8.78-9.2,13.53-14.52,4.89-5.47,9.91-12.48,15.4-17.5,4.39-4,8.77-8.11,13.3-12,5.43-3.76,12.31-7.52,17.87-11.07,13.46-8.6,24.66-13.55,38.1-19.53,4-1.75,8.84-2.49,12.92-4,7.34-2.73,15.31-3.65,22.44-7.19,4.92.38,8.16-2.62,13.41-3a135,135,0,0,0,21.63-3.06c6.32-1.49,9.58.11,14.13-.3,8-.72,14.8-2.68,23.5-1.09,6.27,1.15,16,3.36,19.86,1.68,4,2.27,10,1.47,14.91,1.68.1,1.91,10,7.31,21.45,6.2,5.33,2.19,17.07,4.57,19.59,6,6.16,3.48,11.89,7.82,22.47,9.44,3.75,4.84,9.68,5.43,17.28,10.17a29.37,29.37,0,0,0,10.35,3.74c.8,2.06,8.71,7.82,13.65,8.81,5.87,1.17,6.11,2.67,8.1,6.81,1.25,2.61,6,4.16,8.06,6.46a29.3,29.3,0,0,0,6.49,8.89c6.68,6,8.91,11.49,14.61,13.74,4.52,9.69,10.29,14,15.36,18.92,2.07,2,7.65,12.62,11.24,17.13,2.15,11.32,10.1,19.28,12,18.85,1.59,4.68,2.51,10.69,5.8,13.84-.54,4.17,4.31,12.9,7.17,18.59,4,7.91,4,15,5.55,22.87.88,4.48,3.32,7.16,3.67,13.64a133.33,133.33,0,0,0,3.13,21.62c1.12,5.15-.85,9.1.89,13.71C948.76,341.9,950.1,349.8,949.54,357.62Z" transform="translate(-427.1 -73.54)"/><path class="cls-6" d="M845.13,129.51a35.26,35.26,0,0,0-12.84-10.93c-4.86-2.43-9.34-3.1-14.17-5.57a5.34,5.34,0,0,0-6.31-3.46c-1-2-3.62-3.81-5.27-2.17-2.44-3-7.07-4.09-9.81-5.07a21.77,21.77,0,0,0-8.76-1.63c-.11-.51-.39-1.86-2.76-3.11C779.29,94.45,771,92.24,768,93.29c-1.32-2.62-4.15-2-6.39-1.51-6.27-4-8.79-4.42-15.34-4-2.26-.94-8.21-2.8-8.83-3-7.24-2.7-10.59-.3-11.52,0a14.26,14.26,0,0,0-10.64-1.64c-6.2,1.55-12.11-1.3-15.37-1.92-6.13-1.16-12,1.08-18,1.75-5.16.33-9.75-1.75-12.64,2.14-.41-.47-1.9-2.42-4.09-1.19-6.7,3.78-14.68,1.52-20.88,4.51-1.25-1-3.35-1.81-4.66.43-1.58-1.32-3.43-.13-4.28,1.79-3-.92-8.35,3.2-12,4.07-4.77,1.14-9.17,1.43-13.83,3s-9.59,4.06-14.71,5.78c-3.59-1.5-6.29.35-7,2.59-3.4-.76-5.6-.07-6.79,3.22-4.9,2.63-8.39,2.82-13.43,5.6-2.72,1.5-7.51,3.75-9.22,7-5,1-7.86,5.44-12,7.9a5.17,5.17,0,0,0-3.44.46A3.23,3.23,0,0,0,542,133a3.59,3.59,0,0,0-3.08,1.39c-3,3.14-5.65,6.76-8.77,9.08-7.5,5.58-13.81,10.06-19.16,17.58-1,1.26-1.71,4.73-3.17,5.52-6.91,3.76-6.07,7-9.6,9.69-2.77,2.1-4.58,3.8-5.57,6.74-1.15,3.4-2.71,5.41-4.71,6.56-3.46,2-5.73,4.28-5.79,7.93-1.52-.36-3,0-3.49,1.81-.33,1.12-.16,2-.62,3-1,.32-2.41.05-3,1.57s-.53,2.5.79,4.28c-1.32.06-2.78.4-3,2.38-.32,2.38-5.34,5.86-6.38,8-2.43,5.07,3.35,6.47,4.94,5.18,4.1-3.32,3.67-9,7.64-12.29,3.69-3.1,3-4.71,5.53-6.32,2.13-1.38,3.5-4.32,4.87-9.09a21.18,21.18,0,0,1,9-11.46c3.21-2.06,3.36-6.82,6.52-9.08,1.42-1,3.75-1.52,4.6-4.55a4.46,4.46,0,0,0,4-4.61c1.12-.13,2.9-.52,4.81-3.75,0,0,7.3-8.69,9.94-11.39,2.42-2.47,10.24-9.32,10.24-9.32a1,1,0,0,0,.15-.21,1.42,1.42,0,0,0,.41-.24q2.41-2.1,4.89-4.09c3.58-2.38,7-5.11,10.82-7,6.87-3.33,13.66-8.07,16.43-9.5,11.28-5.8,20.41-11.55,32.51-15.18,0,0,10-3,15.17-4,5.84-1.09,10.59-2.14,17.17-6.09,2.81.43,6.07-1.43,10.34-2.44,3.43-.81,8.21-.33,11.39-1s5.89-2,9.16-2.39c3.73-.48,6.44-1.23,11.25-.18C684.24,90.94,689.6,86,695,88c3.75-1.78,5.53-1,7.16,1,3.51-2.2,10,1.14,16,1.76,3.85.41,7.64.32,10.47-1.07,1.84,1.91,7.48,3,8.69,3.16,3.34.37,5.4-.19,7.31-.13,2.62,2.94,8.85,7.35,20.74,5.67,4.08,2.89,12.64,4.21,14.45,3.85,0,1.22,1.62,1.94,3.11,2.11,4.09.47,6.15,1.87,10.29,5,4,3,9.22,4,14.23,4.93a17.46,17.46,0,0,0,5.92,4.81c4.14,2.06,11,6.45,16.27,6,1,1.91,3.29,3.07,6.25,2.68.92,1.73,4.08,3.94,6.52,5C847.1,134.77,847.23,132.67,845.13,129.51Z" transform="translate(-427.1 -73.54)"/><path class="cls-6" d="M845.13,556.88a37.49,37.49,0,0,1-12.84,10.93c-4.86,2.43-9.34,3.1-14.17,5.56a5.33,5.33,0,0,1-6.31,3.46c-1,2-3.62,3.82-5.27,2.18-2.44,3-7.07,4.08-9.81,5.07a21.77,21.77,0,0,1-8.76,1.63c-.11.51-.39,1.86-2.76,3.11-5.92,3.12-14.23,5.33-17.25,4.28-1.32,2.61-4.15,2-6.39,1.51-6.27,4-8.79,4.42-15.34,3.95-2.26.94-8.21,2.8-8.83,3-7.24,2.7-10.59.3-11.52,0a14.26,14.26,0,0,1-10.64,1.64c-6.2-1.55-12.11,1.3-15.37,1.92-6.13,1.16-12-1.09-18-1.75-5.16-.33-9.75,1.75-12.64-2.14-.41.47-1.9,2.42-4.09,1.19-6.7-3.78-14.68-1.52-20.88-4.51-1.25,1-3.35,1.81-4.66-.43-1.58,1.32-3.43.13-4.28-1.8-3,.93-8.35-3.19-12-4.06-4.77-1.14-9.17-1.44-13.83-3s-9.59-4.06-14.71-5.78c-3.59,1.5-6.29-.35-7-2.59-3.4.76-5.6.07-6.79-3.22-4.9-2.63-8.39-2.82-13.43-5.6-2.72-1.5-7.51-3.75-9.22-7-5-1-7.86-5.44-12-7.91a5.12,5.12,0,0,1-3.44-.45,3.23,3.23,0,0,1-.86-2.77,3.59,3.59,0,0,1-3.08-1.39c-3-3.14-5.65-6.76-8.77-9.08-7.5-5.58-13.81-10.06-19.16-17.58-1-1.27-1.71-4.73-3.17-5.53-6.91-3.75-6.07-7-9.6-9.68-2.77-2.11-4.58-3.8-5.57-6.74-1.15-3.4-2.71-5.41-4.71-6.56-3.46-2-5.73-4.28-5.79-7.93-1.52.36-3,0-3.49-1.81-.33-1.13-.16-2-.62-3-1-.32-2.41-.05-3-1.57s-.53-2.5.79-4.28c-1.32-.06-2.78-.41-3-2.38-.32-2.38-5.34-5.86-6.38-8-2.43-5.07,3.35-6.47,4.94-5.18,4.1,3.32,3.67,9,7.64,12.29,3.69,3.09,3,4.71,5.53,6.32,2.13,1.38,3.5,4.32,4.87,9.09a21.16,21.16,0,0,0,9,11.45c3.21,2.07,3.36,6.83,6.52,9.09,1.42,1,3.75,1.52,4.6,4.54a4.48,4.48,0,0,1,4,4.61c1.12.14,2.9.53,4.81,3.76,0,0,7.3,8.69,9.94,11.39,2.42,2.47,10.24,9.32,10.24,9.32a1,1,0,0,1,.15.21,1.23,1.23,0,0,1,.41.24c1.61,1.4,3.24,2.75,4.89,4.09,3.58,2.38,7,5.11,10.82,7,6.87,3.32,13.66,8.06,16.43,9.49,11.28,5.81,20.41,11.55,32.51,15.19,0,0,10,3,15.17,4,5.84,1.09,10.59,2.14,17.17,6.09,2.81-.44,6.07,1.43,10.34,2.44,3.43.81,8.21.33,11.39,1s5.89,2,9.16,2.38c3.73.48,6.44,1.24,11.25.18,6.1-1.33,11.46,3.63,16.86,1.65,3.75,1.78,5.53,1,7.16-1,3.51,2.21,10-1.13,16-1.76,3.85-.4,7.64-.31,10.47,1.07,1.84-1.91,7.48-3,8.69-3.16,3.34-.36,5.4.2,7.31.14,2.62-2.94,8.85-7.35,20.74-5.67,4.08-2.89,12.64-4.21,14.45-3.86,0-1.21,1.62-1.93,3.11-2.1,4.09-.47,6.15-1.87,10.29-5,4-3,9.22-4,14.23-4.94a17.56,17.56,0,0,1,5.92-4.8c4.14-2.07,11-6.46,16.27-6,1-1.91,3.29-3.07,6.25-2.68.92-1.74,4-4.11,6.52-5C844.14,553.07,846.21,555.36,845.13,556.88Z" transform="translate(-427.1 -73.54)"/><path class="cls-6" d="M863,142.43a39.62,39.62,0,0,1,14,9.37c3.66,4,5.53,8.13,9.22,12.11a5.33,5.33,0,0,1,5,5.12c2.2.4,4.66,2.44,3.53,4.47,3.58,1.52,5.87,5.69,7.56,8.06a21.62,21.62,0,0,1,4,8c.52,0,1.9-.13,3.75,1.81,4.62,4.84,9,12.22,8.83,15.42,2.87.55,3.09,3.44,3.2,5.73,5.53,4.95,6.65,7.25,8,13.68,1.52,1.91,4.93,7.13,5.32,7.66,4.58,6.23,3.19,10.11,3.15,11.09a14.24,14.24,0,0,1,4.48,9.78c.21,6.39,4.57,11.3,6.05,14.26,2.79,5.59,2.22,11.8,3.25,17.84,1.09,5.05,4.34,8.89,1.4,12.74.56.27,2.84,1.17,2.25,3.61-1.8,7.48,2.56,14.53,1.37,21.32,1.36.92,2.65,2.72.86,4.6,1.7,1.16,1.06,3.26-.56,4.61,1.7,2.59-.79,8.9-.63,12.64.21,4.9,1.12,9.21.92,14.11s-1.28,10.33-1.53,15.73c2.42,3.05,1.38,6.15-.57,7.46,1.65,3.06,1.59,5.36-1.26,7.4-1.18,5.43-.41,8.85-1.71,14.45-.7,3-1.56,8.25-4.19,10.78.41,5.08-3.1,9.05-4.32,13.73a5.16,5.16,0,0,1,.5,3.44,3.26,3.26,0,0,1-2.43,1.58,3.57,3.57,0,0,1-.5,3.34c-2.19,3.77-5,7.28-6.34,10.92-3.31,8.74-5.9,16-11.67,23.23-.95,1.27-4.08,2.94-4.45,4.56-1.73,7.67-5.06,7.75-6.69,11.89-1.27,3.23-2.41,5.43-5,7.19-3,2-4.47,4.09-5,6.32-1,3.88-2.55,6.68-6,7.74.76,1.36.78,2.86-.79,3.85-1,.63-1.89.71-2.69,1.41,0,1.08.61,2.34-.69,3.32s-2.26,1.19-4.33.41c.3,1.28.36,2.78-1.46,3.57-2.21,1-4.18,6.74-6,8.33-4.21,3.73-7.13-1.46-6.33-3.34,2.08-4.84,7.62-6,9.74-10.7,2-4.39,3.7-4.21,4.57-7,.74-2.43,3.19-4.55,7.41-7.17a21.13,21.13,0,0,0,8.57-11.74c1.11-3.66,5.65-5.11,7-8.76.59-1.64.43-4,3.11-5.67a4.49,4.49,0,0,1,3.34-5.13c-.18-1.11-.28-2.93,2.3-5.64,0,0,6.36-9.4,8.24-12.68,1.72-3,6.16-12.4,6.16-12.4a1.63,1.63,0,0,1,.17-.2,1.54,1.54,0,0,1,.11-.46c.92-1.93,1.77-3.87,2.6-5.82,1.32-4.09,3-8.09,3.76-12.31,1.32-7.53,4-15.35,4.65-18.41,2.5-12.43,5.53-22.78,5.72-35.42,0,0,.15-10.42-.33-15.67-.55-5.92-.83-10.77,1.17-18.18-1.19-2.59-.28-6.23-.48-10.61-.16-3.52-1.92-8-2.16-11.23s.28-6.21-.21-9.46c-.56-3.72-.57-6.54-2.9-10.88-3-5.49.35-12-3-16.66.68-4.1-.56-5.59-2.88-6.63,1.17-4-3.83-9.32-6.05-14.86-1.44-3.6-2.39-7.27-1.83-10.37-2.34-1.25-5-6.37-5.41-7.49-1.27-3.11-1.29-5.25-1.87-7.07-3.54-1.72-9.49-6.5-11.12-18.41-3.9-3.13-7.51-11-7.66-12.84-1.17.29-2.3-1-2.87-2.41-1.57-3.82-3.48-5.41-7.59-8.55-3.93-3-6.38-7.77-8.64-12.34a17.5,17.5,0,0,1-6.24-4.38c-3.11-3.41-9.21-8.82-10.21-14-2.11-.44-3.85-2.33-4.28-5.29-1.92-.41-5.1-2.7-6.62-4.9C858.69,143.07,858.82,140.83,863,142.43Z" transform="translate(-427.1 -73.54)"/><path class="cls-6" d="M464,448.6c0-4.61-2.17-5.78-3.18-10.17-.2-.84,0-1.86-.52-2.6-.64-1-2.37-2.07-3.6-3.3a11.37,11.37,0,0,1-.75-3,15.22,15.22,0,0,0-.17-7.22,130.91,130.91,0,0,0-4.47-13c.21-1.94,1.29-3.65.86-5.48-.5-2.16-1.73-6.13-4.89-8.35a11.23,11.23,0,0,0-.65-9.26,15.17,15.17,0,0,0-1.74-6.48,13.16,13.16,0,0,0-2-10.58c0-1.36.88-2.26,1-5.29.08-2.19-1.53-4-2.28-5.35,1.13-.69,2.84-3.42,1.29-7.06.9-2.09.61-3.73-.14-6.7-.27-1.14.81-3.18-.35-5.63s-.68-4.72.17-7.29a1.15,1.15,0,0,0-.68-1.5,1.54,1.54,0,0,0,.45-1.16,44,44,0,0,1,.26-8c3-1.44,1.07-6-.2-8.6,2.77-1.08,2.82-3.16,2-4.2.57-3.59-2.24-6.59-.57-10.61a2,2,0,0,0-.37-2.08c2.23-.89,2.38-1.13,2.24-3.35,5-2,.57-9.41,2.64-13.83,1.84-.74,1.7-2.13.89-2.72,1.32-2.35,3.18-4.08,3.87-6.71,1-3.84-.24-8.46,1.92-11.81.55-.84.05-1.43-.7-1.81,1.59-1,3.47-2.09,3.83-3.9.62-3.09.43-4.06,2.9-7.08a2.34,2.34,0,0,0,.15-2.52c1.63-.54,3.33-1.06,4.1-2.81,1.34-3.09,2.49-5.25,2.11-8.57-.11-.95-1-2.79-2.76-1.41-2.1,1.67-2.07,4.39-3.11,6.7a31.26,31.26,0,0,1-4.76,7.36c-.68.76-2.13,1.6-2.58,2.54-.36.75-.37,4.25-1.28,5.31-1.95,1.5-2.24,2.88-1.1,4.57-.63.49-2.92,2.31-1,4.69h0a1.47,1.47,0,0,0-.8.88c-.86,2.46-3.56,4.64-2.28,7.41-1.59,2.73-3.42,5.51-3.9,6.64a59.12,59.12,0,0,0-2.57,7.18,3.4,3.4,0,0,0,.79,2.91c-1.23,1.24-.63,3-.46,4.4,0,2.27-1.18,3.55-2.25,5.09-1.66,2.38-.87,5-.77,8.19a1.53,1.53,0,0,0,.54,1.12l-.55.42a1.73,1.73,0,0,0,0,2.43,1.76,1.76,0,0,0,.62,2.23c-.38,1.94-.87,3.82-1.39,5.84-.28,1.07-1,2-.76,3.16a3.28,3.28,0,0,0,.64,1.48c-.24.35-.48.72-.81,1.25a1.58,1.58,0,0,0,.09,1.79l-1,.9a1.73,1.73,0,0,0,0,2.4l2.43,2.93a0,0,0,0,1,0,0c-3.15,1.89-.61,5.09-2.61,10.59-1.41,3.86,3,7.16,1.54,11.3-2.23,6.43,1.34,8.59,2.36,9.39-.26,3-2.39,5.21-2.56,10.81-.13,4.17,2.8,9.18,4.39,11.36a84.91,84.91,0,0,0-.41,9.34c0,5.81.69,10.86,4.75,15.12.06,2.84-.33,5.24,1.72,7.86s.23,5.91,1.67,8.05a4.08,4.08,0,0,0,.12,3c1.07,1.51,1.61,1.68,2,3.17-.51,3.15-.16,6,2.11,7.89a7.13,7.13,0,0,0-.25,3.6,6.21,6.21,0,0,0,3.24,3.47c-.47,4.69,3.06,6.85,4.67,10.27a5.35,5.35,0,0,0,3,4.24c2.14,1.27,3.32-1,2.47-4.74C465.79,452,464,451.59,464,448.6Z" transform="translate(-427.1 -73.54)"/><g class="cls-7"><path class="cls-8" d="M487.72,195.59a1.6,1.6,0,0,0-2.37-.87c-1.05.45-2.36,2.61-2.81,4.52a1.86,1.86,0,0,0-.78,0c-.75.17-2.39,1.7-2.39,4.53-.09,0-2.26.42-2.26,2.32,0,2.49,5,.87,5-.84a5.12,5.12,0,0,0,1.89-2.08,4.29,4.29,0,0,0,.23-.63,7.53,7.53,0,0,0,2.12-2.09C487.29,199,488.33,197.38,487.72,195.59Z" transform="translate(-427.1 -73.54)"/><path class="cls-8" d="M520.36,153.84a17.07,17.07,0,0,0-4.92,3.95c-.91,1-2.38,2.73-2.05,4.29.5,2.39,4.11-1.83,4.92-2.6a16.65,16.65,0,0,0,3.39-4.31A1,1,0,0,0,520.36,153.84Z" transform="translate(-427.1 -73.54)"/><path class="cls-8" d="M579.08,113.39c.27-2.27-3.82-1-5.5.51-2.17,2-3.75,1.52-7,2.91-2.22,1-4.56,2.81-5.21,5.26a.62.62,0,0,0,.76.76C565.19,121.73,578.78,115.88,579.08,113.39Z" transform="translate(-427.1 -73.54)"/><path class="cls-8" d="M594.17,105.11a3.72,3.72,0,0,0-3.08-.15,1.48,1.48,0,0,0-.84,2.27c.67.87,2.35.75,3.39.12h0C594.52,106.91,595.17,105.81,594.17,105.11Z" transform="translate(-427.1 -73.54)"/><path class="cls-8" d="M630.81,93.54c-2.48.09-4.74,1.57-7.16,2.14-1.75.42-3.54.65-5.28,1-1.33.28-2.68.54-4,.9-3.11.84-3.42,1.76-2.49,2.54,2.19,1.83,7.25-.36,9.45-.94,2.86-.75,8.62-1.58,10.18-4.4A.85.85,0,0,0,630.81,93.54Z" transform="translate(-427.1 -73.54)"/><path class="cls-8" d="M688.51,83.36c-1.92.14-4.51,1.11-7.5,1.4-1.61.16-3-.13-4.53.57a.82.82,0,0,0,0,1.41c3.79,2.46,9.39,1,12.7-1.77A1,1,0,0,0,688.51,83.36Z" transform="translate(-427.1 -73.54)"/><path class="cls-8" d="M781.49,98.19c-1.81-2-5-2.67-7.18-3-1.15-.15-4.1-.47-4.57,1.13s1.86,2.14,2.92,2.53a23.67,23.67,0,0,0,8.05,1.17A1.12,1.12,0,0,0,781.49,98.19Z" transform="translate(-427.1 -73.54)"/><path class="cls-8" d="M804.17,109.17c-.31-1.42-1.82-2.47-3-3.11-2-1.06-6.67-3.09-8.76-2.5-1,.29-.21,1.68.35,2.28,1.33,1.44,3.74,2.23,5.32,3.39C799.5,110.27,804.9,112.39,804.17,109.17Z" transform="translate(-427.1 -73.54)"/><path class="cls-8" d="M813.34,111.71a2.2,2.2,0,0,0-2,2.42c.71,3.13,4.73,4.31,5.44,1.81A3.54,3.54,0,0,0,813.34,111.71Z" transform="translate(-427.1 -73.54)"/><path class="cls-8" d="M873.63,151.15c-.85-1-3.29-2.65-4-1.13-.77,1.77,1.37,3.66,2.66,3.94a1.46,1.46,0,0,0,1.78-.71A2,2,0,0,0,873.63,151.15Z" transform="translate(-427.1 -73.54)"/><path class="cls-8" d="M897.05,178.14c-1.86-1.88-3.51-3.51-4.45-1.83-.8,1.43,1.23,4.13,2,5.22,1.14,1.65,3.82,4.67,6,4C903.39,184.71,899.21,180.29,897.05,178.14Z" transform="translate(-427.1 -73.54)"/><path class="cls-8" d="M912.63,197.77c-.59-1.16-1.32-3.49-3-3.13-.34.08-1.4.78-.43,3.51a12.18,12.18,0,0,0,1.15,3.12c.49.92,1.7,2.71,2.84,1.44S913.29,199.07,912.63,197.77Z" transform="translate(-427.1 -73.54)"/><path class="cls-8" d="M935.05,237.41a7.48,7.48,0,0,0-1.9-3.39,11.49,11.49,0,0,0-1.48-1.21,2.49,2.49,0,0,0-1.36-.68c-1.37,0-1.28,1.72-.95,2.62.49,1.33,2.32,4.11,4.08,4.19A1.23,1.23,0,0,0,935.05,237.41Z" transform="translate(-427.1 -73.54)"/><path class="cls-8" d="M925,219.64c-.5-.85-1.1-2.07-2.22-2.16a2.06,2.06,0,0,0-2.08,2c-.19,1.76,1.19,4.7,3.5,5.36,1.13.33,1.89-.87,1.91-1.92A6.73,6.73,0,0,0,925,219.64Z" transform="translate(-427.1 -73.54)"/><path class="cls-8" d="M949.05,274.49c-.49-.63-1.35-.16-1.58.42a15.34,15.34,0,0,0-.66,5.92c0,1.09.6,6.28,1.56,7.37a.76.76,0,0,0,1.26-.33c.42-2.63-.07-4.51-.07-7.18C949.56,278.63,950.36,276.16,949.05,274.49Z" transform="translate(-427.1 -73.54)"/><path class="cls-8" d="M949.94,291.25c-.72.56.21,6.29,2.17,5.09a2.4,2.4,0,0,0,.87-2.14C952.9,293.09,951.42,290.11,949.94,291.25Z" transform="translate(-427.1 -73.54)"/><path class="cls-8" d="M955.85,336c.38-1.11-.83-.5-1.35.11a7,7,0,0,0-1.35,4c-.16,2.09-.23,4.3.77,6.19a.66.66,0,0,0,1.19-.16C955.63,343.52,954.61,339.65,955.85,336Z" transform="translate(-427.1 -73.54)"/><path class="cls-8" d="M956.43,353.93c-.09-1.33,0-3.62-1.29-4.44a.81.81,0,0,0-.94,0c-1.55,1.59-.47,8.35.26,9.05a.83.83,0,0,0,1,.13C956.72,358.06,956.51,355.05,956.43,353.93Z" transform="translate(-427.1 -73.54)"/><path class="cls-8" d="M950,395.78c-.86,1.68-4.87,14.64-1.78,14.79,1.64.08,2.37-2.58,2.73-3.79a34.3,34.3,0,0,0,1.17-10.43A1.15,1.15,0,0,0,950,395.78Z" transform="translate(-427.1 -73.54)"/><path class="cls-8" d="M947.28,414.7a.91.91,0,0,0-1.41-.18c-2,2.07-2.39,6.81-2.4,8.55a.81.81,0,0,0,1.37.57C947,421.49,948.93,417.69,947.28,414.7Z" transform="translate(-427.1 -73.54)"/><path class="cls-8" d="M927.11,461.15c-.67-.17-1,.09-1.46.53a28.82,28.82,0,0,0-2.64,3c-3.48,4.22-3.38,6-2,6.59s2.95-2,3.63-2.95c1.23-1.78,3.18-4.08,3.11-6.34A.86.86,0,0,0,927.11,461.15Z" transform="translate(-427.1 -73.54)"/><path class="cls-8" d="M919.45,473.72a1.22,1.22,0,0,0-1.6-.68,1.46,1.46,0,0,0-.52.37,2.71,2.71,0,0,0-1.11,2.31,1.36,1.36,0,0,0,1.3,1.31c.81,0,1.38-.77,1.71-1.41A2.18,2.18,0,0,0,919.45,473.72Z" transform="translate(-427.1 -73.54)"/><path class="cls-8" d="M916,478.28c-1.22-.3-2.67,1.77-3.24,4.42-.17.81-.18,2,.69,2.15,1.06.23,1.79-.69,2.38-1.42a5.38,5.38,0,0,0,1.37-2.89A2,2,0,0,0,916,478.28Z" transform="translate(-427.1 -73.54)"/><path class="cls-8" d="M898.14,505.29c-.86-1-5,1.52-5.66,2.09-.87.73-2.24,2.45-1.36,3.61s2.7-.25,3.57-.92c1.29-1,3-2.33,3.69-3.88A.94.94,0,0,0,898.14,505.29Z" transform="translate(-427.1 -73.54)"/><path class="cls-8" d="M890.41,513.37c-1.22-1-2.74.68-2.74,2.91,0,1.58,2,1.25,2.79.38A2.23,2.23,0,0,0,890.41,513.37Z" transform="translate(-427.1 -73.54)"/><path class="cls-8" d="M826.28,564.63c-1.39-.74-3.88.42-5.24.8-2.45.7-5.13,2.05-5.94,3.65a1.44,1.44,0,0,0,.94,2.23,5.55,5.55,0,0,0,2.41-.55c1.17-.36,2.33-.76,3.48-1.19S829.67,566.4,826.28,564.63Z" transform="translate(-427.1 -73.54)"/><path class="cls-8" d="M812.75,571.73c-.91-.7-2.69-.66-3.15.53-.75,2,2.37,3.09,3.36,2.34A1.8,1.8,0,0,0,812.75,571.73Z" transform="translate(-427.1 -73.54)"/><path class="cls-8" d="M806.38,574.7a3.07,3.07,0,0,0-4,1.09c-.83,1.4,0,2.06.6,2.32a3.25,3.25,0,0,0,2.34-.31,2.54,2.54,0,0,0,1.56-1.43A1.49,1.49,0,0,0,806.38,574.7Z" transform="translate(-427.1 -73.54)"/><path class="cls-8" d="M777.38,586.14c-4.55-.72-8.65,2.07-8.48,3.83s2.24,1.61,3.56,1.41c1.94-.29,4.33-.65,5.83-2A1.81,1.81,0,0,0,777.38,586.14Z" transform="translate(-427.1 -73.54)"/><path class="cls-8" d="M760.67,589.25c-1.37-.27-6.28.73-7,1.15a3.11,3.11,0,0,0-1.85,2.5c.13,3,6.23.84,7.69.32,1-.35,2.47-.87,2.84-2S761.65,589.44,760.67,589.25Z" transform="translate(-427.1 -73.54)"/><path class="cls-8" d="M734.09,596.14a15.92,15.92,0,0,0-3.62,1.31c-1,.53-2.26,1.86-1.56,3.08s3,.87,4.06.48,3-1.17,3.37-2.52S735.39,596.11,734.09,596.14Z" transform="translate(-427.1 -73.54)"/><path class="cls-8" d="M685.67,599.52c-.94-.61-4.54-1.21-7.33-.76-2.32.38-4,1.71-3.75,2.37.65,1.52,3.48.65,4.63.63,2.17,0,4.44.6,6.45-.42A1.06,1.06,0,0,0,685.67,599.52Z" transform="translate(-427.1 -73.54)"/><path class="cls-8" d="M586.13,575.77c-.8-.92-2.87-1.46-3.2.2a2.55,2.55,0,0,0,2.63,2.77,1.26,1.26,0,0,0,.47-.12C587.17,578.39,586.73,576.46,586.13,575.77Z" transform="translate(-427.1 -73.54)"/><path class="cls-8" d="M594,578.42c-1.06-1.2-3.6-2.21-5-1.14-.94.7-.59,2.88,2.67,4.8a2,2,0,0,0,2.75-.84A2.44,2.44,0,0,0,594,578.42Z" transform="translate(-427.1 -73.54)"/><path class="cls-8" d="M568.12,566.08a20.46,20.46,0,0,0-6.19-4.27c-.9-.38-1.93.28-1.61,1.24,1,3,5,5.72,6.2,6.09a5.18,5.18,0,0,0,2.54.35C571,569,568.69,566.66,568.12,566.08Z" transform="translate(-427.1 -73.54)"/><path class="cls-8" d="M517.87,526.19c-.41-.61-.77-1.25-1.21-1.85a8.61,8.61,0,0,0-2.9-2.73,1.07,1.07,0,0,0-1.58.9,5.42,5.42,0,0,0,1.63,4,7.26,7.26,0,0,0,3.8,2.91,1.1,1.1,0,0,0,1.34-1.34A6.43,6.43,0,0,0,517.87,526.19Z" transform="translate(-427.1 -73.54)"/><path class="cls-8" d="M499.34,504.44c-.81-1-4.48-3.9-4.66-1.72s2.23,4.28,3.2,4.89c.78.48,1.77.57,2.22-.4S499.9,505.17,499.34,504.44Z" transform="translate(-427.1 -73.54)"/><path class="cls-8" d="M485.77,485.7a29.5,29.5,0,0,0-3.42-4.87c-4.71-5.37-7.28-.56-2.71,1.23-.94,1.62-.61,4.14,1.47,4.63a2.27,2.27,0,0,0,1.47-.19c.53,1.83.49,4.85,3,5.29a1.19,1.19,0,0,0,1.28-.52C487.89,489.61,486.55,487.25,485.77,485.7Z" transform="translate(-427.1 -73.54)"/><path class="cls-8" d="M457.56,436.41c-1.13-.66-2,.25-2.31,1.29a3.52,3.52,0,0,0,.44,3c.65,1,2,1.3,2.68.13C459.27,439.18,458.57,437,457.56,436.41Z" transform="translate(-427.1 -73.54)"/><path class="cls-8" d="M461.85,445.41A5.47,5.47,0,0,0,460,442a1.11,1.11,0,0,0-1.14,0c-.8.39-.93,1.47-.82,2.34a4.78,4.78,0,0,0,.14,1.09c.27,1.07,1.1,2.76,2.36,2.85C462.14,448.41,462.06,446.5,461.85,445.41Z" transform="translate(-427.1 -73.54)"/><path class="cls-8" d="M450.14,402.41c-.65-1.23-4.63-7.55-6.35-4.61-.83,1.41.34,3.4,1.13,4.54.95,1.38,2.76,4,5,3.42C451.37,405.39,450.67,403.43,450.14,402.41Z" transform="translate(-427.1 -73.54)"/><path class="cls-8" d="M445.88,389.12c-.2-1.63-.51-3.89-1.59-5.2a1,1,0,0,0-1.61.43,45.21,45.21,0,0,0-.31,6.82c.07,1.15.13,2.85,1.43,3.24a.92.92,0,0,0,.88-.23C446,393,446.08,390.74,445.88,389.12Z" transform="translate(-427.1 -73.54)"/><path class="cls-8" d="M441.4,343c-.23-2.57-1.36-4.23-1.22-7.05.08-1.59.5-2.66-.27-4a.86.86,0,0,0-1.55.2,40,40,0,0,0-1,8.54c.43,3.07,2,5,1.61,8.41-.22,1.88-1.76,5.52.95,6.34a.79.79,0,0,0,.88-.36c.56-1.1.15-2.38.1-3.54C440.78,348.7,441.66,345.86,441.4,343Z" transform="translate(-427.1 -73.54)"/><path class="cls-8" d="M446.58,284.33c0-1.88,1.24-6.18-.94-7.24a1.11,1.11,0,0,0-1.31.17c-1.86,1.67-1.49,5.22-1.39,7.44a14.74,14.74,0,0,0,.32,3.06c.11,1.23,1,3.5,2.67,2.67C447.84,289.5,446.59,285.77,446.58,284.33Z" transform="translate(-427.1 -73.54)"/><path class="cls-8" d="M476,212.72c.69-1.13-.63-1.64-1.54-.93a17.26,17.26,0,0,0-5.86,7.9c-.65,1.87.14,2.49.69,2.5,1.7,0,3.85-2.68,4.29-3.59C474.14,217.36,475.25,213.89,476,212.72Z" transform="translate(-427.1 -73.54)"/></g></svg>