<svg height="50" viewBox="0 -142 512.00057 512" width="50" xmlns="http://www.w3.org/2000/svg"><path d="m428.726562 95.976562c20.613282-6.277343 41.214844-15.09375 63.046876-15.800781 8.574218-.28125 18.023437 1.371094 19.9375 10.957031 2.347656 11.753907-10.566407 19.8125-6.53125 31.90625 3.808593 11.402344 7.261718 19.804688-7.085938 23.515626-10.828125 2.800781-69.367188-13.367188-69.367188-13.367188zm0 0" fill="#e57670"/><path d="m505.183594 123.042969c3.800781 11.402343 7.257812 19.796875-7.089844 23.511719-2.949219.761718-9.445312.117187-17.328125-1.226563 9.945313-4.167969 6.789063-12 3.363281-22.289063-4.042968-12.101562 8.871094-20.148437 6.527344-31.90625-1.144531-5.738281-4.976562-8.632812-9.714844-9.964843 3.582032-.53125 7.183594-.875 10.828125-.992188 8.582031-.28125 18.027344 1.367188 19.945313 10.957031 2.34375 11.757813-10.570313 19.808594-6.53125 31.910157zm0 0" fill="#e05c56"/><path d="m420.355469 155.140625h-17.671875c0-19.1875.03125-22.796875 0-37.976563 0 0 0-22.179687 0-43.796874h17.71875c8.644531 0 16.027344 6.183593 17.582031 14.683593 2.238281 12.234375 3.976563 31.074219-.058594 52.496094-1.589843 8.453125-8.964843 14.59375-17.570312 14.59375zm0 0" fill="#ffc1b8"/><path d="m407.664062 114.253906c0-.085937.003907-.171875.003907-.257812h-.003907c.132813-52.507813-20.449218-84.925782-57.394531-102.109375-20.84375-9.691407-44.679687-9.871094-67.667969-9.871094-53.160156.003906-106.324218.003906-159.484374.003906l-1.167969 111.976563h-.003907l.003907.257812-.003907.257813h.003907l1.167969 111.980469h159.484374c22.988282 0 46.824219-.179688 67.667969-9.871094 36.945313-17.183594 57.527344-49.601563 57.394531-102.109375h.003907c0-.085938-.003907-.171875-.003907-.257813zm0 0" fill="#d33737"/><path d="m407.667969 113.511719v1c.125 52.507812-20.453125 84.925781-57.398438 102.109375-20.839843 9.695312-44.675781 9.871094-67.671875 9.871094h-41.839844c22.992188 0 46.820313-.175782 67.667969-9.871094 36.945313-17.183594 57.523438-49.601563 57.390625-102.109375h.007813c0-.082031-.007813-.167969 0-.257813-.007813-.085937 0-.167968 0-.261718h-.007813c.136719-52.507813-20.441406-84.925782-57.390625-102.109376-20.359375-9.453124-43.550781-9.859374-66.035156-9.871093h40.207031c22.996094 0 46.832032.1875 67.671875 9.871093 36.832031 17.132813 57.398438 49.40625 57.398438 101.628907zm0 0" fill="#c42626"/><path d="m227.023438 113.511719c0 62.691406-50.820313 113.511719-113.511719 113.511719-62.691407 0-113.511719-50.820313-113.511719-113.511719 0-62.691407 50.820312-113.511719 113.511719-113.511719 62.691406 0 113.511719 50.820312 113.511719 113.511719zm0 0" fill="#ffc1b8"/><path d="m227.027344 113.511719c0 62.695312-50.828125 113.511719-113.511719 113.511719-4.25 0-8.453125-.230469-12.578125-.699219 56.773438-6.246094 100.9375-54.367188 100.9375-112.8125 0-58.445313-44.164062-106.5625-100.9375-112.808594 4.121094-.472656 8.328125-.703125 12.578125-.703125 62.679687 0 113.511719 50.820312 113.511719 113.511719zm0 0" fill="#ffb3a8"/><g fill="#e57670"><path d="m72.164062 85.894531c0 10.179688-8.253906 18.433594-18.433593 18.433594-10.175781 0-18.429688-8.253906-18.429688-18.433594 0-10.175781 8.253907-18.429687 18.429688-18.429687 10.179687 0 18.433593 8.253906 18.433593 18.429687zm0 0"/><path d="m59.574219 153.601562c0 6.953126-5.632813 12.585938-12.582031 12.585938-6.949219 0-12.585938-5.632812-12.585938-12.585938 0-6.949218 5.636719-12.582031 12.585938-12.582031 6.949218 0 12.582031 5.632813 12.582031 12.582031zm0 0"/><path d="m117.71875 113.007812c0 6.953126-5.636719 12.585938-12.585938 12.585938-6.949218 0-12.582031-5.632812-12.582031-12.585938 0-6.949218 5.632813-12.582031 12.582031-12.582031 6.949219 0 12.585938 5.632813 12.585938 12.582031zm0 0"/><path d="m146.972656 54.652344c0 13.824218-11.203125 25.027344-25.027344 25.027344-13.820312 0-25.027343-11.203126-25.027343-25.027344 0-13.820313 11.207031-25.027344 25.027343-25.027344 13.824219 0 25.027344 11.207031 25.027344 25.027344zm0 0"/><path d="m130.160156 175.785156c0 13.824219-11.203125 25.027344-25.027344 25.027344-13.820312 0-25.027343-11.203125-25.027343-25.027344 0-13.820312 11.207031-25.027344 25.027343-25.027344 13.824219 0 25.027344 11.207032 25.027344 25.027344zm0 0"/><path d="m185.933594 125.597656c0 9.355469-7.585938 16.941406-16.945313 16.941406-9.355469 0-16.941406-7.585937-16.941406-16.941406 0-9.359375 7.585937-16.945312 16.941406-16.945312 9.359375 0 16.945313 7.585937 16.945313 16.945312zm0 0"/></g><path d="m59.433594 103.417969c-7.359375 2.402343-15.144532-.09375-19.820313-5.675781 2.167969.101562 4.382813-.179688 6.566407-.890626 9.675781-3.148437 14.964843-13.546874 11.824218-23.222656-.75-2.316406-1.929687-4.394531-3.414062-6.148437 7.433594.34375 14.226562 5.210937 16.671875 12.714843 3.148437 9.675782-2.152344 20.082032-11.828125 23.222657zm0 0" fill="#e05c56"/><path d="m50.886719 165.566406c-6.171875 2.003906-12.777344-1.011718-15.355469-6.804687 1.355469.03125 2.734375-.167969 4.089844-.605469 6.609375-2.152344 10.222656-9.25 8.070312-15.867188-.144531-.4375-.300781-.855468-.5-1.261718 5.230469.070312 10.0625 3.433594 11.773438 8.683594 2.148437 6.605468-1.472656 13.707031-8.078125 15.855468zm0 0" fill="#e05c56"/><path d="m109.023438 124.972656c-5.925782 1.929688-12.253907-.78125-15.039063-6.125.59375-.105468 1.191406-.253906 1.785156-.4375 6.605469-2.152344 10.226563-9.25 8.078125-15.867187-.21875-.679688-.5-1.328125-.8125-1.941407 6.054688-1.035156 12.117188 2.503907 14.070313 8.515626 2.148437 6.609374-1.472657 13.707031-8.082031 15.855468zm0 0" fill="#e05c56"/><path d="m129.691406 78.453125c-9.039062 2.941406-18.539062.457031-24.976562-5.660156 3.796875.617187 7.796875.367187 11.710937-.90625 13.152344-4.28125 20.332031-18.402344 16.0625-31.542969-1.335937-4.101562-3.632812-7.632812-6.5625-10.398438 8.964844 1.441407 16.8125 7.734376 19.820313 16.964844 4.277344 13.148438-2.914063 27.261719-16.054688 31.542969zm0 0" fill="#e05c56"/><path d="m112.875 199.582031c-9.039062 2.945313-18.546875.460938-24.988281-5.65625 3.800781.617188 7.808593.367188 11.730469-.90625 13.144531-4.28125 20.335937-18.402343 16.054687-31.542969-1.335937-4.113281-3.632813-7.632812-6.566406-10.398437 8.96875 1.441406 16.828125 7.726563 19.824219 16.964844 4.28125 13.148437-2.910157 27.261719-16.054688 31.539062zm0 0" fill="#e05c56"/><path d="m174.230469 141.707031c-6.984375 2.273438-14.375-.242187-18.632813-5.730469 1.785156.007813 3.589844-.261718 5.375-.835937 8.894532-2.890625 13.769532-12.453125 10.867188-21.355469-.625-1.910156-1.554688-3.632812-2.714844-5.136718 7.085938.0625 13.652344 4.59375 15.96875 11.710937 2.902344 8.894531-1.960938 18.453125-10.863281 21.347656zm0 0" fill="#e05c56"/></svg>