<svg xmlns="http://www.w3.org/2000/svg" xmlns:xlink="http://www.w3.org/1999/xlink" viewBox="0 0 424.76 442.19"><defs><style>.cls-1{mask:url(#mask);}.cls-18,.cls-2{mix-blend-mode:multiply;}.cls-2{fill:url(#Áåçûìÿííûé_ãðàäèåíò_14);}.cls-3{isolation:isolate;}.cls-4{fill:#a52f27;}.cls-5{fill:url(#Áåçûìÿííûé_ãðàäèåíò_109);}.cls-6{opacity:0.74;}.cls-7{fill:#e29185;}.cls-8{fill:#d43d3a;}.cls-9{opacity:0.5;}.cls-10{fill:#ec502e;}.cls-11{mix-blend-mode:soft-light;}.cls-12{fill:#cd5f5f;}.cls-13{opacity:0.6;}.cls-14{fill:#f98350;}.cls-15{fill:#d64843;}.cls-16{fill:#e6adad;}.cls-17{mask:url(#mask-2);}.cls-18{fill:url(#Áåçûìÿííûé_ãðàäèåíò_217);}.cls-19{filter:url(#luminosity-noclip-2);}.cls-20{filter:url(#luminosity-noclip);}</style><filter id="luminosity-noclip" x="455.35" y="-8576" width="424.76" height="32766" filterUnits="userSpaceOnUse" color-interpolation-filters="sRGB"><feFlood flood-color="#fff" result="bg"/><feBlend in="SourceGraphic" in2="bg"/></filter><mask id="mask" x="455.35" y="-8576" width="424.76" height="32766" maskUnits="userSpaceOnUse"><g class="cls-20"/></mask><radialGradient id="Áåçûìÿííûé_ãðàäèåíò_14" cx="667.73" cy="361.1" r="216.78" gradientUnits="userSpaceOnUse"><stop offset="0" stop-color="#1a1a1a"/><stop offset="0.12" stop-color="#1f1f1f"/><stop offset="0.25" stop-color="#2c2c2c"/><stop offset="0.39" stop-color="#434343"/><stop offset="0.53" stop-color="#636363"/><stop offset="0.68" stop-color="#8c8c8c"/><stop offset="0.83" stop-color="#bebebe"/><stop offset="0.98" stop-color="#f8f8f8"/><stop offset="1" stop-color="#fff"/></radialGradient><radialGradient id="Áåçûìÿííûé_ãðàäèåíò_109" cx="667.69" cy="731.24" r="261.34" gradientTransform="translate(0 -152.89) scale(1 0.7)" gradientUnits="userSpaceOnUse"><stop offset="0.32" stop-color="#c8414d"/><stop offset="0.53" stop-color="#c33547"/><stop offset="0.9" stop-color="#b71737"/><stop offset="1" stop-color="#b30d32"/></radialGradient><filter id="luminosity-noclip-2" x="455.35" y="140" width="424.76" height="442.19" filterUnits="userSpaceOnUse" color-interpolation-filters="sRGB"><feFlood flood-color="#fff" result="bg"/><feBlend in="SourceGraphic" in2="bg"/></filter><mask id="mask-2" x="0" y="0" width="424.76" height="442.19" maskUnits="userSpaceOnUse"><g class="cls-19"><g transform="translate(-455.35 -140)"><g class="cls-1"><path class="cls-2" d="M879.38,358.92a196,196,0,0,1-18.8,102.35,201.81,201.81,0,0,1-12.12,21.84c-4.7,7.33-5.9,15.4-11.47,22.07-6.44,7.65-17.26,14-24.68,20.65S798,545,789.8,550.62c-15.29,10.49-32.87,12.89-50.47,19.11a205.63,205.63,0,0,1-70.23,12.46c-48.28,0-92.63-17.25-128.14-46.32-12.12-9.83-19.66-23.26-29.49-35.71-9-11.37-20.32-21.41-27.1-34.52a233.2,233.2,0,0,1-25.55-106.72c0-20.65-6.56-39.77-1.64-58.77,4.26-16.39,19.55-33,27.09-47.63C519.88,182.93,590.56,140,670.29,140c25,0,44.35,3.61,64.57,13,24.36,11.24,47.29,25.77,64.55,47.18C831.2,239.3,870.85,259.83,879.38,358.92Z"/></g></g></g></mask><radialGradient id="Áåçûìÿííûé_ãðàäèåíò_217" cx="667.73" cy="361.1" r="216.78" gradientUnits="userSpaceOnUse"><stop offset="0" stop-color="#c0312b"/><stop offset="0.4" stop-color="#bb2e2d"/><stop offset="0.86" stop-color="#ae2433"/><stop offset="1" stop-color="#a82036"/></radialGradient></defs><title>sausage-1</title><g class="cls-3"><g id="Layer_1" data-name="Layer 1"><path class="cls-4" d="M879.38,358.92a196,196,0,0,1-18.8,102.35,201.81,201.81,0,0,1-12.12,21.84c-4.7,7.33-5.9,15.4-11.47,22.07-6.44,7.65-17.26,14-24.68,20.65S798,545,789.8,550.62c-15.29,10.49-32.87,12.89-50.47,19.11a205.63,205.63,0,0,1-70.23,12.46c-48.28,0-92.63-17.25-128.14-46.32-12.12-9.83-19.66-23.26-29.49-35.71-9-11.37-20.32-21.41-27.1-34.52a233.2,233.2,0,0,1-25.55-106.72c0-20.65-6.56-39.77-1.64-58.77,4.26-16.39,19.55-33,27.09-47.63C519.88,182.93,590.56,140,670.29,140c25,0,44.35,3.61,64.57,13,24.36,11.24,47.29,25.77,64.55,47.18C831.2,239.3,870.85,259.83,879.38,358.92Z" transform="translate(-455.35 -140)"/><path class="cls-5" d="M873.81,358.92a193.76,193.76,0,0,1-30,120.91c-4.58,7.22-5.78,15.08-11.25,21.53-6.22,7.53-16.81,13.65-24,20.1s-13.87,18.68-21.84,24.25c-15,10.15-32,12.45-49.17,18.57A200.8,200.8,0,0,1,669.1,576.4c-47,0-90.23-16.82-124.86-45.11-11.69-9.61-19.12-22.72-28.62-34.74-8.74-11-19.88-20.87-26.44-33.64a227.63,227.63,0,0,1-24.79-104c0-20-6.56-38.67-1.75-57.14,4.26-16,19.12-32.11,26.43-46.42,34.63-67.83,103.45-109.57,181.22-109.57,24.25,0,43.16,3.51,62.82,12.68,23.7,11,46,25.12,62.92,46C826.94,242.47,865.51,262.57,873.81,358.92Z" transform="translate(-455.35 -140)"/><g class="cls-6"><path class="cls-7" d="M513.11,273.38c-7.86,5.36-9.62,14.53-10.7,21.74-1.1,6.66.1,16.06,7.54,20.87,1.74,1.19,5.23.87,5.78-1.1,1.64-6.22,2.18-12.78,3.16-19.12s4.15-12.67,5.25-19.11C524.8,272.51,516.82,271,513.11,273.38Z" transform="translate(-455.35 -140)"/><path class="cls-7" d="M536.59,359.56c-1.75-1.95-3.49-3.81-5.24-5.78-2-2.4-3.17-5-6-7-3.61-2.52-11.79-1.74-12.56,2.41-1.09,5.34,3.06,9.93,6.55,14.51,3.06,4.05,7,10.72,15.19,9.08C543.48,371.15,539.87,363.39,536.59,359.56Z" transform="translate(-455.35 -140)"/><path class="cls-7" d="M552,332.48c-.55-2.4-.1-5-.55-7.43-.43-3.06-2.18-5.9-3.05-8.85-1.86-5.57-2.08-11.68-5.68-16.81-1.2-1.54-4.91-2-6.56-.55-5.89,5.23-5.23,12.67-3.6,18.89.76,3.39,1.65,7.1,4,10.06s6,4.91,9.62,7C548.94,336.52,552.54,334.88,552,332.48Z" transform="translate(-455.35 -140)"/><path class="cls-7" d="M810,412.22a22.4,22.4,0,0,0-1.53-6,18.62,18.62,0,0,0,.87-6,9.64,9.64,0,0,0-.64-2.94c-.12-.33-1.65-2.95-1-1.64-.66-1.54-3.5-2.62-5.47-1.64-8,4.25-12.89,10.27-17.8,16.38-.77,1-1.53,2-2.3,2.84a6.17,6.17,0,0,0-.76.44c-2.73,1.42-1.53,1.42-4.26.22-4.8-2.18-12.68-.87-15.29,2.84a28.05,28.05,0,0,0-5.14,11.58c-1,5.35,8,8.73,14.31,7.65,4.48-.77,8.85-2,13.33-2.84,5-1,10.48-1.76,15.07-3.5,6.12-2.51,9.3-6.56,10.27-11.14A4.8,4.8,0,0,0,810,412.22Z" transform="translate(-455.35 -140)"/><path class="cls-7" d="M794.17,329.74a32.07,32.07,0,0,0-1.64-10c-1.2-3.6-3.39-6.23-5.46-9.51-1.31-2-6.55-1.52-7.1.66-.65,3.17-2,6.12-2.41,9.4a48.15,48.15,0,0,0-.54,10.48c.22,5.57.33,13.11,6.66,17.15a3.65,3.65,0,0,0,3.94,0C794.17,343.73,794.28,335.65,794.17,329.74Z" transform="translate(-455.35 -140)"/><path class="cls-7" d="M623.21,250.34c-3.26-5.36-17-2.3-22.06-.12-8.2,3.39-12.23,9.08-15.4,15.08-.55,1.09.55,2.3,2,2.73a5.69,5.69,0,0,0,.65,1.09c2.29,2.63,6.55,3.61,10.82,3.06,8.73-1.21,15.17-6.12,21.29-10.27,3.18-2.08,3.62-5.46,1.76-8.08C623.44,252.74,624,251.53,623.21,250.34Z" transform="translate(-455.35 -140)"/><path class="cls-7" d="M633.16,435.71c-1.86-1.42-3.17-3.17-4.91-4.7-2.08-1.63-4.7-2.62-7.11-3.93-4.58-2.63-5.68-6.34-7.86-10.05-3.07-4.91-15-3.49-16.39,1.53-2,6.55,1.75,13.11,8.41,17.69a4.16,4.16,0,0,1,.76.55,5.71,5.71,0,0,0-2.5,3.17c-.44,2.07-.66,3.82,1.08,5.89a70.86,70.86,0,0,0,8,5.14c2.19,2.08,6.88,3.27,10.38,2.51a18.23,18.23,0,0,0,4.26-1.74c1.53-1.1,3-3.28,2.84-4.81a11.67,11.67,0,0,0-1.64-4.37C633.59,442.7,637.09,438.66,633.16,435.71Z" transform="translate(-455.35 -140)"/><path class="cls-7" d="M718.69,371.8c-1.2-2.4-5.68-4.36-9.28-2.62-6.34,3.28-9.51,6.88-13.45,11.69-3.6,4.27-8.07,8.08-10.7,12.78-1.52,3,2.52,6.12,6.78,6.12,9.49-.12,16-5.35,21-10.38C718.36,383.93,721.86,378.36,718.69,371.8Z" transform="translate(-455.35 -140)"/><path class="cls-7" d="M733.11,302.66a15.81,15.81,0,0,0-18.47-12c-1.95.33-4.15,1.64-4.36,3.06-1.09,5.24,2.84,10.37,4.8,15.41,2.29,5.45,5.68,9.17,11.25,13.32,1.65,1.21,4.93.32,4.81-1.42-.22-2.84,1.42-5.35,2-8.19A21.41,21.41,0,0,0,733.11,302.66Z" transform="translate(-455.35 -140)"/><path class="cls-7" d="M600.49,294c-3.49.43-6,.66-9,2.08a33.1,33.1,0,0,0-6.54,4.47,16.61,16.61,0,0,0-5.13,6.45,5.76,5.76,0,0,0-.55,3.6,4.63,4.63,0,0,0,1.19,3.17c.66.65,1.1,1.09,1.31,1.31,1.65,2.51,6.56,3.28,9.62,1.2-2,1.31,3.38-1.2,3.38-1.2a13.23,13.23,0,0,0,2.41-2,46.25,46.25,0,0,0,3.39-4.58,35.54,35.54,0,0,1,3.27-3.72c1.54-1.42,2.18-3.06,3.6-4.48C610.76,297,605.3,293.37,600.49,294Z" transform="translate(-455.35 -140)"/><path class="cls-7" d="M806,508.13c3.62-3.39,5.36-7.42,3.07-11.8-5.25-9.61-18.24,2-22.94,5.35A49.68,49.68,0,0,1,773,508.46c-3.17,1.2-7.64,2.4-9.83,4.58a1.46,1.46,0,0,1-.65.23c-2.73,1-2.52,4,0,5,1.42.55,1.19.32.76.11v.1a18.54,18.54,0,0,0,3.39,1.54v.11c1.85,2.61,6,4.47,10.27,4.58a26.37,26.37,0,0,0,4.26-.11,18.21,18.21,0,0,0,7.52,1.1c5.58-.33,10.82-2.62,15.41-4.59C810.11,518.5,811.21,511.3,806,508.13Z" transform="translate(-455.35 -140)"/><path class="cls-7" d="M858,396.93c-1.54-.44-3.6-.33-4.38.87-7.54,10.05-10.81,21.31-8,32.66.55,1.86,4.48,2.08,5.79.44,5-6,11-10.48,13.87-17.48C867.8,407.42,866.81,400,858,396.93Z" transform="translate(-455.35 -140)"/><path class="cls-7" d="M820.06,241.6c-3.6-7.65-12.56-16.17-25.56-13.88-4.59.77-7.1,4.37-6,7.43.76,2.4.33,5,.76,7.32a35.14,35.14,0,0,0,2.3,7.21,60.87,60.87,0,0,0,9,13.33,8.05,8.05,0,0,0,6.34,2.51c2.83-.22,4.47-.65,6.11-2.3a9.55,9.55,0,0,0,1.2.76c3,1.76,8.3.77,8.19-2.39C821.92,254.7,823.34,248.37,820.06,241.6Z" transform="translate(-455.35 -140)"/><path class="cls-7" d="M643.75,175.94c-6.88-7.75-24.46-2.73-32,2-5.57,3.6-1.31,11,6.34,10.7,3.49-.11,9.06-.54,12.34-2.4h.43c2.84,0,5.57-1.86,5.14-3.93a18.16,18.16,0,0,0,7.1-3.06C644.3,178.34,644.73,176.92,643.75,175.94Z" transform="translate(-455.35 -140)"/><path class="cls-7" d="M550,230.24c-2.08-1.86-6.23-3.39-9.73-2.3-3.71,1-7.64,2.3-9.72,4.81a5.29,5.29,0,0,0-.87,1.41c-.65.23-1.2.45-1.74.66a18.55,18.55,0,0,0-9.08,9c-2.61,4.81,5,9.4,11.48,8.08,10-2.07,15.62-8.3,20.43-14.42A5,5,0,0,0,550,230.24Z" transform="translate(-455.35 -140)"/><path class="cls-7" d="M554.18,427.52c-3.27-2.95-10.26-2.74-14.09-.66-3.28,1.86-4.7,4.7-3.94,7.43a7.9,7.9,0,0,0-2.4,4.37c-.65,4.8,3.82,10.7,8.85,13.87,6.45,4,14.75,2.07,17.8-3.28C564.78,441.82,561.06,433.41,554.18,427.52Z" transform="translate(-455.35 -140)"/><path class="cls-7" d="M608.79,540.8c-3.6-.66-8.3.21-10.91,2.29a37.11,37.11,0,0,1-4.81-1.86,12.67,12.67,0,0,0-13.66,1.64c-2.62.76-4,3-3.38,5v.33c-.66,3.72-.44,7.53,4.15,10a16,16,0,0,0,7.64,2,78,78,0,0,0,18.36,10.27c9.07,3.6,25,7.53,33,.64C652.82,559.14,622.56,543.63,608.79,540.8Z" transform="translate(-455.35 -140)"/><path class="cls-7" d="M688.87,559.25c-1.21.22-2.4.44-3.61.55-.44,0-1-.11-1.52-.11-3.61,0-7.76.55-10.38.66-5.8.44-11.37,3.38-11,7.86.1,2.3,1.74,4.59,4.15,6.12,4.26,4.48,11.25,6.88,19.55,5.78s14.53-5.57,16.71-11.14C705,563.08,697.06,557.72,688.87,559.25Z" transform="translate(-455.35 -140)"/><path class="cls-7" d="M832.73,468.26c-5.46-.55-10.7,1.74-12.24,5.57a.11.11,0,0,1-.11.11,5,5,0,0,1-.76,1.2.38.38,0,0,1-.11.22c-.32.44-.65,1-1,1.42a11.23,11.23,0,0,0-3.06,3,3.25,3.25,0,0,0-.66,1.86c-.21,1.2-.32,1.42-.1.65.21-1.31,0,1.86.1,2.29a6.28,6.28,0,0,0,2.41,3,11.16,11.16,0,0,0,.43,1.75c.88,3.17,6,5.79,10.5,5.57,5.13-.11,8.73-2.29,10.48-5.57a33,33,0,0,0,3.71-13.32C842.56,472,837.87,468.69,832.73,468.26Z" transform="translate(-455.35 -140)"/><path class="cls-7" d="M534.2,471.76c-5.8-1.42-12.24,2.4-12,6.55.11,4.7,2.63,8.74,6.34,12.56a22.87,22.87,0,0,0,6.66,5.24c1,.44,2,.88,3.06,1.32a11.38,11.38,0,0,0,2.07.54,1.42,1.42,0,0,0,.66.11c1.75.66,4.59.33,5.46-1s1.65-2.29,2.08-3.71a5.55,5.55,0,0,0,1.86-3.49C551,481.69,545.44,474.6,534.2,471.76Z" transform="translate(-455.35 -140)"/><path class="cls-7" d="M760.09,451.77c-3.06-2.63-7.21-3.5-11.91-2.84-8.19,1-13.87,5.57-19.55,9.28h-.22a7.24,7.24,0,0,0-5.68.76c-4.26,2.41-4.7,7-3.05,10.38,1.85,3.83,7.86,7.21,14,5.57a40.1,40.1,0,0,0,13.53-6.66A34.82,34.82,0,0,0,761,460.5C763.58,458.1,762.5,454,760.09,451.77Z" transform="translate(-455.35 -140)"/><path class="cls-7" d="M672.81,491.63c-8.74-7.31-24.8-6.11-36.81-7.53-6.77-.88-14.64,2.08-14.2,7.53a17.32,17.32,0,0,0,3.28,9.18c2.07,3.17,8,4.15,12.34,3.5A16.37,16.37,0,0,0,642,503c7.77,2.73,17.49,3.05,26,1.52S677.94,495.9,672.81,491.63Z" transform="translate(-455.35 -140)"/><path class="cls-7" d="M710,166.66c-10.71-3.72-26.65-2.73-35.5,3.06-3.82,2.51-1.42,6.44,2.83,7.54,9.4,2.51,23.93.32,32.67-2.84C714.1,173,714.21,168.08,710,166.66Z" transform="translate(-455.35 -140)"/><path class="cls-7" d="M561.5,395.07a11.71,11.71,0,0,0-5.89-3.28,7.44,7.44,0,0,0-1.54-1.63c-4.37-3.83-13.11-3-15.51,2a5.18,5.18,0,0,0-.76,2.61v1.42a12.18,12.18,0,0,0,1.63,5.35c2.73,4.7,12.24,6.56,18.24,3.72C562.26,403,564.67,398.57,561.5,395.07Z" transform="translate(-455.35 -140)"/><path class="cls-7" d="M847.47,309a22.09,22.09,0,0,0-7-9.72c-2.61-2.08-8-5.13-12.12-2.95-6.12,3.28-5.57,8.74-4.26,13.55a21.56,21.56,0,0,1,.33,5.35c-.11,2.19,1.09,4.15,1.2,6,.22,2.62,3.16,5.35,7.21,5.14,4.91-.34,9-1.43,12.23-4.05C849.77,318.6,849.23,313.58,847.47,309Z" transform="translate(-455.35 -140)"/><path class="cls-7" d="M510.59,402.28a17.66,17.66,0,0,0-2.07-6.44c-1.75-3.71-2.84-6.78-6.77-9.62-2.51-1.86-6.88-1.74-9.4,0-5.57,3.83-4.91,9-2.62,13.77a14.36,14.36,0,0,0,6.67,7.09c3.49,1.86,6,2.19,10.27,2.31,1.85,0,3.28-1.1,3.28-2.41A22,22,0,0,0,510.59,402.28Z" transform="translate(-455.35 -140)"/><path class="cls-7" d="M639,478.75c2.41-2.41-.22-5.68-3.71-6.44h0a21.39,21.39,0,0,0-11.69-.89,56,56,0,0,0-10.49,2.84c-8.08,2.73-4.37,12.56,4.69,12a60.59,60.59,0,0,0,11-1.32,18.67,18.67,0,0,0,6.77-2.84c1.53-1.42,2-1.75,1.31-1.09s-.21.11,1.1-1C638.29,479.62,640,477.65,639,478.75Z" transform="translate(-455.35 -140)"/><path class="cls-7" d="M720.55,431a6.25,6.25,0,0,0-.44-2.41,15,15,0,0,0-1-1.63c-.44-.34-1.31-1.86-.66-.55-1-2-3.93-2.29-5.9-1.09a15.15,15.15,0,0,0-3.82,1.64,31.53,31.53,0,0,0-5.79,3.17c-.11.11-.54.32-.77.54l-2,1a10.24,10.24,0,0,0-1.75,1.31,7.66,7.66,0,0,1-.66.54c0,.11-.1.11-.21.22-2.73,1.75-3.17,4.92-1.31,7.1s5.68,3.17,9.4,2.62c-.12.11.76,0,2.61-.21a25.58,25.58,0,0,0,3-.88,18.6,18.6,0,0,0,4.79-2.95C718.69,437.35,721.53,434,720.55,431Z" transform="translate(-455.35 -140)"/><path class="cls-7" d="M756,353a18.68,18.68,0,0,0-2.5-4.91c-1-1.42-2.41-2.08-3.94-3.05a3.91,3.91,0,0,0-4.36,0c-2.3,1.3-3.94,2.18-4.92,4.25a14.92,14.92,0,0,0-1.53,7.1c.33,5.46,7,12.12,15.4,7.65C758.45,361.65,757.36,356.19,756,353Z" transform="translate(-455.35 -140)"/><path class="cls-7" d="M764.9,271.31c-.55-2.41-1.75-4.05-3.61-6.12-3.28-3.82-7.1-6.23-12.34-8.63-3.28-1.53-8.85.43-8.41,3.38a20.08,20.08,0,0,0,13,16.5,9.09,9.09,0,0,0,3.05,1.2c.55.11,4.59.22,3.28.11,1.64.21,4-.32,4.26-1.74C764.57,274.36,765.34,273.17,764.9,271.31Z" transform="translate(-455.35 -140)"/><path class="cls-7" d="M653,273.6a58.34,58.34,0,0,0-15.62,7.32c-4.48,2.95-9.83,6-10.38,10.49-.1,1,1.31,1.52,2.4,1.31,5.57-.87,9.4-4.49,13.34-7.1,4.47-2.85,9.06-5.69,12.77-9C657,275.35,655.77,272.83,653,273.6Z" transform="translate(-455.35 -140)"/><path class="cls-7" d="M601.7,368.75c-3.71-4.38-7.65-8.53-11.47-12.9-2.41-2.73-7.87-.87-7.1,2.19,1.09,4.7,4,9.4,7.43,13.55s5.9,8,12.13,10.27c1.42.43,3.81.1,4.15-1.21C607.92,375.74,605.19,372.79,601.7,368.75Z" transform="translate(-455.35 -140)"/><path class="cls-7" d="M683.19,359.46c-.66-1.53-3-1.85-4.7-.87-6.88,3.93-11.46,10.71-9.83,16.93.55,2.29,5.25,3.06,7.32,1.42C681.44,372.46,686.13,365.36,683.19,359.46Z" transform="translate(-455.35 -140)"/><path class="cls-7" d="M725.46,225.86c-.44-9.28-15.08-15.07-26.22-17.26-5.89-1.19-13.11-2.07-19.11-.87-2.85.66-5.58,1.42-8.42,2-3.37.76-5.13,2.08-8.18,3.16-2.52.88-2,3.94.76,4.38,2.29.21,4.26,1.08,6.45,1.53s4.69.44,7,.87c1.41.33,2.83.65,4.25.87a.44.44,0,0,0-.1.22,3.1,3.1,0,0,0-1,.77,5.21,5.21,0,0,0-2.3,2.84,9.36,9.36,0,0,0-.54,2.39,4.25,4.25,0,0,0,1.42,3.39.43.43,0,0,1,.11.23,1.94,1.94,0,0,0,.32.53,4.07,4.07,0,0,0,2,3.18,9.57,9.57,0,0,0,7.2,1.31c.23,0,.33-.11.44-.11a14.22,14.22,0,0,0,6-2.18.38.38,0,0,1,.33-.12c.22,0,.54-.11.76-.11,0,.11-.11.23-.11.34a10,10,0,0,0-2.73,1.2c-1,.22-2.07.43-3.16.76-1.75.43-2.84,2.51-2.18,3.82,1.74,3.17,4.68,5.14,9.28,6.34a28.57,28.57,0,0,0,12.13.76c1-.11,1.85-.87,1.74-1.64a8,8,0,0,0-2.29-4.69,20.11,20.11,0,0,0,5.13-2.4c3.06-2.19,4.59-4.59,5-7.33C722.62,230,725.57,228.27,725.46,225.86Z" transform="translate(-455.35 -140)"/><path class="cls-7" d="M621,207c-6.12-4.26-17.58,0-23.38,2.73-5.13,2.52-17.91,9.72-13.32,15.29,3.49,4.26,14.64-2.62,17.58-4.36C608,217,617,213.64,621.47,209A1.38,1.38,0,0,0,621,207Z" transform="translate(-455.35 -140)"/><path class="cls-7" d="M772.65,212.54a16.8,16.8,0,0,0-1.74-2.18,2.29,2.29,0,0,0,.21-.89c1.42-11.14-22.72-21.29-36.59-19.65-4.81.54-4.58,5.14-1.21,6.77,5.91,2.95,12.57,4.7,18.36,8l.11.12a7.33,7.33,0,0,0-3.39,2.07,4,4,0,0,0-.11,5.13,16,16,0,0,0,1.65,4.92,12.89,12.89,0,0,0,7.52,6.22,9.33,9.33,0,0,0,4.92,0c.33-.21.65-.32,1-.54a11.21,11.21,0,0,0,5.89-.88C774.07,219.64,774.62,215.82,772.65,212.54Z" transform="translate(-455.35 -140)"/><path class="cls-7" d="M831.09,364.49c-3.82-3.5-10.71-2.18-11.47,2.18-1,5,.55,10.15-.21,15.29-.34,2.19-.77,4.37-1.32,6.55-.54,2.73-.21,5.8-1.09,8.53-.54,2,3,3.82,5.24,2.08,3.18-2.41,6.23-3.83,8.52-6.78a25.07,25.07,0,0,0,4.49-8.85C836.67,377.48,836.56,369.51,831.09,364.49Z" transform="translate(-455.35 -140)"/><path class="cls-7" d="M718.58,515.12c-5.89-2.62-14.2-.87-20.21.54-7.64,1.65-15.18,3.73-22.61,5.68-2.73.78-4,3.62-.87,4.7A50.08,50.08,0,0,0,701,528c7.09-1.2,17.69-4.47,19.11-10.27A2.21,2.21,0,0,0,718.58,515.12Z" transform="translate(-455.35 -140)"/><path class="cls-7" d="M586.3,494.69a44.72,44.72,0,0,0-13.55-12.23c-3.82-2.29-8.73-.11-8.08,3.28,1.2,5.57,7.31,11.47,14.74,13.76C584,500.81,588.59,498,586.3,494.69Z" transform="translate(-455.35 -140)"/><polygon class="cls-7" points="42.68 303.13 42.68 303.13 42.57 303.13 42.68 303.13"/><path class="cls-7" d="M497.92,443.13Z" transform="translate(-455.35 -140)"/><path class="cls-7" d="M504.91,440.4a5.57,5.57,0,0,0-.32-1.42,8.29,8.29,0,0,0-1.42-3,11,11,0,0,0-3.93-3,2.09,2.09,0,0,1-.45-.33c-1.74-1.42-4.47.1-4.15,1.64a5.88,5.88,0,0,0,0,3.82,6.13,6.13,0,0,0,1.21,3.05,2.32,2.32,0,0,0,.55.88,4.69,4.69,0,0,0,1.52,1.09c2.41,1.31,5.36.76,6.44-1.19a.36.36,0,0,0,.12-.23A3,3,0,0,0,504.91,440.4Z" transform="translate(-455.35 -140)"/><path class="cls-7" d="M485,317.73c-.76-2.18-4.58-2.18-6.11-.55a14.36,14.36,0,0,0-1.2,19.45,2.87,2.87,0,0,0,4.47-.43C485.26,330.73,487,323.52,485,317.73Z" transform="translate(-455.35 -140)"/><path class="cls-7" d="M852.83,363.07c-.22.11-.32.21-.43.21C853.16,363,853.16,363,852.83,363.07Z" transform="translate(-455.35 -140)"/><path class="cls-7" d="M854.8,348.21c-3.71-1-7.76-.11-9.94,2.29a20.14,20.14,0,0,0-3.5,5.25c-.33.87-.33,2.51-.1,1.09a8,8,0,0,0-.12,3.27c-.32-1.42,0,.23.22.88s.77,1.2,1.09,1.75c1.1,1.52,3.94,2.07,6.12,1.75a12.58,12.58,0,0,0,2.62-.66c.22-.12,1.21-.55,1.64-.76s.76-.33,1.09-.55c.55-.44.55-.44,0-.21-1.09.43-.65.21,1.21-.78a3.24,3.24,0,0,0,1.42-1.31,16.47,16.47,0,0,0,2.84-5.45C860,352,858.52,349.3,854.8,348.21Z" transform="translate(-455.35 -140)"/><path class="cls-7" d="M583.78,184.79a42.31,42.31,0,0,0-9.61,3.5c1.2-1.21,1.75-2.62,2.84-4.37,1.53-2.51-.22-6-4.8-5.79-4.93.1-8.19-.11-12.45,2.07a60.65,60.65,0,0,0-9,5.47c-5.9,4.15-10.82,9.72-10.5,15.84.34,4.69,8.2,5.67,12,2.18s7.09-7.1,12.22-9.94c1.86-1,3.72-2,5.57-2.84A17.91,17.91,0,0,0,565,197.8c-1.63,3.37,3.39,6.54,8,5.67a46.32,46.32,0,0,0,9.83-2.73c2.84-1.2,5.46-2.51,8.41-3.72C600.93,193.86,594.05,182.28,583.78,184.79Z" transform="translate(-455.35 -140)"/><path class="cls-7" d="M600.28,160.87a19.21,19.21,0,0,0-9.18,2.62c-1,.55-1.2.66-.65.44.32-.22.21-.22-.11,0s-.88.43-1.31.66a14.49,14.49,0,0,0-2.29,1.3c-.23.12-2.2,1.75-1.21,1-2.07,1.74-3.06,4.26-1.2,6.33s4.91,2.63,8.3,2.29c-1.63.23,1.42,0,1.64-.1,1-.11,2.07-.55,3.06-.77,1.09-.44,2.18-.76,3.16-1.2,3.17-1.42,6-3.16,7.11-5.79C608.91,164.25,605.08,161,600.28,160.87Z" transform="translate(-455.35 -140)"/><path class="cls-7" d="M758.56,244.87c-.11-.33-.11-.65-.21-1,.32,1.31-.23-.66-.34-1a9.45,9.45,0,0,0-1.52-2.73c1,1.42-.22-.44-.55-.88a15.17,15.17,0,0,0-1.85-1.64,14.62,14.62,0,0,0-3.83-2.18,33.52,33.52,0,0,0-7.54-2c-3.93-.55-8.52.33-10.59,3.06-1.86,2.4-1.86,6.23,1.42,8a31,31,0,0,0,4.58,2.41c.76.22,1.64.43,2.52.66a6.35,6.35,0,0,0,1.2.32c.11.11.21.11.43.11a2.21,2.21,0,0,1,.76.33v-.11a7.43,7.43,0,0,0,1.54.22c.11,0,.22.11.32.11-.32-.11,1.1.65,1.21.65.44.32,1.08.76,1,.76a18.58,18.58,0,0,0,2.51,1.64c2.63,1.31,6.23,1,7.86-1A6.6,6.6,0,0,0,758.56,244.87Z" transform="translate(-455.35 -140)"/></g><path class="cls-8" d="M819.19,461.93c8.18-5.14,10.59-14.53,12.35-21.85,1.52-6.67,1.08-16.39-5.91-21.52-1.63-1.31-5.25-1.1-5.78.87-2.2,6.33-3.28,13-4.7,19.44s-5.14,12.79-6.67,19.34C807.5,462.36,815.36,464.33,819.19,461.93Z" transform="translate(-455.35 -140)"/><path class="cls-8" d="M802.36,373.11c1.65,2.08,3.28,4.05,4.81,6.12,1.75,2.52,2.84,5.25,5.46,7.33,3.39,2.61,11.58,2.18,12.67-2,1.43-5.47-2.29-10.27-5.45-15.19-2.74-4.15-6.12-11.14-14.42-9.72C796.36,361.1,799.41,369.07,802.36,373.11Z" transform="translate(-455.35 -140)"/><path class="cls-8" d="M785,400.2c.34,2.41-.21,5.14,0,7.65.23,3.06,1.65,6.12,2.41,9.06,1.3,5.69,1.09,12,4.37,17.38,1,1.64,4.7,2.18,6.33.87,6.44-5.14,6.23-12.78,5.14-19.23-.55-3.49-1.09-7.32-3.28-10.48s-5.68-5.14-9.06-7.43C788.27,396.28,784.67,397.7,785,400.2Z" transform="translate(-455.35 -140)"/><path class="cls-8" d="M553.41,325.27a23.09,23.09,0,0,0,1.1,6.12,23.94,23.94,0,0,0-1.31,6.12,6.61,6.61,0,0,0,.44,2.94c.11.33,1.42,3.18.87,1.86.55,1.42,3.16,2.74,5.35,1.75,8.2-3.94,13.54-10.05,18.9-16.06a27.07,27.07,0,0,1,2.51-2.73c.22-.11.54-.33.77-.44,2.84-1.42,1.63-1.42,4.26-.11,4.59,2.52,12.56,1.31,15.4-2.29a30,30,0,0,0,6-11.69c1.42-5.35-7.22-9.17-13.55-8.3-4.58.66-9.07,1.74-13.66,2.4-5,.76-10.48,1.42-15.17,3.06-6.35,2.29-9.72,6.34-11.15,10.93A5.26,5.26,0,0,0,553.41,325.27Z" transform="translate(-455.35 -140)"/><path class="cls-8" d="M543.8,394.08a37.16,37.16,0,0,0,.88,10.38c.87,3.72,2.84,6.34,4.69,9.84,1.2,2.08,6.45,1.85,7.11-.44,1-3.17,2.5-6.12,3.16-9.4a60.16,60.16,0,0,0,1.31-10.7c.23-5.68.66-13.43-5.34-17.81a3.5,3.5,0,0,0-3.83-.11C544.9,379.89,544.13,388.08,543.8,394.08Z" transform="translate(-455.35 -140)"/><path class="cls-8" d="M707.88,481.37c2.84,5.68,16.71,2.95,22,1,8.42-3.16,12.89-8.85,16.49-14.85.66-1.1-.32-2.3-1.74-2.85a6.65,6.65,0,0,0-.65-1.09c-2-2.84-6.23-3.93-10.49-3.6-8.74.87-15.52,5.68-22,9.72-3.28,2-4,5.46-2.41,8.2C707.88,479,707.22,480.17,707.88,481.37Z" transform="translate(-455.35 -140)"/><path class="cls-8" d="M714.43,304.18c1.75,1.54,2.94,3.39,4.59,4.93,2,1.74,4.47,2.84,6.77,4.26,4.37,2.83,5.13,6.65,7.1,10.59,2.63,5.13,14.64,4,16.39-1,2.4-6.67-.77-13.44-7.11-18.36a4.27,4.27,0,0,0-.76-.65,5.46,5.46,0,0,0,2.84-3.06c.65-2.18,1-3.93-.66-6.12a9.62,9.62,0,0,0-3.39-2.73,7.73,7.73,0,0,0-4.15-2.73c-2.07-2.29-6.55-3.6-10.15-2.95a13.36,13.36,0,0,0-4.26,1.64c-1.64,1-3.38,3.17-3.17,4.81a10.54,10.54,0,0,0,1.21,4.48C714.64,297.08,710.72,301,714.43,304.18Z" transform="translate(-455.35 -140)"/><path class="cls-8" d="M622.13,353.89c1,2.51,5.34,4.8,9,3.06,6.65-3.17,9.93-6.67,14.3-11.37,3.93-4.25,8.74-8,11.58-12.66,1.86-2.95-2.07-6.45-6.23-6.55-9.38-.23-16.28,4.91-21.62,9.93C623.32,341.66,619.4,347.12,622.13,353.89Z" transform="translate(-455.35 -140)"/><path class="cls-8" d="M604.54,405.12a15.16,15.16,0,0,0,17.48,13c2-.33,4.26-1.64,4.58-3.06,1.42-5.24-2.07-10.71-3.71-15.84-1.75-5.67-4.91-9.61-10-14-1.53-1.31-4.92-.55-4.92,1.2,0,2.85-1.86,5.46-2.73,8.3A23.78,23.78,0,0,0,604.54,405.12Z" transform="translate(-455.35 -140)"/><path class="cls-8" d="M733.76,437.67c3.5-.32,6-.43,9.18-1.85a43.87,43.87,0,0,0,6.88-4.26,21.53,21.53,0,0,0,5.57-6.33,7.46,7.46,0,0,0,.76-3.72,4.42,4.42,0,0,0-1-3.28,12,12,0,0,0-1.08-1.32c-1.54-2.73-6.35-3.71-9.51-1.63,2.08-1.31-3.49,1.1-3.49,1.1a12.1,12.1,0,0,0-2.52,1.85c-1.42,1.41-2.52,3.06-3.83,4.59a26.92,26.92,0,0,1-3.48,3.6c-1.65,1.42-2.41,3.17-3.94,4.48C723.72,434.29,729,438.22,733.76,437.67Z" transform="translate(-455.35 -140)"/><path class="cls-8" d="M545.66,211.56c-3.82,3.38-5.89,7.53-3.94,12,4.38,10.05,18.25-1.31,23.17-4.7a51.9,51.9,0,0,1,13.65-6.33c3.17-1.1,7.76-2.18,10.05-4.37.21-.12.44-.12.65-.22,2.84-.87,2.84-4,.34-5.13-1.32-.55-1.1-.34-.66-.11l-.12-.11c-1.08-.55-1.85-1.2-3.16-1.75h0C584,198,580,196,575.69,195.72a23.84,23.84,0,0,0-4.14,0,17.4,17.4,0,0,0-7.43-1.42c-5.57.22-10.92,2.29-15.73,4.15C542.27,201,540.64,208.28,545.66,211.56Z" transform="translate(-455.35 -140)"/><path class="cls-8" d="M485.36,323.19c1.53.55,3.61.45,4.48-.65,8.3-10.06,12.34-21.3,10.37-33-.32-2.08-4.36-2.29-5.67-.77-5.47,6-11.8,10.27-15.19,17.26C476.51,312.16,476.85,319.81,485.36,323.19Z" transform="translate(-455.35 -140)"/><path class="cls-8" d="M507.2,479.62c3.07,8,11.37,16.93,24.48,15.07,4.7-.65,7.43-4.15,6.55-7.43-.54-2.29,0-5-.22-7.43a34.78,34.78,0,0,0-1.74-7.42,57,57,0,0,0-7.87-13.87,7.57,7.57,0,0,0-6.12-2.84c-2.84.11-4.47.54-6.23,2.18a9.09,9.09,0,0,0-1.19-.88c-2.73-1.95-8.19-1.08-8.3,2.08C506.44,466.19,504.59,472.63,507.2,479.62Z" transform="translate(-455.35 -140)"/><path class="cls-8" d="M681.77,556.64c6.33,8.07,24.14,3.6,32-1,5.91-3.28,2.19-11.14-5.46-11-3.5,0-9.07.22-12.45,2-.11,0-.33-.11-.43-.11-2.84-.1-5.69,1.85-5.47,3.93a18.18,18.18,0,0,0-7.32,2.85C681.44,554.12,680.9,555.54,681.77,556.64Z" transform="translate(-455.35 -140)"/><path class="cls-8" d="M779.1,504.63a11.12,11.12,0,0,0,9.6,2.73c3.72-1,7.77-2.07,10.06-4.58a9.57,9.57,0,0,0,1-1.42c.54-.22,1.08-.44,1.74-.65,4.81-2,7.54-5.25,9.72-8.75,2.95-4.8-4.36-9.83-10.82-8.74-10.15,1.75-16.27,7.87-21.41,14A5.21,5.21,0,0,0,779.1,504.63Z" transform="translate(-455.35 -140)"/><path class="cls-8" d="M790,303.2c3.06,3.06,10.05,3.18,14,1.1,3.38-1.75,5-4.59,4.47-7.43a8.09,8.09,0,0,0,2.73-4.37c1.1-4.92-3-11.15-7.75-14.54-6.12-4.36-14.53-2.61-18,2.75C780.63,288.13,783.57,296.87,790,303.2Z" transform="translate(-455.35 -140)"/><path class="cls-8" d="M729.29,184.9c3.49.87,8.3.22,11-1.86a22.13,22.13,0,0,1,4.58,2.08,12.49,12.49,0,0,0,13.77-1.2c2.62-.65,4.26-2.85,3.71-4.92a.37.37,0,0,0,.12-.32c1-3.83,1-7.76-3.39-10.49a13,13,0,0,0-7.43-2.18,75.62,75.62,0,0,0-17.48-11.26c-8.74-4-24.35-8.63-32.77-1.85C686.9,164.7,715.85,181.62,729.29,184.9Z" transform="translate(-455.35 -140)"/><path class="cls-8" d="M666,163.71c1.2-.11,2.4-.33,3.6-.43a8.15,8.15,0,0,0,1.54.21c3.49.11,7.75-.21,10.37-.32,5.79-.23,11.57-3,11.57-7.54a7.34,7.34,0,0,0-3.71-6.33c-3.82-4.93-10.59-7.54-19-6.78-8.18.76-14.85,5.24-17.36,10.81C650.2,159.23,657.73,164.91,666,163.71Z" transform="translate(-455.35 -140)"/><path class="cls-8" d="M516,251.42c5.35.66,10.71-1.52,12.56-5.23a.39.39,0,0,0,.1-.23c.34-.43.66-.87.89-1.19l.1-.12a12.34,12.34,0,0,0,1.09-1.53,10.27,10.27,0,0,0,3.28-2.84,3.51,3.51,0,0,0,.87-2c.33-1.09.33-1.32.12-.55-.33,1.31.21-2,0-2.4a6.52,6.52,0,0,0-2.08-3.07c-.1-.64-.22-1.19-.33-1.74-.66-3.28-5.57-6.12-10-6.22-5.14,0-8.85,2.07-10.93,5.46A35.53,35.53,0,0,0,507,243.23C506.44,247.17,510.82,250.66,516,251.42Z" transform="translate(-455.35 -140)"/><path class="cls-8" d="M829.34,264.43c5.8,1.63,12.46-2,12.56-6.23.23-4.81-2-9-5.34-13a21.76,21.76,0,0,0-6.23-5.57c-1-.55-2-1.09-3-1.53l-2-.66a4,4,0,0,1-.66-.1c-1.64-.77-4.59-.55-5.46.87a13.74,13.74,0,0,0-2.41,3.6,6.09,6.09,0,0,0-2.18,3.6C813.5,253.73,818.43,261.15,829.34,264.43Z" transform="translate(-455.35 -140)"/><path class="cls-8" d="M587.06,270.87c2.73,2.84,6.88,3.83,11.58,3.38,8.2-.87,14.2-5.23,20.21-8.85l.11.12a7.29,7.29,0,0,0,5.67-.65,8.13,8.13,0,0,0,3.94-10.5c-1.63-3.92-7.32-7.64-13.43-6.23a40.25,40.25,0,0,0-14,6.35,33.56,33.56,0,0,0-14.3,7.42C584,264.32,584.77,268.58,587.06,270.87Z" transform="translate(-455.35 -140)"/><path class="cls-8" d="M676.85,233.4c8.08,7.75,24.25,7.1,36,9.07,6.67,1.09,14.74-1.64,14.74-7.32a18.43,18.43,0,0,0-2.5-9.39c-1.86-3.39-7.65-4.6-12.13-4a16.54,16.54,0,0,0-4.59,1.1c-7.53-3.07-17.15-3.6-25.78-2.41S672.15,228.81,676.85,233.4Z" transform="translate(-455.35 -140)"/><path class="cls-8" d="M615.14,563.73c10.38,4,26.32,3.61,35.6-2,4-2.41,2-6.56-2.29-7.76-9.06-2.84-23.82-1.2-32.67,1.64C611.53,557.07,611,562,615.14,563.73Z" transform="translate(-455.35 -140)"/><path class="cls-8" d="M780.29,336a10.9,10.9,0,0,0,5.58,3.51,5.67,5.67,0,0,0,1.41,1.74c4.17,4.15,12.9,3.49,15.52-1.31a5.46,5.46,0,0,0,1.1-2.74v-1.42a12.21,12.21,0,0,0-1.1-5.57c-2.51-4.91-11.69-7.09-17.91-4.36C780.19,327.79,777.35,332.26,780.29,336Z" transform="translate(-455.35 -140)"/><path class="cls-8" d="M496.84,412A21.33,21.33,0,0,0,503,422.27c2.51,2.18,7.64,5.46,11.91,3.39C521.09,422.6,521,417,520.1,412a18.25,18.25,0,0,1,.11-5.46c.22-2.19-.77-4.37-.77-6.23,0-2.61-2.73-5.45-6.77-5.35-4.92,0-9,1-12.46,3.61C495.19,402.17,495.41,407.31,496.84,412Z" transform="translate(-455.35 -140)"/><path class="cls-8" d="M855.56,334.78a19.91,19.91,0,0,0,1.53,6.55c1.43,3.82,2.3,7.09,6,10.16,2.41,1.86,6.67,2,9.4.32,5.78-3.71,5.57-9,3.71-14a14.27,14.27,0,0,0-6.23-7.54c-3.28-2-5.79-2.4-9.94-2.62-1.86-.11-3.38,1-3.49,2.3C856.43,330.73,855.45,333.13,855.56,334.78Z" transform="translate(-455.35 -140)"/><path class="cls-8" d="M705.47,257.88c-2.62,2.29-.32,5.78,3.17,6.65h0A19.52,19.52,0,0,0,720.21,266a69.76,69.76,0,0,0,10.61-2.5c8.3-2.63,5.35-12.68-3.71-12.47a63.63,63.63,0,0,0-11.15.88,21.57,21.57,0,0,0-7,2.74c-1.53,1.31-2,1.63-1.32,1.08s.34-.21-1.08,1C706.13,257,704.28,259,705.47,257.88Z" transform="translate(-455.35 -140)"/><path class="cls-8" d="M624.74,293.48a5.63,5.63,0,0,0,.34,2.4,3.76,3.76,0,0,0,.87,1.75c.22.44,1.09,2,.54.55.77,2.08,3.71,2.51,5.79,1.42a19,19,0,0,0,3.94-1.64,30.55,30.55,0,0,0,6-2.95l.76-.43,2.08-1.1a9.27,9.27,0,0,0,1.74-1.2c.33-.33.55-.43.65-.55s.23-.11.34-.22c2.84-1.74,3.49-4.91,1.86-7.2s-5.47-3.5-9.19-3.07c.11,0-.76,0-2.62.23a13.76,13.76,0,0,0-3.05.76,22.3,22.3,0,0,0-5,2.73C627,287,624.1,290.43,624.74,293.48Z" transform="translate(-455.35 -140)"/><path class="cls-8" d="M583.46,371.8a24.56,24.56,0,0,0,2.18,5c.87,1.54,2.29,2.2,3.6,3.39a4.19,4.19,0,0,0,4.37.12c2.41-1.21,4.15-2.19,5.25-4.27a16.48,16.48,0,0,0,2.07-7.1c0-5.68-6.12-12.67-14.74-8.3C581.71,362.84,582.36,368.41,583.46,371.8Z" transform="translate(-455.35 -140)"/><path class="cls-8" d="M568.49,454.71a12.57,12.57,0,0,0,3.06,6.44c3,4.05,6.66,6.67,11.58,9.3,3.27,1.74,9-.11,8.74-3.18A19.47,19.47,0,0,0,580.18,450a9.6,9.6,0,0,0-2.95-1.42c-.55-.1-4.59-.32-3.28-.1-1.63-.33-3.93.1-4.36,1.52C569,451.77,568.17,453,568.49,454.71Z" transform="translate(-455.35 -140)"/><path class="cls-8" d="M679.91,456.57a55.34,55.34,0,0,0,16.17-7c4.69-2.73,10.26-5.69,11.14-10.27.22-1-1.2-1.52-2.3-1.42-5.57.77-9.72,4.26-13.87,6.78a130.72,130.72,0,0,0-13.43,8.73C676.2,454.6,677.18,457.23,679.91,456.57Z" transform="translate(-455.35 -140)"/><path class="cls-8" d="M738.25,361.32c3.37,4.59,7,9.06,10.37,13.55,2.3,2.94,7.87,1.19,7.42-1.86-.87-4.92-3.38-9.73-6.44-14.09s-5.24-8.42-11.25-10.93c-1.41-.55-3.82-.33-4.25,1C732.56,354,735.18,357.06,738.25,361.32Z" transform="translate(-455.35 -140)"/><path class="cls-8" d="M656.42,367.88c.66,1.52,2.84,1.95,4.59,1.08,7.21-3.82,12.24-10.59,11.14-17-.44-2.29-5-3.27-7.09-1.64C659.15,354.65,654,361.76,656.42,367.88Z" transform="translate(-455.35 -140)"/><path class="cls-8" d="M613.17,515.12c-.33,9.39,13.87,16.06,24.68,18.69,5.8,1.3,13,2.5,19,1.52,2.84-.55,5.68-1.2,8.52-1.75,3.39-.66,5.25-1.86,8.41-2.84,2.62-.87,2.3-4-.43-4.47-2.18-.44-4.15-1.42-6.33-1.86s-4.6-.66-6.78-1.21a33.58,33.58,0,0,0-4.26-1c0-.1.11-.1.22-.22a3,3,0,0,0,.87-.76,6.61,6.61,0,0,0,2.62-2.84,9.46,9.46,0,0,0,.66-2.4,3.91,3.91,0,0,0-1.21-3.5v-.22c-.1-.22-.21-.43-.32-.66a4,4,0,0,0-1.75-3.27,8.94,8.94,0,0,0-7-1.64,1.06,1.06,0,0,1-.55.1,14.32,14.32,0,0,0-6.12,2.08c-.11.12-.11.12-.21.12a2.42,2.42,0,0,0-.88.11c0-.11.11-.34.11-.45a8,8,0,0,0,2.84-1.08,18.88,18.88,0,0,0,3.17-.66c1.85-.44,3.17-2.51,2.51-3.83-1.53-3.28-4.26-5.46-8.73-6.77a28.32,28.32,0,0,0-12-1.31c-1,.22-2,.88-1.85,1.64a7.63,7.63,0,0,0,2,4.92,19.88,19.88,0,0,0-5.34,2.29c-3.17,2.07-4.92,4.48-5.57,7.21C616.33,511.08,613.28,512.72,613.17,515.12Z" transform="translate(-455.35 -140)"/><path class="cls-8" d="M706.67,525.72c5.9,4.58,17.59.76,23.49-1.86,5.36-2.4,18.57-9.28,14.53-15.08-3.17-4.58-14.86,2.08-17.92,3.72-6.33,3.5-15.5,6.55-20.2,11.14A1.35,1.35,0,0,0,706.67,525.72Z" transform="translate(-455.35 -140)"/><path class="cls-8" d="M548.83,527.9a6.32,6.32,0,0,0,1.53,2.29,1.48,1.48,0,0,0-.33.87c-2.3,11.37,21.08,22.62,35,21.41,4.8-.32,4.91-5,1.75-6.76-5.69-3.17-12.24-5.25-17.7-8.85a.11.11,0,0,1-.11-.11,7.87,7.87,0,0,0,3.49-2.07,4,4,0,0,0,.55-5.14,20.83,20.83,0,0,0-1.2-5.13,13.2,13.2,0,0,0-7.1-6.56,8.37,8.37,0,0,0-4.91-.22,4.65,4.65,0,0,0-1,.55,12.43,12.43,0,0,0-5.91.66C547.84,520.7,547,524.51,548.83,527.9Z" transform="translate(-455.35 -140)"/><path class="cls-8" d="M509.72,357.27c3.5,3.83,10.38,2.63,11.58-1.74,1.31-5.14.22-10.48,1.31-15.62.55-2.29,1.09-4.48,1.75-6.67.88-2.84.76-5.89,1.75-8.63.76-2-2.63-4-4.92-2.29-3.38,2.29-6.56,3.61-9.06,6.55a26.58,26.58,0,0,0-5.14,9C505,343.84,504.7,351.92,509.72,357.27Z" transform="translate(-455.35 -140)"/><path class="cls-8" d="M633.16,207.73c5.57,2.84,14,1.31,20.1.22,7.75-1.42,15.4-3.27,22.94-5,2.73-.65,4.26-3.6,1.31-4.8a49.06,49.06,0,0,0-25.89-3c-7.21,1-18,3.94-19.77,9.83A2.13,2.13,0,0,0,633.16,207.73Z" transform="translate(-455.35 -140)"/><path class="cls-8" d="M780.41,202.27a42.26,42.26,0,0,0,12.46,13c3.71,2.52,8.73.32,8.3-3.05-.78-5.8-6.45-12-13.66-14.54C783,196,778.34,198.77,780.41,202.27Z" transform="translate(-455.35 -140)"/><polygon class="cls-8" points="391.69 149.22 391.8 149.22 391.8 149.22 391.69 149.22"/><path class="cls-8" d="M847.26,289.22h-.11C847.47,289.44,847.59,289.44,847.26,289.22Z" transform="translate(-455.35 -140)"/><path class="cls-8" d="M840.05,291.73a6.57,6.57,0,0,0,.22,1.54,9.5,9.5,0,0,0,1.2,2.94,10,10,0,0,0,3.71,3.39l.34.32c1.63,1.42,4.47.11,4.25-1.52a6,6,0,0,0,.33-3.94,8.14,8.14,0,0,0-1-3.16,5.82,5.82,0,0,0-.44-.87,5.57,5.57,0,0,0-1.53-1.21,4.69,4.69,0,0,0-6.44,1l-.11.23A3.31,3.31,0,0,0,840.05,291.73Z" transform="translate(-455.35 -140)"/><path class="cls-8" d="M850.54,417.69c.55,2.18,4.36,2.4,6,.87,5.89-5.36,6.88-13.87,2.61-19.89-1-1.41-3.6-1.08-4.47.22C851.3,404.46,849,411.68,850.54,417.69Z" transform="translate(-455.35 -140)"/><path class="cls-8" d="M488,357.93c.1-.11.21-.11.43-.22C487.55,358,487.65,358,488,357.93Z" transform="translate(-455.35 -140)"/><path class="cls-8" d="M484.92,373c3.6,1.2,7.65.44,9.95-2a19.46,19.46,0,0,0,3.92-5.13c.45-.88.55-2.63.23-1.1a11.79,11.79,0,0,0,.32-3.39c.22,1.53.11-.21-.21-1a10,10,0,0,0-.87-1.76c-1-1.63-3.72-2.29-6-2a11.6,11.6,0,0,0-2.63.45c-.21.1-1.2.54-1.63.76s-.77.33-1.21.55c-.55.44-.55.44,0,.21q1.65-.65-1.31.66a6.16,6.16,0,0,0-1.53,1.42,16.42,16.42,0,0,0-3.06,5.35C479.9,368.85,481.21,371.8,484.92,373Z" transform="translate(-455.35 -140)"/><path class="cls-8" d="M742.06,549.74a43.24,43.24,0,0,0,9.94-3.27c-1.42,1.32-2,2.63-3.16,4.48-1.75,2.41-.33,6.12,4.26,6.12,4.91-.11,8.19.33,12.56-1.75a60.1,60.1,0,0,0,9.4-5.24c6.12-4.05,11.46-9.51,11.58-15.74,0-4.8-7.76-6.22-11.69-2.73-4.15,3.5-7.65,7-13,9.72-1.86.89-3.83,1.86-5.8,2.74a20.08,20.08,0,0,0,5.69-7c1.85-3.39-3-6.66-7.54-6a52.23,52.23,0,0,0-10,2.41c-2.84,1.21-5.57,2.4-8.52,3.5C725.79,539.91,731.69,551.94,742.06,549.74Z" transform="translate(-455.35 -140)"/><path class="cls-8" d="M723.93,573.45a17.47,17.47,0,0,0,9.28-2.3c1-.43,1.21-.53.77-.32s-.32.11.12,0l1.3-.65c.77-.45,1.64-.77,2.41-1.21.21-.11,2.29-1.74,1.2-1.09,2.18-1.64,3.39-4.15,1.64-6.33s-4.7-3-8.09-2.73c1.75-.12-1.3.11-1.53.11a13.36,13.36,0,0,0-3,.76,28,28,0,0,0-3.39,1.1c-3.28,1.19-6.12,2.94-7.43,5.57C715.52,569.73,719.13,573.35,723.93,573.45Z" transform="translate(-455.35 -140)"/><path class="cls-8" d="M572.75,482c.11.32.11.65.22,1-.33-1.32.11.76.22,1a11.28,11.28,0,0,0,1.31,3c-1-1.54.22.43.55.87a7.64,7.64,0,0,0,1.63,1.74,13.4,13.4,0,0,0,3.61,2.41,33.09,33.09,0,0,0,7.32,2.19c3.92.65,8.62,0,10.81-2.73,2-2.3,2.41-6.23-.77-8.2a36.43,36.43,0,0,0-4.36-2.51,16.87,16.87,0,0,0-2.52-.76,3.37,3.37,0,0,0-1.09-.44c-.1-.11-.33-.11-.44-.11a2,2,0,0,0-.76-.33h0c-.55-.11-1-.11-1.53-.22a.39.39,0,0,1-.21-.1,10.61,10.61,0,0,0-1.31-.77c-.34-.33-1-.76-.89-.76a29.33,29.33,0,0,0-2.39-1.86c-2.41-1.31-6-1.2-7.88.87A7.12,7.12,0,0,0,572.75,482Z" transform="translate(-455.35 -140)"/><g class="cls-9"><path class="cls-10" d="M565.33,282.13c-13.11,1.63-17.38,11.35-19.56,19.44-.87,3.27,2.41,6.76,6.66,8a4.38,4.38,0,0,0,1.32,1.09A15.5,15.5,0,0,0,555,316c1,2.61,2.95,7.1,7.53,7.53a5.91,5.91,0,0,0,6-3.93c1.75-4.26,1.42-9,3.06-13.33.66-1.85-.22-3.93-2-5.57.43-1.09.87-2.19,1.42-3.38a4.29,4.29,0,0,0-1.32-5.58c.77-1.09,1.53-2.18,2.4-3.38C574.61,284.86,570.46,281.47,565.33,282.13Z" transform="translate(-455.35 -140)"/><path class="cls-10" d="M779.21,388.08c-3.72-4.26-11.25-.65-14.76,2-2.73,2-4.47,4.37-7.31,6.33-2.62,1.75-6,2.74-8.85,4.26-3.28,1.86-4.81,6.12,0,7.65,8.3,2.73,17.26-.22,23.38-4.37C777.24,400.09,783.91,393.55,779.21,388.08Z" transform="translate(-455.35 -140)"/><path class="cls-10" d="M784.78,362.74a4.34,4.34,0,0,0-4.59,0c-6,3.72-7.32,9.39-7.76,14.74-.21,2.62-.21,11,6.23,10.82,7.75-.33,10.82-6.12,11.58-10.82A14.67,14.67,0,0,0,784.78,362.74Z" transform="translate(-455.35 -140)"/><path class="cls-10" d="M777,315.11c-2.95-5.13-8.74-11.25-16.6-12.89a3.74,3.74,0,0,0-3.61,1c-3.06,4.26-1.3,9.28.12,13.66,1.52,5.13,2.61,10.27,4.69,15.18,1.53,3.71,9,5.68,12.89,2.4C781.71,328.55,781.28,322,777,315.11Z" transform="translate(-455.35 -140)"/><path class="cls-10" d="M703.5,256.78c-1.74.11-3.16,1.1-2.61,2.4,1.53,4.27,6.44,7.87,10,11.36,4.05,3.93,7.43,8.63,12.35,12,3.17,2.3,8.3,1.09,9.61-1.75C738.46,269.34,719.78,255.79,703.5,256.78Z" transform="translate(-455.35 -140)"/><path class="cls-10" d="M587.28,223.68c-7.32.87-13.54,3.94-18.9,7.43-5.68,3.82-11,8.41-13,13.87-1.42,4.15-2.08,9.62,2.73,12.9a5,5,0,0,0,4.49.32,17.31,17.31,0,0,0,5.67-3.5c-2.62,2.19,2.63-1.75,3.61-2.51,3.81-3.06,6.88-6.55,10.71-9.5a43.41,43.41,0,0,1,11.14-6.22c3.49-1.32,10.38-2.31,10.15-6.23C603.45,224.55,593.94,222.81,587.28,223.68Z" transform="translate(-455.35 -140)"/><path class="cls-10" d="M579.31,442.81c-8.3-6-11.8-13.22-17.37-20.33-1.1-1.42-3.72-1.08-4.81,0-7,6.67-4.37,16.28.66,23.06a36.51,36.51,0,0,0,11.69,10c4,2.2,12,4.26,17,2.3C596.13,454.16,583.46,445.75,579.31,442.81Z" transform="translate(-455.35 -140)"/><path class="cls-10" d="M590.45,395.07c-3.39-5-6-10.27-9.72-15.18-1.76-2.29-7.65-2.63-9.29,0-4.16,6.67-4.92,14.19-1,21.08s11.47,15.41,23.7,13.65a5.48,5.48,0,0,0,5-4.59C600.17,404.46,593.5,399.77,590.45,395.07Z" transform="translate(-455.35 -140)"/><path class="cls-10" d="M702.63,430.9c-7.2-3.72-17.26-2.3-24.25.77-1.74.76-3.49,1.63-5.25,2.5a5.12,5.12,0,0,0-.43-1.42c-.76-2.94-5.9-5.89-10.16-5.57-8.41.77-15.95,3-21.84,7.22-4.27,3.05-.88,7.64,4.69,8a35.3,35.3,0,0,0,5.9-.22,28.45,28.45,0,0,0-.11,3.06c0,4.8,5.35,7.64,11.69,8.19,15.19,1.2,30.36-8.41,41.18-14.64C707.88,436.47,705.91,432.65,702.63,430.9Z" transform="translate(-455.35 -140)"/><path class="cls-10" d="M704.6,470.77c-7.1-3.71-17.26-2.29-24.14.76-1.86.78-3.61,1.65-5.36,2.52-.11-.55-.21-1-.32-1.42-.87-2.95-6-5.91-10.27-5.57-8.41.76-15.84,2.84-21.85,7.2-4.26,3.07-.87,7.65,4.8,8a35.6,35.6,0,0,0,5.8-.21,27.17,27.17,0,0,0-.11,3.05c0,4.81,5.35,7.65,11.68,8.09,15.19,1.31,30.37-8.3,41.19-14.64C709.85,476.34,707.88,472.52,704.6,470.77Z" transform="translate(-455.35 -140)"/><path class="cls-10" d="M783.79,454.06c-2.29-1.75-6.55-2.08-9.39-.87-6.67,2.83-8.3,8.62-10,13.53-1.64,4.49-3.61,6.12-8.08,8.32-5,2.5-10.48,5.78-13.11,9.72-2.07,3.05-3,9.17,3.16,10.26,4.49.88,10.93-1,15.3-1.64,7.21-1.09,13.44-3.28,18.46-7.09C789.8,478.75,794.39,462.25,783.79,454.06Z" transform="translate(-455.35 -140)"/><path class="cls-10" d="M723.28,525.28c-7.43-4.58-17.7-4.58-27.2-3.94-10.82.66-20.21,2-29.17,6.45-4.15,2-4.48,6.12,0,8.08,9.61,4.15,19.33,4.15,30.26,3,9.06-1.1,19.77-2.52,26.11-7.43C725.35,529.76,725.9,526.91,723.28,525.28Z" transform="translate(-455.35 -140)"/><path class="cls-10" d="M514.42,307c-.44-3.17-2.84-5.58-7.1-6.56-12.45-2.84-23.38,6.78-26.32,14.31-2.52,6.55-.44,14.75,5.34,20.21,2.41,2.29,7.32,3.5,10.5,1,5.13-4,6.87-9.07,9.17-14.09a19.85,19.85,0,0,1,3.39-5.35C511.9,313.58,514.86,310.63,514.42,307Z" transform="translate(-455.35 -140)"/><path class="cls-10" d="M496.06,383.38c-.65-3.82-6.22-7.2-11.69-4.7-12.22,5.57-8.41,22.62,2,28.19a4.5,4.5,0,0,0,4.38-.44c4.8-2.95,4.69-7.1,4.91-11.36C495.74,391.24,496.72,387.2,496.06,383.38Z" transform="translate(-455.35 -140)"/><path class="cls-10" d="M825.42,350.62c-1-6.78-5.91-16.28-16.94-17.6-3.71-.44-6.77.66-8,3.18-2.52,4.8-.22,11.46.11,16.49s2.07,12.45,7.86,15.83a6.37,6.37,0,0,0,5.68.44C822.58,366,826.4,356.84,825.42,350.62Z" transform="translate(-455.35 -140)"/><path class="cls-10" d="M872.5,315.22c-1.1-6.89-6-16.38-17-17.69-3.6-.45-6.66.65-8,3.16-2.4,4.8-.1,11.47.23,16.49s2,12.46,7.75,15.84a7,7,0,0,0,5.79.55C869.66,330.52,873.48,321.33,872.5,315.22Z" transform="translate(-455.35 -140)"/><path class="cls-10" d="M852.51,374.53c-6.56-2-12.68.34-13.45,5.47-.76,4.59,1.86,8.95,1.42,13.55s-3.37,10.7,1.76,15.61a2.18,2.18,0,0,1,.44.33c-.12,0-.23-.1-.44-.1-9-1-14.21,3.92-18.14,8.84-1.2,1.64-2.4,3.28-3.72,4.8-.53.66-1.19,1.31-1.74,2-.11.23-.21.33-.21.55-3.51,1.53-5.14,4.26-4.15,7.1,1.3,3.72,5.67,5.57,10.48,6.11,11.25,2.74,19.87-5.9,22.83-12.23a18.82,18.82,0,0,0,2.08-8,9.41,9.41,0,0,0-2.08-6.34,14.56,14.56,0,0,0,9.39-.33C874.57,405.34,869.87,379.67,852.51,374.53Z" transform="translate(-455.35 -140)"/><path class="cls-10" d="M796.24,260.17c-4.26-6.56-12.77-15.19-24.35-13.88-2,.22-4.16,1.75-4.48,3.17-1.2,5.35,2.4,9.84,4.81,14.86a57.57,57.57,0,0,1,3.27,8,10,10,0,0,1,.44,1.75c.44,1.63-.66-2.73.33.87.11.44,1,4.48.66,2.18.76,5.47,7.86,8.64,15.06,6.12C804.54,278.85,800.73,267.26,796.24,260.17Z" transform="translate(-455.35 -140)"/><path class="cls-10" d="M704.81,184.25a.1.1,0,0,0-.1-.11,11.91,11.91,0,0,0-5.9-4.37c-6.88-2.62-15.51.32-16.28,5.79a.31.31,0,0,1-.11.21,8.19,8.19,0,0,0-.87,1.1c-.33.32-.65.55-.88.76a8.92,8.92,0,0,0-4.26,7.21,9.15,9.15,0,0,0,3.18,6.12c4.47,4.15,12,4.8,18.57,2.62,5-1.75,9.17-5.68,10.37-9.51S708.31,186.76,704.81,184.25Z" transform="translate(-455.35 -140)"/><path class="cls-10" d="M660.25,166c-5.14-1.42-12.13.54-16.71,2.07-5.8,2-12,5.57-11.47,10.49.44,4.15,4.69,7.86,11,7.75a17.3,17.3,0,0,0,6.77-1.1c1.09-.53,1.75-1.08,2.63-1.52.43-.22,1-.43,1.19-.55.55-.32,4-2,3.94-2.18.1,0,.1,0,.1-.11a12.4,12.4,0,0,0,2.08-1.09c.76-.44,1.42-.77,2.08-1.2a17.47,17.47,0,0,0,4.59-4.81C668.44,170.37,664.29,167.2,660.25,166Z" transform="translate(-455.35 -140)"/><path class="cls-10" d="M629.88,153c-7.64,2.29-12.67,5.67-15.84,11-2.07,3.49-5.46,8.3-3.83,12.12a3.83,3.83,0,0,0,3,2.07c9.39,1.32,20.31-6.1,27.41-9.49,5.69-2.73,16.83-5,17.15-10.71C658.17,148.52,637.19,150.82,629.88,153Z" transform="translate(-455.35 -140)"/><path class="cls-10" d="M509.61,256.12c-9.83-6.56-24.69,3.71-29.27,9.72-5.25,7-7.65,17.81,1.31,23.81a9.82,9.82,0,0,0,10.49,0c6.76-4.25,6.33-11.46,9.83-16.82C504.81,268.47,517.37,261.15,509.61,256.12Z" transform="translate(-455.35 -140)"/><path class="cls-10" d="M518.25,440.08c-3.07-5.47-3.17-10.49-4-16.17-.65-4.37-8.19-7.53-13.1-3.82C485.26,431.77,498,455.48,519,459.3c2.29.43,5-.88,4.92-2.73C523.59,450.78,521.3,445.54,518.25,440.08Z" transform="translate(-455.35 -140)"/><path class="cls-10" d="M826.5,484.87c-10.8,6.44-22.93,19.87-20.2,30.36.32,1.32,2.41,2.19,4.26,2.29,18.57.33,31.78-16.81,31.78-28.07C842.24,483.45,832.51,481.25,826.5,484.87Z" transform="translate(-455.35 -140)"/><path class="cls-10" d="M678.7,554.55c-4.79-5.34-13.21-9-22.17-10.26-2-.33-3.93-.33-5.89-.55-1.32-.11-4.49-1.09-3.83-.21a34.09,34.09,0,0,0-2.84-3.17,14.34,14.34,0,0,0-4.37-2.63,5.07,5.07,0,0,0-1.09-3.16,1.94,1.94,0,0,0-.54-2.3c-3.61-2.95-7.32-5.79-11.26-8.63,3.06-.1,6-.22,8.63-.22,15.4-.22,15-17.58.33-16.71a56.79,56.79,0,0,0-6.12,0c-1.85-.11-3.82-.33-5.68-.54-4.15-.55-4.58-.88-7.2-3.07-4.38-3.81-12.46-2.29-15.84,1.32l-1.32-1c-2.18-1.54-4-3.17-6.12-4.59-1.86-1.32-4.8-2.74-6.22-4.16-2.4-2.18-7.43-1.52-7.65,1.42-.11,2.08-1.08,4.16-1,6.34a22.78,22.78,0,0,0,2.4,7.87,31.74,31.74,0,0,0,4.37,6.33,16.22,16.22,0,0,0-2.08,1.64,36.4,36.4,0,0,0-7.09,2.18c-3.93,1.31-8.08,3.39-8.08,6.67.11,1.86,1.85,3.28,3.82,4.36.76.34,1.63.66,2.39,1a14.58,14.58,0,0,0,4.17,1c6.44,1.1,12.88,1.31,18.78-1a13.43,13.43,0,0,0,5.47-3.82,76.89,76.89,0,0,0,18.56,6,4.2,4.2,0,0,0-1.2,2.29c-.55,3,2.08,6.66,6.55,7.32-5.68,3-7.2,9.17-3.82,13.43,2.84,3.71,8.52,5.68,14.2,6.56a159.67,159.67,0,0,0,17.81,1.3l7.2.34h.34a1.46,1.46,0,0,0,.65.1,1.76,1.76,0,0,0,.55.22h.11l.21.12C673.47,569.73,684.72,561.11,678.7,554.55Z" transform="translate(-455.35 -140)"/></g><g class="cls-11"><path class="cls-12" d="M745.89,382.94a4.31,4.31,0,0,0,3,2.52c-.11,2.18-.11,4.36,2.08,6.12,1.52,1.2,4.15.87,5.78,0,3.39-2,3.17-6.67,3.28-9.4a17.84,17.84,0,0,0-2.62-10.38c-.87-1.42-3-2.07-5-2.07a25.7,25.7,0,0,0-4.8-5,2.47,2.47,0,0,0-2.84.33C740.32,370.49,744,377.37,745.89,382.94Z" transform="translate(-455.35 -140)"/><polygon class="cls-12" points="218.01 200.45 218.12 200.35 218.12 200.35 218.01 200.45"/><path class="cls-12" d="M651.29,349c.55-.11,1-.32,1.53-.43h.11c2.07-.76,3.83-1.64,5.68-2.52.33-.1.65-.33,1-.44a9.36,9.36,0,0,0,3.17.44,12.43,12.43,0,0,0,8.63-3.71c.76-.65,1.31-1.31,2-1.86-.33.11-.44-.21.11-.1a6.09,6.09,0,0,1,.44-.44c.87-.88-.44.76,0,0a2.27,2.27,0,0,1-.44.44h.21c4.26,1.19,9.62-.77,11.25-3.5a2.19,2.19,0,0,0-1-2.62c-4.91-3-13.87-4.37-19.12-.87a11.64,11.64,0,0,0-1.19,1.08,10.45,10.45,0,0,0-6.12.34c-3.07,1.19-5.57,3.05-8.52,4.36-1,.44-2,.77-3,1.21C639.93,343.08,643.86,351.05,651.29,349Z" transform="translate(-455.35 -140)"/><path class="cls-12" d="M674.67,317.52c5,2.5,11,2.94,16.93,2.18a28.9,28.9,0,0,0,6.88-1.42c0-.11.11-.11.22-.11,1,.43,2.19.77,3.17,1.09a18.1,18.1,0,0,0,12.23.22c4.81-1.75,3.61-6,0-8a14.49,14.49,0,0,0-6.66-1.42h-.33c-.65-.34-1.41-.55-2.07-.88a13.05,13.05,0,0,0-2.62-1.42,12,12,0,0,0-5.91-.76c-7.86-1.2-17.26-1-23.26,2.84C669.64,312.05,671.18,315.87,674.67,317.52Z" transform="translate(-455.35 -140)"/><path class="cls-12" d="M619.06,205.44c3.18,3.71,8.41,5.79,14.32,6.78a30.92,30.92,0,0,0,7.09.53h.23l2.29,2a15.72,15.72,0,0,0,11.14,3.5c5.36-.22,6.67-4.48,4.48-7.21a10.94,10.94,0,0,0-5.24-3.17.4.4,0,0,0-.33-.11l-1.42-1.42a13.09,13.09,0,0,0-1.53-2.07,10.11,10.11,0,0,0-5-2.29c-6.46-3.28-15.3-5.8-22.94-3.94C617.54,199.11,616.77,202.92,619.06,205.44Z" transform="translate(-455.35 -140)"/><path class="cls-12" d="M650.74,329.42c-.54-.33-.65-.33-.1-.11a3,3,0,0,0,1.08.43,3,3,0,0,0,1,.23,14.49,14.49,0,0,0,3.71.21,9.62,9.62,0,0,0,6.23-1.2c.11-.11.22-.11.44-.22a6.64,6.64,0,0,0,2.07-1.31c2.3-2,3-4.91,0-6.77-2.62-1.74-7.21-2.08-9.72,0a11.17,11.17,0,0,0-2.18,1.75h0A5.4,5.4,0,0,0,652,324l-.11.11a13.93,13.93,0,0,0-1.2,1.31l-.77.76c-.1.11-.21.33-.33.44-.22.43-.22.32.12-.11C648.23,327.35,648.88,329.09,650.74,329.42Z" transform="translate(-455.35 -140)"/><path class="cls-12" d="M608.36,359.35c.77,1.75,4.48,6.88,8.2,5.68,3.27-1,2.94-5.79,3.6-7.76.55-1.74,1.64-3.49,1.2-5.23-.65-2.52-3.93-4.26-7.53-3.5C607.16,349.73,606.4,355.53,608.36,359.35Z" transform="translate(-455.35 -140)"/><path class="cls-12" d="M516.16,359.35c.88,1.75,4.49,6.88,8.3,5.68,3.18-1,2.85-5.79,3.51-7.76.54-1.74,1.63-3.49,1.19-5.23-.65-2.52-3.82-4.26-7.43-3.5C515.08,349.73,514.31,355.53,516.16,359.35Z" transform="translate(-455.35 -140)"/><path class="cls-12" d="M682,433.19c9.19,1.86,22.94,0,25.67-7.32,1.1-2.95-1.95-5.34-6-5.57a40.12,40.12,0,0,0-8.85.66c-.76.1-1.63.33-2.41.44h0a7.67,7.67,0,0,1-1.19-.87,5.11,5.11,0,0,1-.88-.77c-2-1.53-4.05-1.64-5.79.33a6,6,0,0,0-1.86,2.62,3.38,3.38,0,0,0-.21,2.29C676.75,426.86,676.2,432,682,433.19Z" transform="translate(-455.35 -140)"/><path class="cls-12" d="M668.34,401.62c3.81,3,12.12-.11,9.93-4-1.42-2.41-4.36-4.49-4-6.88s1-4.7,1.64-7c.33-1.2-.54-2.62-2.4-2.95A10.87,10.87,0,0,0,661,389.29C660.25,394.31,663.64,398.13,668.34,401.62Z" transform="translate(-455.35 -140)"/><path class="cls-12" d="M684.06,517.08c5.14-1.52,3.83-8.07-2.29-7.86-3.6.11-7.54,1.42-10.59.44s-6-2.19-8.85-3.28c-1.53-.54-3.72-.54-4.7.66-3.94,4.37,2,9.17,7.43,11C671.61,520.15,677.83,519.16,684.06,517.08Z" transform="translate(-455.35 -140)"/><path class="cls-12" d="M715.85,394a6.51,6.51,0,0,0,2,0c5.24-.54,7.43-5.57,8-8.63.22-1.42-1.2-3-3.17-3.72a9.15,9.15,0,0,0-2.84-4.58c-.1-.11-.1-.23-.21-.33-.55-1.32-3.51-1.42-4.05,0a20.73,20.73,0,0,0-1.09,2.18,26.69,26.69,0,0,0-1,3.17.82.82,0,0,0-.23.55,10,10,0,0,0-5.23,5.57C706.57,392,711.27,394.42,715.85,394Z" transform="translate(-455.35 -140)"/><path class="cls-12" d="M679.14,355.64c2.84,1,5.68,1.63,8.52,2.4,1.31.33,2.41.65,3.51,1,1.52.87,2.84,1.85,4.26,2.83,5.57,4.26,15.4-1.2,11.24-6.11a17.81,17.81,0,0,0-8.95-5.47,2.22,2.22,0,0,0-.77-.21.31.31,0,0,0-.21-.11h0a16.65,16.65,0,0,1-1.65-.55,11.62,11.62,0,0,0-3.28-.11,37.32,37.32,0,0,0-12.67,2.3A2.08,2.08,0,0,0,679.14,355.64Z" transform="translate(-455.35 -140)"/><path class="cls-12" d="M630.75,439.31c0,2.29,2.73,4.48,6.23,4.37h3.39a55.3,55.3,0,0,0,3.6,5.14,3.93,3.93,0,0,0,.66,4.26c1.52,2.18,4.59,3.39,7.75,4.26.77.21,1.75.32,2.73.54,3.39,1.32,8.53,2.51,11.37.22.21-.22.55-.44.65-.76a7.73,7.73,0,0,0,4.15-2.84c1.85-3.07-.22-7.33-5.79-7.1-3.16.11-5.68.21-7.86-.88a5.65,5.65,0,0,0-2.08-1.53,28.31,28.31,0,0,1-3.28-4.26,11,11,0,0,0-5-4.7,14.92,14.92,0,0,0-3.83-.87,3.77,3.77,0,0,0-.87-2.62,6.93,6.93,0,0,0-5.68-2.63C631.19,430,630.65,436.47,630.75,439.31Z" transform="translate(-455.35 -140)"/><path class="cls-12" d="M552.86,494c.12,2.29,2.85,4.47,6.24,4.37h3.5c1.19,1.64,2.18,3.49,3.49,5.13a4.13,4.13,0,0,0,.66,4.26c1.63,2.19,4.69,3.39,7.75,4.15.87.22,1.85.45,2.84.66,3.39,1.2,8.41,2.4,11.25.22a2.33,2.33,0,0,0,.76-.77,7.73,7.73,0,0,0,4.15-2.94c1.86-2.95-.32-7.33-5.78-7.1-3.18.11-5.68.21-8-.78a5.32,5.32,0,0,0-2.08-1.63,35.64,35.64,0,0,1-3.16-4.15,11.17,11.17,0,0,0-5-4.7,22.87,22.87,0,0,0-3.83-1,3.78,3.78,0,0,0-.87-2.52,7.5,7.5,0,0,0-5.68-2.73C553.41,484.76,552.86,491.2,552.86,494Z" transform="translate(-455.35 -140)"/><path class="cls-12" d="M592.08,381.75c.87,1.42,1.86,2.84,2.73,4.26.34.55.89,1.52,1.1,1.85a5,5,0,0,0,.66,1.09,1,1,0,0,0,.43.55c.65,1.09,2.51,1.64,4.15,1.31,3.61-.65,4.81-2.84,4.91-5.14,1.1-1,1.54-2.29.66-3.49s-2.18-3.06-1.85-4.48c0-.22,0-.22.21-.44a4.75,4.75,0,0,1,2.52-.54c4.15-.43,7.1-3.17,4.81-6-1.31-1.53-4.27-5.57-7.65-4.91a11.82,11.82,0,0,0-1.64.66,5.31,5.31,0,0,0-1.42-1.21,8.13,8.13,0,0,0-7.76.33C586.85,369.51,588.8,376.72,592.08,381.75Z" transform="translate(-455.35 -140)"/><path class="cls-12" d="M597,254.49l-3,4.26c-.32.43-1,1.52-1.2,1.74a4.08,4.08,0,0,1-.66,1.2c-.21.22-.32.44-.54.55a5,5,0,0,1-4.48,1.31c-3.94-.76-5.24-2.83-5.36-5.14-1.19-1-1.63-2.29-.65-3.6s2.3-3.05,2-4.36c0-.23,0-.34-.22-.45a7.16,7.16,0,0,0-2.73-.65c-4.49-.32-7.76-3.06-5.25-5.89,1.31-1.54,4.59-5.58,8.3-4.92a4.68,4.68,0,0,1,1.76.66,4.8,4.8,0,0,1,1.63-1.32,9.26,9.26,0,0,1,8.3.33C602.69,242.14,600.49,249.46,597,254.49Z" transform="translate(-455.35 -140)"/><path class="cls-12" d="M628.13,307.35c2,2.52,7.43,3.18,10.27,1,3.39-2.61,8.09-4,12.45-5.78a33.44,33.44,0,0,0,10.49.65c4.15-.21,7.76-4.15,3.82-6.44a29.84,29.84,0,0,0-5.57-2.07,17.39,17.39,0,0,1-2.18-.55s-1.64-.44-1.86-.55c-.65-.22-.76-.22-.32,0,.76.21.32.11-1.31-.43a50.29,50.29,0,0,0-14.1-1.21c-4.92.22-10.27,1.21-13.11,4.26C623.55,299.82,625.29,304,628.13,307.35Z" transform="translate(-455.35 -140)"/><path class="cls-12" d="M628.13,159.78c2,2.51,7.43,3.06,10.27.87,3.39-2.51,8.09-3.93,12.45-5.68,3.39.88,6.78.77,10.49.66,4.15-.23,7.76-4.27,3.82-6.45a24.65,24.65,0,0,0-5.57-2.08c-.76-.21-1.42-.32-2.18-.55,0,0-1.64-.53-1.86-.53-.65-.23-.76-.23-.32-.11.76.21.32.11-1.31-.33a51,51,0,0,0-14.1-1.21c-4.92.23-10.27,1.1-13.11,4.27C623.55,152.24,625.29,156.39,628.13,159.78Z" transform="translate(-455.35 -140)"/><path class="cls-12" d="M543.8,248.14c2,2.41,7.43,3.07,10.27.89,3.39-2.63,8.09-4.05,12.45-5.68a33.48,33.48,0,0,0,10.49.54c4.15-.11,7.76-4.15,3.82-6.45a30.31,30.31,0,0,0-5.57-2,17.39,17.39,0,0,0-2.18-.55s-1.64-.54-1.86-.66c-.66-.11-.76-.11-.32,0,.76.23.32.12-1.31-.43a55.19,55.19,0,0,0-14.1-1.2c-4.92.21-10.26,1.2-13.11,4.36C539.22,240.62,541,244.77,543.8,248.14Z" transform="translate(-455.35 -140)"/><path class="cls-12" d="M606.94,325.16a5.49,5.49,0,0,0,2.84,3.27c1.75.88,4.7,1.31,6.34,0,.1-.21.21-.21.44-.32a6.29,6.29,0,0,0,3.71-2.29c1.42-2,2.41-3.83,2.18-6.12s-2.07-4.37-5.35-4.92c-3.06-.44-6.55.33-8.19,2.4C607.16,319.59,606.18,322.43,606.94,325.16Z" transform="translate(-455.35 -140)"/><path class="cls-12" d="M751.36,342.74c2.94,3.5,9.28,2.63,11.46-.32,3.6-2.84,3-7.64,2.52-11a14.5,14.5,0,0,0-9-10.93c-4.26-1.75-9.51.55-9.62,3.94C746.55,330.4,746.87,337.39,751.36,342.74Z" transform="translate(-455.35 -140)"/><path class="cls-12" d="M784.45,300.69c2.83,3.38,9.29,2.62,11.47-.43,3.49-2.73,3.05-7.54,2.4-10.93a13.81,13.81,0,0,0-8.84-10.92c-4.26-1.85-9.51.54-9.72,3.82C779.53,288.35,779.86,295.34,784.45,300.69Z" transform="translate(-455.35 -140)"/><path class="cls-12" d="M719.45,298c-3.27,1.75-3.82,6,.33,8.08,5.47,2.52,9.51,6.23,14.85,9,3.07,1.53,7.43.22,9.4-1.74,4.37-4.81,2.4-10.16-3.17-14-4.26-2.95-11.46-7-17.8-6.44-3.28.33-4.91,2-4.15,4.25A8.49,8.49,0,0,0,719.45,298Z" transform="translate(-455.35 -140)"/><path class="cls-12" d="M719.45,220.08c-3.27,1.74-3.82,6,.33,8.07,5.47,2.52,9.51,6.24,14.85,9,3.07,1.54,7.43.23,9.4-1.74,4.37-4.81,2.4-10.16-3.17-14-4.26-3-11.46-7-17.8-6.45-3.28.33-4.91,2-4.15,4.27A4.22,4.22,0,0,0,719.45,220.08Z" transform="translate(-455.35 -140)"/><path class="cls-12" d="M688.1,285.5c1.1,1.54,3.83,1.54,5.36.55a9.8,9.8,0,0,0,1.42-1,2.38,2.38,0,0,0,.65-.21,2.08,2.08,0,0,0,.55-.12,4.52,4.52,0,0,1,.54-.11h3.06a10.37,10.37,0,0,0,1.53.23h1.1a19.2,19.2,0,0,0,2.4,0c2.29-.23,5.35-.88,5.14-2.85-.34-3.71-8.85-5.9-13.34-6C689.31,275.9,684.61,281,688.1,285.5Z" transform="translate(-455.35 -140)"/><path class="cls-12" d="M729.61,452.64a2.85,2.85,0,0,1,.22.76,4.55,4.55,0,0,0,1.2,1.75c0,6.55,12.13,11.8,19.89,6,3.05-2.29,5.67-4.79,8.51-7.2a8.6,8.6,0,0,1,1.65-1.31c3-1.31,6-2.63,8.62-3.94,10.59-5.24,4.26-16.6-8.74-14.63a9.73,9.73,0,0,0-1.85.22,8.65,8.65,0,0,0-2.41-.55c-5.46-.22-10.38,3.5-13.54,6.12a40.89,40.89,0,0,0-4.91,4.69,41.13,41.13,0,0,0-3.83,1.86C730.82,447.28,729,449.91,729.61,452.64Z" transform="translate(-455.35 -140)"/><path class="cls-12" d="M730.71,545.05a2.07,2.07,0,0,0-.88.22,2.83,2.83,0,0,0-1.3-.32,9.14,9.14,0,0,0-1.65.1,14.57,14.57,0,0,0-4.81.22,160.24,160.24,0,0,0-18.13,5.46c-5.13,1.74-11.9,3.06-15.5,6.34-2,1.63-2,3.49,0,5.24,4.79,4.26,14.95,3.71,21.84,3.06,8.41-.77,16.28-2.84,22.61-7,2.51-1.64,3.39-3.83,3.16-5.91C740.65,549.53,737.37,544.07,730.71,545.05Z" transform="translate(-455.35 -140)"/><path class="cls-12" d="M776.69,504.52a.41.41,0,0,1,.11.34,2.77,2.77,0,0,0,.66,1c0,3.38,6.45,6.22,10.48,3.17,1.65-1.21,3.06-2.63,4.59-3.94.34-.21.55-.44.87-.65a44.52,44.52,0,0,0,4.59-2.08c5.58-2.73,2.19-8.74-4.69-7.75a3.07,3.07,0,0,0-1,.21,2.71,2.71,0,0,0-1.32-.32c-2.83-.23-5.46,1.85-7.09,3.27a18.5,18.5,0,0,0-2.63,2.41c-.65.32-1.42.65-2.07,1C777.35,501.58,776.37,503,776.69,504.52Z" transform="translate(-455.35 -140)"/><path class="cls-12" d="M760.09,429.91c6.33-1.31,9.93-7.09,11.36-11.14s1.64-11.58-5.24-13.21c-5.91-1.42-5.68,6.44-6,8.74a33.43,33.43,0,0,1-2,6.44c-.88,2.18-2.73,4.37-2.73,6.67C755.51,429,757.8,430.36,760.09,429.91Z" transform="translate(-455.35 -140)"/><path class="cls-12" d="M628.68,452.21a3.59,3.59,0,0,0,.44,1.85,8.12,8.12,0,0,0,2.84,3.28,16.81,16.81,0,0,0,7.86,3.49,13.13,13.13,0,0,0,5,.22c1.64-.33,4-1.42,3.82-2.95-.44-2.52-3.39-3.83-6-5.46.65.44-.66-.55-.66-.55-1.08-.66.33.22-.54-.32l-.1-.11a.38.38,0,0,1-.12-.23c-.22-.32-.43-.65-.66-1a4.52,4.52,0,0,0-.11-.54V449a2.9,2.9,0,0,0-2.5-2.29c-3.61-.54-6.88.87-8.42,3.17-.11.21-.22.33-.22.44A2.93,2.93,0,0,0,628.68,452.21Z" transform="translate(-455.35 -140)"/><path class="cls-12" d="M780,374.53a6.8,6.8,0,0,0,5.57,4.7.83.83,0,0,0,.22.87,4.49,4.49,0,0,0,2.07,1.32h0l.23.1a1.38,1.38,0,0,1,.64.23,8.4,8.4,0,0,0,5-1.21,7.73,7.73,0,0,0,3.28-6.33c.1-4.15-1.54-8.3-3.18-12.24-2.07-4.59-12.23-3.83-12.23,1.21,0,2.5.22,5.13,0,7.64C780.19,371.69,779.42,373,780,374.53Z" transform="translate(-455.35 -140)"/><path class="cls-12" d="M791.88,408.18c2.73,1,6.33.43,7.53-2.3h0a7.6,7.6,0,0,0,1.53-3.16c.66-2.29-1.74-4.15-4.36-4.49h-.34a5.48,5.48,0,0,0-1-1.74,15.35,15.35,0,0,0-5.13-5.14,2.31,2.31,0,0,0-2.51.44c-1.21,1.76-1.1,3.71-1.53,5.57-.66,2.29-.11,4.59-.44,7C785.33,407,788.7,408.4,791.88,408.18Z" transform="translate(-455.35 -140)"/><path class="cls-12" d="M581.38,403.27c-1.42,1.31-2.18,3.05-1.31,4.36,3.16,5.68,5.89,12.9,15,15,2.72.77,6-1.42,4.91-3.39-.33-.76-.65-1.42-1-2.07a6.69,6.69,0,0,0,3.06-1.31c3.39-2.84,4.91-7.65-.66-9.95a7,7,0,0,0-3-.43,18.45,18.45,0,0,0-7.86-3.5,3.27,3.27,0,0,0,.1-1,3.85,3.85,0,0,0-.65-2.84,6.69,6.69,0,0,0-1.42-1.09l-.11-.11a4.67,4.67,0,0,0-4.81-.88c-.32.23-2.18,1.1-1.2.66-1.42.65-2.84,2.07-2.61,3.38A5.65,5.65,0,0,0,581.38,403.27Z" transform="translate(-455.35 -140)"/><path class="cls-12" d="M596.78,296.87c.66,4.47,7.86,5.79,11.58,2.18a9,9,0,0,1,3.71-2c2.19-.76,5-1.31,6.34-3.28.22-.1.33-.32.55-.53a2.62,2.62,0,0,0-.66-3.83,5.25,5.25,0,0,0,.76-1.64c.66-2.62-3.16-5.46-7-3.72a98.52,98.52,0,0,0-9.38,4.81C599.3,290.86,596.34,293.7,596.78,296.87Z" transform="translate(-455.35 -140)"/><path class="cls-12" d="M627.91,271.75c.22.21.44.32.55.54,1.31,1.09,3.28,1.2,5.36,1a9.11,9.11,0,0,0,4.79-.23c4.38-1.42,8.64-2.72,13.11-3.71,2.41-.55,5-1,7.43-1.53a22.82,22.82,0,0,0,3.39-1.2c.22-.11.55-.22.76-.32a2.22,2.22,0,0,1,.55-.23c1.21,0,1.76-1.09,1.21-1.74-.34-.44-.55-1.42-1.31-2.08a11.86,11.86,0,0,0-3.28-1.64c-3.39-1-7.32-.43-10.7.12A80.4,80.4,0,0,0,636,264.64a5,5,0,0,0-1.42.23c-2.84.76-5.25,1.74-6.67,3.71A2.37,2.37,0,0,0,627.91,271.75Z" transform="translate(-455.35 -140)"/><path class="cls-12" d="M703.84,369.07a6.18,6.18,0,0,0,2.39,2.73c1.76,1.42,5.14,1.65,6.78,0,2.18-2.18.44-5-2.29-6.44a6.27,6.27,0,0,0-5.25.22C704.05,366.46,703.29,367.76,703.84,369.07Z" transform="translate(-455.35 -140)"/><path class="cls-12" d="M657,373.88a11.4,11.4,0,0,0,.22,2.73c.54,2.41,5.68,3.28,8,1.42a12.17,12.17,0,0,0,1.32-1.21,2.4,2.4,0,0,0,.87-.53,4.23,4.23,0,0,1,1.42-1.1c-.11,0,1.09-.43,1.2-.55.43-.11.87-.32,1.21-.43h.1a6.27,6.27,0,0,1,1.32-.11c2.18.11,3.38-1.43,3-2.73A4.53,4.53,0,0,0,674,369c-1.53-1.74-4.38-2.84-7.77-2.5a13.68,13.68,0,0,0-4.91,1.63,6.22,6.22,0,0,0-2.84,1.74h0a7.85,7.85,0,0,0-.77,1.21A3.92,3.92,0,0,0,657,373.88Z" transform="translate(-455.35 -140)"/><path class="cls-12" d="M692.15,397.7c.1,1.63,2,3.16,4.15,3.71a4.61,4.61,0,0,0,5,.1A11,11,0,0,0,704.6,398a5.52,5.52,0,0,0,1.1-1.53h-.12c.65-2.07-1.42-4.26-4.15-4.7a9.93,9.93,0,0,0-4.69-3.28,2.43,2.43,0,0,0-2.3.23C690.94,390.81,692.15,394.74,692.15,397.7Z" transform="translate(-455.35 -140)"/><path class="cls-12" d="M666.37,412.12c1.31,2.72,5.13,5.13,9.06,5.78,6.89,1.09,11.25-5.57,4.92-8.19-.55-.22-1.21-.44-1.75-.66-.11,0-.11,0-.22-.11-.44-.33-1-.54-1.53-.87-.76-.44-.87-.44-.21-.1a9.17,9.17,0,0,0-1.43-.78h0a4.34,4.34,0,0,1-1-.54,2.3,2.3,0,0,0-.66-.44,9.68,9.68,0,0,0-3.28-1.31,4.37,4.37,0,0,0-3.16.55C664.72,407.63,665.49,410,666.37,412.12Z" transform="translate(-455.35 -140)"/></g><g class="cls-13"><path class="cls-14" d="M590,264.75c-9.07-4.37-19,5.79-21.63,10.71-2.29,4.26-3.93,15.18,4,17.47,6.89,2.08,10.81-8.73,12.12-11.69a33.79,33.79,0,0,1,5.58-8.3C592.19,270.44,594.27,266.72,590,264.75Z" transform="translate(-455.35 -140)"/><path class="cls-14" d="M586.74,360.66c-1-1.74-1.65-3.49-2.63-5.13-1.52-2.52-7.32-1.75-8.08.66-1.21,4,1,11,8,11.46a3.91,3.91,0,0,0,2.84-1.19C588.37,364.81,587.82,362.31,586.74,360.66Z" transform="translate(-455.35 -140)"/><path class="cls-14" d="M688.1,406.87c-3.05-2.18-8,.21-10.7,1.53-3.93,1.86-7.43,4.7-9.06,7.87-.78,1.63,1,3.92,3.49,4.26A20.1,20.1,0,0,0,685.7,417a9.43,9.43,0,0,0,3.5-4.91C689.63,410.47,690.07,408.29,688.1,406.87Z" transform="translate(-455.35 -140)"/><path class="cls-14" d="M760.85,349.63a3.28,3.28,0,0,0-2.5,0c-5.36,2.94-8.75,9.29-4.81,13.65,2.84,3.18,9.39,3.18,12.23,0C769.7,358.92,766.31,352.57,760.85,349.63Z" transform="translate(-455.35 -140)"/><path class="cls-14" d="M759.66,304.18a6.73,6.73,0,0,0-2.63-3.49c-1.86-1.42-5-1.85-7.64-1.42s-5,2.07-5.46,3.93a5.38,5.38,0,0,0-.11,3.28,5.28,5.28,0,0,0,1.19,2.95,9.29,9.29,0,0,0,6.88,2.84,9.12,9.12,0,0,0,6.89-2.84C760.2,307.79,760.09,306,759.66,304.18Z" transform="translate(-455.35 -140)"/><path class="cls-14" d="M656.76,256c-.11.1-.23.1-.34.21A1.52,1.52,0,0,0,656.76,256Z" transform="translate(-455.35 -140)"/><path class="cls-14" d="M648.88,247.06c-4.91,0-9.61,2.18-10.15,5.57l-.12.11c-1.19,2.18,1.32,4,4.17,4.59a22.09,22.09,0,0,0,3.81.43c.55,0,3.71-.32,2.08-.22-1.1,0,1.75-.1,1.86-.1h.87a27.19,27.19,0,0,0,2.84-.45,18,18,0,0,0,2.52-1,3,3,0,0,0,1.52-1.53C659.81,250.34,654.57,247.06,648.88,247.06Z" transform="translate(-455.35 -140)"/><path class="cls-14" d="M673.47,216a10.28,10.28,0,0,0-3.18-1.2,22.73,22.73,0,0,0-2.83-.22,12,12,0,0,0-4.48.88c-1.42.54-2.62,1.52-2.73,2.83s1.19,2,2.73,2.31a18.4,18.4,0,0,0,2.51.65,20.79,20.79,0,0,0,4.48.66,5.35,5.35,0,0,0,4.48-2.09A2.69,2.69,0,0,0,673.47,216Z" transform="translate(-455.35 -140)"/><path class="cls-14" d="M590.89,404.58c-1.1-.78-2.73-.12-2.85.87-1.09,6,3.72,14.85,12.45,16.93a2.71,2.71,0,0,0,2.84-1.09C606.5,415,596.13,408.61,590.89,404.58Z" transform="translate(-455.35 -140)"/><path class="cls-14" d="M708.86,457.34c-5.13-2.08-11.69-.77-16.93.44-3.61,1-12,3.6-9.06,7.42s11.24,2.73,15.83,1.86c5.35-1,11.47-3.83,11.47-8.09A2,2,0,0,0,708.86,457.34Z" transform="translate(-455.35 -140)"/><path class="cls-14" d="M757.58,429.59c-5.35.11-10.92.77-14.2,3.82-2.63,2.52-4.92,6.88-3.39,9.95a3.27,3.27,0,0,0,3,1.63c4.25.32,9.29-2.29,11.91-4.37,2.08-1.64,3.27-3.27,3.5-5.57a7.8,7.8,0,0,1,1.31-3.61C760.2,430.57,758.78,429.59,757.58,429.59Z" transform="translate(-455.35 -140)"/><path class="cls-14" d="M835.69,354.43c-2.09-1.2-5.91-1.42-7.22.66-1.74,2.62-2,5.57-2.29,8.41s-1.2,4.91-.44,7.54c.55,1.86,3.28,3.06,5.8,3.17A9.81,9.81,0,0,0,841.9,365,12.65,12.65,0,0,0,835.69,354.43Z" transform="translate(-455.35 -140)"/><path class="cls-14" d="M829.68,330.63a14,14,0,0,0-6.23-8.75l.65-1c-1.41,2.74,2-2.3,2-2.3a7.7,7.7,0,0,0,.33-3.49,17.66,17.66,0,0,0-3.94-8.63,28.17,28.17,0,0,0-7-5.69c-1.53-.87-5.68-2.39-6.44-3.81A10.82,10.82,0,0,0,806,293.8c4.6-6.44,3.72-15.61-4.36-20.52-2.51-1.42-7-2.08-9.39,0-5.36,4.8-5.8,11.14-4,16.92-4.16-.32-8.41,1.1-9.51,4.38-1.86,5.68-.32,11.46-.66,17.37-.54,9.17,18.58,10.48,22.29,2.07a16.57,16.57,0,0,1,.88-1.54,1.86,1.86,0,0,0,.54.34c2.4,1.63,2.83,3.05,4,5.23a9.61,9.61,0,0,0,3.06,3.72c.66.45,6.66,3.17,3.39,1.32a9.66,9.66,0,0,0,4.8,1.31c-.11.43-.11.76-.22,1.19a.85.85,0,0,0-.11.55l.11.11a10.63,10.63,0,0,0,.87,4.48,6.67,6.67,0,0,0,.78,1.53.58.58,0,0,0,.21.44c1.21,2.29,2.63,7.42,7.43,6.78C831.09,338.82,830.22,333.13,829.68,330.63Z" transform="translate(-455.35 -140)"/><path class="cls-14" d="M671.5,393c-4.26-1.53-8.74-2-13.22-3.07s-7.54-3.49-11.58-4.79c-3.39-1.21-9,.1-8.52,3.37,1.53,10.06,21,17.15,33.32,11.92C675.33,398.78,675.65,394.52,671.5,393Z" transform="translate(-455.35 -140)"/><path class="cls-14" d="M767.41,528.45c-4.26-1.64-8.74-2-13.22-3.06-4.25-1.09-7.43-3.5-11.47-4.81-3.49-1.19-9.06.12-8.62,3.39,1.52,9.94,21,17.15,33.31,11.9C771.23,534.24,771.67,530,767.41,528.45Z" transform="translate(-455.35 -140)"/><path class="cls-14" d="M565,387.75a1.86,1.86,0,0,0-.44-1.19,9.26,9.26,0,0,0-5.13-2.52,4.42,4.42,0,0,0-2.39.11,19.28,19.28,0,0,0,2.07-2.08c2.51-2.62.66-6.44-3-8s-6.88-1.2-10.91-.55c-.44.11-1.43.22-2.3.33a11.56,11.56,0,0,0-7.32-2.4,7.52,7.52,0,0,0-1-5.9c-1.32-1.87-4.6-2.08-7-1.32-4.6,1.42-6.34,5.36-7.76,8.53-1.63,3.6-3.06,7.75-1.86,11.57,1.31,4.38,6.12,7.54,12.56,7.65,5.69.12,9.07-1.85,11.14-4.69.34,0,.55.11.88.11a44.18,44.18,0,0,0,10.7-1.86c.45-.11.77-.11,1.21-.22a1.83,1.83,0,0,0,.55,2.62c.11,0,.11.11.21.11a2.58,2.58,0,0,0,1.21.87,12.63,12.63,0,0,0,2.18.55,2.57,2.57,0,0,0,1,.22c.22,0,.33,0,.44.1h1.74a5.41,5.41,0,0,0,1.86-.43C564.45,389.06,565.1,388.41,565,387.75Z" transform="translate(-455.35 -140)"/><path class="cls-14" d="M567.83,444.55c-.32-.21-.76-.54-1.08-.76.76-2.84-2.52-5.57-6.67-5.57.66,0-1.53-1.21-2.08-1.53-2.83-2.29-7.86-1-9.06,1.63-.11.34-.33.55-.44.89a43,43,0,0,0-6.12-8.09c-3.06-2.95-9.72-2.08-9.94,1.86-.55,7.64,4.92,18.35,14.53,22.6,4.15,1.76,10.27.12,11.47-3.27l.33-1.31a16.33,16.33,0,0,0,6.88-.44C569.25,449.69,570.67,446.63,567.83,444.55Z" transform="translate(-455.35 -140)"/><path class="cls-14" d="M744.47,487.37h-.11a7.84,7.84,0,0,0-2.62.77,34,34,0,0,0-3.49,1.2c-1.76.44-3.83.55-5.47.87-2.62.66-5.35,1.21-8,1.86-1.42.44-2.95.87-4.48,1.31a14.19,14.19,0,0,0-5.35-2.07c-3.83-.66-7.54-2.08-11.48-1.86-4.36.22-7.64,4.27-5.57,7,2,2.51,4.38,4.92,8.3,5.9,2.52.66,7,.76,9.51-.44a5.33,5.33,0,0,0,3.39,2.3c4.59,1.74,10.82,1,15.5-.22,6-1.42,13.77-3.82,17.26-7.65C755.94,492,750.7,486.72,744.47,487.37Z" transform="translate(-455.35 -140)"/><path class="cls-14" d="M815,436.9c2.61-4,5-8.4,3.82-12.22a3,3,0,0,0-3-1.54c-7.54.23-12.24,5.69-15.62,10.38a10.06,10.06,0,0,0-2.63-1.85,6.89,6.89,0,0,0-5.13,0c-3.39,1.19-4.7,3.92-6.66,6-2.08,2.41-5.13,4.15-8.08,6-6.67,4,.43,11.9,8.52,10.27.76-.22,1.63-.32,2.51-.55-.22,1-.44,2.08-.65,3.17-.34,2.63,4.25,3.82,7.09,2.84A23.29,23.29,0,0,0,806.74,451a36.46,36.46,0,0,0,6,.22c3.83-.22,6.12-1.74,7.54-4.15C822.58,443.36,821.7,437.89,815,436.9Z" transform="translate(-455.35 -140)"/><path class="cls-14" d="M739.44,238.76c0-.11.11-.22.23-.34C739.77,238.1,739.77,238.1,739.44,238.76Z" transform="translate(-455.35 -140)"/><path class="cls-14" d="M776.58,241.92c-1.86-3.6-5.24-6.44-9.28-8.84a50.46,50.46,0,0,0-6.34-3.5,11.2,11.2,0,0,0-3-1.09c-.32-.11-3.38,0-3.82,0a5.52,5.52,0,0,0-4.15,2.18c-.1.55-.65,1.75-.65,2.08a4.82,4.82,0,0,0,.55,2.18,36.68,36.68,0,0,0-4.81.65,9.05,9.05,0,0,0-3.28,1.21,9.83,9.83,0,0,0-2.52-.66c-.1-.11-.54-.21-.21-.11a7.69,7.69,0,0,0-2.18-.21c-.55,0-.55,0-.23-.12-.22,0-.54.12-.76.12,0,0-.22,0-.22.11-1.2.1-2,.87-2,1.63-.44,1.53,2,2.73,3.71,3.17a14.91,14.91,0,0,0,2.2.22,5.38,5.38,0,0,0,3.6,4.47c6.12,2.85,13.87,1.21,20.1,3.62S779.53,247.27,776.58,241.92Z" transform="translate(-455.35 -140)"/><path class="cls-14" d="M743.82,236.13c.21,0,.43-.11.65-.11C743.82,236,743.7,236.13,743.82,236.13Z" transform="translate(-455.35 -140)"/><path class="cls-14" d="M703.84,193.1a105.44,105.44,0,0,0-11.8-4c-4.49-1.09-9.29-1.2-13.44.55-2.62,1.09-4.37,3.6-3.71,5.89-2.84.23-5.68,1-5,3a5.94,5.94,0,0,0,2.95,3v.21c.11,1.86,1.74,3.5,4.37,4a9.69,9.69,0,0,0,6.12-.66c1.42.44,2.73.87,4.15,1.42a31.26,31.26,0,0,0,6.33,2.18c6.23,1.42,10.82-3.49,9.07-7C707.55,200.19,709.07,195,703.84,193.1Z" transform="translate(-455.35 -140)"/><path class="cls-14" d="M644.41,232.75a98.21,98.21,0,0,0-11.8-4.05c-4.48-1.08-9.29-1.19-13.44.55-2.5,1.1-4.36,3.6-3.71,5.8-2.84.32-5.57,1.08-5,2.94a5.94,5.94,0,0,0,3,3.06.1.1,0,0,1-.1.1c.1,2,1.75,3.62,4.36,4.16a9.94,9.94,0,0,0,6.23-.66c1.31.44,2.73.88,4,1.31a25.44,25.44,0,0,0,6.34,2.3c6.22,1.3,10.81-3.49,9.06-7.11C648.12,239.84,649.66,234.61,644.41,232.75Z" transform="translate(-455.35 -140)"/><path class="cls-14" d="M634.58,198c-5.14-2-12-1.2-17.48-.11a52.84,52.84,0,0,0-17.37,6.44,6.13,6.13,0,0,0-1.53-.54c-.65-.11-1.2-.11-1.86-.22-.32,0-.64-.11-1.09-.11h-.54a9.25,9.25,0,0,0-4.59.87,6.3,6.3,0,0,0-3.5,3.39,3.46,3.46,0,0,0-.11,2.73,4.27,4.27,0,0,0,1.21,1.64,2,2,0,0,0,1.08.76h0a3.86,3.86,0,0,0,1.54.66c-1.86,1.2-3.83,2.41-5.69,3.61-2.84,1.74-5.24,3.05-5.78,5.79-.11.54.76,1,1.42,1,3.28.11,5-1,7.43-2.39.44-.34.87-.55,1.31-.87a8.62,8.62,0,0,0,8.62,1.19,32.9,32.9,0,0,0,6.67-3.82c1.53-1.1,3.39-2.41,4.26-3.83a15.66,15.66,0,0,0,4.91-.43c3.72-.76,6.46-2.73,9.4-4.37,2.29-1.32,3.16-3.06,3-4.69,3.39-1.1,6.88-2.2,9.28-4.05A1.47,1.47,0,0,0,634.58,198Z" transform="translate(-455.35 -140)"/></g><path class="cls-15" d="M588.16,339.25a6.44,6.44,0,0,0-4.27-3.71c.12-3.17.12-6.45-3.06-9-2.39-1.86-6.11-1.42-8.51,0-5,2.84-4.7,9.72-4.92,13.77a27.77,27.77,0,0,0,3.93,15.29c1.31,2,4.26,2.95,7.32,2.95a42.65,42.65,0,0,0,7.21,7.43,3.45,3.45,0,0,0,4-.44C596.34,357.5,591,347.44,588.16,339.25Z" transform="translate(-455.35 -140)"/><path class="cls-15" d="M694.66,401.74l-.12.11h.12Z" transform="translate(-455.35 -140)"/><path class="cls-15" d="M727.21,389.06a23.77,23.77,0,0,0-2.3.76h-.21a83.38,83.38,0,0,0-8.2,3.62c-.54.21-1.08.43-1.52.64a15.79,15.79,0,0,0-4.6-.64c-5.67,0-9.61,2.61-12.77,5.57-1,.87-2,1.85-3,2.73.54-.23.77.21,0,.11-.22.21-.55.43-.77.65-1.3,1.3.77-1.09,0,0a1.81,1.81,0,0,1,.65-.65l-.1-.11c-6.34-1.65-14.2,1.19-16.61,5.24-.65,1.2.11,2.94,1.42,3.82,7.11,4.26,20.43,6.45,28,1.32a13.37,13.37,0,0,0,1.85-1.65,14.92,14.92,0,0,0,9.08-.44c4.47-1.85,8.07-4.47,12.33-6.55,1.54-.55,3-1.08,4.38-1.74C743.93,397.8,738.13,386.11,727.21,389.06Z" transform="translate(-455.35 -140)"/><path class="cls-15" d="M692.91,435.27c-7.54-3.6-16.27-4.26-25-3.17a51.37,51.37,0,0,0-10.06,2.19.38.38,0,0,1-.21.11c-1.53-.55-3.28-1.1-4.81-1.65-6-2.07-11.9-2.39-17.92-.21-7.09,2.51-5.23,8.85,0,11.58a22.32,22.32,0,0,0,9.73,2.18,1,1,0,0,0,.54-.1,27.67,27.67,0,0,0,3.06,1.41,17.77,17.77,0,0,0,12.57,3.17c11.46,1.75,25.33,1.53,34.19-4.15C700.23,443.36,698,437.79,692.91,435.27Z" transform="translate(-455.35 -140)"/><path class="cls-15" d="M728.08,417.9c.77.43.88.55.11.11a2.73,2.73,0,0,0-1.63-.55A8.86,8.86,0,0,0,725,417a44.87,44.87,0,0,0-5.34-.33,15,15,0,0,0-9.19,1.75,1.16,1.16,0,0,0-.54.43,10.24,10.24,0,0,0-3.17,1.86c-3.28,2.84-4.26,7.21,0,10.06,3.83,2.39,10.59,2.94,14.31,0a27,27,0,0,0,3.17-2.63h0a12.12,12.12,0,0,0,2-2.18.37.37,0,0,0,.11-.23c.44-.32,1.31-1.42,1.86-2a11.24,11.24,0,0,1,1.1-1.09,2.65,2.65,0,0,0,.43-.66c.33-.54.33-.54,0,.11C731.69,421,730.71,418.33,728.08,417.9Z" transform="translate(-455.35 -140)"/><path class="cls-15" d="M792.09,376.18c-1.19-2.63-6.55-10.06-12.12-8.42-4.81,1.54-4.36,8.53-5.25,11.47-.76,2.52-2.39,5-1.74,7.76.87,3.6,5.68,6.11,11,5.14C793.74,390.27,794.82,381.86,792.09,376.18Z" transform="translate(-455.35 -140)"/><path class="cls-15" d="M682.09,265.4c-13.43-2.73-33.74,0-37.79,10.71-1.64,4.37,3,7.87,8.85,8.2a64.89,64.89,0,0,0,13-.88c1.21-.22,2.41-.43,3.62-.77v0h0c.53.44,1.52,1.21,1.74,1.42.87.66.33.23,1.31,1,2.84,2.29,6,2.51,8.41-.33,1.1-1.31,2.08-2,2.84-3.93a6,6,0,0,0,.33-3.38C689.74,274.7,690.62,267.16,682.09,265.4Z" transform="translate(-455.35 -140)"/><path class="cls-15" d="M702.08,311.72c-5.57-4.26-17.69.12-14.53,5.9,2.08,3.61,6.46,6.78,5.91,10.27s-1.42,6.89-2.29,10.16c-.55,1.86.64,3.82,3.49,4.37a15.8,15.8,0,0,0,18.24-12.56C714.1,322.54,709,316.86,702.08,311.72Z" transform="translate(-455.35 -140)"/><path class="cls-15" d="M632.28,323.09a12.19,12.19,0,0,0-2.95-.11c-7.53.87-10.7,8.3-11.58,12.67-.32,2.18,1.75,4.36,4.59,5.57.87,2.51,2.19,5.13,4.26,6.66.11.11.11.33.22.44.77,2.07,5.25,2.18,6,0a25.6,25.6,0,0,0,1.63-3.17c.55-1.52.88-3.06,1.43-4.59.11-.21.22-.55.33-.76a15,15,0,0,0,7.64-8.3C646.05,325.93,639.16,322.32,632.28,323.09Z" transform="translate(-455.35 -140)"/><path class="cls-15" d="M686.24,379.34c-4.15-1.42-8.3-2.4-12.56-3.5-1.85-.54-3.49-.87-5-1.41-2.18-1.32-4.26-2.74-6.33-4.26-8.2-6.23-22.62,1.74-16.61,8.95a26.44,26.44,0,0,0,13.22,8.08,6.46,6.46,0,0,1,1.2.44.4.4,0,0,1,.33.11h0c.87.22,1.63.55,2.4.66a11.76,11.76,0,0,0,4.81.22c6.55.32,12.78-1.31,18.56-3.39C689.41,384.15,689.41,380.44,686.24,379.34Z" transform="translate(-455.35 -140)"/><path class="cls-15" d="M757.36,256.34c0-3.39-4.05-6.44-9.07-6.34h-5.13a82.87,82.87,0,0,0-5.14-7.53,6.26,6.26,0,0,0-1-6.34c-2.41-3.17-6.77-4.91-11.36-6.12-1.32-.32-2.72-.65-4.15-.87-4.92-1.86-12.46-3.6-16.61-.44a5.67,5.67,0,0,0-1.08,1.21,11.72,11.72,0,0,0-6,4.25c-2.83,4.49.34,10.71,8.52,10.38,4.59-.11,8.3-.21,11.58,1.31a11,11,0,0,0,3.07,2.29,42,42,0,0,1,4.69,6.23c1.75,2.62,3.72,5.14,7.43,6.78a19.17,19.17,0,0,0,5.57,1.42,5.82,5.82,0,0,0,1.31,3.82,10.18,10.18,0,0,0,8.3,3.82C756.7,270,757.46,260.6,757.36,256.34Z" transform="translate(-455.35 -140)"/><path class="cls-15" d="M820.72,353c-1.31-2.18-2.73-4.15-4.05-6.22-.44-.77-1.31-2.29-1.52-2.63a10.5,10.5,0,0,0-1-1.85c-.22-.22-.43-.54-.66-.65a6.16,6.16,0,0,0-6.11-2c-5.35,1.09-7,4.15-7.21,7.54-1.64,1.42-2.29,3.39-1,5.24s3,4.48,2.73,6.56c0,.21,0,.32-.33.53-.77.66-2.51.78-3.71.89-6,.54-10.49,4.58-7.1,8.73,1.85,2.3,6.33,8.19,11.25,7.21a11.28,11.28,0,0,0,2.29-.87,9,9,0,0,0,2.29,1.74,11.47,11.47,0,0,0,11.26-.44C828.36,371,825.42,360.34,820.72,353Z" transform="translate(-455.35 -140)"/><path class="cls-15" d="M761.29,450.24c-3-3.61-10.92-4.59-15.18-1.31-5,3.81-11.91,5.89-18.36,8.41-4.91-1.32-9.83-1.21-15.4-1-6,.32-11.25,6.21-5.57,9.49a33.16,33.16,0,0,0,8.2,2.95c1.08.33,2.18.55,3.28.88l2.73.87c.87.22,1,.22.43,0-1.21-.32-.55-.1,1.86.55A76.82,76.82,0,0,0,744,473c7.33-.32,15.08-1.74,19.23-6.33C768,461.38,765.34,455.26,761.29,450.24Z" transform="translate(-455.35 -140)"/><path class="cls-15" d="M792.32,424.13a7.73,7.73,0,0,0-4.15-4.81c-2.52-1.31-6.89-1.86-9.29,0-.22.22-.44.32-.54.55a8.93,8.93,0,0,0-5.57,3.27c-2,3-3.51,5.69-3.28,9s3.16,6.56,7.86,7.21c4.48.77,9.83-.44,12-3.38C792.09,432.32,793.4,428.17,792.32,424.13Z" transform="translate(-455.35 -140)"/><path class="cls-15" d="M580.18,398.23c-4.37-5-13.66-3.81-16.93.55-5.25,4.05-4.48,11.14-3.49,16.18,1.08,6.44,4.79,12.56,13,16.05,6.22,2.62,14-.76,14.2-5.68C587.28,416.38,586.85,406.11,580.18,398.23Z" transform="translate(-455.35 -140)"/><path class="cls-15" d="M627.15,468.48c4.7-2.73,5.46-9-.66-11.91-8-3.72-14-9.17-21.73-13.11-4.59-2.3-11-.44-13.76,2.51-6.56,7-3.62,15,4.58,20.54,6.22,4.38,16.83,10.27,26.22,9.4,4.69-.34,7.21-2.73,6-6.12A7.31,7.31,0,0,0,627.15,468.48Z" transform="translate(-455.35 -140)"/><path class="cls-15" d="M673.13,482.35c-1.63-2.18-5.67-2.29-8-.76-.54.44-1.86,1.31-2,1.42a7.26,7.26,0,0,1-1,.33c-.33.11-.78.21-.78.21-.21,0-.53.11-.87.11H656.1c-.33-.11-2.18-.21-2.08-.21a10.5,10.5,0,0,0-1.86-.11,33.86,33.86,0,0,0-3.49,0c-3.28.32-7.75,1.42-7.54,4.26.44,5.34,13,8.62,19.55,8.73C671.39,496.55,678.17,489,673.13,482.35Z" transform="translate(-455.35 -140)"/><path class="cls-15" d="M634.8,225.31a4.28,4.28,0,0,0-.11-.53,4,4,0,0,0-.87-1.42c0-5.14-9.51-9.19-15.52-4.7-2.4,1.74-4.47,3.82-6.67,5.68l-1.3,1c-2.41,1-4.7,2-6.77,3.07-8.2,4-3.28,12.88,6.88,11.46.55-.1,1-.21,1.42-.32a4,4,0,0,0,1.86.44c4.26.22,8.08-2.73,10.59-4.7,1.42-1.2,2.63-2.41,3.82-3.6,1-.44,2-1,3-1.54C633.93,229.47,635.34,227.39,634.8,225.31Z" transform="translate(-455.35 -140)"/><path class="cls-15" d="M567.28,270.21c-9.28,2-14.52,10.38-16.6,16.5-2,5.68-2.4,16.83,7.65,19.22,8.74,2.08,8.42-9.39,8.95-12.89a36.21,36.21,0,0,1,2.74-9.28c1.42-3.28,4-6.44,4-9.95C574.06,271.42,570.67,269.56,567.28,270.21Z" transform="translate(-455.35 -140)"/><path class="cls-15" d="M760.42,237.44a6,6,0,0,0-.65-2.73,12.42,12.42,0,0,0-4.16-4.8A26.58,26.58,0,0,0,744,224.78a21,21,0,0,0-7.43-.34c-2.4.55-5.78,2.19-5.46,4.26.55,3.83,4.81,5.8,8.63,8.09-.88-.55,1.09.76,1.09.76,1.54,1-.54-.21.76.66l.23.11s0,.1.21.33a3.91,3.91,0,0,0,.88,1.31,1.6,1.6,0,0,0,.22.87v1.42a4,4,0,0,0,3.6,3.28c5.24.76,10.17-1.31,12.35-4.7a1.84,1.84,0,0,0,.32-.65A4.44,4.44,0,0,0,760.42,237.44Z" transform="translate(-455.35 -140)"/><path class="cls-15" d="M538.23,351.6a10.58,10.58,0,0,0-8.41-7,.9.9,0,0,0-.22-1.21,7.47,7.47,0,0,0-3.06-2h-.11a.32.32,0,0,1-.21-.1c-.34-.11-.66-.11-1-.22a10.65,10.65,0,0,0-7.22,1.63c-3.6,2.19-4.8,6.12-4.91,9.3-.22,6.1,2.18,12.22,4.7,18,2.94,6.76,17.91,5.68,17.8-1.75,0-3.71-.11-7.54.11-11.25C537.69,355.75,538.88,353.89,538.23,351.6Z" transform="translate(-455.35 -140)"/><path class="cls-15" d="M520.65,302.22c-3.94-1.43-9.3-.77-11,3.27v.11a10.16,10.16,0,0,0-2.29,4.59c-.88,3.39,2.51,6,6.44,6.46.11.1.34.1.44.21a27.39,27.39,0,0,0,1.42,2.4c2,2.73,3.93,5.79,7.54,7.54a3.3,3.3,0,0,0,3.71-.66c1.86-2.5,1.64-5.34,2.29-8.09.87-3.49.11-6.87.55-10.26C530.26,303.86,525.24,301.89,520.65,302.22Z" transform="translate(-455.35 -140)"/><path class="cls-15" d="M829.89,309.32c2.08-1.86,3.17-4.36,2-6.33-4.81-8.41-8.74-18.91-22-22.07-4.15-1-8.85,2.18-7.31,5.13.53,1,1,2,1.52,3a10.17,10.17,0,0,0-4.59,1.85c-4.8,4.15-7.1,11.36,1.1,14.63a10.87,10.87,0,0,0,4.26.77,26.41,26.41,0,0,0,11.58,5,6.83,6.83,0,0,0-.23,1.42,5.53,5.53,0,0,0,1.1,4.26,9.72,9.72,0,0,0,2,1.53l.11.1c1.52,1.54,4.69,2.63,7.09,1.31.55-.21,3.18-1.52,1.76-1,2.18-.89,4.25-2.95,3.92-4.81A9.37,9.37,0,0,0,829.89,309.32Z" transform="translate(-455.35 -140)"/><path class="cls-15" d="M807.28,465.75c-1-6.55-11.58-8.52-17-3.28a12.85,12.85,0,0,1-5.46,2.95c-3.17,1.09-7.32,2-9.29,4.69-.22.34-.54.55-.77.88a4,4,0,0,0,.89,5.68,5.49,5.49,0,0,0-1.1,2.29c-.87,3.94,4.7,8,10.27,5.57a128.2,128.2,0,0,0,13.87-7.2C803.57,474.6,807.93,470.34,807.28,465.75Z" transform="translate(-455.35 -140)"/><path class="cls-15" d="M761.51,503.87a6.79,6.79,0,0,0-.87-.77c-1.86-1.63-4.81-1.74-7.76-1.42a12.3,12.3,0,0,0-7.09.34c-1,.32-2,.54-3,.87a9,9,0,0,0-6.44-3.72c-1.1-.11-2.19-.22-3.39-.32a4.86,4.86,0,0,0-1.31-.77,11.89,11.89,0,0,0-9.07.22,8.83,8.83,0,0,0-3.71,2.73c-3.83,1.75-6.56,4.48-6.12,8.41a3.84,3.84,0,0,0,.22,1.09,17.6,17.6,0,0,0-2.29,1,4.33,4.33,0,0,0-1.21.44,2.67,2.67,0,0,0-.76.33c-1.75,0-2.62,1.64-1.86,2.62.55.55.87,2.08,2.08,3a16.26,16.26,0,0,0,4.8,2.41c4.92,1.52,10.71.65,15.73-.22a121.6,121.6,0,0,0,20.21-5.69,14.48,14.48,0,0,0,2.08-.32c4.15-1.2,7.64-2.52,9.72-5.46C762.6,507.15,762.93,505.29,761.51,503.87Z" transform="translate(-455.35 -140)"/><path class="cls-15" d="M799.2,536.31a7.26,7.26,0,0,0-.88-.87c-1.85-1.53-4.81-1.63-7.76-1.42a12.26,12.26,0,0,0-7.09.32c-1,.34-2,.66-3,1a9.11,9.11,0,0,0-6.45-3.83c-1.09-.1-2.18-.21-3.39-.21a4.78,4.78,0,0,0-1.3-.76,11.86,11.86,0,0,0-9.08.1,10.25,10.25,0,0,0-3.71,2.84c-3.93,1.64-6.55,4.37-6.22,8.3.1.45.21.77.33,1.21-.88.32-1.75.65-2.3.87a8.71,8.71,0,0,1-1.21.44c-.32.11-.64.22-.87.32-1.63.11-2.5,1.64-1.74,2.63.55.65.87,2.07,2.08,2.94a14.81,14.81,0,0,0,4.7,2.52c5,1.42,10.8.66,15.83-.33a117.62,117.62,0,0,0,20.21-5.68,7.81,7.81,0,0,0,2.08-.32c4.15-1.21,7.64-2.52,9.72-5.36C800.29,539.59,800.62,537.62,799.2,536.31Z" transform="translate(-455.35 -140)"/><path class="cls-15" d="M650.09,359.56a11.07,11.07,0,0,0-3.6-3.92c-2.63-2.08-7.54-2.41-9.94,0-3.28,3.16-.66,7.43,3.38,9.39a8.86,8.86,0,0,0,7.64-.33C649.77,363.5,650.85,361.53,650.09,359.56Z" transform="translate(-455.35 -140)"/><path class="cls-15" d="M718.79,352.57a12.24,12.24,0,0,0-.32-4c-.76-3.61-8.3-4.7-11.58-2.19a16.16,16.16,0,0,0-2,1.86,6.36,6.36,0,0,0-1.42.87,13.58,13.58,0,0,1-2,1.64c.12-.1-1.52.55-1.85.66-.54.22-1.2.54-1.75.76h-2.07c-3.17,0-5,2.19-4.37,4.05a6.77,6.77,0,0,0,2.29,3.71c2.3,2.51,6.33,4.15,11.47,3.49a16.23,16.23,0,0,0,7.1-2.29,8.87,8.87,0,0,0,4.26-2.62h.11a12.37,12.37,0,0,1,1.1-1.64A6.27,6.27,0,0,0,718.79,352.57Z" transform="translate(-455.35 -140)"/><path class="cls-15" d="M667.13,317.62c-.1-2.51-2.84-4.7-6-5.57a7,7,0,0,0-7.43-.1c-2.18,1.31-3.49,3.27-4.91,5a9.93,9.93,0,0,0-1.42,2.29h0c-1,3.06,2.07,6.33,6.12,7a15.49,15.49,0,0,0,7,4.81,4,4,0,0,0,3.38-.22C669,327.56,667.24,321.88,667.13,317.62Z" transform="translate(-455.35 -140)"/><path class="cls-15" d="M704.92,296.32c-1.74-4-7.42-7.43-13.21-8.41-10.16-1.63-16.5,8.09-7.21,12,.76.34,1.63.55,2.62.87l.22.23c.76.43,1.53.87,2.18,1.31,1.21.55,1.31.66.44.22.66.33,1.42.76,2.19,1.09.44.22.32.22-.11-.1a6.38,6.38,0,0,0,1.42.76,4.5,4.5,0,0,0,1,.76,15.82,15.82,0,0,0,4.8,2,6.64,6.64,0,0,0,4.7-.88C707.55,303,706.34,299.49,704.92,296.32Z" transform="translate(-455.35 -140)"/><path class="cls-15" d="M730.16,197.46c.11-2.73-1.53-5.35-5.8-7.1a80,80,0,0,0-15.72-4.48c-13.65-2.61-21.52,10.82-9.5,16.07a111,111,0,0,0,17.58,6.1c4.27,1,11.58,2.41,14.64-.64C734.31,204.56,732.56,200.41,730.16,197.46Z" transform="translate(-455.35 -140)"/><path class="cls-15" d="M629.67,176.71c-7-4.48-17.38.33-23.61,3.49-5.45,3-14.53,7.87-14.63,13.11,0,1.21,1.2,2.08,2.73,2.52,6.56,1.74,15.62-2.52,21-4.81,5.57-2.41,15.4-5.35,16.27-10.38C632,179.33,631.52,177.91,629.67,176.71Z" transform="translate(-455.35 -140)"/><path class="cls-15" d="M505.9,348.86c-.22-.76-.55-1.63-.76-2.39-1.21-4.81-.23-9.84-3-14.21a3,3,0,0,0-1.63-1.2c-.87-2.08-4.81-3.61-7.54-2.74-10.06,2.84-9.62,10.82-7.86,17.81a19.78,19.78,0,0,0,2,6.44C491.15,360.88,509,357.61,505.9,348.86Z" transform="translate(-455.35 -140)"/><path class="cls-15" d="M481.76,279.61C463,275.13,459,297.53,460,305.93a6.93,6.93,0,0,0,4,5,9.58,9.58,0,0,0,3.71,4.15,4.86,4.86,0,0,0,5,0c5.13-3.06,8.2-9.83,7.76-14.42a5.46,5.46,0,0,0-2-3.82,40.1,40.1,0,0,1,6.12-12.24C486.13,282.56,484.92,280.37,481.76,279.61Z" transform="translate(-455.35 -140)"/><path class="cls-15" d="M496.29,415.93c-2.41-4.8-7.22-9.28-6.34-14.52h-.11c-.22-6-12.46-7.86-15.73-1.53-2.83,5.24-.44,10.81,3.06,15.61,2.51,3.62,10.48,10.17,17,9.62S497.6,418.56,496.29,415.93Z" transform="translate(-455.35 -140)"/><path class="cls-15" d="M559.42,467.17a5.83,5.83,0,0,0,1.42-3.5c.11-2.95-1.08-6.12-2.18-9-2.95-7.54-18.89-7.54-21.73,0-2,5.13-.12,10.6,4.15,14.86a57.45,57.45,0,0,0,6.65,5.57c1.53,1.09,4.26,1.85,5.57,2.84,2,1.53,5.68.33,5.68-1.64,0-1,1-2.18,1.1-3.27a29.74,29.74,0,0,0-.66-5.36Z" transform="translate(-455.35 -140)"/><path class="cls-15" d="M573.3,516.32a17.89,17.89,0,0,0-8-1l-2-1.64a9.25,9.25,0,0,0-5.69-2.29,2.33,2.33,0,0,0,.66-.43,6,6,0,0,0,2.3-4.27h0c1.85-11.36-26.55-16.82-31.24-4.81-2.19,5.46,3.6,10.71,10.38,12.79,1.19.32,3.71,1.08,5.46,1.52s4.36.66,6.44,1.1a8.48,8.48,0,0,0,.76,2.51,27.56,27.56,0,0,0,3.18,4.8c2.29,3.28,8.94,3.5,12.22,1.1,2.08-1.31,4.81-1.86,6.56-3.5C576.47,520.36,576.58,517.63,573.3,516.32Z" transform="translate(-455.35 -140)"/><path class="cls-15" d="M641.13,519.71c-3.16-2.08-7.54-2-11-.66a1.38,1.38,0,0,0-.66-.11,58.38,58.38,0,0,0-12.23-.65c-5,.32-9.39,1.63-11.91,4.91-2.08,2.73-1.64,6,1,8.64,1.63,1.63,5.34,2.4,7.64.65l.11-.11a8.59,8.59,0,0,1,1.74.11.64.64,0,0,1,.44.11c.66.11,1.21.22,1.87.32,1.52.34,2.94.55,4.47.89,6,1.08,14.63,2.29,20.1-.66C649.77,529.32,649.32,522.33,641.13,519.71Z" transform="translate(-455.35 -140)"/><path class="cls-15" d="M835.25,452.31a3.33,3.33,0,0,0-.77-.22A4.34,4.34,0,0,1,835.25,452.31Z" transform="translate(-455.35 -140)"/><path class="cls-15" d="M847.7,439.21a11.35,11.35,0,0,0-.66-1.65,21.1,21.1,0,0,0-1-6.33c-1-3.39-6.22-5.9-11-5.9-5.46,0-9.18,2.62-11,5.9s-.88,7.53.21,10.81a18.13,18.13,0,0,0,3.5,5.68,11.8,11.8,0,0,0,2.73,2.52c.44.21,4.7,2,4.81,2.07,3.93,1,9.28.54,11.24-2.51C849,446.2,849.12,443.13,847.7,439.21Z" transform="translate(-455.35 -140)"/><path class="cls-15" d="M865.51,367.44A8.71,8.71,0,0,0,863,363.5a6.41,6.41,0,0,0-1.63-1.19c-.23-.23-.34-.45-.55-.66-5.25-6.45-20.54-3.83-20.21,3.82a47.7,47.7,0,0,1-.12,10.48c-.76,5,7.54,8.53,13.77,7.33,1.09-.23,2.18-.34,3.28-.55,5.68-1.42,8.85-5.79,6.77-9.4A6.09,6.09,0,0,0,865.51,367.44Z" transform="translate(-455.35 -140)"/><path class="cls-15" d="M859.39,334c.11-2.73-2.41-5.14-5.8-6.12h-.11a8.2,8.2,0,0,0-6.44-.22h-.11a7.41,7.41,0,0,0-1.41.44,16.81,16.81,0,0,0-4.7,0l-1.64.32c-3,.55-6.34,2.52-6.77,4.81h0A7.24,7.24,0,0,0,832,335a4.8,4.8,0,0,0,1.86,4,3.07,3.07,0,0,0,.21,1c.55,2.63,4.81,4.7,8.2,5a14.36,14.36,0,0,0,8.62-2.08c.55-.12,1.1-.12,1.65-.23,5.23-1.2,7.43-4.47,6.54-8.19C859.6,337.07,859.39,334.67,859.39,334Z" transform="translate(-455.35 -140)"/><path class="cls-15" d="M859.94,279.17a32.23,32.23,0,0,0-4.7-3.6c-.34-.22-.66-.33-1-.55.12-4.58-7.1-7.42-12.89-6.44,3.61-.66-2.73.21-2.18.21h-.44c-4.15,0-8.19,1.86-9.51,5a5.48,5.48,0,0,0,2.52,6.67,15.22,15.22,0,0,0,3.5,1.53,10.88,10.88,0,0,0,2.29,2.85c3.49,3.16,8.3,4.47,14,4.58C858.18,289.44,864.52,283.43,859.94,279.17Z" transform="translate(-455.35 -140)"/><path class="cls-15" d="M794.06,218.66c-5.57-1-10.81-.11-16.27-.44-7-.43-12,5.14-10.27,9.4a41.4,41.4,0,0,0,4.47,7.86c1.21,1.86,4.15,3.17,7,3.6,1.86,2,5.36,3.06,8.64,3.28h.44a12.27,12.27,0,0,0,9.17-3.71,9.77,9.77,0,0,0,2.29-6,5.21,5.21,0,0,0-1.31-3.61C802.25,225.76,800.62,219.85,794.06,218.66Z" transform="translate(-455.35 -140)"/><path class="cls-15" d="M760.74,172.66a1.49,1.49,0,0,1-.32-.43A1.49,1.49,0,0,0,760.74,172.66Z" transform="translate(-455.35 -140)"/><path class="cls-15" d="M770.57,181.07c-2.18-1-4.36-2.07-6.55-3.16a11,11,0,0,0-.87-2.07,9.39,9.39,0,0,0-2.41-3.18c.66.55.22.23-1.08-1.08a15.24,15.24,0,0,0-2.3-1.1,11.57,11.57,0,0,0-10.05.87,7.75,7.75,0,0,0-2.3,2.3h0l-1,1.64a6.29,6.29,0,0,0-.1,4,4.3,4.3,0,0,0,1.74,4.15v.11a30.32,30.32,0,0,0,3,3.6,21.63,21.63,0,0,0,22,5.36C777.68,190.36,775.82,183.7,770.57,181.07Z" transform="translate(-455.35 -140)"/><path class="cls-15" d="M705.58,143.83c-2.08-.33-4.05-.44-6.11-.65-5-2.41-11.58-1.54-16.72.65-4.48,1.75-5.24,4.92-3.71,7.42-3.5,1.86-6.55,3.94-7,7.11-.11,1.2,1.2,2,2.5,2.29,4.59,1.31,9.84-.44,14.42-1a115.5,115.5,0,0,0,16.61-3.37C713.66,154.43,715,145.36,705.58,143.83Z" transform="translate(-455.35 -140)"/><path class="cls-15" d="M662.1,233.62a76.28,76.28,0,0,0-23.59,6.22c-4.15,1.86-12.78,6.12-10.7,10.5,2,4.15,10.8,3.27,15.29,2.61,8.3-1.19,16.28-3.71,24.58-5.13C680.78,245.64,675.21,231.43,662.1,233.62Z" transform="translate(-455.35 -140)"/><path class="cls-15" d="M610,266c-3.71-2.07-9.72-2.07-13.11.55a14.59,14.59,0,0,1-2,1.42s-1,.66-1.19.76a4.69,4.69,0,0,1-1,.55,50.15,50.15,0,0,0-5.36,2.63c-3.71,2.18-3.37,6.44-.76,8.95a10.72,10.72,0,0,0,5.46,2.4l.34.34c1.85,2.39,5.67,2.73,9,1.74a14.85,14.85,0,0,0,7.32-4.92,59.91,59.91,0,0,0,3.82-5.35C614.81,271.86,614,268.14,610,266Z" transform="translate(-455.35 -140)"/><path class="cls-15" d="M639.5,376A123,123,0,0,0,626.71,372a18.38,18.38,0,0,0-5-.78,9.28,9.28,0,0,0-6.88,2.73c-2.4,2.2-3.28,5.25-1.09,8a18.88,18.88,0,0,0,7.2,5.13c.66.23,1.32.44,2.08.66a7,7,0,0,0,2.18.44c1.31.11,1.53.11.77,0s-.55,0,.54.11a6.59,6.59,0,0,0,2.08,0,1,1,0,0,0,.55-.11.11.11,0,0,0,.11.11c4.8,1.42,11.14,1.09,13.87-2.63C645.61,382.39,644.52,377.81,639.5,376Z" transform="translate(-455.35 -140)"/><path class="cls-15" d="M651.4,416.7c-.55-2.73-.32-4.26-1.63-7.1a21.77,21.77,0,0,0-2-3.83,7.21,7.21,0,0,0-.77-1.08c-.33-.34-2.18-1.53-2.84-2-4.59-2.29-12-1.64-13.44,2.84.77-1.1.77-1.21.11-.11a4.2,4.2,0,0,0-.76,2.52,7.82,7.82,0,0,0,.65,2.61,25.77,25.77,0,0,0,2.41,3.94c1.85,2.73,5,4.47,8.3,6.22C645.28,422.71,652.06,420.09,651.4,416.7Z" transform="translate(-455.35 -140)"/><path class="cls-15" d="M625.08,400a1.83,1.83,0,0,1,.54.21C624.53,399.65,624.63,399.65,625.08,400Z" transform="translate(-455.35 -140)"/><path class="cls-15" d="M814.6,446.2a8.38,8.38,0,0,0-4.49-4.16,14.6,14.6,0,0,0-7.52-.65c-2.2.55-4.81,1.53-5.8,3.16-.66,1.1-1.31,2.08-2,3.17.34-.55.66-1.09,1-1.52-1,1.31-1.86,2.73-1.53,4.25a4.12,4.12,0,0,0,1.2,2.52.11.11,0,0,1-.11-.12V453a9.93,9.93,0,0,0,7.75,3,21.14,21.14,0,0,0,5.91-1.09,14.94,14.94,0,0,0,3.71-2.51,7.19,7.19,0,0,0,.88-1A5.5,5.5,0,0,0,814.6,446.2Z" transform="translate(-455.35 -140)"/><path class="cls-15" d="M746.87,334.23c-1.42-2.73-4.36-4.15-7.64-4.49a26.93,26.93,0,0,0-5.13-.1c-1.65.1-3.62,1.09-3.5,2.3a5.13,5.13,0,0,0-2.07,3.71c-1.54,5.46-4.27,17.81,5.57,18.57C744.69,355,749.16,339.25,746.87,334.23Z" transform="translate(-455.35 -140)"/><path class="cls-16" d="M773.75,287.8c-.11-1.64-1.1-3.28-3.39-4.8-3.94-2.63-8.3-5.57-13.87-6.34s-11.36,2.51-9.51,6.77a18,18,0,0,0,3.94,5.46,6.13,6.13,0,0,0,2.73,4.15c5.57,4,11.14,8.74,18.13,11.69,2.29.87,5.24-.32,5.24-2.18C777.13,297.42,776.48,292.39,773.75,287.8Z" transform="translate(-455.35 -140)"/><path class="cls-16" d="M569.8,350.94a4.91,4.91,0,0,0-2.73-3.94,6.3,6.3,0,0,0-6.23-.76,12.12,12.12,0,0,1,2-.22c-2.95.22-6.33,1.42-6.88,3.61-2.08,8.3,4.91,15,8.19,22.5,1,2.08,5,2,6,0C573.51,365.14,570.56,358.14,569.8,350.94Z" transform="translate(-455.35 -140)"/><path class="cls-16" d="M728.19,439.21a4.87,4.87,0,0,0-.55-.89c-.43-1.42-2.07-2.39-4-2.94-5.78-2-10.48,1.42-14.41,4.15-3.72,2.62-6.45,5.25-7,9.06-.32,2,2.19,4.15,4.7,4.92a10.36,10.36,0,0,0,8.3-1.2c2.52-1.53,4.7-3.28,7.22-4.7a20.17,20.17,0,0,0,4.15-2.62,6.65,6.65,0,0,0,1.85-3.39A3.6,3.6,0,0,0,728.19,439.21Z" transform="translate(-455.35 -140)"/><path class="cls-16" d="M651.62,219.21c.88-3.28-2.4-7-7.32-8.2,0-.11.11-.11.11-.22a40.13,40.13,0,0,0-12.56.33A12,12,0,0,0,629,212a15.11,15.11,0,0,0-7.11,2.84c-1.74,1.42-2.29,3.94,0,5.35a14.1,14.1,0,0,0,2.84,1.32,2.6,2.6,0,0,0,.66.87c5.57,6,16,10.48,25.34,8.74,2.84-.55,4.6-2.41,4.81-4.38C655.77,224.12,654,221.28,651.62,219.21Z" transform="translate(-455.35 -140)"/><path class="cls-16" d="M773.75,264.21c-5.47-3.49-15.51-5.25-22.29-2.52-2.3.88-4.15,3.39-3.06,5.25,2.41,4,9.18,7.65,15.29,8.73,3.83.89,8.3-.1,10.82-2.39C777.35,270.65,777.46,266.39,773.75,264.21Z" transform="translate(-455.35 -140)"/><path class="cls-16" d="M671.5,181.41c-1.1-2.73-4.7-3.71-8.41-3.28-6.67.55-14.42,3.82-17.81,8.08a1.42,1.42,0,0,0,.44,2.08c6.23,3.39,14.53.55,21-1C670.29,186.54,672.49,183.92,671.5,181.41Z" transform="translate(-455.35 -140)"/><path class="cls-16" d="M837.54,396.71a10.27,10.27,0,0,0-1.32-2c-2-1.85-6-3.39-9.28-2.4-4,.44-8.08,2.4-8.85,5.25a38.35,38.35,0,0,0-1.2,6.87c0,2.62,1.86,4.59,4.48,5.8a8.07,8.07,0,0,0,1.75,1.63,5.12,5.12,0,0,0,3.61.66,11.06,11.06,0,0,0,2.61-1c3.72-.33,7.11-2,8.09-5.14a24.41,24.41,0,0,0,1-5.89A5.42,5.42,0,0,0,837.54,396.71Z" transform="translate(-455.35 -140)"/><path class="cls-16" d="M827.82,422.6h-.11c3.6-2.51-.66-7-5.68-5.25a49.91,49.91,0,0,0-7,2.84,5.55,5.55,0,0,0-2.73-1.31,15.83,15.83,0,0,0-8.09.76,20.62,20.62,0,0,0-2.41,1.32,2.32,2.32,0,0,0-1.63,1,17.11,17.11,0,0,0-1.42,2.39l-3.39,4.7a15.57,15.57,0,0,0-2.62,2.73,6.4,6.4,0,0,0-1,2.52,17.64,17.64,0,0,0-1.42,3.38c-.55,1.64,1,2.95,3.28,3.06,6.23.43,13.54-2.07,18.45-4.36,3.17-1.54,9-4.93,8.75-8.09,1.09-1,2.51-2.08,2.51-3.39A24.75,24.75,0,0,0,827.82,422.6Z" transform="translate(-455.35 -140)"/><path class="cls-16" d="M842.78,448.06a4,4,0,0,0-2.51-3.28,10.48,10.48,0,0,0-7.54,0,10.89,10.89,0,0,0-3.16.87,15,15,0,0,0-5.47,3.71h.11a4.94,4.94,0,0,0-.55,5.9c1.86,2.95,6.56,4.7,11.15,3.82.65-.11,1.2-.32,1.75-.43a11.42,11.42,0,0,0,6-3.17c.12-.11.22-.33.33-.43C845.18,452.64,844.63,450.12,842.78,448.06Z" transform="translate(-455.35 -140)"/><path class="cls-16" d="M687.34,500.16a8,8,0,0,0-7.21-3.39c-2.3.11-4.48.32-6.77.55-3.39.43-6.23,3.27-6.12,5.57,0,.21.11.32.11.43-.32,2.41,2.07,4.48,5.25,5,.32.11.53.11.76.22,5.46,1.2,15.61,2.29,16.71-3.39C690.39,503,689.31,501.36,687.34,500.16Z" transform="translate(-455.35 -140)"/><path class="cls-16" d="M517.47,370.06a2.86,2.86,0,0,0-.76-1.86.81.81,0,0,0,.11-.44,15.09,15.09,0,0,0-1.64-3.93,5.5,5.5,0,0,0,.34-1.86,34.88,34.88,0,0,0-.78-9c-1.42-5.46-13-4.8-15,0a22.88,22.88,0,0,0-1.2,9,8.18,8.18,0,0,0,7.32,7.43H506a1.27,1.27,0,0,0,.55.77,7.16,7.16,0,0,0,1.42,1.2,6.69,6.69,0,0,0,4.8,2,6.48,6.48,0,0,0,1.53-.22H515c1.52,0,2.29-1,2.07-1.86A2.23,2.23,0,0,0,517.47,370.06Z" transform="translate(-455.35 -140)"/><path class="cls-16" d="M533.21,459.73c0-1.85-1.21-3.37-2.19-5a16.59,16.59,0,0,0-3-3,7.3,7.3,0,0,0-3-1.42c-1.31-.44-1.31-.44.11,0-.66-.23-1.42-.44-2.08-.66a9.71,9.71,0,0,0-7.09,1.31,4.15,4.15,0,0,0-2,3.93,2.64,2.64,0,0,0,0,1.31,9.06,9.06,0,0,0,.55,1.53,10,10,0,0,0,.76,1.54c.11.1.23.21.23.32s.1.21.21.32a12.14,12.14,0,0,0,2.4,3.51A7.4,7.4,0,0,0,521,465c.55.22,5.79,1.31,3.17.77a7.57,7.57,0,0,0,6.78-2A5.08,5.08,0,0,0,533.21,459.73Z" transform="translate(-455.35 -140)"/><path class="cls-16" d="M583.46,366.34c-3.28-2.51-8.2-.32-8.64,2.51-.21,1.53.34,2.95.55,4.48a7.75,7.75,0,0,0,1.31,4.27c1.53,2.61,7.54,2.4,9.28,0C588.48,374.1,587.28,369.18,583.46,366.34Z" transform="translate(-455.35 -140)"/><path class="cls-16" d="M545.34,275.67a2.81,2.81,0,0,0-.34-1.31c0-2-.32-3.92-2.4-5.46a6.18,6.18,0,0,0-5.14-1h0a9.64,9.64,0,0,0-5.13,2.95,4.72,4.72,0,0,0-1.2.76,6.92,6.92,0,0,0-1.63,2l-.34.65-.1-.1c-.11.55-.55,2.94-.22,1.09a.78.78,0,0,1-.11.43,11.77,11.77,0,0,0,1.53,7.33c1,1.86,3.71,2.73,6.33,1.74a14.74,14.74,0,0,0,7.54-5.79A4.16,4.16,0,0,0,545.34,275.67Z" transform="translate(-455.35 -140)"/><path class="cls-16" d="M785.76,212.43a8,8,0,0,0-5.35-3.28V209a7.23,7.23,0,0,1-1.53-.21.85.85,0,0,1,.44.11,9.11,9.11,0,0,0-3.06-.44,11.11,11.11,0,0,0-5,1.2c-2.4,1.31-4,3.94-3,6.12a7.07,7.07,0,0,0,4.15,3.71,11.33,11.33,0,0,0,2,.55,9.59,9.59,0,0,0,5,.21c.34,0,.66-.11,1-.11C785.22,219.53,787.51,215.38,785.76,212.43Z" transform="translate(-455.35 -140)"/><path class="cls-16" d="M598.86,496.66a11,11,0,0,0-2.73-1.09,2.82,2.82,0,0,0,.21-.88,4.13,4.13,0,0,0-2-4.25,9.74,9.74,0,0,0-7.1-1.32c-.43.11-1,.22-1.42.33a13.69,13.69,0,0,0-2.19.65,5.15,5.15,0,0,0-3,2.52,3.47,3.47,0,0,0-.44,3.28,6,6,0,0,0,3.49,3,9.23,9.23,0,0,0,3.61.65,16.24,16.24,0,0,0,2.4-.21,1.11,1.11,0,0,1,.55-.12c.77.22,1.53.44,2.4.65a23.11,23.11,0,0,0,3,.89,4.56,4.56,0,0,0,3.83-1.1,2.1,2.1,0,0,1,.32-.55A1.9,1.9,0,0,0,598.86,496.66Z" transform="translate(-455.35 -140)"/><path class="cls-16" d="M844.75,415.61a4,4,0,0,0-2.3-3.06c-.87-1.21-2.51-1.53-4.37-1.31a12.91,12.91,0,0,0-3.05.88c-1.75.64-2.41,2.29-1.64,3.49a1.61,1.61,0,0,0,.44.54,2.5,2.5,0,0,0,2.73,1.2,10.2,10.2,0,0,0,1.63-.1c-.44.1-.21.1,0,0h.11a5.58,5.58,0,0,0,.76.21.39.39,0,0,1,.23.11h.21a2.46,2.46,0,0,0,1.1.33,2.85,2.85,0,0,0,1.3.33c1.65.22,2.73-.44,3-1.53A3.68,3.68,0,0,0,844.75,415.61Z" transform="translate(-455.35 -140)"/><polygon class="cls-16" points="382.84 277.25 382.84 277.25 382.84 277.25 382.95 277.25 382.95 277.25 382.84 277.25"/><path class="cls-16" d="M828.15,280.27c-.66-1.53-2.3-4.26-4.93-4.7a5.06,5.06,0,0,0-.87-.55v-.22c-.11-.21-.43-1.42-.87-1.63v-.34c-.11-.21-.21-.54-.33-.76-1-2.4-5.24-3.17-7.86-1.42a4.11,4.11,0,0,0-1.75,2.4c-.44.23-.65.66-.11,1.1h.11c.33,2.29,2.51,4.47,5.68,4.91.66.76,1.53,1.53,2.29,2.29,1.21,1.1,2.29,2.73,4.37,3.07a1.19,1.19,0,0,0,.88-.22c1.53,0,3-.88,2.51-2.07C828,281.69,828.47,281,828.15,280.27Z" transform="translate(-455.35 -140)"/><path class="cls-16" d="M597.33,178.23a29.59,29.59,0,0,0-9.29,4.38,2,2,0,0,0-.76,1c-1.53,1-2.74,2.08-2.84,3.49,0,.34.44.66,1,.66a8.43,8.43,0,0,0,3.71-.66,4.42,4.42,0,0,0,4.47-.54c2.41-1.42,5.69-2.51,7.87-4.15C604.32,180.43,600.83,176.82,597.33,178.23Z" transform="translate(-455.35 -140)"/><path class="cls-16" d="M531.46,256.45c-3.28,3.06-6.34,7.32-5.9,11.15a1.2,1.2,0,0,0,.87.87,3.13,3.13,0,0,0,4,.43c.66-.54,1.21-1,1.86-1.53a2.19,2.19,0,0,0,2.51-1.53c.12-.65-.21-1.2.12-1.75a7.7,7.7,0,0,0,.65-1.63.7.7,0,0,0-.54-.77c.76-1,1.52-1.86,2.29-2.84C539.54,256,534,253.94,531.46,256.45Z" transform="translate(-455.35 -140)"/><path class="cls-16" d="M554,240.62a13.44,13.44,0,0,0-5.13,1.52,23.21,23.21,0,0,0-4.48,3.17,1.85,1.85,0,0,0,.1,3.17c.78,1.52,4.16,2.4,5.91.44a37.3,37.3,0,0,1,2.84-3.17,1.48,1.48,0,0,0,.21-2.19,3.83,3.83,0,0,0,1.54-2C555.17,241.05,554.72,240.62,554,240.62Z" transform="translate(-455.35 -140)"/><path class="cls-16" d="M843.66,385.9h0c.76-1.54,0-3.28-.77-4.7-1.53-2.84-7.64-1.75-6.67,1.31a30.47,30.47,0,0,1,1,6.34c.11,2.39,5.35,3.16,6.34.54a5.33,5.33,0,0,0,.11-3.17Z" transform="translate(-455.35 -140)"/><polygon class="cls-16" points="374.76 153.16 374.76 153.16 374.65 153.16 374.76 153.16"/><path class="cls-16" d="M830.11,293.16c.33.21.54.32,0,0Z" transform="translate(-455.35 -140)"/><path class="cls-16" d="M834.48,290.86a10.55,10.55,0,0,0-.88-1.42c-.11-.11-.21-.32-.32-.43s-.34-.66-.22-.33a3,3,0,0,0-3.49-1.32c-1.21.22-2.2,1.1-2.08,2a1.14,1.14,0,0,0,.33,1.42,5.57,5.57,0,0,0,.76.87v.11a2.11,2.11,0,0,0,.44.66,1.47,1.47,0,0,0,.66.54c.1,0,.21.11.32.23V293a3.31,3.31,0,0,0,2.41.55,5.38,5.38,0,0,0,1.42-.55,1.87,1.87,0,0,0,.76-1.42A1.59,1.59,0,0,0,834.48,290.86Z" transform="translate(-455.35 -140)"/><path class="cls-16" d="M507.43,462.8c-2.18-3.07-3.72-6.44-6.33-9.4a2.55,2.55,0,0,0-1.42-.87c0-.11-.12-.22-.12-.32a3.56,3.56,0,0,0-2.62-1.65,2.11,2.11,0,0,0-1.64.22c-1.31.33-2.29,1.31-2,2.62a11.13,11.13,0,0,0,1.1,3,17.73,17.73,0,0,0,5.68,8.51c.1.33.22.55.33.88.32,1.2,1.74,1.75,3.16,1.75a2.71,2.71,0,0,0,3-.78,4.26,4.26,0,0,0,.87-3.92Z" transform="translate(-455.35 -140)"/><g class="cls-17"><path class="cls-18" d="M879.38,358.92a196,196,0,0,1-18.8,102.35,201.81,201.81,0,0,1-12.12,21.84c-4.7,7.33-5.9,15.4-11.47,22.07-6.44,7.65-17.26,14-24.68,20.65S798,545,789.8,550.62c-15.29,10.49-32.87,12.89-50.47,19.11a205.63,205.63,0,0,1-70.23,12.46c-48.28,0-92.63-17.25-128.14-46.32-12.12-9.83-19.66-23.26-29.49-35.71-9-11.37-20.32-21.41-27.1-34.52a233.2,233.2,0,0,1-25.55-106.72c0-20.65-6.56-39.77-1.64-58.77,4.26-16.39,19.55-33,27.09-47.63C519.88,182.93,590.56,140,670.29,140c25,0,44.35,3.61,64.57,13,24.36,11.24,47.29,25.77,64.55,47.18C831.2,239.3,870.85,259.83,879.38,358.92Z" transform="translate(-455.35 -140)"/></g></g></g></svg>