<svg xmlns="http://www.w3.org/2000/svg" xmlns:xlink="http://www.w3.org/1999/xlink" viewBox="0 0 479.26 499"><defs><style>.cls-1{isolation:isolate;}.cls-2{fill:#ff95a4;}.cls-3{fill:url(#Áåçûìÿííûé_ãðàäèåíò_622);}.cls-4{opacity:0.74;}.cls-5{fill:#ffc3b3;}.cls-6,.cls-8{opacity:0.5;}.cls-7{fill:#ffe7e7;}.cls-8{fill:#ff7e43;mix-blend-mode:screen;}</style><radialGradient id="Áåçûìÿííûé_ãðàäèåíò_622" cx="698.99" cy="775.86" r="294.79" gradientTransform="translate(0 -152.89) scale(1 0.7)" gradientUnits="userSpaceOnUse"><stop offset="0.32" stop-color="#ff5c6c"/><stop offset="0.49" stop-color="#fc5066"/><stop offset="0.8" stop-color="#f43255"/><stop offset="1" stop-color="#ee1a49"/></radialGradient></defs><title>sausage-3</title><g class="cls-1"><g id="Layer_1" data-name="Layer 1"><path class="cls-2" d="M937.77,390A225.9,225.9,0,0,1,903,530.11c-5.3,8.34-6.7,17.4-13,25-7.17,8.62-19.44,15.66-27.84,23.24S846,600,836.7,606.41c-17.23,11.84-37,14.45-56.86,21.58a234,234,0,0,1-79.27,14c-54.47,0-104.63-19.49-144.65-52.3-13.57-11.13-22.14-26.27-33.2-40.28-10-12.79-23-24.19-30.53-39A262.4,262.4,0,0,1,463.34,390c0-23.23-7.44-44.81-1.95-66.21,4.83-18.54,22.14-37.25,30.62-53.86C532.21,191.46,611.86,143,702,143c28.19,0,50,4.17,72.86,14.79C802.28,170.41,828,186.85,847.71,211,883.52,255.07,928.19,278.38,937.77,390Z" transform="translate(-459.37 -143)"/><path class="cls-3" d="M931.5,390.11A215.32,215.32,0,0,1,911,502.52a235,235,0,0,1-13.4,24c-5.09,8.09-6.53,16.88-12.66,24.27-7,8.44-19,15.32-27.06,22.62-8.09,7.49-15.67,21.15-24.76,27.33-16.75,11.48-36.11,14.1-55.38,21a226.19,226.19,0,0,1-77.14,13.58c-53.08,0-101.93-18.89-140.82-50.81-13.31-10.79-21.58-25.59-32.37-39.16-9.87-12.45-22.36-23.49-29.8-37.94a256.58,256.58,0,0,1-28-117.28c0-22.72-7.36-43.68-1.88-64.48,4.7-18.18,21.54-36.28,29.72-52.47,39.19-76.39,116.81-123.55,204.47-123.55,27.45,0,48.64,3.91,70.91,14.27,26.71,12.35,51.9,28.36,70.92,51.86C878.69,258.72,922.1,281.34,931.5,390.11Z" transform="translate(-459.37 -143)"/><g class="cls-4"><path class="cls-5" d="M524.56,293.61c-8.84,6-10.79,16.36-12.06,24.45-1.22,7.48.18,18.19,8.44,23.58,2,1.31,6,1,6.53-1.22,1.87-7,2.52-14.53,3.61-21.58,1.13-7.39,4.74-14.35,6-21.58C537.78,292.57,528.77,290.83,524.56,293.61Z" transform="translate(-459.37 -143)"/><path class="cls-5" d="M551.09,390.89c-2-2.26-4-4.53-6-6.7-2.13-2.61-3.61-5.57-6.79-7.74-4.09-2.87-13.31-2.09-14.22,2.61-1.13,6,3.52,11.22,7.52,16.44,3.44,4.52,7.83,12.1,17.14,10.27C558.83,403.76,554.83,395.07,551.09,390.89Z" transform="translate(-459.37 -143)"/><path class="cls-5" d="M568.4,360.18c-.56-2.61-.17-5.66-.56-8.45-.53-3.39-2.4-6.52-3.53-9.92-2-6.26-2.22-13.22-6.43-18.88-1.22-1.73-5.48-2.35-7.23-.6-6.82,5.83-6,14.26-4.21,21.31.95,3.74,1.87,8.09,4.65,11.32,2.79,3.47,6.79,5.48,10.79,7.91C565,364.7,569.06,363,568.4,360.18Z" transform="translate(-459.37 -143)"/><path class="cls-5" d="M859.58,450.14a26.64,26.64,0,0,0-1.73-6.7,22,22,0,0,0,.91-6.78,6.93,6.93,0,0,0-.66-3.23c-.16-.42-1.87-3.47-1.22-2-.74-1.66-3.77-3-6.13-1.75-8.91,4.62-14.53,11.5-20,18.54-.83,1-1.74,2-2.61,3a9.39,9.39,0,0,0-.92.53c-3,1.56-1.69,1.56-4.74.17-5.48-2.44-14.35-.87-17.31,3.22a32.73,32.73,0,0,0-5.79,13.13c-1,6,9,9.93,16.15,8.62,5.08-.95,10-2.26,15.13-3.22,5.57-1,11.84-2,17-4,7-2.7,10.4-7.39,11.62-12.53A5.55,5.55,0,0,0,859.58,450.14Z" transform="translate(-459.37 -143)"/><path class="cls-5" d="M841.75,357.22a40.32,40.32,0,0,0-2-11.49c-1.3-4-3.74-6.87-6.13-10.62-1.53-2.34-7.44-1.82-8,.79-.79,3.48-2.27,6.88-2.7,10.53a61.29,61.29,0,0,0-.7,11.74c.3,6.35.47,15,7.57,19.5a4.57,4.57,0,0,0,4.35,0C841.66,372.88,841.84,363.83,841.75,357.22Z" transform="translate(-459.37 -143)"/><path class="cls-5" d="M648.8,267.51c-3.69-6.09-19.14-2.44-24.84-.17-9.31,3.91-13.88,10.26-17.4,17.14-.66,1.21.56,2.52,2.13,3a5.7,5.7,0,0,0,.74,1.21c2.61,3.14,7.49,4.09,12.23,3.57,9.87-1.39,17.09-6.88,24.1-11.57,3.53-2.35,4.09-6.18,2-9.13C649.11,270.29,649.63,269,648.8,267.51Z" transform="translate(-459.37 -143)"/><path class="cls-5" d="M660.08,476.68c-2.14-1.57-3.62-3.65-5.57-5.22-2.36-1.83-5.4-3-8-4.53-5.31-2.86-6.45-7.13-8.92-11.3-3.49-5.57-16.88-3.92-18.53,1.65-2.13,7.48,2,14.79,9.56,20a9.18,9.18,0,0,0,.92.69,6.46,6.46,0,0,0-3,3.4c-.48,2.52-.74,4.52,1.22,6.7a11.88,11.88,0,0,0,4.17,3,9.34,9.34,0,0,0,4.92,2.86c2.44,2.36,7.66,3.75,11.67,2.79a14.32,14.32,0,0,0,4.82-2c1.7-1,3.44-3.57,3.18-5.39a19.57,19.57,0,0,0-1.79-4.88C660.46,484.6,664.55,479.9,660.08,476.68Z" transform="translate(-459.37 -143)"/><path class="cls-5" d="M756.48,404.64c-1.31-2.79-6.4-5.05-10.4-3-7.27,3.74-10.7,7.74-15.18,13.14-4,4.79-9.22,9-12,14.35-1.87,3.4,2.79,7.05,7.53,7.05,10.7-.26,18-6.09,23.66-11.83C756.13,418.21,760.13,412,756.48,404.64Z" transform="translate(-459.37 -143)"/><path class="cls-5" d="M772.79,326.59A17.82,17.82,0,0,0,752,313c-2.17.34-4.69,1.82-5,3.47-1.21,5.92,3.27,11.75,5.49,17.32,2.52,6.27,6.43,10.45,12.66,15.05,1.78,1.31,5.48.44,5.39-1.57-.26-3.12,1.61-6.08,2.35-9.22A26.94,26.94,0,0,0,772.79,326.59Z" transform="translate(-459.37 -143)"/><path class="cls-5" d="M623.22,316.76c-4,.61-6.79.78-10.22,2.43a38.47,38.47,0,0,0-7.35,5.05,20.38,20.38,0,0,0-5.79,7.22,7.69,7.69,0,0,0-.66,4.09,5.68,5.68,0,0,0,1.4,3.65c.74.79,1.21,1.22,1.39,1.39,2,2.88,7.53,3.75,10.93,1.4-2.27,1.48,3.77-1.4,3.77-1.4a8.9,8.9,0,0,0,2.7-2.25,39.91,39.91,0,0,0,3.92-5.14,41.68,41.68,0,0,1,3.74-4.09c1.56-1.65,2.39-3.57,4-5.13C634.75,320.23,628.61,316.06,623.22,316.76Z" transform="translate(-459.37 -143)"/><path class="cls-5" d="M854.93,558.47c4-3.92,6.09-8.44,3.48-13.32-5.87-10.87-20.57,2.19-25.8,6a57.74,57.74,0,0,1-14.88,7.66c-3.52,1.21-8.66,2.61-11.09,5.13-.18.09-.43.17-.66.26-3.17,1-2.87,4.62,0,5.66,1.62.61,1.31.44.88.17v.09a27.29,27.29,0,0,0,3.78,1.74V572c2,3,6.79,5.06,11.62,5.23a30.78,30.78,0,0,0,4.79-.17,20.11,20.11,0,0,0,8.43,1.3c6.27-.44,12.23-3,17.4-5.31C859.58,570.13,860.89,562,854.93,558.47Z" transform="translate(-459.37 -143)"/><path class="cls-5" d="M913.66,433c-1.65-.62-4-.36-5,.86-8.43,11.4-12.09,24-8.91,36.9.65,2.08,5.17,2.26,6.65.51,5.57-6.78,12.45-11.83,15.58-19.74C924.63,444.75,923.66,436.39,913.66,433Z" transform="translate(-459.37 -143)"/><path class="cls-5" d="M871,257.68c-4.13-8.62-14.27-18.19-29-15.58-5.21.79-8,4.79-6.78,8.35,1,2.61.48,5.57,1,8.27a35,35,0,0,0,2.56,8,67.41,67.41,0,0,0,10,15.06,9.39,9.39,0,0,0,7.19,2.87c3.26-.26,5.13-.79,6.86-2.61.49.35,1,.61,1.4.87,3.26,2.09,9.31.87,9.23-2.61C873,272.47,874.6,265.33,871,257.68Z" transform="translate(-459.37 -143)"/><path class="cls-5" d="M672,183.55c-7.83-8.71-27.53-3-36.11,2.25-6.35,4-1.47,12.54,7,12.19,4-.27,10.27-.7,14-2.7h.49c3.26,0,6.35-2.17,5.87-4.52a18.9,18.9,0,0,0,8-3.49A2.51,2.51,0,0,0,672,183.55Z" transform="translate(-459.37 -143)"/><path class="cls-5" d="M566.27,244.88c-2.34-2.08-7.17-3.74-11-2.61-4.18,1-8.62,2.61-11,5.49a5.86,5.86,0,0,0-1,1.56,7.42,7.42,0,0,0-1.83.78c-5.43,2.36-8.22,6-10.44,10.1-2.78,5.31,5.79,10.53,12.92,9.05,11.48-2.35,17.79-9.31,23.19-16.19A5.7,5.7,0,0,0,566.27,244.88Z" transform="translate(-459.37 -143)"/><path class="cls-5" d="M570.93,467.37c-3.74-3.3-11.53-3.05-15.92-.69-3.74,2.17-5.31,5.31-4.36,8.43a8.34,8.34,0,0,0-2.82,4.88c-.74,5.57,4.3,12.09,10,15.75,7.35,4.61,16.75,2.25,20.19-3.83C582.81,483.64,578.72,474.16,570.93,467.37Z" transform="translate(-459.37 -143)"/><path class="cls-5" d="M632.53,595.36c-4-.86-9.39.18-12.35,2.52a32.74,32.74,0,0,1-5.31-2.08,14.39,14.39,0,0,0-15.49,1.73c-3,.88-4.52,3.49-3.79,5.75,0,.09-.08.17-.08.35-.78,4.18-.4,8.53,4.74,11.31a16.27,16.27,0,0,0,8.66,2.18,90.77,90.77,0,0,0,20.62,11.74c10.27,4,28.33,8.44,37.24.61C682.22,615.9,648.06,598.5,632.53,595.36Z" transform="translate(-459.37 -143)"/><path class="cls-5" d="M722.81,616.07c-1.31.26-2.61.43-4,.7a10.64,10.64,0,0,0-1.69-.09c-4.09,0-8.75.52-11.71.7-6.52.34-12.83,3.74-12.57,8.78.18,2.7,2,5.13,4.83,6.88,4.75,5.22,12.66,7.91,22.06,6.7,9.22-1.22,16.31-6.44,18.79-12.7C741.12,620.42,732.2,614.42,722.81,616.07Z" transform="translate(-459.37 -143)"/><path class="cls-5" d="M885.12,513.31c-6.18-.52-12,2.09-13.7,6.35a.28.28,0,0,0-.09.18c-.35.61-.65.95-.91,1.39l-.09.17A18.6,18.6,0,0,1,869.2,523a12.22,12.22,0,0,0-3.44,3.39,3.42,3.42,0,0,0-.87,2.18c-.25,1.31-.25,1.48,0,.61.22-1.48-.08,2.18.09,2.69a8.48,8.48,0,0,0,2.74,3.31,14.25,14.25,0,0,0,.44,1.91c1,3.58,6.78,6.53,11.83,6.36,5.87-.17,9.88-2.61,11.92-6.36A38.11,38.11,0,0,0,896,522C896.26,517.67,891,513.92,885.12,513.31Z" transform="translate(-459.37 -143)"/><path class="cls-5" d="M548.39,517.4c-6.61-1.57-13.87,2.61-13.66,7.39.18,5.32,3,9.75,7.14,14.1,2.35,2.35,4.3,4.36,7.65,5.92a24.42,24.42,0,0,0,3.44,1.48,21.75,21.75,0,0,1,2.22.78h.87c1.83.78,5.09.44,6-1.13s2-2.61,2.4-4.09a6.51,6.51,0,0,0,2.13-4C567.31,528.63,561.05,520.54,548.39,517.4Z" transform="translate(-459.37 -143)"/><path class="cls-5" d="M803.2,494.69c-3.44-3-8.18-3.74-13.4-3.13-9.22,1.22-15.62,6.35-22.14,10.52a.33.33,0,0,1-.18-.08,8,8,0,0,0-6.35,1c-4.83,2.7-5.39,7.83-3.52,11.66,2.13,4.26,8.92,8.09,15.74,6.35a42.53,42.53,0,0,0,15.23-7.57,38.24,38.24,0,0,0,15.58-8.71C807.2,501.91,806,497.22,803.2,494.69Z" transform="translate(-459.37 -143)"/><path class="cls-5" d="M704.75,539.76c-9.87-8.26-28-6.88-41.5-8.52-7.66-1-16.58,2.26-16.1,8.61.26,3.91,1.4,6.7,3.69,10.27,2.36,3.74,9.06,4.69,14.06,4a17.34,17.34,0,0,0,5.05-1.48c8.74,3.05,19.71,3.39,29.41,1.66S710.5,544.64,704.75,539.76Z" transform="translate(-459.37 -143)"/><path class="cls-5" d="M746.73,173.11c-12.13-4.18-30.15-3-40.11,3.47-4.3,2.88-1.61,7.32,3.26,8.53,10.49,2.79,27,.35,36.85-3.13C751.39,180.23,751.56,174.75,746.73,173.11Z" transform="translate(-459.37 -143)"/><path class="cls-5" d="M579.11,430.82a12.74,12.74,0,0,0-6.62-3.65,6.19,6.19,0,0,0-1.65-1.92c-5.05-4.34-14.79-3.21-17.49,2.19a6.07,6.07,0,0,0-1,3,12.53,12.53,0,0,0,.08,1.73,13,13,0,0,0,1.79,6c3.17,5.3,13.78,7.39,20.57,4.17C580.06,439.79,582.76,434.83,579.11,430.82Z" transform="translate(-459.37 -143)"/><path class="cls-5" d="M901.75,333.72a23.6,23.6,0,0,0-7.79-11c-3-2.35-9.05-5.83-13.71-3.31-6.78,3.66-6.22,9.84-4.83,15.23a18.44,18.44,0,0,1,.39,6c-.13,2.44,1.22,4.79,1.4,6.88.17,3,3.52,6,8.09,5.74,5.48-.35,10.05-1.57,13.87-4.53C904.44,344.51,903.83,338.86,901.75,333.72Z" transform="translate(-459.37 -143)"/><path class="cls-5" d="M521.68,439a22.17,22.17,0,0,0-2.22-7.3c-2-4.18-3.26-7.58-7.74-10.88-2.78-2-7.7-1.91-10.49,0-6.35,4.27-5.69,10.18-3.08,15.57a16.92,16.92,0,0,0,7.52,8.1c3.92,2,6.83,2.43,11.57,2.52,2.14,0,3.7-1.31,3.79-2.7C521,443.36,521.86,440.75,521.68,439Z" transform="translate(-459.37 -143)"/><path class="cls-5" d="M666.51,525.23c2.7-2.7-.13-6.44-4.22-7.22h0c-3.69-1.47-7.87-1.91-13.18-1a76.66,76.66,0,0,0-11.75,3.14c-9.09,3.22-4.91,14.18,5.23,13.75a85.76,85.76,0,0,0,12.57-1.66,21,21,0,0,0,7.61-3.13c1.7-1.48,2.13-1.91,1.39-1.31s-.26.27,1.22-1.13C665.86,526.19,667.73,524,666.51,525.23Z" transform="translate(-459.37 -143)"/><path class="cls-5" d="M758.52,471.37a5.36,5.36,0,0,0-.43-2.7,8.36,8.36,0,0,0-1.13-1.74c-.39-.51-1.4-2.17-.74-.69-1.05-2.17-4.4-2.61-6.62-1.3a14.27,14.27,0,0,0-4.3,1.91c-2.48.78-4.62,2.44-6.57,3.57,0,0-.57.43-.87.6s-1.92,1-2.22,1.22a10,10,0,0,0-1.87,1.39,6.54,6.54,0,0,1-.74.61l-.18.18c-3.17,2.08-3.61,5.57-1.56,8,2.13,2.61,6.39,3.66,10.48,3.14a28.59,28.59,0,0,1,3-.35,15.94,15.94,0,0,0,3.44-1.13,19,19,0,0,0,5.4-3.14C756.57,478.6,759.65,474.68,758.52,471.37Z" transform="translate(-459.37 -143)"/><path class="cls-5" d="M798.72,383.4a28.25,28.25,0,0,0-2.87-5.56c-1.13-1.57-2.79-2.36-4.48-3.57a5.2,5.2,0,0,0-4.92,0c-2.52,1.57-4.48,2.61-5.57,5a17.12,17.12,0,0,0-1.61,7.92c.39,6.26,7.83,13.74,17.23,8.7C801.42,393.06,800.16,387.06,798.72,383.4Z" transform="translate(-459.37 -143)"/><path class="cls-5" d="M808.68,291.26c-.65-2.69-2-4.61-4.09-7-3.61-4.26-8-7-13.87-9.66-3.79-1.73-10.05.44-9.58,3.83A22.59,22.59,0,0,0,795.85,297a14,14,0,0,0,3.44,1.48c.56.08,5.21.16,3.65,0,2,.16,4.57-.44,4.91-2C808.25,294.65,809.16,293.35,808.68,291.26Z" transform="translate(-459.37 -143)"/><path class="cls-5" d="M682.52,293.79a68.81,68.81,0,0,0-17.7,8.26c-5,3.3-11.05,6.79-11.71,11.83-.22,1.05,1.48,1.75,2.7,1.48,6.31-.95,10.57-4.95,15.05-8a132.17,132.17,0,0,0,14.45-10.1C686.87,295.87,685.48,293,682.52,293.79Z" transform="translate(-459.37 -143)"/><path class="cls-5" d="M624.52,401.07c-4.16-4.79-8.65-9.58-12.83-14.36-2.78-3.22-9.05-1-8.22,2.26,1.44,5.4,4.7,10.62,8.48,15.41,3.83,4.6,6.61,9,13.71,11.48,1.56.61,4.26.26,4.66-1.31C631.62,409.07,628.45,405.77,624.52,401.07Z" transform="translate(-459.37 -143)"/><path class="cls-5" d="M716.46,390.71c-.74-1.74-3.35-2.17-5.31-1-7.7,4.44-12.92,12.1-11,19.15.65,2.52,5.87,3.39,8.18,1.55C714.54,405.42,719.72,397.41,716.46,390.71Z" transform="translate(-459.37 -143)"/><path class="cls-5" d="M764.13,239.93c-.39-10.44-17-17.05-29.53-19.58-6.58-1.3-14.88-2.27-21.58-.79-3.14.62-6.31,1.48-9.49,2.1-3.82.87-5.78,2.35-9.3,3.56-2.88,1-2.22,4.44.95,5,2.48.35,4.74,1.3,7.23,1.65s5.3.53,7.82,1.13c1.7.35,3.27.62,4.92.88a1,1,0,0,0-.17.25,7.3,7.3,0,0,0-1.13.88,6.57,6.57,0,0,0-2.57,3.3,11,11,0,0,0-.57,2.7,4.51,4.51,0,0,0,1.57,3.83l.09.17c.12.26.3.44.39.61a4.93,4.93,0,0,0,2.22,3.66,10.86,10.86,0,0,0,8.09,1.48c.21-.09.39-.09.56-.18a15.08,15.08,0,0,0,6.79-2.52h.3l.92-.26a.63.63,0,0,1-.18.43,10.36,10.36,0,0,0-3,1.4,13.06,13.06,0,0,0-3.52.78c-2.05.61-3.35,2.87-2.52,4.35,2,3.65,5.22,5.74,10.52,7.14a32.57,32.57,0,0,0,13.58.95c1.13-.26,2.17-1.13,2-1.92a9.43,9.43,0,0,0-2.66-5.31,18.94,18.94,0,0,0,5.75-2.69c3.44-2.44,5.31-5.22,5.78-8.26C761,244.54,764.31,242.62,764.13,239.93Z" transform="translate(-459.37 -143)"/><path class="cls-5" d="M646.41,218.61c-7-4.79-19.92,0-26.37,3-5.82,3-20.27,11-15.13,17.22,4,5,16.53-3,19.88-4.79,6.92-4.17,17.06-7.91,22-13.13A1.6,1.6,0,0,0,646.41,218.61Z" transform="translate(-459.37 -143)"/><path class="cls-5" d="M817.34,225a14.29,14.29,0,0,0-2-2.52,2.94,2.94,0,0,0,.39-1c1.48-12.53-25.79-24-41.33-22.19-5.48.61-5.21,5.83-1.48,7.58,6.7,3.3,14.23,5.3,20.76,9l.17.09a7.28,7.28,0,0,0-3.78,2.44c-1.7,1.83-1.44,3.91-.22,5.74a21.28,21.28,0,0,0,1.87,5.48,14.22,14.22,0,0,0,8.48,7,8.71,8.71,0,0,0,5.57,0,6,6,0,0,0,1.13-.52,13.6,13.6,0,0,0,6.57-.95C819,233,819.69,228.61,817.34,225Z" transform="translate(-459.37 -143)"/><path class="cls-5" d="M883.34,396.37c-4.4-4-12-2.52-12.92,2.52-1.13,5.57.65,11.4-.3,17.14-.35,2.44-.83,5-1.4,7.49-.65,3.13-.39,6.53-1.22,9.49-.73,2.25,3.35,4.43,5.88,2.43,3.52-2.79,7-4.35,9.57-7.74a27.72,27.72,0,0,0,5-9.92C889.65,411,889.48,402,883.34,396.37Z" transform="translate(-459.37 -143)"/><path class="cls-5" d="M756.3,566.3c-6.52-3-15.92-1-22.71.52-8.65,1.92-17.13,4.18-25.58,6.44-3,.87-4.48,4.17-1,5.39a57.67,57.67,0,0,0,29.41,2.27c8.09-1.48,20-5.13,21.62-11.66A2.46,2.46,0,0,0,756.3,566.3Z" transform="translate(-459.37 -143)"/><path class="cls-5" d="M607.12,543.25a49.92,49.92,0,0,0-15.27-13.84c-4.35-2.61-10-.09-9.09,3.74,1.26,6.27,8.27,13,16.62,15.49C604.51,550.21,609.65,547.07,607.12,543.25Z" transform="translate(-459.37 -143)"/><polygon class="cls-5" points="48.17 342.12 48.17 342.12 48.09 342.03 48.17 342.12"/><path class="cls-5" d="M507.46,485Z" transform="translate(-459.37 -143)"/><path class="cls-5" d="M515.29,482a10.76,10.76,0,0,0-.31-1.66,9.36,9.36,0,0,0-1.65-3.21,10.86,10.86,0,0,0-4.48-3.49c-.18-.08-.26-.34-.48-.43-2-1.48-4.92.09-4.57,1.91a7.31,7.31,0,0,0-.08,4.35A11.37,11.37,0,0,0,505,483a9.84,9.84,0,0,0,.78.87,3.16,3.16,0,0,0,1.66,1.21c2.69,1.48,6,1,7.26-1.3a.69.69,0,0,0,.09-.26A3,3,0,0,0,515.29,482Z" transform="translate(-459.37 -143)"/><path class="cls-5" d="M492.84,343.55c-.83-2.34-5.13-2.34-6.87-.6a16.19,16.19,0,0,0-1.31,21.92c1.31,1.66,4.27,1,5-.43C493.1,358.17,495.1,350.17,492.84,343.55Z" transform="translate(-459.37 -143)"/><path class="cls-5" d="M907.83,394.8a1.87,1.87,0,0,1-.44.27C908.27,394.63,908.18,394.63,907.83,394.8Z" transform="translate(-459.37 -143)"/><path class="cls-5" d="M910,378c-4.17-1.22-8.69-.17-11.13,2.53a21,21,0,0,0-3.91,5.82c-.44,1.05-.35,3.05-.18,1.31a10.64,10.64,0,0,0-.08,3.74c-.27-1.65-.09.26.26,1a12.56,12.56,0,0,0,1.22,1.82c1.3,1.83,4.34,2.36,7,2a7.41,7.41,0,0,0,3-.7c.17-.08,1.22-.51,1.74-.78s.87-.52,1.31-.69c.52-.44.52-.52,0-.17-1.22.43-.78.17,1.39-.88a4.37,4.37,0,0,0,1.57-1.57,16.56,16.56,0,0,0,3-6.08C916.1,382.27,914.36,379.23,910,378Z" transform="translate(-459.37 -143)"/><path class="cls-5" d="M604.34,193.55a54,54,0,0,0-10.87,4c1.39-1.47,1.91-3,3.13-5.05,1.78-2.69-.18-6.78-5.4-6.43-5.48.17-9.22-.09-14.05,2.34a78.07,78.07,0,0,0-10.14,6.1c-6.52,4.87-12.18,11-11.74,17.84.39,5.39,9.22,6.52,13.52,2.61,4.27-4.09,8-8.09,13.84-11.23,2-1.13,4.14-2.26,6.26-3.31a20.9,20.9,0,0,0-5.78,7.84c-1.78,3.83,3.83,7.39,9,6.44,3.73-.79,7.82-1.57,11.09-3s6.22-2.87,9.48-4.18C623.7,203.82,615.87,190.68,604.34,193.55Z" transform="translate(-459.37 -143)"/><path class="cls-5" d="M622.83,166.66a22.61,22.61,0,0,0-10.31,2.87c-1,.7-1.31.79-.74.53.35-.18.35-.18-.09.09a6.25,6.25,0,0,0-1.47.69,20.67,20.67,0,0,0-2.61,1.39c-.18.09-2.45,2.09-1.31,1.13-2.35,2-3.48,4.88-1.31,7.14s5.48,3.05,9.32,2.61c-1.88.26,1.56-.09,1.73-.09a18.31,18.31,0,0,0,3.44-1c1.3-.43,2.52-.77,3.74-1.3,3.52-1.66,6.7-3.56,7.92-6.44C632.62,170.5,628.36,166.66,622.83,166.66Z" transform="translate(-459.37 -143)"/><path class="cls-5" d="M801.55,261.42c-.13-.35-.22-.78-.31-1.13.39,1.48-.17-.87-.26-1.13a13.57,13.57,0,0,0-1.87-3.05c1.22,1.57-.26-.53-.65-1a10.19,10.19,0,0,0-2.05-1.83,12.83,12.83,0,0,0-4.3-2.44,32.88,32.88,0,0,0-8.44-2.26c-4.57-.52-9.7.43-12,3.48-2,2.7-2.13,7,1.69,9a36.88,36.88,0,0,0,5.1,2.61c.91.35,1.87.52,2.78.79a3.8,3.8,0,0,1,1.39.43.94.94,0,0,0,.48.08,4.05,4.05,0,0,0,.92.26h0a10.83,10.83,0,0,0,1.78.18c0,.09.17.09.3.17a14.13,14.13,0,0,0,1.39.78c.44.27,1.18.79,1.09.71.66.43,1.7,1.39,2.79,2,3,1.48,7,1.05,9-1.22A7.49,7.49,0,0,0,801.55,261.42Z" transform="translate(-459.37 -143)"/></g><g class="cls-6"><path class="cls-2" d="M583.5,303.36c-14.92,1.91-19.57,12.87-22.06,22-1,3.74,2.7,7.66,7.44,8.88a6.29,6.29,0,0,0,1.48,1.3,18.92,18.92,0,0,0,1.39,6.09c1.13,2.87,3.35,8,8.57,8.44a6.67,6.67,0,0,0,6.79-4.43c2-4.88,1.48-10.19,3.35-15,.74-2.18-.18-4.53-2.13-6.27a28.62,28.62,0,0,1,1.57-3.83c1.3-2.52.47-4.69-1.48-6.26.82-1.3,1.78-2.52,2.69-3.82C593.9,306.58,589.24,302.74,583.5,303.36Z" transform="translate(-459.37 -143)"/><path class="cls-2" d="M824.69,422.91c-4.09-4.78-12.66-.69-16.57,2.18-3,2.26-5,5-8.18,7.21-3,2-6.79,3.14-10.05,4.88-3.7,2-5.31,6.87,0,8.61,9.4,3,19.44-.26,26.45-5C822.56,436.57,830.09,429.09,824.69,422.91Z" transform="translate(-459.37 -143)"/><path class="cls-2" d="M831.13,394.28a5.73,5.73,0,0,0-5.31,0c-6.61,4.26-8.17,10.62-8.66,16.8-.25,3-.25,12.35,7,12.09,8.83-.26,12.31-6.87,13.13-12.09A17,17,0,0,0,831.13,394.28Z" transform="translate(-459.37 -143)"/><path class="cls-2" d="M822.39,340.59c-3.43-5.73-9.88-12.61-18.8-14.52-1.52-.27-3.35.17-4.09,1.13-3.43,4.79-1.52,10.52.09,15.49,1.83,5.65,3,11.48,5.39,17.14,1.79,4.09,10.14,6.26,14.49,2.61C827.7,355.82,827.13,348.42,822.39,340.59Z" transform="translate(-459.37 -143)"/><path class="cls-2" d="M739.38,274.82c-2,.08-3.56,1.21-3,2.69,1.78,4.88,7.35,9,11.44,12.89,4.57,4.43,8.31,9.65,13.79,13.56,3.61,2.53,9.4,1.23,11-2.08C778.84,289,757.78,273.6,739.38,274.82Z" transform="translate(-459.37 -143)"/><path class="cls-2" d="M608.26,237.4c-8.32,1-15.28,4.44-21.32,8.45-6.44,4.25-12.49,9.48-14.62,15.66-1.7,4.7-2.44,10.87,3,14.52a5.46,5.46,0,0,0,5,.44c2.79-1,4.39-2.43,6.4-4-3,2.43,3-1.92,4-2.79,4.26-3.39,7.7-7.4,12.1-10.78a43.62,43.62,0,0,1,12.53-7c3.91-1.48,11.83-2.61,11.44-7.05C626.49,238.45,615.78,236.45,608.26,237.4Z" transform="translate(-459.37 -143)"/><path class="cls-2" d="M599.29,484.68c-9.39-6.78-13.4-14.79-19.62-22.88-1.3-1.57-4.18-1.31-5.48,0-7.92,7.4-5,18.28.74,25.93a42.64,42.64,0,0,0,13.23,11.4c4.52,2.53,13.48,4.7,19.27,2.61C618.17,497.65,604,488,599.29,484.68Z" transform="translate(-459.37 -143)"/><path class="cls-2" d="M611.78,430.91c-3.74-5.74-6.7-11.57-10.87-17.14-2-2.61-8.67-3-10.54,0-4.65,7.48-5.48,15.92-1.13,23.75s13,17.4,26.8,15.41a6.24,6.24,0,0,0,5.71-5.22C622.74,441.53,615.3,436.22,611.78,430.91Z" transform="translate(-459.37 -143)"/><path class="cls-2" d="M738.34,471.37c-8-4.26-19.45-2.61-27.28.7-2,1-4,2-5.92,2.87-.21-.52-.3-1.05-.48-1.65-.86-3.22-6.61-6.61-11.57-6.1-9.39.71-17.83,3.14-24.53,8-4.83,3.49-1,8.62,5.3,9.14a42.23,42.23,0,0,0,6.62-.35,29.56,29.56,0,0,0-.13,3.39c0,5.4,6,8.62,13.14,9.22,17.13,1.48,34.32-9.39,46.54-16.52C744.3,477.64,742.08,473.2,738.34,471.37Z" transform="translate(-459.37 -143)"/><path class="cls-2" d="M740.56,516.27c-8-4.26-19.45-2.52-27.24.78-2,1-4,2-6,2.87-.21-.52-.3-1.13-.48-1.65-.82-3.21-6.61-6.61-11.53-6.17-9.39.77-17.87,3.21-24.57,8.09-4.83,3.47-1,8.69,5.3,9a54.28,54.28,0,0,0,6.62-.26c-.09,1.14-.09,2.27-.09,3.31,0,5.57,6,8.7,13.1,9.22,17.22,1.48,34.36-9.39,46.54-16.44C746.52,522.53,744.3,518.27,740.56,516.27Z" transform="translate(-459.37 -143)"/><path class="cls-2" d="M829.91,497.48c-2.52-2.09-7.35-2.35-10.61-1.05-7.44,3.13-9.31,9.74-11.27,15.31-1.82,5-4.09,6.88-9.1,9.31-5.69,2.79-11.83,6.53-14.79,11-2.34,3.48-3.26,10.35,3.53,11.57,5.13,1,12.36-1.05,17.31-1.74,8.09-1.3,15.19-3.74,20.76-8.09C836.79,525.23,841.92,506.61,829.91,497.48Z" transform="translate(-459.37 -143)"/><path class="cls-2" d="M761.7,577.7c-8.48-5.13-20-5.13-30.71-4.44-12.1.87-22.71,2.35-32.94,7.22-4.56,2.35-5,7,0,9.22,10.88,4.71,21.88,4.71,34.15,3.32,10.23-1.13,22.32-2.79,29.5-8.36C764,582.74,764.57,579.62,761.7,577.7Z" transform="translate(-459.37 -143)"/><path class="cls-2" d="M526,331.46c-.39-3.48-3.09-6.17-8-7.31-14.05-3.3-26.36,7.66-29.62,16.1-2.87,7.31-.53,16.7,6,22.8,2.7,2.61,8.31,3.91,11.83,1.13,5.87-4.62,7.83-10.27,10.4-15.92a23,23,0,0,1,3.83-6.1C523.2,338.86,526.46,335.55,526,331.46Z" transform="translate(-459.37 -143)"/><path class="cls-2" d="M505.32,417.69c-.74-4.27-7-8.09-13.22-5.31-13.71,6.17-9.48,25.49,2.22,31.84a6,6,0,0,0,5-.51c5.31-3.4,5.22-8.09,5.4-12.8C505,426.65,506.06,422,505.32,417.69Z" transform="translate(-459.37 -143)"/><path class="cls-2" d="M877,380.71c-1.22-7.57-6.83-18.45-19.27-19.93-4.14-.43-7.58.79-9,3.66-2.78,5.4-.17,13,.18,18.53s2.27,14,8.79,17.92a7.9,7.9,0,0,0,6.48.61C873.77,398.11,878,387.58,877,380.71Z" transform="translate(-459.37 -143)"/><path class="cls-2" d="M930,340.68c-1.22-7.65-6.78-18.53-19.14-19.92-4.18-.44-7.58.78-9,3.56-2.66,5.4-.17,13,.26,18.63s2.27,14,8.79,17.83a7.57,7.57,0,0,0,6.44.61C926.8,358,931.07,347.56,930,340.68Z" transform="translate(-459.37 -143)"/><path class="cls-2" d="M907.57,407.68c-7.48-2.26-14.27.44-15.31,6.18-.83,5.13,2.26,10.18,1.7,15.23-.48,5.22-3.83,12.1,2,17.57a2.11,2.11,0,0,0,.35.44A.51.51,0,0,1,896,447c-10.22-1.13-16.1,4.44-20.49,10-1.48,1.82-2.78,3.65-4.26,5.39-.66.78-1.31,1.48-2,2.26a3.64,3.64,0,0,1-.31.53c-3.87,1.73-5.74,4.87-4.61,8,1.48,4.18,6.4,6.35,11.88,6.88,12.66,3.21,22.36-6.53,25.66-13.66a23.24,23.24,0,0,0,2.45-9.05,11.83,11.83,0,0,0-2.45-7.23,16.17,16.17,0,0,0,10.71-.35C932.37,442.4,927.06,413.6,907.57,407.68Z" transform="translate(-459.37 -143)"/><path class="cls-2" d="M844,278.64c-4.75-7.48-14.45-17.13-27.46-15.65-2.21.17-4.74,2-5,3.56-1.45,6,2.69,11.14,5.39,16.8a59.58,59.58,0,0,1,3.69,8.87c.18.79.4,1.39.57,2,.48,1.91-.82-3,.26,1,.09.52,1.13,5,.79,2.43.82,6.18,8.83,9.75,17,6.87C853.36,299.71,849.1,286.74,844,278.64Z" transform="translate(-459.37 -143)"/><path class="cls-2" d="M741,192.94s-.18-.09-.18-.17a14,14,0,0,0-6.7-4.87c-7.74-3-17.4.34-18.35,6.52v.18a7.05,7.05,0,0,0-1.09,1.39,8.69,8.69,0,0,1-1,.78c-2.87,1.65-4.91,5.57-4.74,8.09a9.89,9.89,0,0,0,3.53,7c5.13,4.61,13.61,5.49,21,2.88,5.66-1.92,10.4-6.44,11.79-10.71S744.86,195.81,741,192.94Z" transform="translate(-459.37 -143)"/><path class="cls-2" d="M690.61,172.41c-5.78-1.57-13.7.61-18.88,2.34-6.44,2.27-13.53,6.27-13,11.76.57,4.78,5.31,8.87,12.48,8.87a21.24,21.24,0,0,0,7.53-1.31,19.88,19.88,0,0,0,3.09-1.74,8,8,0,0,1,1.3-.61c.61-.26,4.66-2.18,4.44-2.43a.09.09,0,0,0,.09-.09c.87-.35,1.7-.87,2.44-1.21a23.14,23.14,0,0,0,2.22-1.48,14.59,14.59,0,0,0,5.22-5.4C699.8,177.28,695.18,173.8,690.61,172.41Z" transform="translate(-459.37 -143)"/><path class="cls-2" d="M656.24,157.79c-8.52,2.52-14.23,6.35-17.83,12.44-2.36,3.92-6,9.4-4.23,13.67a4.46,4.46,0,0,0,3.26,2.34c10.62,1.48,23-7,31-10.79,6.31-3,18.88-5.57,19.23-12C688.27,152.66,664.64,155.35,656.24,157.79Z" transform="translate(-459.37 -143)"/><path class="cls-2" d="M520.68,274c-11.18-7.32-27.93,4.26-33.06,11-6,7.75-8.66,20,1.52,26.89,3.35,2.35,8.35,2.09,11.7,0,7.62-5,7.27-13,11.1-19C515.16,288,529.34,279.77,520.68,274Z" transform="translate(-459.37 -143)"/><path class="cls-2" d="M530.34,481.64c-3.44-6.18-3.61-11.84-4.57-18.27-.74-5-9.22-8.45-14.79-4.36-17.88,13.23-3.44,40,20.19,44.29,2.73.44,5.69-.95,5.61-2.95C536.39,493.74,533.78,487.82,530.34,481.64Z" transform="translate(-459.37 -143)"/><path class="cls-2" d="M878.21,532.11c-12.27,7.39-26,22.44-22.8,34.28.39,1.56,2.69,2.61,4.74,2.61,21,.43,35.94-19,35.85-31.76C896,530.54,884.91,528.1,878.21,532.11Z" transform="translate(-459.37 -143)"/><path class="cls-2" d="M711.45,610.77c-5.48-6-15-10.1-25.06-11.49a55.32,55.32,0,0,0-6.65-.69c-1.44-.18-5-1.22-4.31-.27-1.13-1.13-1.87-2.52-3.26-3.57a19.24,19.24,0,0,0-4.83-3,5.76,5.76,0,0,0-1.31-3.58,2.18,2.18,0,0,0-.65-2.52c-4-3.39-8.31-6.7-12.66-9.83,3.43-.08,6.78-.17,9.79-.26,17.4-.17,16.84-19.75.35-18.79a60.56,60.56,0,0,0-6.87,0c-2.14-.17-4.27-.26-6.45-.61-4.74-.61-5.17-.87-8.18-3.48-4.82-4.18-14.05-2.52-17.88,1.48a13.61,13.61,0,0,0-1.48-1.14c-2.38-1.64-4.57-3.56-6.87-5.22-2-1.48-5.4-3-7.09-4.52-2.61-2.61-8.27-1.83-8.52,1.57-.14,2.35-1.23,4.61-1.06,7.13a24.57,24.57,0,0,0,2.61,8.79A30.61,30.61,0,0,0,606,568a16.94,16.94,0,0,0-2.31,1.92,34.58,34.58,0,0,0-7.91,2.34c-4.57,1.48-9.31,3.83-9.22,7.58.08,2.17,2.13,3.74,4.39,4.87a21.94,21.94,0,0,0,2.69,1.13,22.88,22.88,0,0,0,4.66,1.13c7.14,1.21,14.49,1.56,21.19-1.13a14.34,14.34,0,0,0,6.18-4.27,81.71,81.71,0,0,0,20.84,6.61,7.12,7.12,0,0,0-1.3,2.7c-.66,3.49,2.29,7.58,7.44,8.36-6.45,3.31-8.18,10.27-4.36,15.14,3.22,4.09,9.66,6.35,16,7.3a170.19,170.19,0,0,0,20.24,1.48c2.7.18,5.39.35,8.09.44h.26a2.61,2.61,0,0,0,.83.09,1.46,1.46,0,0,0,.65.26h0a1,1,0,0,1,.39.18C705.49,627.91,718.15,618.25,711.45,610.77Z" transform="translate(-459.37 -143)"/></g><path class="cls-7" d="M818.56,309.79c-.09-1.74-1.22-3.73-3.74-5.39-4.44-2.87-9.4-6.26-15.62-7s-12.84,2.7-10.79,7.58a21,21,0,0,0,4.48,6.17,7.06,7.06,0,0,0,3.05,4.61c6.34,4.61,12.57,9.92,20.48,13.14,2.62,1.13,6-.26,6-2.35C822.39,320.67,821.74,314.93,818.56,309.79Z" transform="translate(-459.37 -143)"/><path class="cls-7" d="M588.5,381.05a5.23,5.23,0,0,0-3.08-4.43c-1.57-1.48-4.83-1.83-7-1,.74-.09,1.4-.09,2.14-.18-3.27.18-7.05,1.57-7.71,4.09-2.34,9.31,5.57,16.89,9.31,25.33,1,2.44,5.66,2.35,6.7,0C592.68,397,589.42,389.15,588.5,381.05Z" transform="translate(-459.37 -143)"/><path class="cls-7" d="M767.27,480.68c-.27-.43-.44-.78-.65-1-.44-1.57-2.31-2.7-4.45-3.22-6.61-2.35-11.91,1.48-16.39,4.52-4.27,3-7.27,6-7.79,10.27-.39,2.27,2.39,4.7,5.18,5.48a11.6,11.6,0,0,0,9.52-1.22c2.79-1.73,5.09-3.74,8-5.3a26.62,26.62,0,0,0,4.66-3,7,7,0,0,0,2.13-3.83A3.89,3.89,0,0,0,767.27,480.68Z" transform="translate(-459.37 -143)"/><path class="cls-7" d="M680.83,232.45c.9-3.66-2.7-8-8.18-9.32a.28.28,0,0,1,.08-.17,42.68,42.68,0,0,0-14.13.43,11.68,11.68,0,0,0-3.18.88,16.92,16.92,0,0,0-8,3.21c-2.13,1.66-2.61,4.44,0,6A9.82,9.82,0,0,0,650.5,235a4.89,4.89,0,0,0,.74,1c6.3,6.7,18,11.83,28.58,9.84,3.35-.62,5.18-2.7,5.4-5C685.48,237.93,683.52,234.71,680.83,232.45Z" transform="translate(-459.37 -143)"/><path class="cls-7" d="M818.64,283.08c-6.22-3.82-17.49-5.74-25.1-2.78-2.61,1.13-4.65,3.91-3.43,6.09,2.56,4.44,10.22,8.53,17.09,9.74,4.4,1.05,9.49-.17,12.27-2.7C822.73,290.56,822.82,285.69,818.64,283.08Z" transform="translate(-459.37 -143)"/><path class="cls-7" d="M703.27,189.72c-1.22-3-5.31-4.09-9.4-3.65-7.56.7-16.39,4.35-20.09,9a1.54,1.54,0,0,0,.35,2.36c7.09,3.83,16.48.69,23.83-1.05C701.88,195.64,704.36,192.68,703.27,189.72Z" transform="translate(-459.37 -143)"/><path class="cls-7" d="M890.69,432.74a7.26,7.26,0,0,0-1.61-2.26,11.78,11.78,0,0,0-10.39-2.7c-4.66.43-9.14,2.62-10,6a31,31,0,0,0-1.39,7.66c0,3,2,5.22,5,6.44a6.73,6.73,0,0,0,2.09,1.91,4.73,4.73,0,0,0,4.09.7,15.36,15.36,0,0,0,2.87-1c4.18-.43,8-2.26,9-5.91a22.87,22.87,0,0,0,1.18-6.61A5.79,5.79,0,0,0,890.69,432.74Z" transform="translate(-459.37 -143)"/><path class="cls-7" d="M879.6,461.89h0c4-2.88-.74-7.83-6.53-6-2.3.87-5.09,2-7.78,3.3a6.11,6.11,0,0,0-3.18-1.39,16.77,16.77,0,0,0-9.09.79,7.78,7.78,0,0,0-2.61,1.56,2.52,2.52,0,0,0-2,1.05,27.35,27.35,0,0,0-1.57,2.61c-1.21,1.9-2.52,3.56-3.82,5.3a13.75,13.75,0,0,0-3,3.22,5.55,5.55,0,0,0-1,2.78,17.12,17.12,0,0,0-1.7,3.83c-.65,1.83,1.14,3.31,3.75,3.4,6.95.43,15.13-2.35,20.84-5,3.52-1.74,10-5.48,9.78-9.06,1.31-1.13,2.88-2.34,2.88-3.74A38.84,38.84,0,0,0,879.6,461.89Z" transform="translate(-459.37 -143)"/><path class="cls-7" d="M896.48,490.6a4,4,0,0,0-2.83-3.65,11.75,11.75,0,0,0-8.44,0,12.43,12.43,0,0,0-3.57,1,17.8,17.8,0,0,0-6.13,4.09h.08a5.66,5.66,0,0,0-.65,6.7c2.09,3.38,7.44,5.48,12.58,4.44.74-.18,1.39-.44,2-.62a12.77,12.77,0,0,0,6.78-3.47,1.33,1.33,0,0,1,.48-.62C899.17,495.82,898.61,493,896.48,490.6Z" transform="translate(-459.37 -143)"/><path class="cls-7" d="M721.11,549.42a8.91,8.91,0,0,0-8.09-3.91c-2.61.26-5.13.43-7.62.7-3.91.42-7.08,3.74-6.87,6.35V553c-.3,2.7,2.39,5,6.05,5.65a2.69,2.69,0,0,0,.82.18c6.14,1.39,17.58,2.61,18.8-3.74C724.68,552.73,723.37,550.81,721.11,549.42Z" transform="translate(-459.37 -143)"/><path class="cls-7" d="M529.51,402.55a3.66,3.66,0,0,0-.83-2.09c0-.09.09-.26,0-.44a13.93,13.93,0,0,0-1.78-4.44c.18-.69.27-1.39.39-2.08a37.54,37.54,0,0,0-.83-10.1c-1.6-6.08-14.74-5.47-17,0a25,25,0,0,0-1.3,10.1,9.15,9.15,0,0,0,8.18,8.44h.12a3.2,3.2,0,0,0,.62.87c.56.44,1,.87,1.6,1.3a7.92,7.92,0,0,0,5.49,2.18A6.14,6.14,0,0,0,526,406c.17,0,.35.09.65.09,1.74,0,2.57-1.14,2.39-2.09A2.79,2.79,0,0,0,529.51,402.55Z" transform="translate(-459.37 -143)"/><path class="cls-7" d="M547.3,503.74c0-2-1.34-3.83-2.52-5.57a16.15,16.15,0,0,0-3.44-3.48A10.29,10.29,0,0,0,538,493c-1.52-.44-1.39-.44.09,0-.74-.18-1.61-.44-2.35-.61a10.59,10.59,0,0,0-8,1.47,4.78,4.78,0,0,0-2.22,4.36,2.77,2.77,0,0,0,.09,1.48,4.49,4.49,0,0,0,.56,1.65c.3.61.57,1.22.92,1.83.09.17.21.26.21.43.09,0,.09.18.18.27a15.61,15.61,0,0,0,2.69,3.91,11.83,11.83,0,0,0,3.27,2c.65.16,6.52,1.39,3.52.69a8.67,8.67,0,0,0,7.74-2.09A6.07,6.07,0,0,0,547.3,503.74Z" transform="translate(-459.37 -143)"/><path class="cls-7" d="M604,398.37c-3.62-2.79-9.31-.34-9.75,3-.3,1.65.35,3.31.53,5a11.42,11.42,0,0,0,1.52,4.87c1.74,3,8.57,2.7,10.48,0C609.65,407.25,608.17,401.68,604,398.37Z" transform="translate(-459.37 -143)"/><path class="cls-7" d="M561,296.22a6,6,0,0,0-.38-1.57c0-2.26-.44-4.43-2.7-6.17a6.84,6.84,0,0,0-5.75-1.13H552a162.77,162.77,0,0,0-7,4.09,10.69,10.69,0,0,0-1.87,2.35,3.92,3.92,0,0,0-.44.69h-.13c-.09.52-.65,3.31-.17,1.22a1.71,1.71,0,0,0-.09.43c-.57,2.7.39,5.66,1.65,8.18,1.05,2.18,4.22,3.14,7.09,2.1a17,17,0,0,0,8.57-6.53A5.14,5.14,0,0,0,561,296.22Z" transform="translate(-459.37 -143)"/><path class="cls-7" d="M832.13,224.78a9.19,9.19,0,0,0-6-3.74h0c-.56-.08-1.08-.26-1.65-.35.17,0,.26.09.44.09a11.41,11.41,0,0,0-3.44-.51,12.6,12.6,0,0,0-5.57,1.39c-2.79,1.47-4.57,4.52-3.35,6.87a7.75,7.75,0,0,0,4.65,4.26,10.12,10.12,0,0,0,2.14.61,11.73,11.73,0,0,0,5.7.27c.34-.09.82-.09,1.22-.18C831.57,232.79,834.09,228.1,832.13,224.78Z" transform="translate(-459.37 -143)"/><path class="cls-7" d="M621.35,545.42c-.83-.35-2-.87-3-1.31.09-.26.17-.52.25-.78a4.86,4.86,0,0,0-2.34-4.88,10.72,10.72,0,0,0-8-1.48,10.46,10.46,0,0,0-1.62.36,18.63,18.63,0,0,0-2.47.7,6.42,6.42,0,0,0-3.49,2.86,3.7,3.7,0,0,0-.43,3.66,6.22,6.22,0,0,0,4,3.39,9.21,9.21,0,0,0,4,.79,14.42,14.42,0,0,0,2.78-.26c.17-.18.35-.18.57-.27a11.86,11.86,0,0,0,2.7.87c1.08.26,2.12.79,3.26,1,1.65.26,3.52-.17,4.34-1.21a5.09,5.09,0,0,0,.4-.71A2.24,2.24,0,0,0,621.35,545.42Z" transform="translate(-459.37 -143)"/><path class="cls-7" d="M898.7,454a4.7,4.7,0,0,0-2.52-3.48c-1-1.3-2.88-1.74-5-1.48a20.46,20.46,0,0,0-3.35,1.05c-2,.78-2.7,2.61-1.87,4,.18.17.26.35.43.52a2.66,2.66,0,0,0,3.1,1.31,6.5,6.5,0,0,0,1.87,0h0l-.09-.09a.31.31,0,0,0,.17.09h.09a4.4,4.4,0,0,1,.74.25c.22.09.39.09.3.09.18,0,.27.09.35.09a6.12,6.12,0,0,0,1.13.35,9,9,0,0,0,1.57.35c1.7.17,3-.53,3.18-1.74A2.35,2.35,0,0,0,898.7,454Z" transform="translate(-459.37 -143)"/><path class="cls-7" d="M891.43,455.89Z" transform="translate(-459.37 -143)"/><path class="cls-7" d="M880,301.35c-.74-1.73-2.52-5-5.48-5.31a5.74,5.74,0,0,1-1-.69l-.08-.26a6.05,6.05,0,0,0-.92-1.83.31.31,0,0,0-.09-.17c-.13-.43-.22-.78-.3-1-1.18-2.69-6-3.65-8.92-1.56a4,4,0,0,0-1.87,2.78c-.57.17-.74.7-.17,1.14l.09.08c.25,2.53,2.78,5,6.3,5.48.87,1,1.79,1.74,2.74,2.61,1.26,1.23,2.48,3.05,4.83,3.4a1,1,0,0,0,1-.27c1.79,0,3.44-.95,2.78-2.34C879.9,302.92,880.33,302.32,880,301.35Z" transform="translate(-459.37 -143)"/><path class="cls-7" d="M619.48,186.24a34.33,34.33,0,0,0-10.4,5,3.19,3.19,0,0,0-.82,1c-1.79,1.13-3.18,2.44-3.27,3.92,0,.43.57.78,1.09.86a9.9,9.9,0,0,0,4.31-.78,4.59,4.59,0,0,0,5-.61c2.78-1.57,6.36-2.78,9-4.61C627.48,188.68,623.48,184.67,619.48,186.24Z" transform="translate(-459.37 -143)"/><path class="cls-7" d="M545.22,274.47c-3.61,3.39-7.05,8.18-6.57,12.62.08.52.43.77,1,.86a3.47,3.47,0,0,0,4.57.53c.65-.53,1.39-1.13,2-1.74,1.39.08,2.7-.61,2.87-1.74,0-.7-.26-1.22,0-1.92a6,6,0,0,0,.74-1.83.86.86,0,0,0-.43-.95c.82-1,1.65-2,2.48-3.14C554.35,274,548.13,271.68,545.22,274.47Z" transform="translate(-459.37 -143)"/><path class="cls-7" d="M570.62,256.55c-2.13-.09-4.09.95-5.74,1.82a25.82,25.82,0,0,0-5.13,3.4,2.19,2.19,0,0,0,.17,3.65c.87,1.74,4.78,2.7,6.61.53,1.05-1.13,2.14-2.36,3.27-3.58a1.76,1.76,0,0,0,.3-2.43,5.37,5.37,0,0,0,1.74-2.35C572,257.15,571.49,256.55,570.62,256.55Z" transform="translate(-459.37 -143)"/><path class="cls-7" d="M897.57,420.56v-.09c.83-1.65-.09-3.65-.92-5.22-1.69-3.39-8.65-2-7.57,1.4a28.87,28.87,0,0,1,1.14,7.05c.21,2.95,6,3.65,7.17.78a7,7,0,0,0,.18-3.66Z" transform="translate(-459.37 -143)"/><polygon class="cls-7" points="422.84 172.89 422.84 172.89 422.75 172.89 422.84 172.89"/><path class="cls-7" d="M882.21,315.89c.39.25.57.34,0,0Z" transform="translate(-459.37 -143)"/><path class="cls-7" d="M887.17,313.28a14.68,14.68,0,0,0-1-1.65,2,2,0,0,0-.43-.53s-.39-.6-.22-.26a3.44,3.44,0,0,0-3.92-1.56c-1.39.25-2.61,1.3-2.39,2.35a1.44,1.44,0,0,0,.35,1.56,7.63,7.63,0,0,1,.87,1h.09a1.42,1.42,0,0,0,.47.78,4.59,4.59,0,0,0,.74.7,2.48,2.48,0,0,1,.35.26v-.09a4.34,4.34,0,0,0,2.7.52,5.07,5.07,0,0,0,1.56-.61,1.87,1.87,0,0,0,.88-1.65A2.29,2.29,0,0,0,887.17,313.28Z" transform="translate(-459.37 -143)"/><path class="cls-7" d="M518.16,507.3c-2.52-3.56-4.18-7.3-7.18-10.61a3.11,3.11,0,0,0-1.57-1c-.08-.18-.08-.26-.17-.35a3.62,3.62,0,0,0-2.91-1.82,2,2,0,0,0-1.87.26c-1.48.34-2.61,1.39-2.22,2.86a9.75,9.75,0,0,0,1.21,3.31c.83,3.57,3.35,7,6.44,9.75.09.34.26.6.35.87.48,1.39,2,2,3.65,2a2.67,2.67,0,0,0,3.23-.87,1.77,1.77,0,0,0,1-1.74A2.12,2.12,0,0,0,518.16,507.3Z" transform="translate(-459.37 -143)"/><path class="cls-8" d="M937.77,390A225.9,225.9,0,0,1,903,530.11c-5.3,8.34-6.7,17.4-13,25-7.17,8.62-19.44,15.66-27.84,23.24S846,600,836.7,606.41c-17.23,11.84-37,14.45-56.86,21.58a234,234,0,0,1-79.27,14c-54.47,0-104.63-19.49-144.65-52.3-13.57-11.13-22.14-26.27-33.2-40.28-10-12.79-23-24.19-30.53-39A262.4,262.4,0,0,1,463.34,390c0-23.23-7.44-44.81-1.95-66.21,4.83-18.54,22.14-37.25,30.62-53.86C532.21,191.46,611.86,143,702,143c28.19,0,50,4.17,72.86,14.79C802.28,170.41,828,186.85,847.71,211,883.52,255.07,928.19,278.38,937.77,390Z" transform="translate(-459.37 -143)"/></g></g></svg>