<?xml version="1.0" encoding="iso-8859-1"?>
<!-- Generator: Adobe Illustrator 19.0.0, SVG Export Plug-In . SVG Version: 6.00 Build 0)  -->
<svg version="1.1" id="Capa_1" xmlns="http://www.w3.org/2000/svg" xmlns:xlink="http://www.w3.org/1999/xlink" x="0px" y="0px"
	 viewBox="0 0 366.902 366.902" style="enable-background:new 0 0 366.902 366.902;" xml:space="preserve">
<g>
	<g>
		<g>
			<path d="M121.864,215.502c-7.39,0.042-14.465,3.004-19.68,8.24c-0.027,0.027-0.055,0.055-0.082,0.082
				c-10.912,10.957-10.875,28.686,0.082,39.598c0.027,0.027,0.055,0.055,0.082,0.082c10.957,10.912,28.686,10.875,39.598-0.082
				c0.027-0.027,0.055-0.055,0.082-0.082c10.912-10.957,10.875-28.686-0.082-39.598
				C136.571,218.427,129.366,215.459,121.864,215.502z M131.611,253.846c-5.721,5.492-14.811,5.307-20.304-0.414
				c-5.492-5.721-5.307-14.811,0.414-20.304s14.811-5.307,20.304,0.414h-0.04c2.631,2.707,4.084,6.345,4.04,10.12
				C135.978,247.511,134.387,251.18,131.611,253.846z"/>
			<path d="M107.525,104.761c7.555-7.566,7.545-19.824-0.021-27.379c-3.591-3.617-8.463-5.673-13.56-5.72l0.04-0.16
				c-5.231,0.004-10.238,2.125-13.88,5.88c-0.007,0.007-0.014,0.014-0.021,0.021c-7.555,7.566-7.545,19.824,0.021,27.379
				c0.007,0.007,0.014,0.014,0.021,0.021c7.566,7.555,19.824,7.545,27.379-0.021C107.511,104.775,107.518,104.768,107.525,104.761z
				 M97.944,95.102c-2.214,2.196-5.786,2.196-8,0c-2.196-2.214-2.196-5.786,0-8c2.214-2.196,5.786-2.196,8,0
				C100.141,89.316,100.141,92.888,97.944,95.102z"/>
			<path d="M128.665,117.182l-0.04-0.04c-7.376,0.052-14.434,3.013-19.64,8.24c-10.836,10.788-11.014,28.274-0.4,39.28l0.4,0.44
				c0.027,0.027,0.055,0.055,0.082,0.082c10.957,10.912,28.686,10.875,39.598-0.082c0.027-0.027,0.055-0.055,0.082-0.082
				c10.912-10.957,10.875-28.686-0.082-39.598C143.371,120.107,136.166,117.139,128.665,117.182z M138.785,155.422
				c-5.562,5.427-14.438,5.427-20,0l-0.32-0.28c-5.328-5.646-5.204-14.505,0.28-20c5.562-5.427,14.438-5.427,20,0l0.04,0.28
				C144.19,140.993,144.19,149.851,138.785,155.422z"/>
			<path d="M313.105,251.662l-30.88-30.88L63.504,2.222h0.28c-1.334-1.443-3.218-2.25-5.183-2.221
				c-3.821,0.056-6.874,3.2-6.817,7.021v352.96c0,3.822,3.098,6.92,6.92,6.92c95.238-0.063,186.571-37.861,254-105.12l0.4-0.36
				C315.789,258.722,315.789,254.361,313.105,251.662z M65.624,23.702l201.88,201.92c-54.498,52.091-126.51,81.912-201.88,83.6
				V23.702z M65.624,353.022v-29.96c79.02-1.723,154.533-32.958,211.68-87.56l21.16,21.04
				C235.752,316.848,152.611,351.299,65.624,353.022z"/>
			<path d="M214.745,202.542c-3.637-3.642-8.573-5.686-13.72-5.68l0.04,0.04c-5.141-0.016-10.077,2.013-13.72,5.64
				c-0.007,0.007-0.014,0.014-0.021,0.021c-7.555,7.566-7.545,19.824,0.021,27.379c0.007,0.007,0.014,0.014,0.021,0.021
				c7.566,7.555,19.824,7.545,27.379-0.021c0.007-0.007,0.014-0.014,0.021-0.021C222.32,222.355,222.311,210.097,214.745,202.542z
				 M205.025,220.302c-2.214,2.196-5.786,2.196-8,0c-2.196-2.214-2.196-5.786,0-8c2.214-2.196,5.786-2.196,8,0
				C207.221,214.516,207.221,218.087,205.025,220.302z"/>
		</g>
	</g>
</g>
<g>
</g>
<g>
</g>
<g>
</g>
<g>
</g>
<g>
</g>
<g>
</g>
<g>
</g>
<g>
</g>
<g>
</g>
<g>
</g>
<g>
</g>
<g>
</g>
<g>
</g>
<g>
</g>
<g>
</g>
</svg>
