<svg height="512" viewBox="0 0 512 512" width="512" xmlns="http://www.w3.org/2000/svg"><g><path d="m181.47 160.41a8 8 0 0 0 -5.467 7.8l8 304a8 8 0 0 0 7.997 7.79h128a8 8 0 0 0 8-7.789l8-304a8 8 0 0 0 -10.522-7.8c-12.338 4.095-48.075 12.245-65.037.935-26.95-17.966-76.86-1.639-78.971-.936zm82.53 19.9v243.69h-16v-251.309a26.157 26.157 0 0 1 3.562 1.965 45.212 45.212 0 0 0 12.438 5.65zm55.718-1.7-7.51 285.39h-112.416l-7.634-290.086c9.992-2.7 25.878-5.766 39.842-4.838v262.924a8 8 0 0 0 8 8h32a8 8 0 0 0 8-8v-249.1c14.785.83 29.9-1.927 39.718-4.3z"/><path d="m360 8h-112a16.019 16.019 0 0 0 -16 16v88h-72a8 8 0 0 0 -8 8.17l8 376a8 8 0 0 0 8 7.83h176a8 8 0 0 0 8-7.83l8-376a8 8 0 0 0 -8-8.17h-72v-56h80a8 8 0 0 0 8-8v-32a8 8 0 0 0 -8-8zm-23.832 480h-160.336l-7.66-360h175.656zm15.832-448h-80a8 8 0 0 0 -8 8v64h-16v-88h104z"/><circle cx="304" cy="200" r="8"/><circle cx="216" cy="232" r="8"/><circle cx="296" cy="296" r="8"/><circle cx="208" cy="184" r="8"/></g></svg>