<svg height="682pt" viewBox="-21 -90 682.66318 682" width="682pt" xmlns="http://www.w3.org/2000/svg"><path d="m360.191406 62.21875c.886719-5.75-3.625-11-9.636718-10.804688-4.683594.15625-8.449219 3.945313-8.976563 8.605469-.546875 4.847657-.496094 9.75.148437 14.589844.628907 4.71875 4.589844 8.464844 9.351563 8.429687 2.625-.019531 4.941406-1.078124 6.605469-2.742187 1.953125-1.953125 3.027344-4.746094 2.695312-7.6875-.390625-3.449219-.714844-6.953125-.1875-10.390625zm0 0"/><path d="m199.824219 175.25c6.875 0 6.800781-4.886719 14.816406-11.203125 4.566406-3.601563 4.882813-10.585937.207031-14.570313-3.457031-2.945312-8.59375-2.730468-12.140625.101563-3.875 3.105469-7.363281 6.683594-10.355469 10.648437-4.691406 6.203126-.191406 15.023438 7.472657 15.023438zm0 0"/><path d="m190.136719 211.746094c5.691406 0 10.027343-4.992188 9.308593-10.570313-.21875-1.714843-.332031-3.46875-.332031-5.210937 0-1.757813.113281-3.527344.339844-5.257813.667969-5.132812-2.960937-9.835937-8.09375-10.503906-5.128906-.667969-9.835937 2.957031-10.5 8.09375-.636719 4.917969-.675781 10.074219-.011719 15.269531.609375 4.730469 4.644532 8.179688 9.289063 8.179688zm0 0"/><path d="m264.875 164.070312c8.066406 6.375 7.941406 11.226563 14.816406 11.226563 7.667969 0 12.152344-8.824219 7.480469-15.019531-2.996094-3.972656-6.472656-7.554688-10.351563-10.660156-3.542968-2.835938-8.679687-3.050782-12.136718-.113282-4.679688 3.980469-4.367188 10.96875.191406 14.566406zm0 0"/><path d="m280.074219 191.097656c.386719 3.1875.402343 6.554688-.023438 9.933594-.507812 4.078125 1.4375 8.195312 5.1875 9.863281 1.40625.625 2.773438.90625 4.101563.90625 4.640625 0 8.671875-3.449219 9.285156-8.175781.636719-4.917969.675781-10.074219.003906-15.269531-.75-5.863281-6.78125-9.765625-12.699218-7.550781-4.121094 1.535156-6.375 5.921874-5.855469 10.292968zm0 0"/><path d="m528.496094 153.296875c-5.78125 0-10.339844 5.234375-9.199219 11.222656.847656 4.429688 4.902344 7.5625 9.410156 7.527344 16.5-.121094 29.667969-14.519531 27.726563-31.429687-1.636719-14.269532-14.152344-24.816407-28.523438-24.816407h-36.324218c-14.371094 0-26.886719 10.546875-28.523438 24.816407-1.941406 16.917968 11.242188 31.328124 27.753906 31.429687 4.25.03125 8.160156-2.742187 9.230469-6.859375 1.636719-6.277344-3.082031-11.921875-9.105469-11.890625-3.203125.019531-6.328125-1.378906-7.898437-4.179687-4.03125-7.210938 1.113281-14.566407 7.957031-14.566407h37.210938c4.433593 0 8.488281 2.941407 9.433593 7.273438 1.328125 6.082031-3.292969 11.472656-9.148437 11.472656zm0 0"/><path d="m579.570312 76.105469c-7.09375 1.554687-15.136718 2.058593-21.863281-.511719-9.566406-3.71875-10.097656-11.992188-27.289062-19.007812-15.65625-6.417969-34.835938-5.742188-50.824219 2.757812-9.289062 4.953125-16.828125 12.25-21.796875 21.136719v.015625c-4.089844 7.242187-11.871094 11.125-20.015625 10.179687l-92.1875-92.179687c-3.664062-3.664063-9.59375-3.664063-13.261719 0-8.710937 10.378906-19.390625 21.683594-25.074219 42.214844-15.234374-4.871094-31.550781-3.632813-45.09375 3.371093l-20.792968-20.800781c-18.636719-18.632812-50.460938-3.535156-47.855469 22.683594-21.355469-.125-42.238281 11.28125-52.519531 30.492187-1.609375 3-3.53125 5.578125-5.730469 7.65625-3.320313 3.144531-4.066406 8.328125-1.511719 12.125 1.875 2.785157 4.84375 4.191407 7.820313 4.191407 2.296875 0 4.601562-.839844 6.40625-2.535157 3.738281-3.496093 6.945312-7.734375 9.542969-12.582031 9.023437-16.855469 31.167968-24.992188 49.371093-18.136719 3.734375 1.402344 8.046875.289063 10.617188-2.914062 4.277343-5.351563 1.988281-9.820313-2.660157-14.464844-1.753906-1.757813-2.71875-4.109375-2.71875-6.628906 0-8.394531 10.132813-12.476563 15.980469-6.625l26.511719 26.507812v.003907c1.757812 1.757812 2.726562 4.113281 2.726562 6.632812 0 8.429688-10.039062 12.277344-15.800781 6.800781-3.734375-3.550781-9.535156-3.925781-13.253906-.355469-13.292969 12.785157 19.894531 33.132813 39.589844 13.441407 8.191406-8.195313 10.25-20.175781 6.222656-30.316407 9.195313-3.589843 20.085937-3.613281 29.902344.167969-2.03125 27.179688 7.308593 55.050781 28.046875 75.789063 7.851562 7.847656 16.734375 14.050781 26.210937 18.640625-6.191406 10.523437-14.53125 8.242187-25.953125 13.609375-12.195312-39.546875-49.070312-68.378906-92.574218-68.378906-42.527344 0-78.71875 27.558593-91.714844 65.746093-1.519532-10.664062-26.34375-21.371093-42.417969-5.304687l-26.515625 26.519531c-10.964844 10.960937-10.964844 28.808594 0 39.777344 1.832031 1.824219 4.230469 2.742187 6.628906 2.742187 2.929688 0 5.859375-1.363281 7.746094-4.085937 2.605469-3.742188 1.847656-8.789063-1.292969-12.09375-3.476562-3.671875-3.417969-9.484375.175781-13.082031l26.480469-26.476563c3.613281-3.617187 9.617188-3.867187 13.164063-.179687 3.746094 3.902343 10.097656 3.890624 13.792968-.308594-1.898437 7.566406-2.925781 15.476562-2.925781 23.621094 0 11.972656 2.207031 23.425781 6.203125 34.015624h-81.898437c-3.375-1.390624-6.726563-3.066406-10.96875-7.34375-5.925781-6.238281-8.875-15.0625-7.894531-23.597656 1.050781-8.894531-1.574219-21.71875-20.050782-32.300781-3.730468-2.121094-6.742187-5.371094-8.289062-8.988281-2.738282-6.226563-.421875-11.035156 2.007812-13.972656 3.757813-4.550782 11.238282-8.3125 19.523438-6.425782 15.171875 3.339844 28.054687.011719 36.179687-9.261718 4.660157-5.191407 12.136719-7.753907 19.980469-6.871094 7.890625.886718 14.660156 5.132812 18.148438 11.347656 2.203124 3.933594 6.976562 5.878906 11.234374 4.394531 5.679688-1.972656 7.96875-8.429687 5.191407-13.4375-6.40625-11.539062-18.546875-19.367187-32.464844-20.9375-13.863281-1.566406-27.332031 3.28125-36.113281 13.054688-4.484375 5.113281-12.324219 4.667969-18.058594 3.410156-14.078125-3.199219-29.023438 1.820313-38.082031 12.789063-7.933594 9.605468-9.695313 22.113281-4.75 33.375 3.140625 7.324218 8.902343 13.652343 16.195312 17.804687 11.574219 6.628906 10.933594 12.039063 10.722657 13.847656-1.488282 12.898438 2.5 26.160157 10.71875 36.160157-7.917969 3.039062-14.9375 8.257812-20.277344 15.308593-8.9375 11.8125-11.753906 26.761719-7.730469 41.027344 16.523437 58.578125 61.171875 109.652344 125.972656 144.292969 1.371094 17.265625 9 33.273437 21.679688 45.363281 13.339843 12.710937 30.785156 19.710937 49.136719 19.710937h221.652343c18.351563 0 35.796875-7 49.136719-19.710937 12.679688-12.085937 20.308594-28.085937 21.679688-45.347656 64.710937-34.582031 109.324218-85.585938 125.90625-144.085938 4.074218-14.355469 1.265624-29.398437-7.703126-41.257812-8.816406-11.660157-22.199218-18.347657-36.71875-18.347657h-188.960937c6.964844-24.113281 29.042969-41.25 55.035156-41.25h.046875c17.714844 0 34.175782 8.054688 45.167969 22.078126 1.785156 2.289062 4.488281 3.597656 7.398437 3.597656 3.847657 0 7.367188-2.308594 9.066407-6.46875 1.214843-2.960938.511719-6.363282-1.695313-8.679688l-.007812-.011718c-13.984375-17.910157-35.761719-29.265626-59.929688-29.265626-18.972656.015626-37.152344 7.050782-51.191406 19.816407-11.804688 10.746093-19.851562 24.789062-23.191406 40.179687h-56.71875c-.703125-2.871094-1.066406-5.820312-1.066406-8.816406-.023438-18.453125 13.457031-35.925781 31.492187-39.480469 17.9375-3.378906 31.121094-19.59375 31.121094-37.109375.199219-22.191406 23.558593-43.207031 49.605469-36.535156 22.640624 6.628906 42.085937-9.839844 44.839843-18.363281 12.050781-21.597657 45.4375-24.972657 61.433594-7.222657 12.144531 13.777344 30.007813 15.679688 48.066406 11.957032 19.128907-4.285156 37.601563 9.429687 37.601563 25.207031-.015625 3.507813-.972656 7.175781-2.136719 9.5625-6.417969 15.132813-19.277344 14.164063-31.863281 29.289063-4.011719 4.796874-8.789063 12.734374-8.75 23.246093 0 4.046875 1.402344 10.136719-.34375 18.628907-.925782 4.484374 1.628906 8.96875 5.925781 10.566406 5.382813 1.992187 11.289063-1.277344 12.433594-6.894532.851562-4.21875 1.289062-8.511718 1.289062-12.847656 0-8.476562-2.574219-12.753906 3.894531-20.753906 9.398438-11.4375 25.296876-12.34375 34.640626-33.8125v-.007812c2.433593-5.527344 3.660156-11.242188 3.660156-16.976563 0-28.492187-30.3125-50.285156-60.425782-43.503906zm-339.832031 41.734375c37.257813 0 68.476563 26.21875 76.246094 61.171875-11.460937 11.503906-17.632813 26.917969-17.648437 42.148437 0 2.972656.242187 5.917969.703124 8.816406h-10.878906c1.96875-4.246093.523438-9.519531-3.828125-12.054687-4.113281-2.398437-9.417969-1.109375-12.316406 2.675781-2.078125 2.714844-4.492187 5.167969-7.179687 7.285156-.777344.609376-1.425782 1.320313-1.953126 2.09375h-13.769531v-.949218c14.25-4.042969 24.761719-17.0625 24.996094-32.535156.074219-4.621094-3-8.871094-7.539063-9.730469-5.980468-1.128907-11.207031 3.425781-11.207031 9.199219 0 8.820312-7.347656 15.960937-16.246093 15.613281-8.03125-.3125-14.679688-6.960938-14.988282-14.996094-.347656-8.894531 6.792969-16.242187 15.609375-16.242187 4.570313 0 8.375-3.273438 9.203125-7.605469.054688.027343.117188.039062.171875.066406v-26.480469c0-4.789062-3.441406-9.082031-8.199219-9.660156-5.703124-.691406-10.550781 3.742188-10.550781 9.304688v16.933593c-14.40625 4.09375-25 17.363281-25 33.066407 0 15.703124 10.59375 28.972656 25 33.066406v.949218h-13.789062c-.554688-.824218-1.242188-1.570312-2.078125-2.210937-2.890625-2.210937-5.226563-5.042969-7.558594-7.839844-6.867188-8.238281-20.296875.101563-15.628906 10.050781h-21.863282c-25.125-51.621093 12.734376-112.136718 70.292969-112.136718zm343.394531 130.886718c8.59375 0 16.523438 3.976563 21.761719 10.90625 5.394531 7.132813 7.078125 16.191407 4.625 24.84375-15.390625 54.304688-57.726562 101.824219-119.300781 134.015626h-305.15625c-5.839844 0-10.46875 5.382812-9.152344 11.464843.945313 4.335938 5 7.285157 9.441406 7.285157h296.929688c-4.460938 24.144531-26.136719 42.734374-51.445312 42.734374h-221.65625c-27.828126 0-51.269532-22.46875-52.257813-50.101562-.007813-.332031 0-.796875-.015625-1.34375.15625-2.289062-.515625-4.414062-1.742188-6.117188-.074218-.105468-.144531-.21875-.230468-.328124-.03125-.042969-.066406-.078126-.101563-.117188-.175781-.222656-.371093-.441406-.582031-.65625-.109375-.113281-.234375-.222656-.351562-.328125-.117188-.101563-.226563-.210937-.351563-.3125-.648437-.539063-1.359375-.996094-2.136719-1.347656-62.539062-32.25-105.492187-80.199219-120.972656-135.050781-2.417969-8.5625-.726562-17.539063 4.640625-24.617188 5.253906-6.945312 13.203125-10.929688 21.804687-10.929688zm-203.960937-144.441406c-1.199219-5.449218-4.84375-5.042968-10.820313-12.800781-3.160156-4.101563-9.046874-4.863281-13.148437-1.707031s-4.863281 9.050781-1.703125 13.152344c3.03125 3.933593 6.652344 7.605468 10.792969 10.800781 1.609375 1.242187 3.492187 1.875 5.382812 1.945312-3.765625 5.886719-6.34375 12.140625-7.695312 18.953125-41.996094-23.816406-51.9375-79.121094-22.886719-116.121094l31.445312 31.445313c-2.835937 5.066406-4.355468 10.792969-4.355468 16.757813 0 9.1875 3.574218 17.8125 10.070312 24.308593 1.824219 1.832031 4.226563 2.742188 6.625 2.742188 8.28125 0 12.554688-10.078125 6.628906-16-3.363281-3.363281-5.121093-8.113281-4.402343-13.242188l24.320312 24.320313c-10.820312 2.007812-21.324219 7.121094-30.253906 15.445312zm0 0"/></svg>