<?xml version="1.0" encoding="iso-8859-1"?>
<!-- Generator: Adobe Illustrator 19.0.0, SVG Export Plug-In . SVG Version: 6.00 Build 0)  -->
<svg version="1.1" id="Capa_1" xmlns="http://www.w3.org/2000/svg" xmlns:xlink="http://www.w3.org/1999/xlink" x="0px" y="0px"
	 viewBox="0 0 480 480" style="enable-background:new 0 0 480 480;" xml:space="preserve">
<g>
	<g>
		<path d="M144,88h-32c-30.913,0.035-55.965,25.087-56,56v32c0.035,30.913,25.087,55.965,56,56h32c30.913-0.035,55.965-25.087,56-56
			v-32C199.965,113.087,174.913,88.035,144,88z M184,176c-0.026,22.08-17.92,39.974-40,40h-32c-22.08-0.026-39.974-17.92-40-40v-32
			c0.026-22.08,17.92-39.974,40-40h32c22.08,0.026,39.974,17.92,40,40V176z"/>
	</g>
</g>
<g>
	<g>
		<path d="M144,120h-32c-13.255,0-24,10.745-24,24v32c0,13.255,10.745,24,24,24h32c13.255,0,24-10.745,24-24v-32
			C168,130.745,157.255,120,144,120z M152,176c0,4.418-3.582,8-8,8h-32c-4.418,0-8-3.582-8-8v-32c0-4.418,3.582-8,8-8h32
			c4.418,0,8,3.582,8,8V176z"/>
	</g>
</g>
<g>
	<g>
		<path d="M440,56H40C17.92,56.026,0.026,73.92,0,96v288c0.026,22.08,17.92,39.974,40,40h400c22.08-0.026,39.974-17.92,40-40V96
			C479.974,73.92,462.08,56.026,440,56z M464,384c0,13.255-10.745,24-24,24H40c-13.255,0-24-10.745-24-24V96
			c0-13.255,10.745-24,24-24h400c13.255,0,24,10.745,24,24V384z"/>
	</g>
</g>
<g>
	<g>
		<path d="M144,248h-32c-30.913,0.035-55.965,25.087-56,56v32c0.035,30.913,25.087,55.965,56,56h32
			c30.913-0.035,55.965-25.087,56-56v-32C199.965,273.087,174.913,248.035,144,248z M184,336c-0.026,22.08-17.92,39.974-40,40h-32
			c-22.08-0.026-39.974-17.92-40-40v-32c0.026-22.08,17.92-39.974,40-40h32c22.08,0.026,39.974,17.92,40,40V336z"/>
	</g>
</g>
<g>
	<g>
		<path d="M144,280h-32c-13.255,0-24,10.745-24,24v32c0,13.255,10.745,24,24,24h32c13.255,0,24-10.745,24-24v-32
			C168,290.745,157.255,280,144,280z M152,336c0,4.418-3.582,8-8,8h-32c-4.418,0-8-3.582-8-8v-32c0-4.418,3.582-8,8-8h32
			c4.418,0,8,3.582,8,8V336z"/>
	</g>
</g>
<g>
	<g>
		<path d="M288,88h-48c-13.255,0-24,10.745-24,24v96c0,13.255,10.745,24,24,24h48c13.255,0,24-10.745,24-24v-96
			C312,98.745,301.255,88,288,88z M296,208c0,4.418-3.582,8-8,8h-48c-4.418,0-8-3.582-8-8v-24h64V208z M296,168h-64v-16h64V168z
			 M296,136h-64v-24c0-4.418,3.582-8,8-8h48c4.418,0,8,3.582,8,8V136z"/>
	</g>
</g>
<g>
	<g>
		<path d="M288,248h-48c-13.255,0-24,10.745-24,24v96c0,13.255,10.745,24,24,24h48c13.255,0,24-10.745,24-24v-96
			C312,258.745,301.255,248,288,248z M296,368c0,4.418-3.582,8-8,8h-48c-4.418,0-8-3.582-8-8v-8h64V368z M296,344h-64v-16h64V344z
			 M296,312h-64v-16h64V312z M296,280h-64v-8c0-4.418,3.582-8,8-8h48c4.418,0,8,3.582,8,8V280z"/>
	</g>
</g>
<g>
	<g>
		<path d="M400,88h-48c-13.255,0-24,10.745-24,24v96c0,13.255,10.745,24,24,24h48c13.255,0,24-10.745,24-24v-96
			C424,98.745,413.255,88,400,88z M344,112c0-4.418,3.582-8,8-8h12.688L344,124.688V112z M344,147.312L387.312,104H400
			c1.291,0.026,2.556,0.372,3.68,1.008L344,164.688V147.312z M408,208c0,4.418-3.582,8-8,8h-4.688L408,203.312V208z M408,180.688
			L372.688,216h-17.376L408,163.312V180.688z M408,140.688l-64,64v-17.376l64-64V140.688z"/>
	</g>
</g>
<g>
	<g>
		<path d="M421.6,261.72l0.056-0.064l-0.208-0.208c-2.336-4.735-6.169-8.568-10.904-10.904l-0.208-0.208l-0.064,0.064
			c-3.201-1.561-6.711-2.381-10.272-2.4h-48c-3.563,0.018-7.077,0.838-10.28,2.4l-0.064-0.064l-0.208,0.208
			c-4.731,2.336-8.56,6.165-10.896,10.896l-0.208,0.208l0.064,0.064c-1.566,3.205-2.389,6.721-2.408,10.288v96
			c0,13.255,10.745,24,24,24h48c13.255,0,24-10.745,24-24v-96C423.982,268.437,423.162,264.923,421.6,261.72z M396.688,264
			L376,284.688L355.312,264H396.688z M352,376c-4.418,0-8-3.582-8-8v-12.688L364.688,376H352z M408,368c0,4.418-3.582,8-8,8h-12.688
			L408,355.312V368z M408,332.688l-32,32l-32-32v-17.376l32,32l32-32V332.688z M408,292.688l-32,32l-32-32v-17.376l32,32l32-32
			V292.688z"/>
	</g>
</g>
<g>
</g>
<g>
</g>
<g>
</g>
<g>
</g>
<g>
</g>
<g>
</g>
<g>
</g>
<g>
</g>
<g>
</g>
<g>
</g>
<g>
</g>
<g>
</g>
<g>
</g>
<g>
</g>
<g>
</g>
</svg>
